<?xml version="1.0" standalone="no"?>
<!DOCTYPE svg PUBLIC "-//W3C//DTD SVG 1.1//EN" "http://www.w3.org/Graphics/SVG/1.1/DTD/svg11.dtd" >
<svg xmlns="http://www.w3.org/2000/svg" xmlns:xlink="http://www.w3.org/1999/xlink" version="1.1">
<metadata>
Created by FontForge 20170731 at Tue Nov  9 03:11:12 2021
 By Aleksey,,,
Copyright (c) 2017 by Timo Gaessner. All rights reserved.
</metadata>
<defs>
<font id="MaisonNeueExt-Light" horiz-adv-x="1474" >
  <font-face 
    font-family="Maison Neue Ext Light"
    font-weight="300"
    font-stretch="expanded"
    units-per-em="2048"
    panose-1="2 11 4 5 4 0 0 0 0 0"
    ascent="1638"
    descent="-410"
    x-height="1085"
    cap-height="1434"
    bbox="-1534 -614 5308 2042"
    underline-thickness="102"
    underline-position="-347"
    unicode-range="U+000D-FEFF"
  />
<missing-glyph horiz-adv-x="1415" 
d="M121 856q0 171 80.5 309t217 213.5t300.5 75.5q122 1 233.5 -44t193.5 -123.5t129.5 -191t45.5 -239.5v-866h-57l-134 133l-139 -133l-129 133l-145 -133l-142 133l-129 -133l-137 133l-135 -133h-53v866zM455 743l131 -129l28 29l-131 129l131 131l-28 29l-131 -131
l-129 131l-29 -29l129 -131l-129 -129l29 -29zM987 743l131 -129l29 29l-131 129l131 131l-29 29l-131 -131l-129 131l-29 -29l129 -131l-129 -129l29 -29z" />
    <glyph glyph-name="fi" unicode="fi" horiz-adv-x="1148" 
d="M1024 1436v-156h-164v156h164zM1012 1085v-1085h-125v981h-525v-981h-124v981h-193v104h193v119q0 105 60.5 163t176.5 58h213v-110h-205q-63 0 -92 -29.5t-29 -91.5v-109h650z" />
    <glyph glyph-name="fl" unicode="fl" horiz-adv-x="1157" 
d="M1012 1495v-1495h-125v981h-525v-981h-124v981h-193v104h193v119q0 105 60.5 163t176.5 58h213v-110h-205q-63 0 -92 -29.5t-29 -91.5v-109h525v410h125z" />
    <glyph glyph-name="W_W_W" unicode="WWW" horiz-adv-x="5349" 
d="M41 1434h135l295 -1250h4l486 1250h124l488 -1250h4l483 1250h127l488 -1250h4l483 1250h127l485 -1250h5l485 1250h127l485 -1250h4l293 1250h135l-333 -1434h-158l-488 1245h-4l-489 -1245h-121l-487 1245h-4l-490 -1245h-119l-489 1245h-4l-490 -1245h-119l-487 1245
h-4l-490 -1245h-155z" />
    <glyph glyph-name="w_w_w" unicode="www" horiz-adv-x="4362" 
d="M55 1085h125l262 -907h4l373 907h119l373 -907h4l373 907h118l373 -907h4l373 907h119l372 -907h5l372 907h119l373 -907h4l264 907h123l-320 -1085h-110l-391 950h-4l-392 -950h-81l-392 950h-4l-389 -950h-84l-391 950h-4l-389 -950h-84l-391 950h-4l-390 -950h-112z
" />
    <glyph glyph-name=".notdef" horiz-adv-x="1415" 
d="M121 856q0 171 80.5 309t217 213.5t300.5 75.5q122 1 233.5 -44t193.5 -123.5t129.5 -191t45.5 -239.5v-866h-57l-134 133l-139 -133l-129 133l-145 -133l-142 133l-129 -133l-137 133l-135 -133h-53v866zM455 743l131 -129l28 29l-131 129l131 131l-28 29l-131 -131
l-129 131l-29 -29l129 -131l-129 -129l29 -29zM987 743l131 -129l29 29l-131 129l131 131l-29 29l-131 -131l-129 131l-29 -29l129 -131l-129 -129l29 -29z" />
    <glyph glyph-name=".null" horiz-adv-x="0" 
 />
    <glyph glyph-name="nonmarkingreturn" horiz-adv-x="682" 
 />
    <glyph glyph-name="CR" unicode="&#xd;" horiz-adv-x="442" 
 />
    <glyph glyph-name="space" unicode=" " horiz-adv-x="561" 
 />
    <glyph glyph-name="exclam" unicode="!" horiz-adv-x="786" 
d="M326 1434h135v-1039h-135v1039zM289 205h209v-205h-209v205z" />
    <glyph glyph-name="quotedbl" unicode="&#x22;" horiz-adv-x="774" 
d="M201 1434h116v-435h-116v435zM457 1434h116v-435h-116v435z" />
    <glyph glyph-name="numbersign" unicode="#" horiz-adv-x="1742" 
d="M1251 942l-77 -440h335l-18 -105h-336l-70 -397h-114l69 397h-454l-70 -397h-115l70 397h-332l17 105h333l78 440h-334l17 102h336l69 390h115l-70 -390h455l70 390h114l-69 -390h334l-17 -102h-336zM1137 942h-455l-78 -440h455z" />
    <glyph glyph-name="dollar" unicode="$" horiz-adv-x="1429" 
d="M1333 371q0 -177 -154.5 -289.5t-410.5 -112.5h-18v-194h-82v198q-253 23 -403 160t-169 369l129 18q34 -385 443 -432v608q-192 39 -294 76.5t-171 106.5q-72 75 -72 196q0 172 147 280.5t379 108.5h11v176h82v-180q215 -21 356 -143q144 -122 164 -299l-127 -25
q-25 148 -127 239t-266 111v-540q204 -41 315.5 -83.5t185.5 -123.5q82 -82 82 -225zM668 819v531h-13q-178 0 -286.5 -74t-108.5 -197q3 -47 23 -83.5t50.5 -61.5t84.5 -46.5t109.5 -36t140.5 -32.5zM1206 367q-2 49 -16.5 88t-44 69t-64.5 52t-90 41t-108.5 33t-132.5 30
v-596h20q200 0 318 77.5t118 205.5z" />
    <glyph glyph-name="percent" unicode="%" horiz-adv-x="2260" 
d="M594 -80l999 1661l101 -61l-996 -1657zM139 1004q0 200 112 324t292 124q182 0 293.5 -124t111.5 -324t-111.5 -324.5t-293.5 -124.5q-180 0 -292 124.5t-112 324.5zM829 1004q0 158 -77.5 251t-208.5 93t-209 -93t-78 -251t78 -251.5t209 -93.5t208.5 93.5t77.5 251.5z
M1315 430q0 200 111.5 324.5t291.5 124.5q182 0 294 -124.5t112 -324.5t-112 -324t-294 -124q-180 0 -291.5 124t-111.5 324zM2005 430q0 158 -78 251t-209 93t-208.5 -93t-77.5 -251t77.5 -251t208.5 -93t209 93t78 251z" />
    <glyph glyph-name="ampersand" unicode="&#x26;" horiz-adv-x="1542" 
d="M1407 78l-180 141q-57 -121 -198.5 -185.5t-346.5 -64.5q-250 0 -396.5 110.5t-146.5 299.5q0 271 328 440q-106 88 -150.5 162t-44.5 162q0 141 114 231t294 90t294.5 -88t139.5 -246l-121 -20q-20 118 -101 181t-212 63q-129 0 -207 -57.5t-78 -153.5q0 -69 45 -132
t160 -153l545 -428v369h115v-459l217 -170zM1135 293l-576 452q-297 -137 -297 -360q0 -138 115 -221q119 -84 305 -84q178 0 297 56.5t156 156.5z" />
    <glyph glyph-name="quotesingle" unicode="'" horiz-adv-x="518" 
d="M201 1434h116v-435h-116v435z" />
    <glyph glyph-name="parenleft" unicode="(" horiz-adv-x="745" 
d="M201 604q0 554 405 1002l84 -68q-186 -217 -274 -443t-88 -491q0 -268 87.5 -493t274.5 -441l-84 -67q-405 442 -405 1001z" />
    <glyph glyph-name="parenright" unicode=")" horiz-adv-x="745" 
d="M55 -330q187 216 275 441.5t88 492.5q0 265 -88 490.5t-275 443.5l84 68q406 -449 406 -1002q0 -558 -406 -1001z" />
    <glyph glyph-name="asterisk" unicode="*" horiz-adv-x="976" 
d="M199 776l198 244l-258 156l49 79l252 -145v307h97v-307l251 145l52 -79l-262 -156l202 -244l-75 -63l-216 268l-217 -268z" />
    <glyph glyph-name="plus" unicode="+" horiz-adv-x="1208" 
d="M1069 700h-410v-432h-110v432h-410v107h410v422h110v-422h410v-107z" />
    <glyph glyph-name="comma" unicode="," horiz-adv-x="608" 
d="M207 -104q43 8 62.5 32.5t19.5 71.5h-88v193h209v-168q0 -94 -52 -146.5t-151 -58.5v76z" />
    <glyph glyph-name="hyphen" unicode="-" horiz-adv-x="741" 
d="M119 668h506v-119h-506v119z" />
    <glyph glyph-name="period" unicode="." horiz-adv-x="608" 
d="M201 205h209v-205h-209v205z" />
    <glyph glyph-name="slash" unicode="/" horiz-adv-x="1079" 
d="M47 -31l903 1544l82 -49l-901 -1542z" />
    <glyph glyph-name="zero" unicode="0" horiz-adv-x="1468" 
d="M96 688q0 212 80 375t225 252.5t334 89.5q284 0 460.5 -198t176.5 -519t-176.5 -519t-460.5 -198q-189 0 -334 89.5t-225 252.5t-80 375zM1249 688q0 275 -141 440.5t-373 165.5q-235 0 -375.5 -165t-140.5 -441t140.5 -441t375.5 -165q232 0 373 165.5t141 440.5z" />
    <glyph glyph-name="one" unicode="1" horiz-adv-x="847" 
d="M508 1235l-436 -254v133l452 262h107v-1376h-123v1235z" />
    <glyph glyph-name="two" unicode="2" horiz-adv-x="1374" 
d="M258 111h973v-111h-1102v109q0 198 86 313q59 74 160 129q98 53 327 125q244 74 332 146t88 192q0 122 -107.5 201t-279.5 79q-211 0 -336.5 -103t-142.5 -292l-121 12q23 230 182.5 362t417.5 132q222 0 367 -111t145 -280q0 -159 -106 -254.5t-379 -181.5
q-207 -65 -303 -113q-94 -46 -142 -107q-35 -44 -47 -93.5t-12 -153.5z" />
    <glyph glyph-name="three" unicode="3" horiz-adv-x="1333" 
d="M109 444l122 21q12 -187 125.5 -286t319.5 -99q191 0 298 83t107 230q0 295 -374 295h-185v105h185q159 0 247 65t88 182q0 115 -101 184.5t-267 69.5q-176 0 -285.5 -81.5t-134.5 -229.5l-121 21q26 176 174 290q147 111 367 111q216 0 350.5 -100t134.5 -261
q0 -204 -215 -290v-4q260 -87 260 -361q0 -191 -143.5 -304.5t-384.5 -113.5q-252 0 -401 124t-166 349z" />
    <glyph glyph-name="four" unicode="4" horiz-adv-x="1339" 
d="M913 279h-888v106l815 991h198v-987h226v-110h-226v-279h-125v279zM913 389v897h-4l-743 -897h747z" />
    <glyph glyph-name="five" unicode="5" horiz-adv-x="1361" 
d="M90 389l119 33q38 -168 160.5 -255t322.5 -87q213 0 339 102.5t126 274.5q0 169 -127.5 273t-337.5 104q-266 0 -456 -187l-111 29l149 700h879v-110h-782l-99 -463h4q180 139 424 139q260 0 421 -134t161 -351q0 -218 -163.5 -352t-426.5 -134q-244 0 -402.5 110.5
t-199.5 307.5z" />
    <glyph glyph-name="six" unicode="6" horiz-adv-x="1382" 
d="M1307 444q0 -210 -158.5 -341.5t-407.5 -131.5q-304 0 -474.5 182t-170.5 513q0 214 81 382.5t227 262.5t331 94q198 0 341.5 -99t187.5 -268l-119 -32q-43 139 -148.5 214.5t-257.5 75.5q-232 0 -377.5 -182.5t-142.5 -464.5v-31h10q53 134 197 216q141 81 328 81
q242 0 397.5 -131.5t155.5 -339.5zM1184 444q0 170 -120 270.5t-323 100.5q-194 0 -327 -110t-133 -267t130.5 -257.5t329.5 -100.5q198 0 320.5 100t122.5 264z" />
    <glyph glyph-name="seven" unicode="7" horiz-adv-x="1191" 
d="M971 1262v4h-932v110h1075v-106l-715 -1270h-143z" />
    <glyph glyph-name="eight" unicode="8" horiz-adv-x="1320" 
d="M59 377q0 131 91 229.5t249 136.5v5q-115 39 -180 115.5t-65 178.5q0 160 143.5 261.5t364.5 101.5q220 0 362.5 -101.5t142.5 -261.5q0 -102 -65 -178.5t-180 -115.5v-5q158 -38 249 -136.5t91 -229.5q0 -184 -161 -296t-439 -112t-440.5 112t-162.5 296zM1042 1038
q0 117 -104.5 187.5t-275.5 70.5t-276 -70.5t-105 -187.5q0 -110 104.5 -177.5t276.5 -67.5q171 0 275.5 68t104.5 177zM1135 381q0 133 -130.5 218t-342.5 85q-215 0 -345.5 -85t-130.5 -218q0 -140 125.5 -219.5t350.5 -79.5q221 0 347 80.5t126 218.5z" />
    <glyph glyph-name="nine" unicode="9" horiz-adv-x="1335" 
d="M1239 752q0 -383 -144.5 -583t-422.5 -200q-202 0 -337 96t-179 273l118 39q80 -293 398 -293q209 0 318.5 151.5t115.5 450.5v21h-4q-55 -112 -181.5 -174t-293.5 -62q-251 0 -401 127.5t-150 341.5q0 203 158.5 334t408.5 131q279 0 437.5 -169.5t158.5 -483.5z
M1073 938q0 151 -122 251.5t-308 100.5q-197 0 -318.5 -97t-121.5 -255q0 -164 117 -259t319 -95q191 0 312.5 98t121.5 256z" />
    <glyph glyph-name="colon" unicode=":" horiz-adv-x="608" 
d="M201 928h209v-205h-209v205zM201 205h209v-205h-209v205z" />
    <glyph glyph-name="semicolon" unicode=";" horiz-adv-x="608" 
d="M207 -104q43 8 62.5 32.5t19.5 71.5h-88v193h209v-168q0 -94 -52 -146.5t-151 -58.5v76zM201 928h209v-205h-209v205z" />
    <glyph glyph-name="less" unicode="&#x3c;" horiz-adv-x="1130" 
d="M139 666v108l791 477l61 -96l-727 -436l727 -434l-61 -97z" />
    <glyph glyph-name="equal" unicode="=" horiz-adv-x="1140" 
d="M139 971h865v-111h-865v111zM139 592h865v-109h-865v109z" />
    <glyph glyph-name="greater" unicode="&#x3e;" horiz-adv-x="1130" 
d="M139 285l727 434l-727 436l62 96l790 -477v-108l-790 -478z" />
    <glyph glyph-name="question" unicode="?" horiz-adv-x="1337" 
d="M512 502q0 110 55.5 181.5t190.5 137.5q151 69 209 131q57 60 57 144q0 110 -94 180t-242 70q-179 0 -284.5 -94t-116.5 -259l-127 13q6 209 149 333.5t377 124.5q204 0 337.5 -104t133.5 -266q0 -114 -75.5 -199t-252.5 -166q-110 -54 -149 -103t-39 -134v-121h-129v131
zM477 205h209v-205h-209v205z" />
    <glyph glyph-name="at" unicode="@" horiz-adv-x="1740" 
d="M139 596q-3 206 91.5 378.5t264 272.5t375.5 96q220 0 387 -90.5t257 -253.5t90 -376t-73.5 -326t-209.5 -113q-69 0 -119 32t-67 87h-5q-35 -60 -116.5 -93.5t-186.5 -33.5q-141 0 -222 60.5t-81 166.5q0 92 60.5 148.5t189.5 87.5q77 19 121 30t83.5 24t57.5 21.5
t32.5 21.5t19 25.5t6.5 31.5q0 55 -55.5 88.5t-147.5 33.5q-104 0 -168.5 -44.5t-81.5 -129.5l-106 17q17 116 115 186t241 70q146 0 229.5 -68.5t83.5 -185.5v-305q0 -104 25 -140t94 -36q85 0 130.5 88.5t45.5 255.5q0 283 -168.5 454.5t-460.5 171.5q-134 2 -252 -49
t-200.5 -139t-129 -209.5t-44.5 -255.5q0 -313 169 -482t472 -169q128 0 236.5 24.5t224.5 81.5l40 -88q-128 -62 -244 -88.5t-257 -26.5q-345 0 -545.5 197.5t-200.5 550.5zM1096 451v217h-2q-20 -29 -77.5 -51t-203.5 -60q-99 -25 -138.5 -57.5t-39.5 -89.5q0 -66 52 -101
t149 -35q118 0 189 48.5t71 128.5z" />
    <glyph glyph-name="A" unicode="A" horiz-adv-x="1456" 
d="M1163 322h-868l-143 -322h-142l649 1434h138l649 -1434h-139zM1114 434l-383 860h-4l-383 -860h770z" />
    <glyph glyph-name="B" unicode="B" horiz-adv-x="1462" 
d="M186 1434h691q196 0 308.5 -96.5t112.5 -264.5q0 -110 -53.5 -192t-144.5 -113v-4q117 -31 184.5 -123.5t67.5 -224.5q0 -204 -126 -310t-370 -106h-670v1434zM844 811q160 0 241.5 65t81.5 193q0 121 -80 183.5t-235 62.5h-537v-504h529zM836 119q197 0 291 71.5
t94 223.5q0 148 -90 216t-285 68h-531v-579h521z" />
    <glyph glyph-name="C" unicode="C" horiz-adv-x="1579" 
d="M96 717q-2 158 54.5 298t154 239.5t234 156t288.5 53.5q250 0 436 -131t238 -352l-127 -31q-50 188 -196.5 292t-350.5 104q-170 0 -306 -78.5t-214 -222.5t-78 -328t78 -328t214 -222.5t306 -78.5q206 0 352.5 111.5t196.5 318.5l127 -33q-52 -239 -237 -377.5
t-439 -138.5q-152 -3 -288.5 54t-234 156t-154 239.5t-54.5 298.5z" />
    <glyph glyph-name="D" unicode="D" horiz-adv-x="1538" 
d="M186 1434h555q333 0 517 -187t184 -530q0 -349 -181.5 -533t-521.5 -184h-553v1434zM739 119q279 0 423.5 151.5t144.5 446.5q0 293 -145 445.5t-421 152.5h-424v-1196h422z" />
    <glyph glyph-name="E" unicode="E" horiz-adv-x="1314" 
d="M186 1434h1012v-119h-881v-518h818v-113h-818v-565h881v-119h-1012v1434z" />
    <glyph glyph-name="F" unicode="F" horiz-adv-x="1296" 
d="M186 1434h1014v-119h-883v-572h820v-114h-820v-629h-131v1434z" />
    <glyph glyph-name="G" unicode="G" horiz-adv-x="1585" 
d="M96 717q-3 208 91.5 380.5t261.5 271t370 95.5q246 0 427.5 -135.5t234.5 -353.5l-129 -31q-51 189 -193 295.5t-340 106.5q-257 0 -423.5 -176.5t-166.5 -452.5q0 -181 76 -325t210.5 -224t303.5 -80q240 0 389 137t152 344h-520v113h649v-98q0 -131 -49 -245
t-136 -195.5t-212.5 -128t-272.5 -46.5q-152 -2 -287.5 55.5t-231.5 157.5t-151 239.5t-53 295.5z" />
    <glyph glyph-name="H" unicode="H" horiz-adv-x="1546" 
d="M186 1434h131v-639h912v639h131v-1434h-131v680h-912v-680h-131v1434z" />
    <glyph glyph-name="I" unicode="I" horiz-adv-x="501" 
d="M186 1434h131v-1434h-131v1434z" />
    <glyph glyph-name="J" unicode="J" horiz-adv-x="1200" 
d="M61 446l127 17q20 -197 106.5 -286t258.5 -89q173 0 257.5 109t84.5 329v908h131v-922q0 -261 -121.5 -402t-351.5 -141q-226 0 -347.5 119t-144.5 358z" />
    <glyph glyph-name="K" unicode="K" horiz-adv-x="1333" 
d="M186 1434h131v-805h5l790 805h186l-618 -621l637 -813h-166l-559 725h-4l-271 -279v-446h-131v1434z" />
    <glyph glyph-name="L" unicode="L" horiz-adv-x="1202" 
d="M186 1434h131v-1315h813v-119h-944v1434z" />
    <glyph glyph-name="M" unicode="M" horiz-adv-x="1980" 
d="M186 1434h176l627 -1231h4l625 1231h176v-1434h-131v1253h-4l-641 -1253h-55l-641 1253h-5v-1253h-131v1434z" />
    <glyph glyph-name="N" unicode="N" horiz-adv-x="1564" 
d="M186 1434h142l917 -1248h4v1248h131v-1434h-143l-915 1247h-5v-1247h-131v1434z" />
    <glyph glyph-name="O" unicode="O" horiz-adv-x="1654" 
d="M96 717q-2 159 53 299t152 239t234 155t292 54q154 2 290.5 -54t234 -155t153 -239t54.5 -299q2 -213 -93.5 -385.5t-264 -269t-374.5 -93.5q-207 -3 -375.5 93.5t-263.5 269t-92 385.5zM1425 717q0 279 -168.5 454t-429.5 175t-429.5 -175t-168.5 -454t168.5 -454
t429.5 -175t429.5 175t168.5 454z" />
    <glyph glyph-name="P" unicode="P" horiz-adv-x="1427" 
d="M186 1434h701q226 0 355.5 -116.5t129.5 -318.5q0 -204 -128 -318t-357 -114h-570v-567h-131v1434zM883 686q358 0 358 313q0 156 -90 236t-268 80h-566v-629h566z" />
    <glyph glyph-name="Q" unicode="Q" horiz-adv-x="1654" 
d="M1378 207l156 -154l-80 -82l-158 156q-198 -158 -469 -158q-207 -3 -375.5 93.5t-263.5 269t-92 385.5q-2 159 53 299t152 239t234 155t292 54q154 2 290.5 -54t234 -155t153 -239t54.5 -299q0 -307 -181 -510zM1206 215l-348 340l82 82l348 -342q137 170 137 422
q0 279 -168.5 454t-429.5 175t-429.5 -175t-168.5 -454t168.5 -454t429.5 -175q222 0 379 127z" />
    <glyph glyph-name="R" unicode="R" horiz-adv-x="1417" 
d="M905 598l381 -598h-151l-375 600h-443v-600h-131v1434h680q226 0 350.5 -110t124.5 -308q0 -190 -115.5 -299t-320.5 -117v-2zM860 719q172 0 261 75.5t89 221.5q0 299 -356 299h-537v-596h543z" />
    <glyph glyph-name="S" unicode="S" horiz-adv-x="1363" 
d="M76 502l129 18q41 -434 532 -434q192 0 306 76t114 205q0 130 -108 200.5t-390 126.5q-304 62 -423 145t-119 236q0 172 143 280.5t373 108.5q231 0 393.5 -124t190.5 -322l-130 -25q-25 164 -146.5 259.5t-307.5 95.5q-174 0 -280.5 -74t-106.5 -195q0 -70 41 -116
t135.5 -81t269.5 -71q328 -68 462 -166t134 -274q0 -183 -151.5 -292.5t-401.5 -109.5q-293 0 -466.5 140.5t-192.5 392.5z" />
    <glyph glyph-name="T" unicode="T" horiz-adv-x="1372" 
d="M621 1315h-549v119h1228v-119h-548v-1315h-131v1315z" />
    <glyph glyph-name="U" unicode="U" horiz-adv-x="1544" 
d="M176 543v891h131v-887q0 -240 112.5 -349.5t352.5 -109.5q239 0 352 110.5t113 348.5v887h131v-891q0 -574 -596 -574t-596 574z" />
    <glyph glyph-name="V" unicode="V" horiz-adv-x="1476" 
d="M10 1434h146l579 -1280h4l582 1280h145l-657 -1434h-141z" />
    <glyph glyph-name="W" unicode="W" horiz-adv-x="2045" 
d="M41 1434h135l295 -1250h4l486 1250h124l488 -1250h4l293 1250h135l-336 -1434h-156l-487 1245h-4l-490 -1245h-155z" />
    <glyph glyph-name="X" unicode="X" horiz-adv-x="1363" 
d="M586 727l-549 707h164l477 -621h4l473 621h174l-551 -707l565 -727h-172l-489 641h-4l-492 -641h-166z" />
    <glyph glyph-name="Y" unicode="Y" horiz-adv-x="1374" 
d="M621 586l-621 848h156l528 -732h4l529 732h157l-622 -848v-586h-131v586z" />
    <glyph glyph-name="Z" unicode="Z" horiz-adv-x="1505" 
d="M96 106l1139 1205v4h-1071v119h1245v-107l-1139 -1204v-4h1094v-119h-1268v106z" />
    <glyph glyph-name="bracketleft" unicode="[" horiz-adv-x="661" 
d="M186 1497h414v-115h-293v-1638h293v-115h-414v1868z" />
    <glyph glyph-name="backslash" unicode="\" horiz-adv-x="1079" 
d="M47 1464l82 49l903 -1544l-84 -47z" />
    <glyph glyph-name="bracketright" unicode="]" horiz-adv-x="661" 
d="M61 -371v115h293v1638h-293v115h414v-1868h-414z" />
    <glyph glyph-name="asciicircum" unicode="^" horiz-adv-x="1124" 
d="M840 672l-277 612l-276 -612h-127l354 762h96l355 -762h-125z" />
    <glyph glyph-name="underscore" unicode="_" horiz-adv-x="1249" 
d="M119 -172h1011v-104h-1011v104z" />
    <glyph glyph-name="grave" unicode="`" horiz-adv-x="618" 
d="M139 1434h178l164 -226h-114z" />
    <glyph glyph-name="a" unicode="a" horiz-adv-x="1179" 
d="M104 283q0 143 109 220t371 120q185 29 257 68.5t72 111.5q0 92 -83 147.5t-220 55.5q-155 0 -253 -75t-121 -210l-121 27q27 167 161 268q132 100 334 100q197 0 315.5 -92t118.5 -244v-780h-120v158h-2q-54 -87 -167.5 -138t-252.5 -51q-186 0 -292 83t-106 231z
M922 371v274h-4q-26 -44 -96.5 -72t-213.5 -51q-206 -35 -292.5 -90t-86.5 -149q0 -203 295 -203q164 0 281 85.5t117 205.5z" />
    <glyph glyph-name="b" unicode="b" horiz-adv-x="1378" 
d="M268 162h-4v-162h-119v1495h123v-571h4q69 91 183.5 141.5t251.5 50.5q157 0 286.5 -73.5t205 -205.5t75.5 -294q0 -168 -75.5 -299.5t-207 -203t-295.5 -71.5q-133 0 -246 52t-182 141zM1151 543q0 205 -128 334t-323 129q-118 0 -218 -47.5t-157 -126.5t-57 -170v-238
q-3 -89 55 -169.5t157 -129t210 -45.5q205 0 333 126t128 337z" />
    <glyph glyph-name="c" unicode="c" horiz-adv-x="1308" 
d="M104 543q0 121 45 228t121.5 182.5t182 119t223.5 43.5q197 0 346 -104q148 -104 195 -283l-121 -31q-41 150 -150.5 229t-269.5 79q-192 0 -320.5 -129.5t-128.5 -333.5t128.5 -333.5t320.5 -129.5q160 0 269.5 78.5t150.5 228.5l121 -31q-46 -178 -195 -282
q-150 -105 -346 -105q-158 0 -289 74t-207 206t-76 294z" />
    <glyph glyph-name="d" unicode="d" horiz-adv-x="1378" 
d="M104 543q0 121 44.5 228t120.5 182.5t181 119t222 43.5q136 0 250.5 -50.5t183.5 -141.5h4v571h123v-1495h-119v162h-4q-69 -89 -182 -141t-246 -52q-164 0 -295.5 71.5t-207 203t-75.5 299.5zM1110 424v238q0 91 -57 170t-157 126.5t-218 47.5q-195 0 -323 -129
t-128 -334q0 -211 128 -337t333 -126q111 -3 210 45.5t157 129t55 169.5z" />
    <glyph glyph-name="e" unicode="e" horiz-adv-x="1335" 
d="M104 532q0 257 159 420.5t409 163.5q246 0 402.5 -161t156.5 -418v-45h-1002q0 -120 60 -216t161.5 -148t223.5 -52q294 0 432 258l98 -64q-159 -301 -530 -301q-254 0 -412 155t-158 408zM1104 594q-6 181 -128.5 298.5t-303.5 117.5q-186 0 -309 -119t-132 -297h873z
" />
    <glyph glyph-name="f" unicode="f" horiz-adv-x="819" 
d="M279 981h-234v104h234v119q0 105 60.5 163t176.5 58h234v-110h-226q-63 0 -92 -29.5t-29 -91.5v-109h390v-104h-390v-981h-124v981z" />
    <glyph glyph-name="g" unicode="g" horiz-adv-x="1368" 
d="M186 -168l107 51q57 -135 157.5 -199.5t254.5 -64.5q180 0 294.5 106t114.5 271v170h-4q-66 -92 -180 -144.5t-250 -52.5q-255 0 -415.5 160t-160.5 414q-2 119 42 226t120.5 184t182.5 121t223 42q136 0 250.5 -50.5t183.5 -141.5h4v161h123v-1097q0 -209 -149 -344.5
t-379 -135.5q-190 0 -323 83t-196 241zM1110 424v238q0 142 -126.5 243t-305.5 101q-198 0 -324.5 -129.5t-126.5 -333.5q0 -214 123.5 -338.5t337.5 -124.5q171 0 296.5 103t125.5 241z" />
    <glyph glyph-name="h" unicode="h" horiz-adv-x="1327" 
d="M145 1495h123v-588h4q66 98 176 153.5t240 55.5q228 0 366 -125.5t138 -335.5v-655h-125v635q0 174 -101.5 272.5t-283.5 98.5q-180 0 -297 -112t-117 -282v-612h-123v1495z" />
    <glyph glyph-name="i" unicode="i" horiz-adv-x="413" 
d="M145 1085h123v-1085h-123v1085zM125 1436h164v-156h-164v156z" />
    <glyph glyph-name="j" unicode="j" horiz-adv-x="432" 
d="M-109 -221h142q129 0 129 125v1181h125v-1187q0 -111 -64.5 -170.5t-181.5 -59.5h-150v111zM143 1436h164v-156h-164v156z" />
    <glyph glyph-name="k" unicode="k" horiz-adv-x="1189" 
d="M145 1495h123v-963h4l654 553h190l-520 -438l549 -647h-164l-477 569h-4l-232 -196v-373h-123v1495z" />
    <glyph glyph-name="l" unicode="l" horiz-adv-x="413" 
d="M145 1495h123v-1495h-123v1495z" />
    <glyph glyph-name="m" unicode="m" horiz-adv-x="1990" 
d="M145 1085h121v-143h4q56 82 151 128t210 46q124 0 228 -58.5t151 -156.5h4q57 104 159 159.5t232 55.5q195 0 322.5 -116t127.5 -298v-702h-122v668q0 157 -91.5 247.5t-242.5 90.5t-244.5 -92t-93.5 -244v-670h-121v670q0 152 -93.5 244t-242.5 92q-150 0 -243 -92.5
t-93 -245.5v-668h-123v1085z" />
    <glyph glyph-name="n" unicode="n" horiz-adv-x="1327" 
d="M145 1085h121v-178h4q61 96 174 152.5t244 56.5q226 0 365 -126.5t139 -332.5v-657h-125v635q0 171 -102.5 271t-276.5 100q-184 0 -302 -111.5t-118 -282.5v-612h-123v1085z" />
    <glyph glyph-name="o" unicode="o" horiz-adv-x="1374" 
d="M104 543q0 248 165.5 410.5t418.5 162.5q162 3 297 -72t211.5 -208t73.5 -293q3 -160 -73.5 -293.5t-211.5 -208.5t-297 -72q-253 0 -418.5 163t-165.5 411zM1147 543q0 206 -128.5 334.5t-330.5 128.5q-201 0 -331 -129t-130 -334t130 -334t331 -129q202 0 330.5 128.5
t128.5 334.5z" />
    <glyph glyph-name="p" unicode="p" horiz-adv-x="1357" 
d="M145 1085h123v-161h4q64 88 175.5 140t248.5 52q113 2 216.5 -41.5t179 -120t119.5 -184t42 -227.5q0 -163 -75 -295t-204.5 -205.5t-287.5 -73.5q-131 0 -241 52.5t-173 140.5h-4v-623h-123v1546zM1130 543q0 206 -123.5 334.5t-316.5 128.5q-176 0 -299 -102.5
t-123 -241.5v-238q0 -139 121.5 -241.5t290.5 -102.5q195 0 322.5 129t127.5 334z" />
    <glyph glyph-name="q" unicode="q" horiz-adv-x="1357" 
d="M1090 -461v623h-5q-63 -88 -172.5 -140.5t-240.5 -52.5q-118 0 -223 43.5t-181 119t-120 182.5t-44 229q-2 120 42 227.5t120 184t179.5 120t216.5 41.5q137 0 247.5 -52t175.5 -140h5v161h122v-1546h-122zM1090 424v238q0 139 -123 241.5t-299 102.5q-193 0 -317 -128.5
t-124 -334.5q0 -205 128 -334t323 -129q169 0 290.5 102.5t121.5 241.5z" />
    <glyph glyph-name="r" unicode="r" horiz-adv-x="741" 
d="M145 1085h119v-116h4q43 62 116 98.5t157 36.5q63 0 155 -25l-28 -116q-94 20 -138 20q-120 0 -191 -79.5t-71 -219.5v-684h-123v1085z" />
    <glyph glyph-name="s" unicode="s" horiz-adv-x="1216" 
d="M84 375l117 22q20 -155 135.5 -238t310.5 -83q167 0 266 55.5t99 149.5q0 92 -87 141t-304 80q-277 39 -387.5 107.5t-110.5 197.5q0 137 125 223t323 86t341.5 -99t168.5 -251l-116 -23q-25 122 -132 194.5t-262 72.5q-146 0 -236.5 -55.5t-90.5 -143.5q0 -83 80.5 -126
t300.5 -77q281 -43 394.5 -116t113.5 -211q0 -141 -132.5 -226.5t-353.5 -85.5q-237 0 -391 109q-151 112 -172 297z" />
    <glyph glyph-name="t" unicode="t" horiz-adv-x="802" 
d="M399 981v-766q0 -57 27 -80.5t90 -23.5h170v-111h-170q-127 0 -184.5 51t-57.5 164v766h-229v104h229v236h125v-236h346v-104h-346z" />
    <glyph glyph-name="u" unicode="u" horiz-adv-x="1288" 
d="M125 442v643h123v-622q0 -184 98.5 -283.5t278.5 -99.5q173 0 284 111t111 282v612h125v-1085h-123v176h-4q-62 -99 -170.5 -153t-247.5 -54q-223 0 -349 126t-126 347z" />
    <glyph glyph-name="v" unicode="v" horiz-adv-x="1230" 
d="M20 1085h136l458 -942h4l457 942h135l-538 -1085h-113z" />
    <glyph glyph-name="w" unicode="w" horiz-adv-x="1759" 
d="M55 1085h125l262 -907h4l373 907h119l373 -907h4l264 907h125l-320 -1085h-112l-391 950h-4l-390 -950h-112z" />
    <glyph glyph-name="x" unicode="x" horiz-adv-x="1112" 
d="M477 553l-446 532h151l373 -448h4l373 448h149l-446 -532l463 -553h-150l-389 469h-4l-389 -469h-152z" />
    <glyph glyph-name="y" unicode="y" horiz-adv-x="1175" 
d="M518 94l-498 991h142l424 -860h4l424 860h141l-776 -1546h-139z" />
    <glyph glyph-name="z" unicode="z" horiz-adv-x="1193" 
d="M57 98l897 877v4h-852v106h1031v-98l-900 -876v-5h895v-106h-1071v98z" />
    <glyph glyph-name="braceleft" unicode="{" horiz-adv-x="800" 
d="M326 -102v491q0 72 -23.5 99.5t-85.5 27.5h-57v135h57q62 0 85.5 28t23.5 101v449q0 140 56.5 204t180.5 64h176v-121h-159q-72 0 -103 -40t-31 -132v-448q0 -79 -35.5 -122t-93.5 -48v-4q58 -5 93.5 -49t35.5 -123v-488q0 -92 32 -133t102 -41h159v-119h-176
q-124 0 -180.5 64.5t-56.5 204.5z" />
    <glyph glyph-name="bar" unicode="|" horiz-adv-x="532" 
d="M221 1587h92v-2201h-92v2201z" />
    <glyph glyph-name="braceright" unicode="}" horiz-adv-x="800" 
d="M61 -371v119h160q69 0 101 41t32 133v488q0 79 35.5 123t93.5 49v4q-58 5 -93.5 48t-35.5 122v448q0 92 -30.5 132t-102.5 40h-160v121h177q124 0 180.5 -64t56.5 -204v-449q0 -73 23.5 -101t85.5 -28h57v-135h-57q-62 0 -85.5 -27.5t-23.5 -99.5v-491
q0 -140 -56.5 -204.5t-180.5 -64.5h-177z" />
    <glyph glyph-name="asciitilde" unicode="~" horiz-adv-x="1290" 
d="M139 610q23 127 96 197t179 70q67 0 125 -24t141 -79q69 -45 109.5 -63.5t82.5 -18.5q66 0 106.5 44.5t65.5 142.5l109 -33q-25 -125 -98 -195.5t-178 -70.5q-68 0 -126.5 24t-140.5 78q-69 45 -109.5 63.5t-82.5 18.5q-66 0 -107.5 -44t-64.5 -140z" />
    <glyph glyph-name="uni00A0" unicode="&#xa0;" horiz-adv-x="561" 
 />
    <glyph glyph-name="exclamdown" unicode="&#xa1;" horiz-adv-x="622" 
d="M416 1085v-204h-209v204h209zM379 690v-1038h-135v1038h135z" />
    <glyph glyph-name="cent" unicode="&#xa2;" horiz-adv-x="1402" 
d="M1171 385l117 -29q-46 -167 -190 -272q-147 -104 -336 -113v-196h-82v196q-243 12 -399 173t-156 399t156 398.5t399 172.5v178h82v-178q190 -9 336 -115q144 -102 190 -270l-117 -29q-43 140 -149.5 220t-259.5 88v-930q153 8 259.5 87.5t149.5 219.5zM680 78v930
q-192 -12 -313 -141t-121 -324t121 -324t313 -141z" />
    <glyph glyph-name="sterling" unicode="&#xa3;" horiz-adv-x="1355" 
d="M530 119h719v-119h-1097v119h102q131 0 213 74.5t82 195.5q0 66 -30 124.5t-95 131.5h-272v113h172q-68 78 -102 150t-34 159q0 184 139 290.5t375 106.5q239 0 395.5 -119t178.5 -319l-131 -20q-23 164 -137.5 252t-305.5 88q-178 0 -277 -74t-99 -205q0 -80 36 -147
t121 -162h541v-113h-455q103 -137 103 -256q0 -85 -37.5 -154.5t-104.5 -111.5v-4z" />
    <glyph glyph-name="currency" unicode="&#xa4;" horiz-adv-x="1230" 
d="M1065 162l-133 133q-132 -119 -318 -119q-188 0 -315 115l-131 -129l-64 61l134 133q-103 136 -103 320q0 186 101 317l-132 133l62 62l131 -129q128 119 317 119q186 0 320 -121l131 131l61 -62l-133 -133q101 -134 101 -317q0 -182 -103 -318l137 -135zM967 674
q0 176 -99 284q-95 109 -252 109q-158 0 -256 -109t-98 -284q0 -172 97.5 -278.5t256.5 -106.5q161 0 254 106q97 111 97 279z" />
    <glyph glyph-name="yen" unicode="&#xa5;" horiz-adv-x="1415" 
d="M838 674h432v-111h-498v-176h498v-113h-498v-274h-131v274h-506v113h506v176h-506v111h443l-558 760h156l529 -732h4l528 732h158z" />
    <glyph glyph-name="brokenbar" unicode="&#xa6;" horiz-adv-x="532" 
d="M221 1587h92v-870h-92v870zM221 256h92v-870h-92v870z" />
    <glyph glyph-name="section" unicode="&#xa7;" horiz-adv-x="1423" 
d="M1188 -35q0 -146 -123.5 -241t-312.5 -95q-201 0 -343 106.5t-161 274.5l129 19q17 -130 119.5 -206.5t255.5 -76.5q134 0 219.5 60.5t85.5 158.5q0 76 -61 132t-193 100l-328 110q-154 51 -224.5 121t-70.5 172q0 81 46 150t143 137q-133 95 -133 241t123.5 241
t312.5 95q202 0 343 -106.5t163 -276.5l-129 -16q-17 130 -120.5 206.5t-256.5 76.5q-134 0 -219.5 -61t-85.5 -159q0 -75 60 -129.5t194 -101.5l329 -111q154 -51 224.5 -121t70.5 -173q0 -79 -46.5 -148t-143.5 -137q133 -95 133 -242zM852 303q37 -11 94 -37
q88 56 128 108t40 113q0 63 -54 110t-171 85l-318 106q-42 14 -94 37q-88 -56 -127 -107t-39 -112q0 -65 53.5 -111t170.5 -83z" />
    <glyph glyph-name="dieresis" unicode="&#xa8;" horiz-adv-x="819" 
d="M139 1356h172v-168h-172v168zM510 1356h172v-168h-172v168z" />
    <glyph glyph-name="copyright" unicode="&#xa9;" horiz-adv-x="1484" 
d="M119 664q-2 132 46.5 249t133 200t200.5 130.5t244 46.5q170 2 314.5 -79t229 -226.5t81.5 -320.5q3 -175 -81.5 -322t-229 -229.5t-314.5 -79.5q-128 -2 -244 46.5t-200 132.5t-133 202t-47 250zM1278 664q0 157 -70.5 282t-192.5 194.5t-272 69.5q-230 0 -383 -154
t-153 -392q-3 -156 68 -284t195 -199t273 -68q229 0 382 155t153 396zM438 662q0 170 87.5 274t228.5 104q113 0 191 -69.5t95 -186.5l-98 -18q-13 86 -62.5 132t-125.5 46q-98 0 -155.5 -76.5t-57.5 -205.5t57.5 -206t155.5 -77q76 0 125.5 46t62.5 132l98 -18
q-17 -117 -95 -186.5t-191 -69.5q-141 0 -228.5 104.5t-87.5 274.5z" />
    <glyph glyph-name="ordfeminine" unicode="&#xaa;" horiz-adv-x="614" 
d="M35 1014q0 78 57 119.5t197 64.5q88 14 121.5 30.5t33.5 47.5q0 42 -35.5 65t-101.5 23q-72 0 -119.5 -34.5t-54.5 -94.5l-96 18q17 91 89 143t181 52q110 0 176 -51.5t66 -139.5v-389h-94v74h-2q-26 -41 -82 -64.5t-125 -23.5q-97 0 -154 43.5t-57 116.5zM451 1065v117
h-2q-21 -36 -142 -56q-100 -19 -138 -42t-38 -66q0 -80 129 -80q78 0 134.5 38t56.5 89z" />
    <glyph glyph-name="guillemotleft" unicode="&#xab;" horiz-adv-x="944" 
d="M461 578l223 378h123l-229 -378l229 -379h-123zM160 578l223 378h123l-230 -378l230 -379h-123z" />
    <glyph glyph-name="logicalnot" unicode="&#xac;" horiz-adv-x="1265" 
d="M993 756h-854v118h987v-499h-133v381z" />
    <glyph glyph-name="uni00AD" unicode="&#xad;" horiz-adv-x="741" 
d="M119 668h506v-119h-506v119z" />
    <glyph glyph-name="registered" unicode="&#xae;" horiz-adv-x="1484" 
d="M1368 664q3 -175 -81.5 -322t-229 -229.5t-314.5 -79.5q-128 -2 -244 46.5t-200 132.5t-133 202t-47 250q-2 132 46.5 249t133 200t200.5 130.5t244 46.5q170 2 314.5 -79t229 -226.5t81.5 -320.5zM1278 664q0 157 -70.5 282t-192.5 194.5t-272 69.5q-230 0 -383 -154
t-153 -392q-3 -156 68 -284t195 -199t273 -68q229 0 382 155t153 396zM874 594l156 -295h-112l-146 287h-149v-287h-103v723h285q112 0 175.5 -57.5t63.5 -157.5q0 -85 -45 -140.5t-125 -72.5zM942 807q0 125 -149 125h-166v-258h166q72 0 110.5 35t38.5 98z" />
    <glyph glyph-name="macron" unicode="&#xaf;" horiz-adv-x="862" 
d="M139 1305h586v-97h-586v97z" />
    <glyph glyph-name="degree" unicode="&#xb0;" horiz-adv-x="880" 
d="M98 1108q0 145 97 242q94 94 245 94q152 0 246 -94q96 -96 96 -242t-96 -242q-95 -92 -246 -92q-150 0 -245 92q-97 97 -97 242zM674 1108q0 104 -65 168.5t-169 64.5q-105 0 -169 -64t-64 -169q0 -104 64.5 -169t168.5 -65q103 0 168.5 65t65.5 169z" />
    <glyph glyph-name="plusminus" unicode="&#xb1;" horiz-adv-x="1212" 
d="M1073 905v-104h-409v-408h-111v408h-410v104h410v398h111v-398h409zM139 268h932v-104h-932v104z" />
    <glyph glyph-name="acute" unicode="&#xb4;" horiz-adv-x="618" 
d="M303 1434h178l-229 -226h-113z" />
    <glyph glyph-name="paragraph" unicode="&#xb6;" horiz-adv-x="1114" 
d="M369 827q-122 3 -207 88q-84 84 -84 215q0 138 84.5 221t216.5 83h543v-1713h-131v1594h-291v-1594h-131v1106z" />
    <glyph glyph-name="periodcentered" unicode="&#xb7;" horiz-adv-x="485" 
d="M141 891h209v-205h-209v205z" />
    <glyph glyph-name="cedilla" unicode="&#xb8;" horiz-adv-x="708" 
d="M571 -254q0 -79 -60.5 -129.5t-154.5 -50.5q-123 0 -217 82l58 69q70 -67 159 -67q54 0 88.5 27t34.5 71q0 43 -32.5 67.5t-86.5 24.5q-76 0 -137 -55l-71 33l139 229l69 -31l-75 -120q37 18 90 18q87 0 141.5 -47t54.5 -121z" />
    <glyph glyph-name="ordmasculine" unicode="&#xba;" horiz-adv-x="694" 
d="M35 1151q0 131 88 213q90 84 225 84t223 -84t88 -213t-88 -213t-223 -84t-225 84q-88 82 -88 213zM557 1151q0 92 -57.5 149.5t-151.5 57.5t-152.5 -57.5t-58.5 -149.5t58.5 -149.5t152.5 -57.5t151.5 57.5t57.5 149.5z" />
    <glyph glyph-name="guillemotright" unicode="&#xbb;" horiz-adv-x="944" 
d="M137 199l230 379l-230 378h123l223 -378l-223 -379h-123zM438 199l230 379l-230 378h123l223 -378l-223 -379h-123z" />
    <glyph glyph-name="onequarter" unicode="&#xbc;" horiz-adv-x="1806" 
d="M334 1315l-279 -152v115l287 156h102v-861h-110v742zM264 -82l998 1663l94 -57l-996 -1657zM1526 166h-545v98l477 596h178v-594h136v-100h-136v-166h-110v166zM1526 266v520h-2l-420 -520h422z" />
    <glyph glyph-name="onehalf" unicode="&#xbd;" horiz-adv-x="1863" 
d="M334 1315l-279 -152v115l287 156h102v-861h-110v742zM264 -82l998 1663l94 -57l-996 -1657zM1204 98h586v-98h-700v82q0 72 13.5 118t45.5 81q39 45 102 77.5t191 73.5q148 45 197 83.5t49 105.5q0 72 -61 116.5t-161 44.5q-117 0 -187.5 -60t-78.5 -163l-108 4
q7 142 110.5 229t263.5 87q143 0 240 -72q94 -70 94 -184q0 -103 -64 -160t-239 -113q-121 -38 -177 -65.5t-81 -59.5q-19 -23 -26.5 -49.5t-8.5 -77.5z" />
    <glyph glyph-name="threequarters" unicode="&#xbe;" horiz-adv-x="2037" 
d="M55 854l109 14q6 -106 71.5 -161.5t184.5 -55.5q108 0 169.5 46t61.5 126q0 162 -223 162h-100v86h98q98 0 150.5 36.5t52.5 104.5q0 66 -56 105t-153 39q-204 0 -252 -182l-105 26q26 117 121 184.5t236 67.5t229 -65.5t88 -169.5q0 -60 -33.5 -107t-91.5 -74v-2
q69 -26 109.5 -84t40.5 -131q0 -121 -93 -192.5t-249 -71.5q-164 0 -261 79t-104 220zM496 -82l997 1663l94 -57l-995 -1657zM1757 166h-545v98l478 596h178v-594h135v-100h-135v-166h-111v166zM1757 266v520h-2l-420 -520h422z" />
    <glyph glyph-name="questiondown" unicode="&#xbf;" horiz-adv-x="1337" 
d="M860 881h-209v204h209v-204zM825 584q0 -110 -55 -182t-190 -138q-150 -69 -211 -133q-56 -59 -56 -141q0 -110 94 -180t242 -70q179 0 285 93.5t117 258.5l127 -12q-6 -209 -150 -334t-377 -125q-203 0 -337 104.5t-134 266.5q0 114 75.5 198.5t252.5 165.5
q110 54 149 103.5t39 134.5v121h129v-131z" />
    <glyph glyph-name="Agrave" unicode="&#xc0;" horiz-adv-x="1456" 
d="M1163 322h-868l-143 -322h-142l649 1434h138l649 -1434h-139zM1114 434l-383 860h-4l-383 -860h770zM469 1782h178l164 -226h-115z" />
    <glyph glyph-name="Aacute" unicode="&#xc1;" horiz-adv-x="1456" 
d="M1163 322h-868l-143 -322h-142l649 1434h138l649 -1434h-139zM1114 434l-383 860h-4l-383 -860h770zM811 1782h178l-229 -226h-113z" />
    <glyph glyph-name="Acircumflex" unicode="&#xc2;" horiz-adv-x="1456" 
d="M1163 322h-868l-143 -322h-142l649 1434h138l649 -1434h-139zM1114 434l-383 860h-4l-383 -860h770zM903 1516l-172 184l-174 -184l-70 65l162 168h162l162 -168z" />
    <glyph glyph-name="Atilde" unicode="&#xc3;" horiz-adv-x="1456" 
d="M1163 322h-868l-143 -322h-142l649 1434h138l649 -1434h-139zM1114 434l-383 860h-4l-383 -860h770zM709 1593q-87 37 -127 37q-81 0 -93 -74h-75q6 78 51.5 123t120.5 45q40 0 75.5 -10.5t92.5 -36.5q86 -39 129 -39q76 0 92 76h72q-5 -78 -50 -123t-120 -45
q-65 0 -168 47z" />
    <glyph glyph-name="Adieresis" unicode="&#xc4;" horiz-adv-x="1456" 
d="M1163 322h-868l-143 -322h-142l649 1434h138l649 -1434h-139zM1114 434l-383 860h-4l-383 -860h770zM459 1704h172v-168h-172v168zM829 1704h172v-168h-172v168z" />
    <glyph glyph-name="Aring" unicode="&#xc5;" horiz-adv-x="1456" 
d="M1163 322h-868l-143 -322h-142l649 1434h138l649 -1434h-139zM1114 434l-383 860h-4l-383 -860h770zM498 1577q0 94 65.5 156.5t165.5 62.5q102 0 168 -62.5t66 -156.5t-66 -156.5t-168 -62.5q-100 0 -165.5 62.5t-65.5 156.5zM872 1577q0 63 -40 103t-103 40
q-62 0 -102.5 -40t-40.5 -103t40.5 -103t102.5 -40q63 0 103 40t40 103z" />
    <glyph glyph-name="AE" unicode="&#xc6;" horiz-adv-x="1986" 
d="M1153 1315v-518h653v-113h-653v-565h717v-119h-848v330h-703l-161 -330h-148l711 1434h1149v-119h-717zM1022 442v873h-221l-426 -873h647z" />
    <glyph glyph-name="Ccedilla" unicode="&#xc7;" horiz-adv-x="1579" 
d="M96 717q-2 158 54.5 298t154 239.5t234 156t288.5 53.5q250 0 436 -131t238 -352l-127 -31q-50 188 -196.5 292t-350.5 104q-170 0 -306 -78.5t-214 -222.5t-78 -328t78 -328t214 -222.5t306 -78.5q206 0 352.5 111.5t196.5 318.5l127 -33q-52 -239 -237 -377.5
t-439 -138.5q-152 -3 -288.5 54t-234 156t-154 239.5t-54.5 298.5zM1092 -283q0 -79 -60.5 -129.5t-154.5 -50.5q-124 0 -218 82l58 70q71 -68 160 -68q54 0 88 27t34 71q0 43 -32 68t-86 25q-76 0 -138 -56l-71 33l139 229l70 -30l-76 -121q37 18 90 18q87 0 142 -47
t55 -121z" />
    <glyph glyph-name="Egrave" unicode="&#xc8;" horiz-adv-x="1314" 
d="M186 1434h1012v-119h-881v-518h818v-113h-818v-565h881v-119h-1012v1434zM449 1782h178l164 -226h-115z" />
    <glyph glyph-name="Eacute" unicode="&#xc9;" horiz-adv-x="1314" 
d="M186 1434h1012v-119h-881v-518h818v-113h-818v-565h881v-119h-1012v1434zM791 1782h178l-230 -226h-112z" />
    <glyph glyph-name="Ecircumflex" unicode="&#xca;" horiz-adv-x="1314" 
d="M186 1434h1012v-119h-881v-518h818v-113h-818v-565h881v-119h-1012v1434zM883 1516l-172 184l-174 -184l-70 65l162 168h162l161 -168z" />
    <glyph glyph-name="Edieresis" unicode="&#xcb;" horiz-adv-x="1314" 
d="M186 1434h1012v-119h-881v-518h818v-113h-818v-565h881v-119h-1012v1434zM438 1704h172v-168h-172v168zM809 1704h172v-168h-172v168z" />
    <glyph glyph-name="Igrave" unicode="&#xcc;" horiz-adv-x="501" 
d="M186 1434h131v-1434h-131v1434zM-8 1782h178l164 -226h-115z" />
    <glyph glyph-name="Iacute" unicode="&#xcd;" horiz-adv-x="501" 
d="M186 1434h131v-1434h-131v1434zM334 1782h178l-229 -226h-113z" />
    <glyph glyph-name="Icircumflex" unicode="&#xce;" horiz-adv-x="501" 
d="M186 1434h131v-1434h-131v1434zM426 1516l-172 184l-174 -184l-70 65l162 168h162l162 -168z" />
    <glyph glyph-name="Idieresis" unicode="&#xcf;" horiz-adv-x="501" 
d="M186 1434h131v-1434h-131v1434zM-20 1704h172v-168h-172v168zM350 1704h172v-168h-172v168z" />
    <glyph glyph-name="Eth" unicode="&#xd0;" horiz-adv-x="1538" 
d="M186 1434h555q333 0 517 -187t184 -530q0 -349 -181.5 -533t-521.5 -184h-553v1434zM739 119q279 0 423.5 151.5t144.5 446.5q0 293 -145 445.5t-421 152.5h-424v-1196h422zM-23 770h811v-106h-811v106z" />
    <glyph glyph-name="Ntilde" unicode="&#xd1;" horiz-adv-x="1564" 
d="M186 1434h142l917 -1248h4v1248h131v-1434h-143l-915 1247h-5v-1247h-131v1434zM762 1593q-87 37 -127 37q-80 0 -92 -74h-76q6 78 51.5 123t120.5 45q40 0 75.5 -10.5t92.5 -36.5q86 -39 129 -39q76 0 92 76h72q-5 -78 -50 -123t-120 -45q-65 0 -168 47z" />
    <glyph glyph-name="Ograve" unicode="&#xd2;" horiz-adv-x="1654" 
d="M96 717q-2 159 53 299t152 239t234 155t292 54q154 2 290.5 -54t234 -155t153 -239t54.5 -299q2 -213 -93.5 -385.5t-264 -269t-374.5 -93.5q-207 -3 -375.5 93.5t-263.5 269t-92 385.5zM1425 717q0 279 -168.5 454t-429.5 175t-429.5 -175t-168.5 -454t168.5 -454
t429.5 -175t429.5 175t168.5 454zM567 1812h178l164 -225h-114z" />
    <glyph glyph-name="Oacute" unicode="&#xd3;" horiz-adv-x="1654" 
d="M96 717q-2 159 53 299t152 239t234 155t292 54q154 2 290.5 -54t234 -155t153 -239t54.5 -299q2 -213 -93.5 -385.5t-264 -269t-374.5 -93.5q-207 -3 -375.5 93.5t-263.5 269t-92 385.5zM1425 717q0 279 -168.5 454t-429.5 175t-429.5 -175t-168.5 -454t168.5 -454
t429.5 -175t429.5 175t168.5 454zM909 1812h178l-229 -225h-113z" />
    <glyph glyph-name="Ocircumflex" unicode="&#xd4;" horiz-adv-x="1654" 
d="M96 717q-2 159 53 299t152 239t234 155t292 54q154 2 290.5 -54t234 -155t153 -239t54.5 -299q2 -213 -93.5 -385.5t-264 -269t-374.5 -93.5q-207 -3 -375.5 93.5t-263.5 269t-92 385.5zM1425 717q0 279 -168.5 454t-429.5 175t-429.5 -175t-168.5 -454t168.5 -454
t429.5 -175t429.5 175t168.5 454zM1001 1546l-172 185l-174 -185l-69 66l162 168h161l162 -168z" />
    <glyph glyph-name="Otilde" unicode="&#xd5;" horiz-adv-x="1654" 
d="M96 717q-2 159 53 299t152 239t234 155t292 54q154 2 290.5 -54t234 -155t153 -239t54.5 -299q2 -213 -93.5 -385.5t-264 -269t-374.5 -93.5q-207 -3 -375.5 93.5t-263.5 269t-92 385.5zM1425 717q0 279 -168.5 454t-429.5 175t-429.5 -175t-168.5 -454t168.5 -454
t429.5 -175t429.5 175t168.5 454zM807 1624q-87 37 -127 37q-80 0 -92 -74h-76q6 78 51.5 123t120.5 45q40 0 75.5 -10.5t92.5 -36.5q86 -39 129 -39q76 0 92 76h72q-5 -78 -50 -123t-120 -45q-65 0 -168 47z" />
    <glyph glyph-name="Odieresis" unicode="&#xd6;" horiz-adv-x="1654" 
d="M96 717q-2 159 53 299t152 239t234 155t292 54q154 2 290.5 -54t234 -155t153 -239t54.5 -299q2 -213 -93.5 -385.5t-264 -269t-374.5 -93.5q-207 -3 -375.5 93.5t-263.5 269t-92 385.5zM1425 717q0 279 -168.5 454t-429.5 175t-429.5 -175t-168.5 -454t168.5 -454
t429.5 -175t429.5 175t168.5 454zM557 1735h172v-168h-172v168zM928 1735h172v-168h-172v168z" />
    <glyph glyph-name="multiply" unicode="&#xd7;" horiz-adv-x="1093" 
d="M139 391l332 332l-332 330l76 77l332 -333l332 333l75 -77l-331 -330l331 -332l-75 -78l-332 334l-332 -334z" />
    <glyph glyph-name="Oslash" unicode="&#xd8;" horiz-adv-x="1654" 
d="M1559 717q2 -213 -93.5 -385.5t-264 -269t-374.5 -93.5q-257 0 -452 146l-96 -113l-70 57l98 115q-101 101 -156 241t-55 302q-2 159 53 299t152 239t234 155t292 54q258 0 453 -145l94 113l70 -60l-96 -112q101 -101 156 -241t55 -302zM385 268l817 961
q-157 121 -375 121q-263 0 -432.5 -175.5t-169.5 -457.5q0 -268 160 -449zM1430 717q0 269 -160 450l-817 -960q153 -123 374 -123q264 0 433.5 175.5t169.5 457.5z" />
    <glyph glyph-name="Ugrave" unicode="&#xd9;" horiz-adv-x="1544" 
d="M176 543v891h131v-887q0 -240 112.5 -349.5t352.5 -109.5q239 0 352 110.5t113 348.5v887h131v-891q0 -574 -596 -574t-596 574zM512 1782h178l164 -226h-115z" />
    <glyph glyph-name="Uacute" unicode="&#xda;" horiz-adv-x="1544" 
d="M176 543v891h131v-887q0 -240 112.5 -349.5t352.5 -109.5q239 0 352 110.5t113 348.5v887h131v-891q0 -574 -596 -574t-596 574zM854 1782h178l-229 -226h-113z" />
    <glyph glyph-name="Ucircumflex" unicode="&#xdb;" horiz-adv-x="1544" 
d="M176 543v891h131v-887q0 -240 112.5 -349.5t352.5 -109.5q239 0 352 110.5t113 348.5v887h131v-891q0 -574 -596 -574t-596 574zM946 1516l-172 184l-174 -184l-70 65l162 168h162l162 -168z" />
    <glyph glyph-name="Udieresis" unicode="&#xdc;" horiz-adv-x="1544" 
d="M176 543v891h131v-887q0 -240 112.5 -349.5t352.5 -109.5q239 0 352 110.5t113 348.5v887h131v-891q0 -574 -596 -574t-596 574zM502 1704h172v-168h-172v168zM872 1704h172v-168h-172v168z" />
    <glyph glyph-name="Yacute" unicode="&#xdd;" horiz-adv-x="1374" 
d="M621 586l-621 848h156l528 -732h4l529 732h157l-622 -848v-586h-131v586zM770 1782h178l-229 -226h-113z" />
    <glyph glyph-name="Thorn" unicode="&#xde;" horiz-adv-x="1427" 
d="M1372 723q0 -202 -129.5 -317t-355.5 -115h-570v-291h-131v1434h131v-277h570q223 0 354 -116.5t131 -317.5zM1241 723q0 156 -90 235.5t-268 79.5h-566v-628h566q358 0 358 313z" />
    <glyph glyph-name="germandbls" unicode="&#xdf;" horiz-adv-x="1280" 
d="M145 1008q0 215 131.5 335.5t358.5 120.5q210 0 335.5 -104.5t125.5 -269.5q0 -98 -61.5 -175.5t-162.5 -113.5v-4q142 -31 223 -131.5t81 -243.5q0 -202 -145 -312t-408 -110h-144v111h150q205 0 313.5 79t108.5 232q0 148 -98 227.5t-281 79.5h-193v109h148
q160 0 253 67.5t93 184.5q0 120 -89 192t-247 72q-175 0 -272 -92t-97 -269v-993h-123v1008z" />
    <glyph glyph-name="agrave" unicode="&#xe0;" horiz-adv-x="1179" 
d="M104 283q0 143 109 220t371 120q185 29 257 68.5t72 111.5q0 92 -83 147.5t-220 55.5q-155 0 -253 -75t-121 -210l-121 27q27 167 161 268q132 100 334 100q197 0 315.5 -92t118.5 -244v-780h-120v158h-2q-54 -87 -167.5 -138t-252.5 -51q-186 0 -292 83t-106 231z
M922 371v274h-4q-26 -44 -96.5 -72t-213.5 -51q-206 -35 -292.5 -90t-86.5 -149q0 -203 295 -203q164 0 281 85.5t117 205.5zM350 1464h178l164 -225h-114z" />
    <glyph glyph-name="aacute" unicode="&#xe1;" horiz-adv-x="1179" 
d="M104 283q0 143 109 220t371 120q185 29 257 68.5t72 111.5q0 92 -83 147.5t-220 55.5q-155 0 -253 -75t-121 -210l-121 27q27 167 161 268q132 100 334 100q197 0 315.5 -92t118.5 -244v-780h-120v158h-2q-54 -87 -167.5 -138t-252.5 -51q-186 0 -292 83t-106 231z
M922 371v274h-4q-26 -44 -96.5 -72t-213.5 -51q-206 -35 -292.5 -90t-86.5 -149q0 -203 295 -203q164 0 281 85.5t117 205.5zM692 1464h178l-229 -225h-113z" />
    <glyph glyph-name="acircumflex" unicode="&#xe2;" horiz-adv-x="1179" 
d="M104 283q0 143 109 220t371 120q185 29 257 68.5t72 111.5q0 92 -83 147.5t-220 55.5q-155 0 -253 -75t-121 -210l-121 27q27 167 161 268q132 100 334 100q197 0 315.5 -92t118.5 -244v-780h-120v158h-2q-54 -87 -167.5 -138t-252.5 -51q-186 0 -292 83t-106 231z
M922 371v274h-4q-26 -44 -96.5 -72t-213.5 -51q-206 -35 -292.5 -90t-86.5 -149q0 -203 295 -203q164 0 281 85.5t117 205.5zM784 1198l-172 184l-174 -184l-69 66l161 168h162l162 -168z" />
    <glyph glyph-name="atilde" unicode="&#xe3;" horiz-adv-x="1179" 
d="M104 283q0 143 109 220t371 120q185 29 257 68.5t72 111.5q0 92 -83 147.5t-220 55.5q-155 0 -253 -75t-121 -210l-121 27q27 167 161 268q132 100 334 100q197 0 315.5 -92t118.5 -244v-780h-120v158h-2q-54 -87 -167.5 -138t-252.5 -51q-186 0 -292 83t-106 231z
M922 371v274h-4q-26 -44 -96.5 -72t-213.5 -51q-206 -35 -292.5 -90t-86.5 -149q0 -203 295 -203q164 0 281 85.5t117 205.5zM590 1276q-87 37 -127 37q-80 0 -92 -74h-76q6 78 51.5 123t120.5 45q40 0 75.5 -10.5t92.5 -36.5q86 -39 129 -39q76 0 92 76h72q-5 -78 -50 -123
t-120 -45q-65 0 -168 47z" />
    <glyph glyph-name="adieresis" unicode="&#xe4;" horiz-adv-x="1179" 
d="M104 283q0 143 109 220t371 120q185 29 257 68.5t72 111.5q0 92 -83 147.5t-220 55.5q-155 0 -253 -75t-121 -210l-121 27q27 167 161 268q132 100 334 100q197 0 315.5 -92t118.5 -244v-780h-120v158h-2q-54 -87 -167.5 -138t-252.5 -51q-186 0 -292 83t-106 231z
M922 371v274h-4q-26 -44 -96.5 -72t-213.5 -51q-206 -35 -292.5 -90t-86.5 -149q0 -203 295 -203q164 0 281 85.5t117 205.5zM340 1386h172v-167h-172v167zM711 1386h172v-167h-172v167z" />
    <glyph glyph-name="aring" unicode="&#xe5;" horiz-adv-x="1179" 
d="M371 1374q0 88 60.5 145.5t152.5 57.5q94 0 154.5 -57.5t60.5 -145.5q0 -86 -60.5 -143t-154.5 -57q-92 0 -152.5 57t-60.5 143zM715 1374q0 60 -36.5 96.5t-94.5 36.5q-57 0 -94 -38t-37 -95t37 -94t94 -37t94 37t37 94zM104 283q0 143 109 220t371 120q185 29 257 68.5
t72 111.5q0 92 -83 147.5t-220 55.5q-155 0 -253 -75t-121 -210l-121 27q27 167 161 268q132 100 334 100q197 0 315.5 -92t118.5 -244v-780h-120v158h-2q-54 -87 -167.5 -138t-252.5 -51q-186 0 -292 83t-106 231zM922 371v274h-4q-26 -44 -96.5 -72t-213.5 -51
q-206 -35 -292.5 -90t-86.5 -149q0 -203 295 -203q164 0 281 85.5t117 205.5z" />
    <glyph glyph-name="ae" unicode="&#xe6;" horiz-adv-x="2103" 
d="M1999 492h-975q3 -184 126 -302t308 -118q272 0 406 262l100 -62q-78 -146 -208.5 -224.5t-297.5 -78.5q-160 0 -287 71t-194 198q-44 -122 -176.5 -195.5t-306.5 -73.5q-180 0 -282.5 83t-102.5 231q0 110 61.5 178t163.5 100q109 36 244 60q130 27 186.5 43.5
t95.5 46.5q43 34 43 92q0 97 -82 154t-223 57q-159 0 -258.5 -77t-112.5 -212l-116 14q15 173 147 275q135 102 340 102q156 0 263.5 -60.5t142.5 -170.5q69 110 186 170.5t260 60.5q239 0 394 -161.5t155 -417.5v-45zM1876 592q-6 186 -127 304t-301 118
q-181 0 -299.5 -117.5t-124.5 -304.5h852zM909 651h-4q-27 -48 -93.5 -72.5t-209.5 -52.5q-135 -26 -203.5 -49t-119.5 -67q-52 -46 -52 -127q0 -209 293 -209q161 0 275 87t114 210v280z" />
    <glyph glyph-name="ccedilla" unicode="&#xe7;" horiz-adv-x="1308" 
d="M104 543q0 121 45 228t121.5 182.5t182 119t223.5 43.5q197 0 346 -104q148 -104 195 -283l-121 -31q-41 150 -150.5 229t-269.5 79q-192 0 -320.5 -129.5t-128.5 -333.5t128.5 -333.5t320.5 -129.5q160 0 269.5 78.5t150.5 228.5l121 -31q-46 -178 -195 -282
q-150 -105 -346 -105q-158 0 -289 74t-207 206t-76 294zM940 -283q0 -79 -60.5 -129.5t-154.5 -50.5q-123 0 -217 82l57 70q71 -68 160 -68q54 0 88.5 27t34.5 71q0 43 -32.5 68t-86.5 25q-75 0 -137 -56l-72 33l139 229l70 -30l-76 -121q37 18 90 18q87 0 142 -47t55 -121z
" />
    <glyph glyph-name="egrave" unicode="&#xe8;" horiz-adv-x="1335" 
d="M104 532q0 257 159 420.5t409 163.5q246 0 402.5 -161t156.5 -418v-45h-1002q0 -120 60 -216t161.5 -148t223.5 -52q294 0 432 258l98 -64q-159 -301 -530 -301q-254 0 -412 155t-158 408zM1104 594q-6 181 -128.5 298.5t-303.5 117.5q-186 0 -309 -119t-132 -297h873z
M412 1464h178l164 -225h-115z" />
    <glyph glyph-name="eacute" unicode="&#xe9;" horiz-adv-x="1335" 
d="M104 532q0 257 159 420.5t409 163.5q246 0 402.5 -161t156.5 -418v-45h-1002q0 -120 60 -216t161.5 -148t223.5 -52q294 0 432 258l98 -64q-159 -301 -530 -301q-254 0 -412 155t-158 408zM1104 594q-6 181 -128.5 298.5t-303.5 117.5q-186 0 -309 -119t-132 -297h873z
M754 1464h178l-230 -225h-112z" />
    <glyph glyph-name="ecircumflex" unicode="&#xea;" horiz-adv-x="1335" 
d="M104 532q0 257 159 420.5t409 163.5q246 0 402.5 -161t156.5 -418v-45h-1002q0 -120 60 -216t161.5 -148t223.5 -52q294 0 432 258l98 -64q-159 -301 -530 -301q-254 0 -412 155t-158 408zM1104 594q-6 181 -128.5 298.5t-303.5 117.5q-186 0 -309 -119t-132 -297h873z
M846 1198l-172 184l-174 -184l-70 66l162 168h162l161 -168z" />
    <glyph glyph-name="edieresis" unicode="&#xeb;" horiz-adv-x="1335" 
d="M104 532q0 257 159 420.5t409 163.5q246 0 402.5 -161t156.5 -418v-45h-1002q0 -120 60 -216t161.5 -148t223.5 -52q294 0 432 258l98 -64q-159 -301 -530 -301q-254 0 -412 155t-158 408zM1104 594q-6 181 -128.5 298.5t-303.5 117.5q-186 0 -309 -119t-132 -297h873z
M401 1386h172v-167h-172v167zM772 1386h172v-167h-172v167z" />
    <glyph glyph-name="igrave" unicode="&#xec;" horiz-adv-x="413" 
d="M145 1085h123v-1085h-123v1085zM-53 1434h178l164 -226h-115z" />
    <glyph glyph-name="iacute" unicode="&#xed;" horiz-adv-x="413" 
d="M145 1085h123v-1085h-123v1085zM289 1434h178l-229 -226h-113z" />
    <glyph glyph-name="icircumflex" unicode="&#xee;" horiz-adv-x="413" 
d="M145 1085h123v-1085h-123v1085zM379 1167l-172 185l-174 -185l-70 66l162 168h162l162 -168z" />
    <glyph glyph-name="idieresis" unicode="&#xef;" horiz-adv-x="401" 
d="M-45 1356h170v-168h-170v168zM276 1356h170v-168h-170v168zM145 1085h123v-1085h-123v1085z" />
    <glyph glyph-name="eth" unicode="&#xf0;" horiz-adv-x="1374" 
d="M1270 555q0 -257 -164 -421.5t-418 -164.5q-253 0 -418.5 163t-165.5 411q-3 160 72.5 293t209 208t294.5 72q116 0 213.5 -40t163.5 -115h4q-83 187 -252 366l-291 -98l-24 71l258 89q-61 61 -213 194v4h153q89 -80 170 -164l289 97l25 -70l-261 -88q355 -397 355 -807z
M1147 543q0 206 -128.5 334.5t-330.5 128.5q-203 0 -332 -128.5t-129 -334.5t129 -334.5t332 -128.5q202 0 330.5 128.5t128.5 334.5z" />
    <glyph glyph-name="ntilde" unicode="&#xf1;" horiz-adv-x="1327" 
d="M145 1085h121v-178h4q61 96 174 152.5t244 56.5q226 0 365 -126.5t139 -332.5v-657h-125v635q0 171 -102.5 271t-276.5 100q-184 0 -302 -111.5t-118 -282.5v-612h-123v1085zM659 1276q-87 37 -127 37q-80 0 -92 -74h-75q6 78 51.5 123t120.5 45q40 0 75.5 -10.5
t92.5 -36.5q86 -39 129 -39q76 0 92 76h71q-5 -78 -50 -123t-120 -45q-65 0 -168 47z" />
    <glyph glyph-name="ograve" unicode="&#xf2;" horiz-adv-x="1374" 
d="M104 543q0 248 165.5 410.5t418.5 162.5q162 3 297 -72t211.5 -208t73.5 -293q3 -160 -73.5 -293.5t-211.5 -208.5t-297 -72q-253 0 -418.5 163t-165.5 411zM1147 543q0 206 -128.5 334.5t-330.5 128.5q-201 0 -331 -129t-130 -334t130 -334t331 -129q202 0 330.5 128.5
t128.5 334.5zM428 1464h178l164 -225h-115z" />
    <glyph glyph-name="oacute" unicode="&#xf3;" horiz-adv-x="1374" 
d="M104 543q0 248 165.5 410.5t418.5 162.5q162 3 297 -72t211.5 -208t73.5 -293q3 -160 -73.5 -293.5t-211.5 -208.5t-297 -72q-253 0 -418.5 163t-165.5 411zM1147 543q0 206 -128.5 334.5t-330.5 128.5q-201 0 -331 -129t-130 -334t130 -334t331 -129q202 0 330.5 128.5
t128.5 334.5zM770 1464h178l-229 -225h-113z" />
    <glyph glyph-name="ocircumflex" unicode="&#xf4;" horiz-adv-x="1374" 
d="M104 543q0 248 165.5 410.5t418.5 162.5q162 3 297 -72t211.5 -208t73.5 -293q3 -160 -73.5 -293.5t-211.5 -208.5t-297 -72q-253 0 -418.5 163t-165.5 411zM1147 543q0 206 -128.5 334.5t-330.5 128.5q-201 0 -331 -129t-130 -334t130 -334t331 -129q202 0 330.5 128.5
t128.5 334.5zM862 1198l-172 184l-174 -184l-70 66l162 168h162l162 -168z" />
    <glyph glyph-name="otilde" unicode="&#xf5;" horiz-adv-x="1374" 
d="M104 543q0 248 165.5 410.5t418.5 162.5q162 3 297 -72t211.5 -208t73.5 -293q3 -160 -73.5 -293.5t-211.5 -208.5t-297 -72q-253 0 -418.5 163t-165.5 411zM1147 543q0 206 -128.5 334.5t-330.5 128.5q-201 0 -331 -129t-130 -334t130 -334t331 -129q202 0 330.5 128.5
t128.5 334.5zM668 1276q-87 37 -127 37q-80 0 -92 -74h-76q6 78 51.5 123t120.5 45q40 0 75.5 -10.5t92.5 -36.5q86 -39 129 -39q76 0 92 76h72q-5 -78 -50 -123t-120 -45q-65 0 -168 47z" />
    <glyph glyph-name="odieresis" unicode="&#xf6;" horiz-adv-x="1374" 
d="M104 543q0 248 165.5 410.5t418.5 162.5q162 3 297 -72t211.5 -208t73.5 -293q3 -160 -73.5 -293.5t-211.5 -208.5t-297 -72q-253 0 -418.5 163t-165.5 411zM1147 543q0 206 -128.5 334.5t-330.5 128.5q-201 0 -331 -129t-130 -334t130 -334t331 -129q202 0 330.5 128.5
t128.5 334.5zM418 1386h172v-167h-172v167zM788 1386h173v-167h-173v167z" />
    <glyph glyph-name="divide" unicode="&#xf7;" horiz-adv-x="1107" 
d="M432 1145q0 54 35 89.5t86 35.5q54 0 88.5 -35.5t34.5 -89.5q0 -51 -36 -86t-87 -35t-86 35t-35 86zM139 807h830v-107h-830v107zM432 352q0 51 35 87t86 36q54 0 88.5 -34.5t34.5 -88.5t-34.5 -88.5t-88.5 -34.5q-51 0 -86 34.5t-35 88.5z" />
    <glyph glyph-name="oslash" unicode="&#xf8;" horiz-adv-x="1374" 
d="M1270 543q3 -160 -73.5 -293.5t-211.5 -208.5t-297 -72q-228 0 -391 135l-96 -94l-54 53l97 95q-140 156 -140 385q0 248 165.5 410.5t418.5 162.5q233 0 389 -137l99 96l53 -53l-96 -96q137 -156 137 -383zM324 238l675 665q-121 109 -311 109q-204 0 -334.5 -130
t-130.5 -339q0 -183 101 -305zM1151 543q0 180 -98 305l-678 -666q126 -108 313 -108q203 0 333 130t130 339z" />
    <glyph glyph-name="ugrave" unicode="&#xf9;" horiz-adv-x="1288" 
d="M125 442v643h123v-622q0 -184 98.5 -283.5t278.5 -99.5q173 0 284 111t111 282v612h125v-1085h-123v176h-4q-62 -99 -170.5 -153t-247.5 -54q-223 0 -349 126t-126 347zM375 1434h178l164 -226h-115z" />
    <glyph glyph-name="uacute" unicode="&#xfa;" horiz-adv-x="1288" 
d="M125 442v643h123v-622q0 -184 98.5 -283.5t278.5 -99.5q173 0 284 111t111 282v612h125v-1085h-123v176h-4q-62 -99 -170.5 -153t-247.5 -54q-223 0 -349 126t-126 347zM717 1434h178l-229 -226h-113z" />
    <glyph glyph-name="ucircumflex" unicode="&#xfb;" horiz-adv-x="1288" 
d="M125 442v643h123v-622q0 -184 98.5 -283.5t278.5 -99.5q173 0 284 111t111 282v612h125v-1085h-123v176h-4q-62 -99 -170.5 -153t-247.5 -54q-223 0 -349 126t-126 347zM809 1167l-172 185l-174 -185l-70 66l162 168h162l162 -168z" />
    <glyph glyph-name="udieresis" unicode="&#xfc;" horiz-adv-x="1288" 
d="M125 442v643h123v-622q0 -184 98.5 -283.5t278.5 -99.5q173 0 284 111t111 282v612h125v-1085h-123v176h-4q-62 -99 -170.5 -153t-247.5 -54q-223 0 -349 126t-126 347zM365 1356h172v-168h-172v168zM735 1356h172v-168h-172v168z" />
    <glyph glyph-name="yacute" unicode="&#xfd;" horiz-adv-x="1175" 
d="M518 94l-498 991h142l424 -860h4l424 860h141l-776 -1546h-139zM670 1434h178l-230 -226h-112z" />
    <glyph glyph-name="thorn" unicode="&#xfe;" horiz-adv-x="1357" 
d="M1253 543q0 -163 -75 -295t-204.5 -205.5t-287.5 -73.5q-131 0 -241 52.5t-173 140.5h-4v-623h-123v1956h123v-571h4q64 88 175.5 140t248.5 52q113 2 216.5 -41.5t179 -120t119.5 -184t42 -227.5zM1130 543q0 206 -123.5 334.5t-316.5 128.5q-176 0 -299 -102.5
t-123 -241.5v-238q0 -139 121.5 -241.5t290.5 -102.5q195 0 322.5 129t127.5 334z" />
    <glyph glyph-name="ydieresis" unicode="&#xff;" horiz-adv-x="1175" 
d="M518 94l-498 991h142l424 -860h4l424 860h141l-776 -1546h-139zM317 1356h172v-168h-172v168zM688 1356h172v-168h-172v168z" />
    <glyph glyph-name="Amacron" unicode="&#x100;" horiz-adv-x="1456" 
d="M1163 322h-868l-143 -322h-142l649 1434h138l649 -1434h-139zM1114 434l-383 860h-4l-383 -860h770zM436 1653h586v-97h-586v97z" />
    <glyph glyph-name="amacron" unicode="&#x101;" horiz-adv-x="1179" 
d="M104 283q0 143 109 220t371 120q185 29 257 68.5t72 111.5q0 92 -83 147.5t-220 55.5q-155 0 -253 -75t-121 -210l-121 27q27 167 161 268q132 100 334 100q197 0 315.5 -92t118.5 -244v-780h-120v158h-2q-54 -87 -167.5 -138t-252.5 -51q-186 0 -292 83t-106 231z
M922 371v274h-4q-26 -44 -96.5 -72t-213.5 -51q-206 -35 -292.5 -90t-86.5 -149q0 -203 295 -203q164 0 281 85.5t117 205.5zM317 1335h586v-96h-586v96z" />
    <glyph glyph-name="Abreve" unicode="&#x102;" horiz-adv-x="1456" 
d="M1163 322h-868l-143 -322h-142l649 1434h138l649 -1434h-139zM1114 434l-383 860h-4l-383 -860h770zM463 1763h78q28 -123 188 -123q161 0 186 123h80q-8 -106 -78.5 -166.5t-187.5 -60.5q-116 0 -187.5 60.5t-78.5 166.5z" />
    <glyph glyph-name="abreve" unicode="&#x103;" horiz-adv-x="1179" 
d="M104 283q0 143 109 220t371 120q185 29 257 68.5t72 111.5q0 92 -83 147.5t-220 55.5q-155 0 -253 -75t-121 -210l-121 27q27 167 161 268q132 100 334 100q197 0 315.5 -92t118.5 -244v-780h-120v158h-2q-54 -87 -167.5 -138t-252.5 -51q-186 0 -292 83t-106 231z
M922 371v274h-4q-26 -44 -96.5 -72t-213.5 -51q-206 -35 -292.5 -90t-86.5 -149q0 -203 295 -203q164 0 281 85.5t117 205.5zM344 1446h78q28 -123 188 -123q78 0 126.5 31.5t60.5 91.5h80q-8 -106 -79 -166.5t-188 -60.5q-116 0 -187.5 60.5t-78.5 166.5z" />
    <glyph glyph-name="Aogonek" unicode="&#x104;" horiz-adv-x="1456" 
d="M1163 322h-868l-143 -322h-142l649 1434h138l649 -1434h-139zM1114 434l-383 860h-4l-383 -860h770zM1157 -236q0 67 55 136t152 125l63 -25q-167 -93 -167 -211q0 -76 79 -76q53 0 121 41l41 -94q-83 -47 -176 -47q-80 0 -124 39t-44 112z" />
    <glyph glyph-name="aogonek" unicode="&#x105;" horiz-adv-x="1179" 
d="M104 283q0 143 109 220t371 120q185 29 257 68.5t72 111.5q0 92 -83 147.5t-220 55.5q-155 0 -253 -75t-121 -210l-121 27q27 167 161 268q132 100 334 100q197 0 315.5 -92t118.5 -244v-780h-120v158h-2q-54 -87 -167.5 -138t-252.5 -51q-186 0 -292 83t-106 231z
M922 371v274h-4q-26 -44 -96.5 -72t-213.5 -51q-206 -35 -292.5 -90t-86.5 -149q0 -203 295 -203q164 0 281 85.5t117 205.5zM756 -236q0 67 55 136t152 125l63 -25q-168 -94 -168 -211q0 -76 80 -76q53 0 121 41l41 -94q-83 -47 -176 -47q-80 0 -124 39t-44 112z" />
    <glyph glyph-name="Cacute" unicode="&#x106;" horiz-adv-x="1579" 
d="M96 717q-2 158 54.5 298t154 239.5t234 156t288.5 53.5q250 0 436 -131t238 -352l-127 -31q-50 188 -196.5 292t-350.5 104q-170 0 -306 -78.5t-214 -222.5t-78 -328t78 -328t214 -222.5t306 -78.5q206 0 352.5 111.5t196.5 318.5l127 -33q-52 -239 -237 -377.5
t-439 -138.5q-152 -3 -288.5 54t-234 156t-154 239.5t-54.5 298.5zM909 1812h178l-229 -225h-113z" />
    <glyph glyph-name="cacute" unicode="&#x107;" horiz-adv-x="1308" 
d="M104 543q0 121 45 228t121.5 182.5t182 119t223.5 43.5q197 0 346 -104q148 -104 195 -283l-121 -31q-41 150 -150.5 229t-269.5 79q-192 0 -320.5 -129.5t-128.5 -333.5t128.5 -333.5t320.5 -129.5q160 0 269.5 78.5t150.5 228.5l121 -31q-46 -178 -195 -282
q-150 -105 -346 -105q-158 0 -289 74t-207 206t-76 294zM758 1464h178l-229 -225h-113z" />
    <glyph glyph-name="Ccircumflex" unicode="&#x108;" horiz-adv-x="1579" 
d="M96 717q-2 158 54.5 298t154 239.5t234 156t288.5 53.5q250 0 436 -131t238 -352l-127 -31q-50 188 -196.5 292t-350.5 104q-170 0 -306 -78.5t-214 -222.5t-78 -328t78 -328t214 -222.5t306 -78.5q206 0 352.5 111.5t196.5 318.5l127 -33q-52 -239 -237 -377.5
t-439 -138.5q-152 -3 -288.5 54t-234 156t-154 239.5t-54.5 298.5zM1001 1546l-172 185l-174 -185l-69 66l162 168h161l162 -168z" />
    <glyph glyph-name="ccircumflex" unicode="&#x109;" horiz-adv-x="1308" 
d="M104 543q0 121 45 228t121.5 182.5t182 119t223.5 43.5q197 0 346 -104q148 -104 195 -283l-121 -31q-41 150 -150.5 229t-269.5 79q-192 0 -320.5 -129.5t-128.5 -333.5t128.5 -333.5t320.5 -129.5q160 0 269.5 78.5t150.5 228.5l121 -31q-46 -178 -195 -282
q-150 -105 -346 -105q-158 0 -289 74t-207 206t-76 294zM850 1198l-172 184l-174 -184l-70 66l162 168h162l162 -168z" />
    <glyph glyph-name="Cdotaccent" unicode="&#x10a;" horiz-adv-x="1579" 
d="M96 717q-2 158 54.5 298t154 239.5t234 156t288.5 53.5q250 0 436 -131t238 -352l-127 -31q-50 188 -196.5 292t-350.5 104q-170 0 -306 -78.5t-214 -222.5t-78 -328t78 -328t214 -222.5t306 -78.5q206 0 352.5 111.5t196.5 318.5l127 -33q-52 -239 -237 -377.5
t-439 -138.5q-152 -3 -288.5 54t-234 156t-154 239.5t-54.5 298.5zM743 1753h170v-166h-170v166z" />
    <glyph glyph-name="cdotaccent" unicode="&#x10b;" horiz-adv-x="1308" 
d="M104 543q0 121 45 228t121.5 182.5t182 119t223.5 43.5q197 0 346 -104q148 -104 195 -283l-121 -31q-41 150 -150.5 229t-269.5 79q-192 0 -320.5 -129.5t-128.5 -333.5t128.5 -333.5t320.5 -129.5q160 0 269.5 78.5t150.5 228.5l121 -31q-46 -178 -195 -282
q-150 -105 -346 -105q-158 0 -289 74t-207 206t-76 294zM592 1405h170v-166h-170v166z" />
    <glyph glyph-name="Ccaron" unicode="&#x10c;" horiz-adv-x="1579" 
d="M96 717q-2 158 54.5 298t154 239.5t234 156t288.5 53.5q250 0 436 -131t238 -352l-127 -31q-50 188 -196.5 292t-350.5 104q-170 0 -306 -78.5t-214 -222.5t-78 -328t78 -328t214 -222.5t306 -78.5q206 0 352.5 111.5t196.5 318.5l127 -33q-52 -239 -237 -377.5
t-439 -138.5q-152 -3 -288.5 54t-234 156t-154 239.5t-54.5 298.5zM1071 1735l-162 -168h-161l-162 168l69 65l174 -182l172 182z" />
    <glyph glyph-name="ccaron" unicode="&#x10d;" horiz-adv-x="1308" 
d="M104 543q0 121 45 228t121.5 182.5t182 119t223.5 43.5q197 0 346 -104q148 -104 195 -283l-121 -31q-41 150 -150.5 229t-269.5 79q-192 0 -320.5 -129.5t-128.5 -333.5t128.5 -333.5t320.5 -129.5q160 0 269.5 78.5t150.5 228.5l121 -31q-46 -178 -195 -282
q-150 -105 -346 -105q-158 0 -289 74t-207 206t-76 294zM920 1386l-162 -167h-162l-162 167l70 66l174 -182l172 182z" />
    <glyph glyph-name="Dcaron" unicode="&#x10e;" horiz-adv-x="1538" 
d="M186 1434h555q333 0 517 -187t184 -530q0 -349 -181.5 -533t-521.5 -184h-553v1434zM739 119q279 0 423.5 151.5t144.5 446.5q0 293 -145 445.5t-421 152.5h-424v-1196h422zM948 1704l-162 -168h-161l-162 168l69 65l175 -182l172 182z" />
    <glyph glyph-name="dcaron" unicode="&#x10f;" horiz-adv-x="1482" 
d="M104 543q0 121 44.5 228t120.5 182.5t181 119t222 43.5q136 0 250.5 -50.5t183.5 -141.5h4v571h123v-1495h-119v162h-4q-69 -89 -182 -141t-246 -52q-164 0 -295.5 71.5t-207 203t-75.5 299.5zM1110 424v238q0 91 -57 170t-157 126.5t-218 47.5q-195 0 -323 -129
t-128 -334q0 -211 128 -337t333 -126q111 -3 210 45.5t157 129t55 169.5zM1335 1237q72 12 72 90h-78v168h182v-147q0 -82 -45 -127.5t-131 -51.5v68z" />
    <glyph glyph-name="Dcroat" unicode="&#x110;" horiz-adv-x="1538" 
d="M186 1434h555q333 0 517 -187t184 -530q0 -349 -181.5 -533t-521.5 -184h-553v1434zM739 119q279 0 423.5 151.5t144.5 446.5q0 293 -145 445.5t-421 152.5h-424v-1196h422zM-23 770h811v-106h-811v106z" />
    <glyph glyph-name="dcroat" unicode="&#x111;" horiz-adv-x="1378" 
d="M104 543q0 121 44.5 228t120.5 182.5t181 119t222 43.5q136 0 250.5 -50.5t183.5 -141.5h4v571h123v-1495h-119v162h-4q-69 -89 -182 -141t-246 -52q-164 0 -295.5 71.5t-207 203t-75.5 299.5zM1110 424v238q0 91 -57 170t-157 126.5t-218 47.5q-195 0 -323 -129
t-128 -334q0 -211 128 -337t333 -126q111 -3 210 45.5t157 129t55 169.5zM702 1360h639v-98h-639v98z" />
    <glyph glyph-name="Emacron" unicode="&#x112;" horiz-adv-x="1314" 
d="M186 1434h1012v-119h-881v-518h818v-113h-818v-565h881v-119h-1012v1434zM416 1653h585v-97h-585v97z" />
    <glyph glyph-name="emacron" unicode="&#x113;" horiz-adv-x="1335" 
d="M104 532q0 257 159 420.5t409 163.5q246 0 402.5 -161t156.5 -418v-45h-1002q0 -120 60 -216t161.5 -148t223.5 -52q294 0 432 258l98 -64q-159 -301 -530 -301q-254 0 -412 155t-158 408zM1104 594q-6 181 -128.5 298.5t-303.5 117.5q-186 0 -309 -119t-132 -297h873z
M379 1335h586v-96h-586v96z" />
    <glyph glyph-name="Ebreve" unicode="&#x114;" horiz-adv-x="1314" 
d="M186 1434h1012v-119h-881v-518h818v-113h-818v-565h881v-119h-1012v1434zM442 1763h78q28 -123 189 -123t186 123h80q-8 -106 -78.5 -166.5t-187.5 -60.5q-116 0 -188 61t-79 166z" />
    <glyph glyph-name="ebreve" unicode="&#x115;" horiz-adv-x="1335" 
d="M104 532q0 257 159 420.5t409 163.5q246 0 402.5 -161t156.5 -418v-45h-1002q0 -120 60 -216t161.5 -148t223.5 -52q294 0 432 258l98 -64q-159 -301 -530 -301q-254 0 -412 155t-158 408zM1104 594q-6 181 -128.5 298.5t-303.5 117.5q-186 0 -309 -119t-132 -297h873z
M406 1446h77q28 -123 189 -123t186 123h80q-8 -106 -78.5 -166.5t-187.5 -60.5q-116 0 -187.5 60.5t-78.5 166.5z" />
    <glyph glyph-name="Edotaccent" unicode="&#x116;" horiz-adv-x="1314" 
d="M186 1434h1012v-119h-881v-518h818v-113h-818v-565h881v-119h-1012v1434zM625 1722h170v-166h-170v166z" />
    <glyph glyph-name="edotaccent" unicode="&#x117;" horiz-adv-x="1335" 
d="M104 532q0 257 159 420.5t409 163.5q246 0 402.5 -161t156.5 -418v-45h-1002q0 -120 60 -216t161.5 -148t223.5 -52q294 0 432 258l98 -64q-159 -301 -530 -301q-254 0 -412 155t-158 408zM1104 594q-6 181 -128.5 298.5t-303.5 117.5q-186 0 -309 -119t-132 -297h873z
M588 1405h170v-166h-170v166z" />
    <glyph glyph-name="Eogonek" unicode="&#x118;" horiz-adv-x="1314" 
d="M186 1434h1012v-119h-881v-518h818v-113h-818v-565h881v-119h-1012v1434zM838 -236q0 67 54.5 136t151.5 125l64 -25q-168 -94 -168 -211q0 -76 80 -76q53 0 121 41l41 -94q-83 -47 -176 -47q-80 0 -124 39t-44 112z" />
    <glyph glyph-name="eogonek" unicode="&#x119;" horiz-adv-x="1335" 
d="M104 532q0 257 159 420.5t409 163.5q246 0 402.5 -161t156.5 -418v-45h-1002q0 -120 60 -216t161.5 -148t223.5 -52q294 0 432 258l98 -64q-159 -301 -530 -301q-254 0 -412 155t-158 408zM1104 594q-6 181 -128.5 298.5t-303.5 117.5q-186 0 -309 -119t-132 -297h873z
M616 -236q0 67 55 136t152 125l64 -25q-168 -94 -168 -211q0 -76 80 -76q53 0 121 41l41 -94q-83 -47 -177 -47q-80 0 -124 39t-44 112z" />
    <glyph glyph-name="Ecaron" unicode="&#x11a;" horiz-adv-x="1314" 
d="M186 1434h1012v-119h-881v-518h818v-113h-818v-565h881v-119h-1012v1434zM952 1704l-161 -168h-162l-162 168l70 65l174 -182l172 182z" />
    <glyph glyph-name="ecaron" unicode="&#x11b;" horiz-adv-x="1335" 
d="M104 532q0 257 159 420.5t409 163.5q246 0 402.5 -161t156.5 -418v-45h-1002q0 -120 60 -216t161.5 -148t223.5 -52q294 0 432 258l98 -64q-159 -301 -530 -301q-254 0 -412 155t-158 408zM1104 594q-6 181 -128.5 298.5t-303.5 117.5q-186 0 -309 -119t-132 -297h873z
M915 1386l-161 -167h-162l-162 167l70 66l174 -182l172 182z" />
    <glyph glyph-name="Gcircumflex" unicode="&#x11c;" horiz-adv-x="1585" 
d="M96 717q-3 208 91.5 380.5t261.5 271t370 95.5q246 0 427.5 -135.5t234.5 -353.5l-129 -31q-51 189 -193 295.5t-340 106.5q-257 0 -423.5 -176.5t-166.5 -452.5q0 -181 76 -325t210.5 -224t303.5 -80q240 0 389 137t152 344h-520v113h649v-98q0 -131 -49 -245
t-136 -195.5t-212.5 -128t-272.5 -46.5q-152 -2 -287.5 55.5t-231.5 157.5t-151 239.5t-53 295.5zM993 1546l-172 185l-174 -185l-69 66l161 168h162l162 -168z" />
    <glyph glyph-name="gcircumflex" unicode="&#x11d;" horiz-adv-x="1368" 
d="M186 -168l107 51q57 -135 157.5 -199.5t254.5 -64.5q180 0 294.5 106t114.5 271v170h-4q-66 -92 -180 -144.5t-250 -52.5q-255 0 -415.5 160t-160.5 414q-2 119 42 226t120.5 184t182.5 121t223 42q136 0 250.5 -50.5t183.5 -141.5h4v161h123v-1097q0 -209 -149 -344.5
t-379 -135.5q-190 0 -323 83t-196 241zM1110 424v238q0 142 -126.5 243t-305.5 101q-198 0 -324.5 -129.5t-126.5 -333.5q0 -214 123.5 -338.5t337.5 -124.5q171 0 296.5 103t125.5 241zM846 1198l-172 184l-174 -184l-70 66l162 168h162l161 -168z" />
    <glyph glyph-name="Gbreve" unicode="&#x11e;" horiz-adv-x="1585" 
d="M96 717q-3 208 91.5 380.5t261.5 271t370 95.5q246 0 427.5 -135.5t234.5 -353.5l-129 -31q-51 189 -193 295.5t-340 106.5q-257 0 -423.5 -176.5t-166.5 -452.5q0 -181 76 -325t210.5 -224t303.5 -80q240 0 389 137t152 344h-520v113h649v-98q0 -131 -49 -245
t-136 -195.5t-212.5 -128t-272.5 -46.5q-152 -2 -287.5 55.5t-231.5 157.5t-151 239.5t-53 295.5zM553 1794h78q28 -123 188 -123q78 0 126.5 31.5t60.5 91.5h79q-8 -106 -78.5 -166.5t-187.5 -60.5q-116 0 -187.5 60.5t-78.5 166.5z" />
    <glyph glyph-name="gbreve" unicode="&#x11f;" horiz-adv-x="1368" 
d="M186 -168l107 51q57 -135 157.5 -199.5t254.5 -64.5q180 0 294.5 106t114.5 271v170h-4q-66 -92 -180 -144.5t-250 -52.5q-255 0 -415.5 160t-160.5 414q-2 119 42 226t120.5 184t182.5 121t223 42q136 0 250.5 -50.5t183.5 -141.5h4v161h123v-1097q0 -209 -149 -344.5
t-379 -135.5q-190 0 -323 83t-196 241zM1110 424v238q0 142 -126.5 243t-305.5 101q-198 0 -324.5 -129.5t-126.5 -333.5q0 -214 123.5 -338.5t337.5 -124.5q171 0 296.5 103t125.5 241zM406 1446h77q28 -123 189 -123t186 123h80q-8 -106 -78.5 -166.5t-187.5 -60.5
q-116 0 -187.5 60.5t-78.5 166.5z" />
    <glyph glyph-name="Gdotaccent" unicode="&#x120;" horiz-adv-x="1585" 
d="M96 717q-3 208 91.5 380.5t261.5 271t370 95.5q246 0 427.5 -135.5t234.5 -353.5l-129 -31q-51 189 -193 295.5t-340 106.5q-257 0 -423.5 -176.5t-166.5 -452.5q0 -181 76 -325t210.5 -224t303.5 -80q240 0 389 137t152 344h-520v113h649v-98q0 -131 -49 -245
t-136 -195.5t-212.5 -128t-272.5 -46.5q-152 -2 -287.5 55.5t-231.5 157.5t-151 239.5t-53 295.5zM735 1753h170v-166h-170v166z" />
    <glyph glyph-name="gdotaccent" unicode="&#x121;" horiz-adv-x="1368" 
d="M186 -168l107 51q57 -135 157.5 -199.5t254.5 -64.5q180 0 294.5 106t114.5 271v170h-4q-66 -92 -180 -144.5t-250 -52.5q-255 0 -415.5 160t-160.5 414q-2 119 42 226t120.5 184t182.5 121t223 42q136 0 250.5 -50.5t183.5 -141.5h4v161h123v-1097q0 -209 -149 -344.5
t-379 -135.5q-190 0 -323 83t-196 241zM1110 424v238q0 142 -126.5 243t-305.5 101q-198 0 -324.5 -129.5t-126.5 -333.5q0 -214 123.5 -338.5t337.5 -124.5q171 0 296.5 103t125.5 241zM588 1405h170v-166h-170v166z" />
    <glyph glyph-name="uni0122" unicode="&#x122;" horiz-adv-x="1585" 
d="M96 717q-3 208 91.5 380.5t261.5 271t370 95.5q246 0 427.5 -135.5t234.5 -353.5l-129 -31q-51 189 -193 295.5t-340 106.5q-257 0 -423.5 -176.5t-166.5 -452.5q0 -181 76 -325t210.5 -224t303.5 -80q240 0 389 137t152 344h-520v113h649v-98q0 -131 -49 -245
t-136 -195.5t-212.5 -128t-272.5 -46.5q-152 -2 -287.5 55.5t-231.5 157.5t-151 239.5t-53 295.5zM735 -389q72 12 72 90h-78v168h182v-148q0 -82 -45 -127t-131 -51v68z" />
    <glyph glyph-name="uni0123" unicode="&#x123;" horiz-adv-x="1368" 
d="M186 -168l107 51q57 -135 157.5 -199.5t254.5 -64.5q180 0 294.5 106t114.5 271v170h-4q-66 -92 -180 -144.5t-250 -52.5q-255 0 -415.5 160t-160.5 414q-2 119 42 226t120.5 184t182.5 121t223 42q136 0 250.5 -50.5t183.5 -141.5h4v161h123v-1097q0 -209 -149 -344.5
t-379 -135.5q-190 0 -323 83t-196 241zM1110 424v238q0 142 -126.5 243t-305.5 101q-198 0 -324.5 -129.5t-126.5 -333.5q0 -214 123.5 -338.5t337.5 -124.5q171 0 296.5 103t125.5 241zM760 1491q-38 -6 -56 -27t-18 -61h80v-164h-188v143q0 79 46.5 123.5t135.5 50.5v-65z
" />
    <glyph glyph-name="Hcircumflex" unicode="&#x124;" horiz-adv-x="1546" 
d="M186 1434h131v-639h912v639h131v-1434h-131v680h-912v-680h-131v1434zM946 1516l-172 184l-174 -184l-70 65l162 168h162l162 -168z" />
    <glyph glyph-name="hcircumflex" unicode="&#x125;" horiz-adv-x="1327" 
d="M145 1495h123v-588h4q66 98 176 153.5t240 55.5q228 0 366 -125.5t138 -335.5v-655h-125v635q0 174 -101.5 272.5t-283.5 98.5q-180 0 -297 -112t-117 -282v-612h-123v1495zM827 1516l-172 184l-174 -184l-69 65l161 168h162l162 -168z" />
    <glyph glyph-name="Hbar" unicode="&#x126;" horiz-adv-x="1533" 
d="M1534 1065h-178v-1065h-131v680h-914v-680h-131v1065h-180v106h180v263h131v-263h914v263h131v-263h178v-106zM1225 1065h-914v-270h914v270z" />
    <glyph glyph-name="hbar" unicode="&#x127;" horiz-adv-x="1327" 
d="M145 1495h123v-588h4q66 98 176 153.5t240 55.5q228 0 366 -125.5t138 -335.5v-655h-125v635q0 174 -101.5 272.5t-283.5 98.5q-180 0 -297 -112t-117 -282v-612h-123v1495zM10 1360h639v-98h-639v98z" />
    <glyph glyph-name="Itilde" unicode="&#x128;" horiz-adv-x="501" 
d="M186 1434h131v-1434h-131v1434zM231 1593q-87 37 -127 37q-80 0 -92 -74h-75q6 78 51.5 123t120.5 45q39 0 74.5 -10.5t92.5 -36.5q86 -39 130 -39q76 0 92 76h71q-5 -78 -50 -123t-120 -45q-65 0 -168 47z" />
    <glyph glyph-name="itilde" unicode="&#x129;" horiz-adv-x="413" 
d="M145 1085h123v-1085h-123v1085zM186 1245q-87 37 -127 37q-80 0 -92 -74h-76q6 78 51.5 123t120.5 45q40 0 75.5 -10.5t92.5 -36.5q86 -39 129 -39q77 0 93 76h71q-5 -78 -50 -123t-120 -45q-65 0 -168 47z" />
    <glyph glyph-name="Imacron" unicode="&#x12a;" horiz-adv-x="501" 
d="M186 1434h131v-1434h-131v1434zM-41 1653h586v-97h-586v97z" />
    <glyph glyph-name="imacron" unicode="&#x12b;" horiz-adv-x="413" 
d="M145 1085h123v-1085h-123v1085zM-86 1305h586v-97h-586v97z" />
    <glyph glyph-name="Ibreve" unicode="&#x12c;" horiz-adv-x="501" 
d="M186 1434h131v-1434h-131v1434zM-14 1763h77q28 -123 189 -123t186 123h80q-8 -106 -78.5 -166.5t-187.5 -60.5q-116 0 -187.5 60.5t-78.5 166.5z" />
    <glyph glyph-name="ibreve" unicode="&#x12d;" horiz-adv-x="413" 
d="M145 1085h123v-1085h-123v1085zM-59 1415h77q28 -123 189 -123t186 123h80q-8 -106 -78.5 -166.5t-187.5 -60.5q-116 0 -187.5 60.5t-78.5 166.5z" />
    <glyph glyph-name="Iogonek" unicode="&#x12e;" horiz-adv-x="501" 
d="M186 1434h131v-1434h-131v1434zM35 -236q0 67 55 136t152 125l63 -25q-168 -94 -168 -211q0 -76 80 -76q53 0 121 41l41 -94q-83 -47 -176 -47q-80 0 -124 39t-44 112z" />
    <glyph glyph-name="iogonek" unicode="&#x12f;" horiz-adv-x="413" 
d="M145 1085h123v-1085h-123v1085zM-14 -236q0 67 55 136t152 125l63 -25q-168 -94 -168 -211q0 -76 80 -76q53 0 121 41l41 -94q-83 -47 -176 -47q-80 0 -124 39t-44 112zM125 1436h164v-156h-164v156z" />
    <glyph glyph-name="Idotaccent" unicode="&#x130;" horiz-adv-x="501" 
d="M186 1434h131v-1434h-131v1434zM168 1722h170v-166h-170v166z" />
    <glyph glyph-name="dotlessi" unicode="&#x131;" horiz-adv-x="413" 
d="M145 1085h123v-1085h-123v1085z" />
    <glyph glyph-name="Jcircumflex" unicode="&#x134;" horiz-adv-x="1200" 
d="M61 446l127 17q20 -197 106.5 -286t258.5 -89q173 0 257.5 109t84.5 329v908h131v-922q0 -261 -121.5 -402t-351.5 -141q-226 0 -347.5 119t-144.5 358zM1135 1516l-172 184l-175 -184l-69 65l162 168h161l162 -168z" />
    <glyph glyph-name="jcircumflex" unicode="&#x135;" horiz-adv-x="432" 
d="M-109 -221h142q129 0 129 125v1181h125v-1187q0 -111 -64.5 -170.5t-181.5 -59.5h-150v111zM397 1167l-172 185l-174 -185l-69 66l161 168h162l162 -168z" />
    <glyph glyph-name="uni0136" unicode="&#x136;" horiz-adv-x="1333" 
d="M186 1434h131v-805h5l790 805h186l-618 -621l637 -813h-166l-559 725h-4l-271 -279v-446h-131v1434zM651 -358q72 12 72 90h-78v168h182v-148q0 -82 -45 -127t-131 -51v68z" />
    <glyph glyph-name="uni0137" unicode="&#x137;" horiz-adv-x="1189" 
d="M145 1495h123v-963h4l654 553h190l-520 -438l549 -647h-164l-477 569h-4l-232 -196v-373h-123v1495zM539 -358q37 6 54 27.5t17 62.5h-78v168h183v-148q0 -82 -45 -127t-131 -51v68z" />
    <glyph glyph-name="kgreenlandic" unicode="&#x138;" horiz-adv-x="1146" 
d="M145 1085h123v-553h4l621 553h182l-493 -438l520 -647h-160l-448 569h-5l-221 -196v-373h-123v1085z" />
    <glyph glyph-name="Lacute" unicode="&#x139;" horiz-adv-x="1202" 
d="M186 1434h131v-1315h813v-119h-944v1434zM334 1782h178l-229 -226h-113z" />
    <glyph glyph-name="lacute" unicode="&#x13a;" horiz-adv-x="413" 
d="M145 1495h123v-1495h-123v1495zM289 1843h178l-229 -225h-113z" />
    <glyph glyph-name="uni013B" unicode="&#x13b;" horiz-adv-x="1202" 
d="M186 1434h131v-1315h813v-119h-944v1434zM575 -358q72 12 72 90h-78v168h183v-148q0 -82 -45 -127t-132 -51v68z" />
    <glyph glyph-name="uni013C" unicode="&#x13c;" horiz-adv-x="413" 
d="M145 1495h123v-1495h-123v1495zM125 -358q72 12 72 90h-78v168h182v-148q0 -82 -45 -127t-131 -51v68z" />
    <glyph glyph-name="Lcaron" unicode="&#x13d;" horiz-adv-x="1148" 
d="M186 1434h131v-1315h813v-119h-944v1434zM940 1176q72 12 72 90h-78v168h182v-148q0 -82 -45 -127t-131 -51v68z" />
    <glyph glyph-name="lcaron" unicode="&#x13e;" horiz-adv-x="526" 
d="M145 1495h123v-1495h-123v1495zM379 1237q72 12 72 90h-78v168h182v-147q0 -82 -45 -127.5t-131 -51.5v68z" />
    <glyph glyph-name="Ldot" unicode="&#x13f;" horiz-adv-x="1202" 
d="M186 1434h131v-1315h813v-119h-944v1434zM711 903h209v-205h-209v205z" />
    <glyph glyph-name="ldot" unicode="&#x140;" horiz-adv-x="571" 
d="M145 1495h123v-1495h-123v1495zM379 891h209v-205h-209v205z" />
    <glyph glyph-name="Lslash" unicode="&#x141;" horiz-adv-x="1249" 
d="M295 1434h131v-1315h813v-119h-944v1434zM367 584v6l-314 -295l-53 55l406 381v-4l446 406l53 -60z" />
    <glyph glyph-name="lslash" unicode="&#x142;" horiz-adv-x="587" 
d="M233 1495h123v-1495h-123v1495zM281 729v23l-244 -228l-55 56l301 282v-22l270 254l55 -60z" />
    <glyph glyph-name="Nacute" unicode="&#x143;" horiz-adv-x="1564" 
d="M186 1434h142l917 -1248h4v1248h131v-1434h-143l-915 1247h-5v-1247h-131v1434zM864 1782h178l-229 -226h-113z" />
    <glyph glyph-name="nacute" unicode="&#x144;" horiz-adv-x="1327" 
d="M145 1085h121v-178h4q61 96 174 152.5t244 56.5q226 0 365 -126.5t139 -332.5v-657h-125v635q0 171 -102.5 271t-276.5 100q-184 0 -302 -111.5t-118 -282.5v-612h-123v1085zM762 1464h178l-229 -225h-113z" />
    <glyph glyph-name="uni0145" unicode="&#x145;" horiz-adv-x="1564" 
d="M186 1434h142l917 -1248h4v1248h131v-1434h-143l-915 1247h-5v-1247h-131v1434zM721 -358q72 12 72 90h-78v168h182v-148q0 -82 -45 -127t-131 -51v68z" />
    <glyph glyph-name="uni0146" unicode="&#x146;" horiz-adv-x="1327" 
d="M145 1085h121v-178h4q61 96 174 152.5t244 56.5q226 0 365 -126.5t139 -332.5v-657h-125v635q0 171 -102.5 271t-276.5 100q-184 0 -302 -111.5t-118 -282.5v-612h-123v1085zM586 -358q37 6 54 27.5t17 62.5h-77v168h182v-148q0 -82 -45 -127t-131 -51v68z" />
    <glyph glyph-name="Ncaron" unicode="&#x147;" horiz-adv-x="1564" 
d="M186 1434h142l917 -1248h4v1248h131v-1434h-143l-915 1247h-5v-1247h-131v1434zM1026 1704l-162 -168h-162l-161 168l69 65l174 -182l172 182z" />
    <glyph glyph-name="ncaron" unicode="&#x148;" horiz-adv-x="1327" 
d="M145 1085h121v-178h4q61 96 174 152.5t244 56.5q226 0 365 -126.5t139 -332.5v-657h-125v635q0 171 -102.5 271t-276.5 100q-184 0 -302 -111.5t-118 -282.5v-612h-123v1085zM924 1386l-162 -167h-162l-162 167l70 66l174 -182l172 182z" />
    <glyph glyph-name="Eng" unicode="&#x14a;" horiz-adv-x="1568" 
d="M1382 1434v-1536q0 -112 -66 -171t-190 -59h-122v113h133q66 0 96.5 30.5t30.5 96.5v92l-942 1235h-5v-1235h-131v1434h133l928 -1215h4v1215h131z" />
    <glyph glyph-name="eng" unicode="&#x14b;" horiz-adv-x="1327" 
d="M1192 657v-759q0 -112 -65 -171t-187 -59h-123v111h125q66 0 95.5 29.5t29.5 95.5v731q0 171 -102.5 271t-276.5 100q-184 0 -302 -111.5t-118 -282.5v-612h-123v1085h121v-178h4q61 96 174 152.5t244 56.5q226 0 365 -126.5t139 -332.5z" />
    <glyph glyph-name="Omacron" unicode="&#x14c;" horiz-adv-x="1654" 
d="M96 717q-2 159 53 299t152 239t234 155t292 54q154 2 290.5 -54t234 -155t153 -239t54.5 -299q2 -213 -93.5 -385.5t-264 -269t-374.5 -93.5q-207 -3 -375.5 93.5t-263.5 269t-92 385.5zM1425 717q0 279 -168.5 454t-429.5 175t-429.5 -175t-168.5 -454t168.5 -454
t429.5 -175t429.5 175t168.5 454zM535 1683h585v-96h-585v96z" />
    <glyph glyph-name="omacron" unicode="&#x14d;" horiz-adv-x="1374" 
d="M104 543q0 248 165.5 410.5t418.5 162.5q162 3 297 -72t211.5 -208t73.5 -293q3 -160 -73.5 -293.5t-211.5 -208.5t-297 -72q-253 0 -418.5 163t-165.5 411zM1147 543q0 206 -128.5 334.5t-330.5 128.5q-201 0 -331 -129t-130 -334t130 -334t331 -129q202 0 330.5 128.5
t128.5 334.5zM395 1335h586v-96h-586v96z" />
    <glyph glyph-name="Obreve" unicode="&#x14e;" horiz-adv-x="1654" 
d="M96 717q-2 159 53 299t152 239t234 155t292 54q154 2 290.5 -54t234 -155t153 -239t54.5 -299q2 -213 -93.5 -385.5t-264 -269t-374.5 -93.5q-207 -3 -375.5 93.5t-263.5 269t-92 385.5zM1425 717q0 279 -168.5 454t-429.5 175t-429.5 -175t-168.5 -454t168.5 -454
t429.5 -175t429.5 175t168.5 454zM561 1794h78q28 -123 188 -123q78 0 126.5 31.5t60.5 91.5h80q-8 -106 -79 -166.5t-188 -60.5q-116 0 -187.5 60.5t-78.5 166.5z" />
    <glyph glyph-name="obreve" unicode="&#x14f;" horiz-adv-x="1374" 
d="M104 543q0 248 165.5 410.5t418.5 162.5q162 3 297 -72t211.5 -208t73.5 -293q3 -160 -73.5 -293.5t-211.5 -208.5t-297 -72q-253 0 -418.5 163t-165.5 411zM1147 543q0 206 -128.5 334.5t-330.5 128.5q-201 0 -331 -129t-130 -334t130 -334t331 -129q202 0 330.5 128.5
t128.5 334.5zM422 1446h78q28 -123 188 -123q161 0 186 123h80q-8 -106 -78.5 -166.5t-187.5 -60.5q-116 0 -187.5 60.5t-78.5 166.5z" />
    <glyph glyph-name="Ohungarumlaut" unicode="&#x150;" horiz-adv-x="1654" 
d="M96 717q-2 159 53 299t152 239t234 155t292 54q154 2 290.5 -54t234 -155t153 -239t54.5 -299q2 -213 -93.5 -385.5t-264 -269t-374.5 -93.5q-207 -3 -375.5 93.5t-263.5 269t-92 385.5zM1425 717q0 279 -168.5 454t-429.5 175t-429.5 -175t-168.5 -454t168.5 -454
t429.5 -175t429.5 175t168.5 454zM731 1812h172l-215 -225h-110zM1026 1812h172l-215 -225h-113z" />
    <glyph glyph-name="ohungarumlaut" unicode="&#x151;" horiz-adv-x="1374" 
d="M104 543q0 248 165.5 410.5t418.5 162.5q162 3 297 -72t211.5 -208t73.5 -293q3 -160 -73.5 -293.5t-211.5 -208.5t-297 -72q-253 0 -418.5 163t-165.5 411zM1147 543q0 206 -128.5 334.5t-330.5 128.5q-201 0 -331 -129t-130 -334t130 -334t331 -129q202 0 330.5 128.5
t128.5 334.5zM592 1464h172l-215 -225h-111zM887 1464h172l-215 -225h-113z" />
    <glyph glyph-name="OE" unicode="&#x152;" horiz-adv-x="2213" 
d="M96 717q-2 158 53 298t151 239.5t230 156t285 53.5q211 0 371 -100h4v70h909v-119h-778v-518h713v-113h-713v-565h778v-119h-909v70h-4q-165 -101 -371 -101q-155 -2 -289.5 54t-229 155.5t-148 239t-52.5 299.5zM1190 215v1012q-157 119 -371 119q-168 0 -302.5 -78
t-212 -222t-77.5 -329q0 -283 164 -456t428 -173q216 0 371 127z" />
    <glyph glyph-name="oe" unicode="&#x153;" horiz-adv-x="2377" 
d="M2275 492h-1001q0 -182 128.5 -299t315.5 -117q294 0 432 258l99 -64q-159 -301 -531 -301q-178 0 -311.5 80.5t-200.5 224.5q-70 -142 -206.5 -223.5t-311.5 -81.5q-253 0 -418.5 163t-165.5 411t165.5 410.5t418.5 162.5q175 0 312.5 -83.5t207.5 -227.5
q68 147 200 229t308 82q246 0 402.5 -161t156.5 -418v-45zM1147 543q0 206 -128.5 336.5t-330.5 130.5q-203 0 -332 -129.5t-129 -337.5t129 -337.5t332 -129.5q202 0 330.5 130.5t128.5 336.5zM2150 594q-9 182 -131 299t-305 117q-186 0 -309 -120t-129 -296h874z" />
    <glyph glyph-name="Racute" unicode="&#x154;" horiz-adv-x="1417" 
d="M905 598l381 -598h-151l-375 600h-443v-600h-131v1434h680q226 0 350.5 -110t124.5 -308q0 -190 -115.5 -299t-320.5 -117v-2zM860 719q172 0 261 75.5t89 221.5q0 299 -356 299h-537v-596h543zM795 1782h178l-230 -226h-112z" />
    <glyph glyph-name="racute" unicode="&#x155;" horiz-adv-x="741" 
d="M145 1085h119v-116h4q43 62 116 98.5t157 36.5q63 0 155 -25l-28 -116q-94 20 -138 20q-120 0 -191 -79.5t-71 -219.5v-684h-123v1085zM424 1434h178l-229 -226h-113z" />
    <glyph glyph-name="uni0156" unicode="&#x156;" horiz-adv-x="1417" 
d="M905 598l381 -598h-151l-375 600h-443v-600h-131v1434h680q226 0 350.5 -110t124.5 -308q0 -190 -115.5 -299t-320.5 -117v-2zM860 719q172 0 261 75.5t89 221.5q0 299 -356 299h-537v-596h543zM649 -358q72 12 72 90h-78v168h182v-148q0 -82 -45 -127t-131 -51v68z" />
    <glyph glyph-name="uni0157" unicode="&#x157;" horiz-adv-x="741" 
d="M145 1085h119v-116h4q43 62 116 98.5t157 36.5q63 0 155 -25l-28 -116q-94 20 -138 20q-120 0 -191 -79.5t-71 -219.5v-684h-123v1085zM125 -358q72 12 72 90h-78v168h182v-148q0 -82 -45 -127t-131 -51v68z" />
    <glyph glyph-name="Rcaron" unicode="&#x158;" horiz-adv-x="1417" 
d="M905 598l381 -598h-151l-375 600h-443v-600h-131v1434h680q226 0 350.5 -110t124.5 -308q0 -190 -115.5 -299t-320.5 -117v-2zM860 719q172 0 261 75.5t89 221.5q0 299 -356 299h-537v-596h543zM956 1704l-161 -168h-162l-162 168l70 65l174 -182l172 182z" />
    <glyph glyph-name="rcaron" unicode="&#x159;" horiz-adv-x="741" 
d="M145 1085h119v-116h4q43 62 116 98.5t157 36.5q63 0 155 -25l-28 -116q-94 20 -138 20q-120 0 -191 -79.5t-71 -219.5v-684h-123v1085zM586 1356l-162 -168h-162l-162 168l70 65l174 -182l172 182z" />
    <glyph glyph-name="Sacute" unicode="&#x15a;" horiz-adv-x="1363" 
d="M76 502l129 18q41 -434 532 -434q192 0 306 76t114 205q0 130 -108 200.5t-390 126.5q-304 62 -423 145t-119 236q0 172 143 280.5t373 108.5q231 0 393.5 -124t190.5 -322l-130 -25q-25 164 -146.5 259.5t-307.5 95.5q-174 0 -280.5 -74t-106.5 -195q0 -70 41 -116
t135.5 -81t269.5 -71q328 -68 462 -166t134 -274q0 -183 -151.5 -292.5t-401.5 -109.5q-293 0 -466.5 140.5t-192.5 392.5zM715 1812h178l-229 -225h-113z" />
    <glyph glyph-name="sacute" unicode="&#x15b;" horiz-adv-x="1216" 
d="M84 375l117 22q20 -155 135.5 -238t310.5 -83q167 0 266 55.5t99 149.5q0 92 -87 141t-304 80q-277 39 -387.5 107.5t-110.5 197.5q0 137 125 223t323 86t341.5 -99t168.5 -251l-116 -23q-25 122 -132 194.5t-262 72.5q-146 0 -236.5 -55.5t-90.5 -143.5q0 -83 80.5 -126
t300.5 -77q281 -43 394.5 -116t113.5 -211q0 -141 -132.5 -226.5t-353.5 -85.5q-237 0 -391 109q-151 112 -172 297zM653 1464h178l-229 -225h-113z" />
    <glyph glyph-name="Scircumflex" unicode="&#x15c;" horiz-adv-x="1363" 
d="M76 502l129 18q41 -434 532 -434q192 0 306 76t114 205q0 130 -108 200.5t-390 126.5q-304 62 -423 145t-119 236q0 172 143 280.5t373 108.5q231 0 393.5 -124t190.5 -322l-130 -25q-25 164 -146.5 259.5t-307.5 95.5q-174 0 -280.5 -74t-106.5 -195q0 -70 41 -116
t135.5 -81t269.5 -71q328 -68 462 -166t134 -274q0 -183 -151.5 -292.5t-401.5 -109.5q-293 0 -466.5 140.5t-192.5 392.5zM807 1546l-172 185l-174 -185l-70 66l162 168h162l162 -168z" />
    <glyph glyph-name="scircumflex" unicode="&#x15d;" horiz-adv-x="1216" 
d="M84 375l117 22q20 -155 135.5 -238t310.5 -83q167 0 266 55.5t99 149.5q0 92 -87 141t-304 80q-277 39 -387.5 107.5t-110.5 197.5q0 137 125 223t323 86t341.5 -99t168.5 -251l-116 -23q-25 122 -132 194.5t-262 72.5q-146 0 -236.5 -55.5t-90.5 -143.5q0 -83 80.5 -126
t300.5 -77q281 -43 394.5 -116t113.5 -211q0 -141 -132.5 -226.5t-353.5 -85.5q-237 0 -391 109q-151 112 -172 297zM745 1198l-172 184l-174 -184l-69 66l162 168h161l162 -168z" />
    <glyph glyph-name="Scedilla" unicode="&#x15e;" horiz-adv-x="1363" 
d="M76 502l129 18q41 -434 532 -434q192 0 306 76t114 205q0 130 -108 200.5t-390 126.5q-304 62 -423 145t-119 236q0 172 143 280.5t373 108.5q231 0 393.5 -124t190.5 -322l-130 -25q-25 164 -146.5 259.5t-307.5 95.5q-174 0 -280.5 -74t-106.5 -195q0 -70 41 -116
t135.5 -81t269.5 -71q328 -68 462 -166t134 -274q0 -183 -151.5 -292.5t-401.5 -109.5q-293 0 -466.5 140.5t-192.5 392.5zM999 -283q0 -79 -60.5 -129.5t-154.5 -50.5q-123 0 -217 82l58 70q71 -68 159 -68q54 0 88.5 27t34.5 71q0 43 -32.5 68t-86.5 25q-75 0 -137 -56
l-71 33l139 229l69 -30l-75 -121q37 18 90 18q87 0 141.5 -47t54.5 -121z" />
    <glyph glyph-name="scedilla" unicode="&#x15f;" horiz-adv-x="1216" 
d="M84 375l117 22q20 -155 135.5 -238t310.5 -83q167 0 266 55.5t99 149.5q0 92 -87 141t-304 80q-277 39 -387.5 107.5t-110.5 197.5q0 137 125 223t323 86t341.5 -99t168.5 -251l-116 -23q-25 122 -132 194.5t-262 72.5q-146 0 -236.5 -55.5t-90.5 -143.5q0 -83 80.5 -126
t300.5 -77q281 -43 394.5 -116t113.5 -211q0 -141 -132.5 -226.5t-353.5 -85.5q-237 0 -391 109q-151 112 -172 297zM911 -283q0 -79 -60.5 -129.5t-154.5 -50.5q-123 0 -217 82l58 70q71 -68 159 -68q54 0 88.5 27t34.5 71q0 43 -32.5 68t-86.5 25q-75 0 -137 -56l-71 33
l139 229l69 -30l-75 -121q37 18 90 18q87 0 141.5 -47t54.5 -121z" />
    <glyph glyph-name="Scaron" unicode="&#x160;" horiz-adv-x="1363" 
d="M76 502l129 18q41 -434 532 -434q192 0 306 76t114 205q0 130 -108 200.5t-390 126.5q-304 62 -423 145t-119 236q0 172 143 280.5t373 108.5q231 0 393.5 -124t190.5 -322l-130 -25q-25 164 -146.5 259.5t-307.5 95.5q-174 0 -280.5 -74t-106.5 -195q0 -70 41 -116
t135.5 -81t269.5 -71q328 -68 462 -166t134 -274q0 -183 -151.5 -292.5t-401.5 -109.5q-293 0 -466.5 140.5t-192.5 392.5zM877 1735l-162 -168h-162l-162 168l70 65l174 -182l172 182z" />
    <glyph glyph-name="scaron" unicode="&#x161;" horiz-adv-x="1216" 
d="M84 375l117 22q20 -155 135.5 -238t310.5 -83q167 0 266 55.5t99 149.5q0 92 -87 141t-304 80q-277 39 -387.5 107.5t-110.5 197.5q0 137 125 223t323 86t341.5 -99t168.5 -251l-116 -23q-25 122 -132 194.5t-262 72.5q-146 0 -236.5 -55.5t-90.5 -143.5q0 -83 80.5 -126
t300.5 -77q281 -43 394.5 -116t113.5 -211q0 -141 -132.5 -226.5t-353.5 -85.5q-237 0 -391 109q-151 112 -172 297zM815 1386l-162 -167h-161l-162 167l69 66l174 -182l172 182z" />
    <glyph glyph-name="uni0162" unicode="&#x162;" horiz-adv-x="1372" 
d="M621 1315h-549v119h1228v-119h-548v-1315h-131v1315zM950 -254q0 -79 -60.5 -129.5t-154.5 -50.5q-123 0 -217 82l57 69q70 -67 160 -67q54 0 88.5 27t34.5 71q0 43 -32.5 67.5t-86.5 24.5q-76 0 -137 -55l-72 33l140 229l69 -31l-75 -120q38 18 90 18q87 0 141.5 -47
t54.5 -121z" />
    <glyph glyph-name="uni0163" unicode="&#x163;" horiz-adv-x="802" 
d="M399 981v-766q0 -57 27 -80.5t90 -23.5h170v-111h-170q-127 0 -184.5 51t-57.5 164v766h-229v104h229v236h125v-236h346v-104h-346zM713 -254q0 -79 -60.5 -129.5t-154.5 -50.5q-123 0 -217 82l57 69q70 -67 160 -67q54 0 88.5 27t34.5 71q0 43 -32.5 67.5t-86.5 24.5
q-76 0 -137 -55l-72 33l139 229l70 -31l-76 -120q38 18 90 18q87 0 142 -47t55 -121z" />
    <glyph glyph-name="Tcaron" unicode="&#x164;" horiz-adv-x="1372" 
d="M621 1315h-549v119h1228v-119h-548v-1315h-131v1315zM932 1704l-162 -168h-162l-162 168l70 65l174 -182l172 182z" />
    <glyph glyph-name="tcaron" unicode="&#x165;" horiz-adv-x="802" 
d="M399 981v-766q0 -57 27 -80.5t90 -23.5h170v-111h-170q-127 0 -184.5 51t-57.5 164v766h-229v104h229v236h125v-236h346v-104h-346zM559 1255q72 12 72 91h-78v167h182v-147q0 -82 -45 -127t-131 -51v67z" />
    <glyph glyph-name="Tbar" unicode="&#x166;" horiz-adv-x="1372" 
d="M621 1315h-549v119h1228v-119h-548v-1315h-131v1315zM295 770h811v-106h-811v106z" />
    <glyph glyph-name="tbar" unicode="&#x167;" horiz-adv-x="802" 
d="M399 981v-766q0 -57 27 -80.5t90 -23.5h170v-111h-170q-127 0 -184.5 51t-57.5 164v766h-229v104h229v236h125v-236h346v-104h-346zM86 621h639v-99h-639v99z" />
    <glyph glyph-name="Utilde" unicode="&#x168;" horiz-adv-x="1544" 
d="M176 543v891h131v-887q0 -240 112.5 -349.5t352.5 -109.5q239 0 352 110.5t113 348.5v887h131v-891q0 -574 -596 -574t-596 574zM752 1593q-87 37 -127 37q-81 0 -93 -74h-75q6 78 51.5 123t120.5 45q40 0 75.5 -10.5t92.5 -36.5q86 -39 129 -39q76 0 92 76h72
q-5 -78 -50 -123t-120 -45q-65 0 -168 47z" />
    <glyph glyph-name="utilde" unicode="&#x169;" horiz-adv-x="1288" 
d="M125 442v643h123v-622q0 -184 98.5 -283.5t278.5 -99.5q173 0 284 111t111 282v612h125v-1085h-123v176h-4q-62 -99 -170.5 -153t-247.5 -54q-223 0 -349 126t-126 347zM614 1245q-87 37 -127 37q-80 0 -92 -74h-76q6 78 52 123t121 45q39 0 74.5 -10.5t92.5 -36.5
q86 -39 129 -39q77 0 93 76h71q-5 -78 -50 -123t-120 -45q-65 0 -168 47z" />
    <glyph glyph-name="Umacron" unicode="&#x16a;" horiz-adv-x="1544" 
d="M176 543v891h131v-887q0 -240 112.5 -349.5t352.5 -109.5q239 0 352 110.5t113 348.5v887h131v-891q0 -574 -596 -574t-596 574zM479 1653h586v-97h-586v97z" />
    <glyph glyph-name="umacron" unicode="&#x16b;" horiz-adv-x="1288" 
d="M125 442v643h123v-622q0 -184 98.5 -283.5t278.5 -99.5q173 0 284 111t111 282v612h125v-1085h-123v176h-4q-62 -99 -170.5 -153t-247.5 -54q-223 0 -349 126t-126 347zM342 1305h586v-97h-586v97z" />
    <glyph glyph-name="Ubreve" unicode="&#x16c;" horiz-adv-x="1544" 
d="M176 543v891h131v-887q0 -240 112.5 -349.5t352.5 -109.5q239 0 352 110.5t113 348.5v887h131v-891q0 -574 -596 -574t-596 574zM506 1763h78q28 -123 188 -123q161 0 186 123h80q-8 -106 -78.5 -166.5t-187.5 -60.5q-116 0 -187.5 60.5t-78.5 166.5z" />
    <glyph glyph-name="ubreve" unicode="&#x16d;" horiz-adv-x="1288" 
d="M125 442v643h123v-622q0 -184 98.5 -283.5t278.5 -99.5q173 0 284 111t111 282v612h125v-1085h-123v176h-4q-62 -99 -170.5 -153t-247.5 -54q-223 0 -349 126t-126 347zM369 1415h77q28 -123 189 -123t186 123h80q-8 -106 -78.5 -166.5t-187.5 -60.5q-116 0 -187.5 60.5
t-78.5 166.5z" />
    <glyph glyph-name="Uring" unicode="&#x16e;" horiz-adv-x="1544" 
d="M176 543v891h131v-887q0 -240 112.5 -349.5t352.5 -109.5q239 0 352 110.5t113 348.5v887h131v-891q0 -574 -596 -574t-596 574zM541 1577q0 94 65.5 156.5t165.5 62.5q102 0 168 -62.5t66 -156.5t-66 -156.5t-168 -62.5q-100 0 -165.5 62.5t-65.5 156.5zM915 1577
q0 63 -40 103t-103 40q-62 0 -102.5 -40t-40.5 -103t40.5 -103t102.5 -40q63 0 103 40t40 103z" />
    <glyph glyph-name="uring" unicode="&#x16f;" horiz-adv-x="1288" 
d="M125 442v643h123v-622q0 -184 98.5 -283.5t278.5 -99.5q173 0 284 111t111 282v612h125v-1085h-123v176h-4q-62 -99 -170.5 -153t-247.5 -54q-223 0 -349 126t-126 347zM403 1229q0 94 66 156.5t166 62.5q102 0 167.5 -62.5t65.5 -156.5t-65.5 -156.5t-167.5 -62.5
q-100 0 -166 62.5t-66 156.5zM778 1229q0 63 -40 103t-103 40q-62 0 -102.5 -40t-40.5 -103t40.5 -103.5t102.5 -40.5q63 0 103 40.5t40 103.5z" />
    <glyph glyph-name="Uhungarumlaut" unicode="&#x170;" horiz-adv-x="1544" 
d="M176 543v891h131v-887q0 -240 112.5 -349.5t352.5 -109.5q239 0 352 110.5t113 348.5v887h131v-891q0 -574 -596 -574t-596 574zM676 1782h172l-215 -226h-111zM971 1782h172l-215 -226h-113z" />
    <glyph glyph-name="uhungarumlaut" unicode="&#x171;" horiz-adv-x="1288" 
d="M125 442v643h123v-622q0 -184 98.5 -283.5t278.5 -99.5q173 0 284 111t111 282v612h125v-1085h-123v176h-4q-62 -99 -170.5 -153t-247.5 -54q-223 0 -349 126t-126 347zM539 1434h172l-215 -226h-111zM834 1434h172l-215 -226h-113z" />
    <glyph glyph-name="Uogonek" unicode="&#x172;" horiz-adv-x="1544" 
d="M176 543v891h131v-887q0 -240 112.5 -349.5t352.5 -109.5q239 0 352 110.5t113 348.5v887h131v-891q0 -574 -596 -574t-596 574zM748 -236q0 67 54.5 136t151.5 125l64 -25q-168 -94 -168 -211q0 -76 80 -76q53 0 121 41l41 -94q-83 -47 -177 -47q-80 0 -123.5 39
t-43.5 112z" />
    <glyph glyph-name="uogonek" unicode="&#x173;" horiz-adv-x="1288" 
d="M125 442v643h123v-622q0 -184 98.5 -283.5t278.5 -99.5q173 0 284 111t111 282v612h125v-1085h-123v176h-4q-62 -99 -170.5 -153t-247.5 -54q-223 0 -349 126t-126 347zM864 -236q0 67 55 136t152 125l64 -25q-168 -94 -168 -211q0 -76 80 -76q52 0 120 41l41 -94
q-83 -47 -176 -47q-80 0 -124 39t-44 112z" />
    <glyph glyph-name="Wcircumflex" unicode="&#x174;" horiz-adv-x="2045" 
d="M41 1434h135l295 -1250h4l486 1250h124l488 -1250h4l293 1250h135l-336 -1434h-156l-487 1245h-4l-490 -1245h-155zM1198 1516l-172 184l-174 -184l-70 65l162 168h162l162 -168z" />
    <glyph glyph-name="wcircumflex" unicode="&#x175;" horiz-adv-x="1759" 
d="M55 1085h125l262 -907h4l373 907h119l373 -907h4l264 907h125l-320 -1085h-112l-391 950h-4l-390 -950h-112zM1053 1167l-172 185l-174 -185l-70 66l162 168h162l161 -168z" />
    <glyph glyph-name="Ycircumflex" unicode="&#x176;" horiz-adv-x="1374" 
d="M621 586l-621 848h156l528 -732h4l529 732h157l-622 -848v-586h-131v586zM862 1516l-172 184l-174 -184l-70 65l162 168h162l162 -168z" />
    <glyph glyph-name="ycircumflex" unicode="&#x177;" horiz-adv-x="1175" 
d="M518 94l-498 991h142l424 -860h4l424 860h141l-776 -1546h-139zM762 1167l-172 185l-174 -185l-70 66l162 168h162l161 -168z" />
    <glyph glyph-name="Ydieresis" unicode="&#x178;" horiz-adv-x="1374" 
d="M621 586l-621 848h156l528 -732h4l529 732h157l-622 -848v-586h-131v586zM418 1704h172v-168h-172v168zM788 1704h173v-168h-173v168z" />
    <glyph glyph-name="Zacute" unicode="&#x179;" horiz-adv-x="1505" 
d="M96 106l1139 1205v4h-1071v119h1245v-107l-1139 -1204v-4h1094v-119h-1268v106zM868 1782h179l-230 -226h-112z" />
    <glyph glyph-name="zacute" unicode="&#x17a;" horiz-adv-x="1193" 
d="M57 98l897 877v4h-852v106h1031v-98l-900 -876v-5h895v-106h-1071v98zM678 1434h178l-229 -226h-113z" />
    <glyph glyph-name="Zdotaccent" unicode="&#x17b;" horiz-adv-x="1505" 
d="M96 106l1139 1205v4h-1071v119h1245v-107l-1139 -1204v-4h1094v-119h-1268v106zM702 1722h170v-166h-170v166z" />
    <glyph glyph-name="zdotaccent" unicode="&#x17c;" horiz-adv-x="1193" 
d="M57 98l897 877v4h-852v106h1031v-98l-900 -876v-5h895v-106h-1071v98zM514 1436h164v-156h-164v156z" />
    <glyph glyph-name="Zcaron" unicode="&#x17d;" horiz-adv-x="1505" 
d="M96 106l1139 1205v4h-1071v119h1245v-107l-1139 -1204v-4h1094v-119h-1268v106zM1030 1704l-162 -168h-161l-162 168l69 65l174 -182l173 182z" />
    <glyph glyph-name="zcaron" unicode="&#x17e;" horiz-adv-x="1193" 
d="M57 98l897 877v4h-852v106h1031v-98l-900 -876v-5h895v-106h-1071v98zM840 1356l-162 -168h-162l-162 168l70 65l174 -182l172 182z" />
    <glyph glyph-name="longs" unicode="&#x17f;" horiz-adv-x="632" 
d="M238 979h-193v106h193v138q0 105 60.5 163t176.5 58h213v-109h-205q-63 0 -92 -29.5t-29 -91.5v-1214h-124v979z" />
    <glyph glyph-name="uni018E" unicode="&#x18e;" horiz-adv-x="1314" 
d="M117 0v119h880v565h-817v113h817v518h-880v119h1011v-1434h-1011z" />
    <glyph glyph-name="uni018F" unicode="&#x18f;" horiz-adv-x="1601" 
d="M96 715v59h1274q-6 249 -167.5 410.5t-405.5 161.5q-186 0 -329 -96t-212 -267l-121 53q85 201 260.5 314.5t401.5 113.5q154 2 286.5 -53.5t225.5 -154.5t145 -239.5t51 -301.5q0 -215 -89.5 -385.5t-250.5 -265.5t-364 -95q-317 0 -511 205t-194 541zM1370 659h-1143
q6 -252 165.5 -411.5t408.5 -159.5q241 0 402 161.5t167 409.5z" />
    <glyph glyph-name="florin" unicode="&#x192;" horiz-adv-x="983" 
d="M555 1208l-23 -123h359v-110h-377l-168 -946l-27 -150q-34 -211 -270 -211h-168v109h170q69 0 103 29.5t45 95.5l22 127l168 946h-313v110h332l26 148q37 211 271 211h210v-109h-215q-67 0 -100.5 -29.5t-44.5 -97.5z" />
    <glyph glyph-name="uni01CD" unicode="&#x1cd;" horiz-adv-x="1456" 
d="M1163 322h-868l-143 -322h-142l649 1434h138l649 -1434h-139zM1114 434l-383 860h-4l-383 -860h770zM973 1704l-162 -168h-162l-162 168l70 65l174 -182l172 182z" />
    <glyph glyph-name="uni01CE" unicode="&#x1ce;" horiz-adv-x="1179" 
d="M104 283q0 143 109 220t371 120q185 29 257 68.5t72 111.5q0 92 -83 147.5t-220 55.5q-155 0 -253 -75t-121 -210l-121 27q27 167 161 268q132 100 334 100q197 0 315.5 -92t118.5 -244v-780h-120v158h-2q-54 -87 -167.5 -138t-252.5 -51q-186 0 -292 83t-106 231z
M922 371v274h-4q-26 -44 -96.5 -72t-213.5 -51q-206 -35 -292.5 -90t-86.5 -149q0 -203 295 -203q164 0 281 85.5t117 205.5zM854 1386l-162 -167h-162l-161 167l69 66l174 -182l172 182z" />
    <glyph glyph-name="uni01CF" unicode="&#x1cf;" horiz-adv-x="501" 
d="M186 1434h131v-1434h-131v1434zM496 1704l-162 -168h-162l-162 168l70 65l174 -182l172 182z" />
    <glyph glyph-name="uni01D0" unicode="&#x1d0;" horiz-adv-x="413" 
d="M145 1085h123v-1085h-123v1085zM449 1356l-162 -168h-162l-162 168l70 65l174 -182l172 182z" />
    <glyph glyph-name="uni01D1" unicode="&#x1d1;" horiz-adv-x="1654" 
d="M96 717q-2 159 53 299t152 239t234 155t292 54q154 2 290.5 -54t234 -155t153 -239t54.5 -299q2 -213 -93.5 -385.5t-264 -269t-374.5 -93.5q-207 -3 -375.5 93.5t-263.5 269t-92 385.5zM1425 717q0 279 -168.5 454t-429.5 175t-429.5 -175t-168.5 -454t168.5 -454
t429.5 -175t429.5 175t168.5 454zM1071 1735l-162 -168h-161l-162 168l69 65l174 -182l172 182z" />
    <glyph glyph-name="uni01D2" unicode="&#x1d2;" horiz-adv-x="1374" 
d="M104 543q0 248 165.5 410.5t418.5 162.5q162 3 297 -72t211.5 -208t73.5 -293q3 -160 -73.5 -293.5t-211.5 -208.5t-297 -72q-253 0 -418.5 163t-165.5 411zM1147 543q0 206 -128.5 334.5t-330.5 128.5q-201 0 -331 -129t-130 -334t130 -334t331 -129q202 0 330.5 128.5
t128.5 334.5zM932 1386l-162 -167h-162l-162 167l70 66l174 -182l172 182z" />
    <glyph glyph-name="uni01D3" unicode="&#x1d3;" horiz-adv-x="1544" 
d="M176 543v891h131v-887q0 -240 112.5 -349.5t352.5 -109.5q239 0 352 110.5t113 348.5v887h131v-891q0 -574 -596 -574t-596 574zM1016 1704l-162 -168h-162l-162 168l70 65l174 -182l172 182z" />
    <glyph glyph-name="uni01D4" unicode="&#x1d4;" horiz-adv-x="1288" 
d="M125 442v643h123v-622q0 -184 98.5 -283.5t278.5 -99.5q173 0 284 111t111 282v612h125v-1085h-123v176h-4q-62 -99 -170.5 -153t-247.5 -54q-223 0 -349 126t-126 347zM879 1356l-162 -168h-162l-162 168l70 65l174 -182l172 182z" />
    <glyph glyph-name="uni01D5" unicode="&#x1d5;" horiz-adv-x="1544" 
d="M176 543v891h131v-887q0 -240 112.5 -349.5t352.5 -109.5q239 0 352 110.5t113 348.5v887h131v-891q0 -574 -596 -574t-596 574zM502 1704h172v-168h-172v168zM872 1704h172v-168h-172v168zM479 1882h586v-96h-586v96z" />
    <glyph glyph-name="uni01D6" unicode="&#x1d6;" horiz-adv-x="1288" 
d="M125 442v643h123v-622q0 -184 98.5 -283.5t278.5 -99.5q173 0 284 111t111 282v612h125v-1085h-123v176h-4q-62 -99 -170.5 -153t-247.5 -54q-223 0 -349 126t-126 347zM365 1356h172v-168h-172v168zM735 1356h172v-168h-172v168zM342 1534h586v-96h-586v96z" />
    <glyph glyph-name="uni01D7" unicode="&#x1d7;" horiz-adv-x="1544" 
d="M176 543v891h131v-887q0 -240 112.5 -349.5t352.5 -109.5q239 0 352 110.5t113 348.5v887h131v-891q0 -574 -596 -574t-596 574zM502 1704h172v-168h-172v168zM872 1704h172v-168h-172v168zM854 2011h178l-229 -225h-113z" />
    <glyph glyph-name="uni01D8" unicode="&#x1d8;" horiz-adv-x="1288" 
d="M125 442v643h123v-622q0 -184 98.5 -283.5t278.5 -99.5q173 0 284 111t111 282v612h125v-1085h-123v176h-4q-62 -99 -170.5 -153t-247.5 -54q-223 0 -349 126t-126 347zM365 1356h172v-168h-172v168zM735 1356h172v-168h-172v168zM717 1663h178l-229 -225h-113z" />
    <glyph glyph-name="uni01D9" unicode="&#x1d9;" horiz-adv-x="1544" 
d="M176 543v891h131v-887q0 -240 112.5 -349.5t352.5 -109.5q239 0 352 110.5t113 348.5v887h131v-891q0 -574 -596 -574t-596 574zM502 1704h172v-168h-172v168zM872 1704h172v-168h-172v168zM1016 1933l-162 -168h-162l-162 168l70 66l174 -182l172 182z" />
    <glyph glyph-name="uni01DA" unicode="&#x1da;" horiz-adv-x="1288" 
d="M125 442v643h123v-622q0 -184 98.5 -283.5t278.5 -99.5q173 0 284 111t111 282v612h125v-1085h-123v176h-4q-62 -99 -170.5 -153t-247.5 -54q-223 0 -349 126t-126 347zM365 1356h172v-168h-172v168zM735 1356h172v-168h-172v168zM879 1585l-162 -168h-162l-162 168
l70 66l174 -183l172 183z" />
    <glyph glyph-name="uni01DB" unicode="&#x1db;" horiz-adv-x="1544" 
d="M176 543v891h131v-887q0 -240 112.5 -349.5t352.5 -109.5q239 0 352 110.5t113 348.5v887h131v-891q0 -574 -596 -574t-596 574zM502 1704h172v-168h-172v168zM872 1704h172v-168h-172v168zM512 2011h178l164 -225h-115z" />
    <glyph glyph-name="uni01DC" unicode="&#x1dc;" horiz-adv-x="1288" 
d="M125 442v643h123v-622q0 -184 98.5 -283.5t278.5 -99.5q173 0 284 111t111 282v612h125v-1085h-123v176h-4q-62 -99 -170.5 -153t-247.5 -54q-223 0 -349 126t-126 347zM365 1356h172v-168h-172v168zM735 1356h172v-168h-172v168zM375 1663h178l164 -225h-115z" />
    <glyph glyph-name="uni01DE" unicode="&#x1de;" horiz-adv-x="1456" 
d="M1163 322h-868l-143 -322h-142l649 1434h138l649 -1434h-139zM1114 434l-383 860h-4l-383 -860h770zM459 1704h172v-168h-172v168zM829 1704h172v-168h-172v168zM436 1882h586v-96h-586v96z" />
    <glyph glyph-name="uni01DF" unicode="&#x1df;" horiz-adv-x="1179" 
d="M104 283q0 143 109 220t371 120q185 29 257 68.5t72 111.5q0 92 -83 147.5t-220 55.5q-155 0 -253 -75t-121 -210l-121 27q27 167 161 268q132 100 334 100q197 0 315.5 -92t118.5 -244v-780h-120v158h-2q-54 -87 -167.5 -138t-252.5 -51q-186 0 -292 83t-106 231z
M922 371v274h-4q-26 -44 -96.5 -72t-213.5 -51q-206 -35 -292.5 -90t-86.5 -149q0 -203 295 -203q164 0 281 85.5t117 205.5zM340 1386h172v-167h-172v167zM711 1386h172v-167h-172v167zM317 1565h586v-97h-586v97z" />
    <glyph glyph-name="Aringacute" unicode="&#x1fa;" horiz-adv-x="1456" 
d="M1163 322h-868l-143 -322h-142l649 1434h138l649 -1434h-139zM1114 434l-383 860h-4l-383 -860h770zM498 1577q0 94 65.5 156.5t165.5 62.5q102 0 168 -62.5t66 -156.5t-66 -156.5t-168 -62.5q-100 0 -165.5 62.5t-65.5 156.5zM872 1577q0 63 -40 103t-103 40
q-62 0 -102.5 -40t-40.5 -103t40.5 -103t102.5 -40q63 0 103 40t40 103zM809 2001h178l-229 -225h-113z" />
    <glyph glyph-name="aringacute" unicode="&#x1fb;" horiz-adv-x="1187" 
d="M377 1386q0 72 41.5 125t109.5 70l148 203h178l-205 -201q70 -17 113 -70.5t43 -126.5q0 -86 -60.5 -143t-154.5 -57q-92 0 -152.5 57t-60.5 143zM459 1386q0 -57 37 -94t94 -37t94 37t37 94q0 60 -37 97t-94 37t-94 -38.5t-37 -95.5zM1044 780v-780h-120v158h-2
q-54 -87 -167.5 -138t-252.5 -51q-186 0 -292 83t-106 231q0 143 109 220t371 120q185 29 257 68.5t72 111.5q0 92 -83 147.5t-220 55.5q-155 0 -253 -75t-121 -210l-121 27q27 167 161 268q132 100 334 100q197 0 315.5 -92t118.5 -244zM922 645h-4q-26 -44 -96.5 -72
t-213.5 -51q-206 -35 -292.5 -90t-86.5 -149q0 -203 295 -203q164 0 281 85.5t117 205.5v274z" />
    <glyph glyph-name="AEacute" unicode="&#x1fc;" horiz-adv-x="1986" 
d="M1153 1315v-518h653v-113h-653v-565h717v-119h-848v330h-703l-161 -330h-148l711 1434h1149v-119h-717zM1022 442v873h-221l-426 -873h647zM1090 1782h178l-230 -226h-112z" />
    <glyph glyph-name="aeacute" unicode="&#x1fd;" horiz-adv-x="2103" 
d="M1999 492h-975q3 -184 126 -302t308 -118q272 0 406 262l100 -62q-78 -146 -208.5 -224.5t-297.5 -78.5q-160 0 -287 71t-194 198q-44 -122 -176.5 -195.5t-306.5 -73.5q-180 0 -282.5 83t-102.5 231q0 110 61.5 178t163.5 100q109 36 244 60q130 27 186.5 43.5
t95.5 46.5q43 34 43 92q0 97 -82 154t-223 57q-159 0 -258.5 -77t-112.5 -212l-116 14q15 173 147 275q135 102 340 102q156 0 263.5 -60.5t142.5 -170.5q69 110 186 170.5t260 60.5q239 0 394 -161.5t155 -417.5v-45zM1876 592q-6 186 -127 304t-301 118
q-181 0 -299.5 -117.5t-124.5 -304.5h852zM909 651h-4q-27 -48 -93.5 -72.5t-209.5 -52.5q-135 -26 -203.5 -49t-119.5 -67q-52 -46 -52 -127q0 -209 293 -209q161 0 275 87t114 210v280zM1135 1434h178l-230 -226h-112z" />
    <glyph glyph-name="Oslashacute" unicode="&#x1fe;" horiz-adv-x="1654" 
d="M1559 717q2 -213 -93.5 -385.5t-264 -269t-374.5 -93.5q-257 0 -452 146l-96 -113l-70 57l98 115q-101 101 -156 241t-55 302q-2 159 53 299t152 239t234 155t292 54q258 0 453 -145l94 113l70 -60l-96 -112q101 -101 156 -241t55 -302zM385 268l817 961
q-157 121 -375 121q-263 0 -432.5 -175.5t-169.5 -457.5q0 -268 160 -449zM1430 717q0 269 -160 450l-817 -960q153 -123 374 -123q264 0 433.5 175.5t169.5 457.5zM909 1812h178l-229 -225h-113z" />
    <glyph glyph-name="oslashacute" unicode="&#x1ff;" horiz-adv-x="1374" 
d="M1270 543q3 -160 -73.5 -293.5t-211.5 -208.5t-297 -72q-228 0 -391 135l-96 -94l-54 53l97 95q-140 156 -140 385q0 248 165.5 410.5t418.5 162.5q233 0 389 -137l99 96l53 -53l-96 -96q137 -156 137 -383zM324 238l675 665q-121 109 -311 109q-204 0 -334.5 -130
t-130.5 -339q0 -183 101 -305zM1151 543q0 180 -98 305l-678 -666q126 -108 313 -108q203 0 333 130t130 339zM770 1464h178l-229 -225h-113z" />
    <glyph glyph-name="uni0218" unicode="&#x218;" horiz-adv-x="1363" 
d="M76 502l129 18q41 -434 532 -434q192 0 306 76t114 205q0 130 -108 200.5t-390 126.5q-304 62 -423 145t-119 236q0 172 143 280.5t373 108.5q231 0 393.5 -124t190.5 -322l-130 -25q-25 164 -146.5 259.5t-307.5 95.5q-174 0 -280.5 -74t-106.5 -195q0 -70 41 -116
t135.5 -81t269.5 -71q328 -68 462 -166t134 -274q0 -183 -151.5 -292.5t-401.5 -109.5q-293 0 -466.5 140.5t-192.5 392.5zM651 -389q72 12 72 90h-78v168h182v-148q0 -82 -45 -127t-131 -51v68z" />
    <glyph glyph-name="uni0219" unicode="&#x219;" horiz-adv-x="1216" 
d="M84 375l117 22q20 -155 135.5 -238t310.5 -83q167 0 266 55.5t99 149.5q0 92 -87 141t-304 80q-277 39 -387.5 107.5t-110.5 197.5q0 137 125 223t323 86t341.5 -99t168.5 -251l-116 -23q-25 122 -132 194.5t-262 72.5q-146 0 -236.5 -55.5t-90.5 -143.5q0 -83 80.5 -126
t300.5 -77q281 -43 394.5 -116t113.5 -211q0 -141 -132.5 -226.5t-353.5 -85.5q-237 0 -391 109q-151 112 -172 297zM563 -389q72 12 72 90h-78v168h182v-148q0 -82 -45 -127t-131 -51v68z" />
    <glyph glyph-name="uni021A" unicode="&#x21a;" horiz-adv-x="1372" 
d="M621 1315h-549v119h1228v-119h-548v-1315h-131v1315zM602 -358q72 12 72 90h-78v168h182v-148q0 -82 -45 -127t-131 -51v68z" />
    <glyph glyph-name="uni021B" unicode="&#x21b;" horiz-adv-x="802" 
d="M399 981v-766q0 -57 27 -80.5t90 -23.5h170v-111h-170q-127 0 -184.5 51t-57.5 164v766h-229v104h229v236h125v-236h346v-104h-346zM365 -358q37 6 54 27.5t17 62.5h-78v168h183v-148q0 -82 -45 -127t-131 -51v68z" />
    <glyph glyph-name="uni0228" unicode="&#x228;" horiz-adv-x="1314" 
d="M186 1434h1012v-119h-881v-518h818v-113h-818v-565h881v-119h-1012v1434zM956 -254q0 -79 -60.5 -129.5t-154.5 -50.5q-123 0 -217 82l58 69q70 -67 159 -67q54 0 88.5 27t34.5 71q0 43 -32.5 67.5t-86.5 24.5q-76 0 -137 -55l-71 33l139 229l69 -31l-75 -120
q38 18 90 18q87 0 141.5 -47t54.5 -121z" />
    <glyph glyph-name="uni0229" unicode="&#x229;" horiz-adv-x="1335" 
d="M104 532q0 257 159 420.5t409 163.5q246 0 402.5 -161t156.5 -418v-45h-1002q0 -120 60 -216t161.5 -148t223.5 -52q294 0 432 258l98 -64q-159 -301 -530 -301q-254 0 -412 155t-158 408zM1104 594q-6 181 -128.5 298.5t-303.5 117.5q-186 0 -309 -119t-132 -297h873z
M938 -283q0 -79 -60.5 -129.5t-154.5 -50.5q-123 0 -217 82l57 70q71 -68 160 -68q54 0 88.5 27t34.5 71q0 43 -32.5 68t-86.5 25q-75 0 -137 -56l-72 33l139 229l70 -30l-76 -121q37 18 90 18q87 0 142 -47t55 -121z" />
    <glyph glyph-name="uni0237" unicode="&#x237;" horiz-adv-x="432" 
d="M-109 -221h142q129 0 129 125v1181h125v-1187q0 -111 -64.5 -170.5t-181.5 -59.5h-150v111z" />
    <glyph glyph-name="uni0258" unicode="&#x258;" horiz-adv-x="1335" 
d="M131 270l98 64q138 -258 433 -258q187 0 315.5 117t128.5 299h-1002v45q0 257 157 418t403 161q250 0 408.5 -163.5t158.5 -420.5q0 -253 -157.5 -408t-411.5 -155q-372 0 -531 301zM664 1010q-181 0 -304 -117.5t-129 -298.5h873q-9 178 -131.5 297t-308.5 119z" />
    <glyph glyph-name="uni0259" unicode="&#x259;" horiz-adv-x="1335" 
d="M104 549v45h1002q0 182 -129 299t-318 117q-284 0 -430 -265l-98 62q83 151 216.5 230t311.5 79q254 0 413 -155t159 -408q0 -257 -158.5 -420.5t-408.5 -163.5q-246 0 -403 161.5t-157 418.5zM1104 492h-875q9 -181 132 -298.5t303 -117.5q185 0 309.5 120t130.5 296z
" />
    <glyph glyph-name="circumflex" unicode="&#x2c6;" horiz-adv-x="761" 
d="M555 1167l-172 185l-174 -185l-70 66l162 168h162l162 -168z" />
    <glyph glyph-name="caron" unicode="&#x2c7;" horiz-adv-x="761" 
d="M625 1356l-162 -168h-162l-162 168l70 65l174 -182l172 182z" />
    <glyph glyph-name="breve" unicode="&#x2d8;" horiz-adv-x="770" 
d="M139 1415h78q28 -123 189 -123t186 123h80q-8 -106 -78.5 -166.5t-187.5 -60.5q-116 0 -188 61t-79 166z" />
    <glyph glyph-name="dotaccent" unicode="&#x2d9;" horiz-adv-x="446" 
d="M139 1374h170v-166h-170v166z" />
    <glyph glyph-name="ring" unicode="&#x2da;" horiz-adv-x="741" 
d="M139 1229q0 94 66 156.5t166 62.5q102 0 167.5 -62.5t65.5 -156.5t-65.5 -156.5t-167.5 -62.5q-100 0 -166 62.5t-66 156.5zM514 1229q0 63 -40 103t-103 40q-62 0 -103 -40t-41 -103t41 -103.5t103 -40.5q63 0 103 40.5t40 103.5z" />
    <glyph glyph-name="ogonek" unicode="&#x2db;" horiz-adv-x="620" 
d="M139 -236q0 67 55 136t152 125l64 -25q-168 -94 -168 -211q0 -76 80 -76q52 0 120 41l41 -94q-83 -47 -176 -47q-80 0 -124 39t-44 112z" />
    <glyph glyph-name="tilde" unicode="&#x2dc;" horiz-adv-x="864" 
d="M434 1245q-87 37 -127 37q-80 0 -92 -74h-76q6 78 51.5 123t120.5 45q40 0 75.5 -10.5t92.5 -36.5q86 -39 129 -39q76 0 92 76h72q-5 -78 -50 -123t-120 -45q-65 0 -168 47z" />
    <glyph glyph-name="hungarumlaut" unicode="&#x2dd;" horiz-adv-x="897" 
d="M293 1434h172l-215 -226h-111zM588 1434h172l-215 -226h-113z" />
    <glyph glyph-name="gravecomb" unicode="&#x300;" horiz-adv-x="0" 
d="M-342 1434h178l164 -226h-115z" />
    <glyph glyph-name="acutecomb" unicode="&#x301;" horiz-adv-x="0" 
d="M-178 1434h178l-229 -226h-113z" />
    <glyph glyph-name="uni0302" unicode="&#x302;" horiz-adv-x="0" 
d="M-70 1167l-172 185l-174 -185l-69 66l161 168h162l162 -168z" />
    <glyph glyph-name="tildecomb" unicode="&#x303;" horiz-adv-x="0" 
d="M-338 1245q-87 37 -127 37q-80 0 -92 -74h-76q6 78 51.5 123t120.5 45q40 0 75.5 -10.5t92.5 -36.5q86 -39 129 -39q76 0 92 76h72q-5 -78 -50 -123t-120 -45q-65 0 -168 47z" />
    <glyph glyph-name="uni0304" unicode="&#x304;" horiz-adv-x="0" 
d="M-586 1305h586v-97h-586v97z" />
    <glyph glyph-name="uni0306" unicode="&#x306;" horiz-adv-x="0" 
d="M-532 1415h77q28 -123 189 -123t186 123h80q-8 -106 -78.5 -166.5t-187.5 -60.5q-116 0 -187.5 60.5t-78.5 166.5z" />
    <glyph glyph-name="uni0307" unicode="&#x307;" horiz-adv-x="0" 
d="M-170 1374h170v-166h-170v166z" />
    <glyph glyph-name="uni0308" unicode="&#x308;" horiz-adv-x="0" 
d="M-543 1356h172v-168h-172v168zM-172 1356h172v-168h-172v168z" />
    <glyph glyph-name="uni030A" unicode="&#x30a;" horiz-adv-x="0" 
d="M-465 1229q0 94 66 156.5t166 62.5q102 0 167.5 -62.5t65.5 -156.5t-65.5 -156.5t-167.5 -62.5q-100 0 -166 62.5t-66 156.5zM-90 1229q0 63 -40 103t-103 40q-62 0 -103 -40t-41 -103t41 -103.5t103 -40.5q63 0 103 40.5t40 103.5z" />
    <glyph glyph-name="uni030B" unicode="&#x30b;" horiz-adv-x="0" 
d="M-467 1434h172l-215 -226h-111zM-172 1434h172l-215 -226h-113z" />
    <glyph glyph-name="uni030C" unicode="&#x30c;" horiz-adv-x="0" 
d="M0 1356l-162 -168h-162l-161 168l69 65l174 -182l172 182z" />
    <glyph glyph-name="uni0312" unicode="&#x312;" horiz-adv-x="0" 
d="M-6 1460q-74 -12 -74 -88h80v-164h-188v144q0 79 47 124t135 50v-66z" />
    <glyph glyph-name="dotbelowcomb" unicode="&#x323;" horiz-adv-x="0" 
d="M-170 -100h170v-166h-170v166z" />
    <glyph glyph-name="uni0326" unicode="&#x326;" horiz-adv-x="0" 
d="M-176 -360q72 12 72 90h-78v168h182v-148q0 -82 -45 -127t-131 -51v68z" />
    <glyph glyph-name="uni0327" unicode="&#x327;" horiz-adv-x="0" 
d="M0 -254q0 -79 -60.5 -129.5t-154.5 -50.5q-123 0 -217 82l57 69q70 -67 160 -67q54 0 88.5 27t34.5 71q0 43 -32.5 67.5t-86.5 24.5q-76 0 -137 -55l-72 33l139 229l70 -31l-76 -120q37 18 90 18q87 0 142 -47t55 -121z" />
    <glyph glyph-name="uni0328" unicode="&#x328;" horiz-adv-x="0" 
d="M-344 -236q0 67 55 136t152 125l63 -25q-168 -94 -168 -211q0 -76 80 -76q53 0 121 41l41 -94q-83 -47 -176 -47q-80 0 -124 39t-44 112z" />
    <glyph glyph-name="uni0335" unicode="&#x335;" horiz-adv-x="0" 
d="M-811 788h811v-106h-811v106z" />
    <glyph glyph-name="uni0336" unicode="&#x336;" horiz-adv-x="0" 
d="M-1534 788h1534v-106h-1534v106z" />
    <glyph glyph-name="uni0337" unicode="&#x337;" horiz-adv-x="0" 
d="M-1057 59l1002 1016l55 -53l-1004 -1016z" />
    <glyph glyph-name="uni0338" unicode="&#x338;" horiz-adv-x="0" 
d="M-1237 61l1165 1371l72 -60l-1167 -1368z" />
    <glyph glyph-name="uni0394" unicode="&#x394;" horiz-adv-x="1458" 
d="M1448 0h-1438l652 1434h137zM1255 117l-524 1177h-4l-524 -1177h1052z" />
    <glyph glyph-name="uni03A9" unicode="&#x3a9;" horiz-adv-x="1638" 
d="M1137 102h383v-102h-611v102q241 63 369.5 226.5t128.5 408.5q0 266 -166 437.5t-422 171.5q-169 0 -304 -78t-210.5 -217t-75.5 -314q0 -241 128 -405t368 -230v-102h-608v102h383v4q-197 85 -300.5 246.5t-103.5 384.5q-3 203 91.5 371t261.5 263.5t370 92.5
q152 2 287 -53t231.5 -151.5t151.5 -233t53 -289.5q0 -225 -104 -385.5t-301 -245.5v-4z" />
    <glyph glyph-name="uni03BC" unicode="&#x3bc;" horiz-adv-x="1308" 
d="M1165 1085v-1085h-121v178h-4q-62 -99 -171 -154t-244 -55q-245 0 -353 164h-4v-594h-123v1546h123v-622q0 -183 97 -283t274 -100q174 0 288.5 111t114.5 282v612h123z" />
    <glyph glyph-name="pi" unicode="&#x3c0;" horiz-adv-x="1529" 
d="M1159 975v-750q0 -66 25.5 -90t93.5 -24h147v-111h-174q-112 0 -163.5 51t-51.5 162v762h-587v-975h-117v975h-287v110h1387v-110h-273z" />
    <glyph glyph-name="uni0E3F" unicode="&#xe3f;" horiz-adv-x="1488" 
d="M1372 416q0 -204 -125.5 -310t-369.5 -106h-93v-225h-82v225h-495v1434h495v206h82v-206h113q196 0 309 -97t113 -264q0 -112 -54 -192t-149 -113v-4q119 -29 187.5 -121.5t68.5 -226.5zM338 809h364v506h-364v-506zM784 1315v-506h80q160 0 242 66t82 194
q0 121 -80.5 183.5t-235.5 62.5h-88zM702 119v579h-364v-579h364zM1241 414q0 148 -90 216t-285 68h-82v-579h72q197 0 291 71.5t94 223.5z" />
    <glyph glyph-name="uni1E04" unicode="&#x1e04;" horiz-adv-x="1462" 
d="M186 1434h691q196 0 308.5 -96.5t112.5 -264.5q0 -110 -53.5 -192t-144.5 -113v-4q117 -31 184.5 -123.5t67.5 -224.5q0 -204 -126 -310t-370 -106h-670v1434zM844 811q160 0 241.5 65t81.5 193q0 121 -80 183.5t-235 62.5h-537v-504h529zM836 119q197 0 291 71.5
t94 223.5q0 148 -90 216t-285 68h-531v-579h521zM647 -100h170v-166h-170v166z" />
    <glyph glyph-name="uni1E05" unicode="&#x1e05;" horiz-adv-x="1378" 
d="M268 162h-4v-162h-119v1495h123v-571h4q69 91 183.5 141.5t251.5 50.5q157 0 286.5 -73.5t205 -205.5t75.5 -294q0 -168 -75.5 -299.5t-207 -203t-295.5 -71.5q-133 0 -246 52t-182 141zM1151 543q0 205 -128 334t-323 129q-118 0 -218 -47.5t-157 -126.5t-57 -170v-238
q-3 -89 55 -169.5t157 -129t210 -45.5q205 0 333 126t128 337zM623 -131h170v-166h-170v166z" />
    <glyph glyph-name="uni1E0C" unicode="&#x1e0c;" horiz-adv-x="1538" 
d="M186 1434h555q333 0 517 -187t184 -530q0 -349 -181.5 -533t-521.5 -184h-553v1434zM739 119q279 0 423.5 151.5t144.5 446.5q0 293 -145 445.5t-421 152.5h-424v-1196h422zM684 -100h170v-166h-170v166z" />
    <glyph glyph-name="uni1E0D" unicode="&#x1e0d;" horiz-adv-x="1378" 
d="M104 543q0 121 44.5 228t120.5 182.5t181 119t222 43.5q136 0 250.5 -50.5t183.5 -141.5h4v571h123v-1495h-119v162h-4q-69 -89 -182 -141t-246 -52q-164 0 -295.5 71.5t-207 203t-75.5 299.5zM1110 424v238q0 91 -57 170t-157 126.5t-218 47.5q-195 0 -323 -129
t-128 -334q0 -211 128 -337t333 -126q111 -3 210 45.5t157 129t55 169.5zM598 -100h170v-166h-170v166z" />
    <glyph glyph-name="uni1E24" unicode="&#x1e24;" horiz-adv-x="1546" 
d="M186 1434h131v-639h912v639h131v-1434h-131v680h-912v-680h-131v1434zM688 -100h170v-166h-170v166z" />
    <glyph glyph-name="uni1E25" unicode="&#x1e25;" horiz-adv-x="1327" 
d="M145 1495h123v-588h4q66 98 176 153.5t240 55.5q228 0 366 -125.5t138 -335.5v-655h-125v635q0 174 -101.5 272.5t-283.5 98.5q-180 0 -297 -112t-117 -282v-612h-123v1495zM586 -100h170v-166h-170v166z" />
    <glyph glyph-name="uni1E36" unicode="&#x1e36;" horiz-adv-x="1202" 
d="M186 1434h131v-1315h813v-119h-944v1434zM575 -100h170v-166h-170v166z" />
    <glyph glyph-name="uni1E37" unicode="&#x1e37;" horiz-adv-x="413" 
d="M145 1495h123v-1495h-123v1495zM123 -100h170v-166h-170v166z" />
    <glyph glyph-name="uni1E44" unicode="&#x1e44;" horiz-adv-x="1564" 
d="M186 1434h142l917 -1248h4v1248h131v-1434h-143l-915 1247h-5v-1247h-131v1434zM698 1722h170v-166h-170v166z" />
    <glyph glyph-name="uni1E45" unicode="&#x1e45;" horiz-adv-x="1327" 
d="M145 1085h121v-178h4q61 96 174 152.5t244 56.5q226 0 365 -126.5t139 -332.5v-657h-125v635q0 171 -102.5 271t-276.5 100q-184 0 -302 -111.5t-118 -282.5v-612h-123v1085zM596 1405h170v-166h-170v166z" />
    <glyph glyph-name="uni1E46" unicode="&#x1e46;" horiz-adv-x="1564" 
d="M186 1434h142l917 -1248h4v1248h131v-1434h-143l-915 1247h-5v-1247h-131v1434zM721 -100h170v-166h-170v166z" />
    <glyph glyph-name="uni1E47" unicode="&#x1e47;" horiz-adv-x="1327" 
d="M145 1085h121v-178h4q61 96 174 152.5t244 56.5q226 0 365 -126.5t139 -332.5v-657h-125v635q0 171 -102.5 271t-276.5 100q-184 0 -302 -111.5t-118 -282.5v-612h-123v1085zM586 -100h170v-166h-170v166z" />
    <glyph glyph-name="uni1E4C" unicode="&#x1e4c;" horiz-adv-x="1654" 
d="M96 717q-2 159 53 299t152 239t234 155t292 54q154 2 290.5 -54t234 -155t153 -239t54.5 -299q2 -213 -93.5 -385.5t-264 -269t-374.5 -93.5q-207 -3 -375.5 93.5t-263.5 269t-92 385.5zM1425 717q0 279 -168.5 454t-429.5 175t-429.5 -175t-168.5 -454t168.5 -454
t429.5 -175t429.5 175t168.5 454zM807 1624q-87 37 -127 37q-80 0 -92 -74h-76q6 78 51.5 123t120.5 45q40 0 75.5 -10.5t92.5 -36.5q86 -39 129 -39q76 0 92 76h72q-5 -78 -50 -123t-120 -45q-65 0 -168 47zM909 2042h178l-229 -225h-113z" />
    <glyph glyph-name="uni1E4D" unicode="&#x1e4d;" horiz-adv-x="1374" 
d="M104 543q0 248 165.5 410.5t418.5 162.5q162 3 297 -72t211.5 -208t73.5 -293q3 -160 -73.5 -293.5t-211.5 -208.5t-297 -72q-253 0 -418.5 163t-165.5 411zM1147 543q0 206 -128.5 334.5t-330.5 128.5q-201 0 -331 -129t-130 -334t130 -334t331 -129q202 0 330.5 128.5
t128.5 334.5zM668 1276q-87 37 -127 37q-80 0 -92 -74h-76q6 78 51.5 123t120.5 45q40 0 75.5 -10.5t92.5 -36.5q86 -39 129 -39q76 0 92 76h72q-5 -78 -50 -123t-120 -45q-65 0 -168 47zM770 1694h178l-229 -226h-113z" />
    <glyph glyph-name="uni1E62" unicode="&#x1e62;" horiz-adv-x="1363" 
d="M76 502l129 18q41 -434 532 -434q192 0 306 76t114 205q0 130 -108 200.5t-390 126.5q-304 62 -423 145t-119 236q0 172 143 280.5t373 108.5q231 0 393.5 -124t190.5 -322l-130 -25q-25 164 -146.5 259.5t-307.5 95.5q-174 0 -280.5 -74t-106.5 -195q0 -70 41 -116
t135.5 -81t269.5 -71q328 -68 462 -166t134 -274q0 -183 -151.5 -292.5t-401.5 -109.5q-293 0 -466.5 140.5t-192.5 392.5zM651 -131h170v-166h-170v166z" />
    <glyph glyph-name="uni1E63" unicode="&#x1e63;" horiz-adv-x="1216" 
d="M84 375l117 22q20 -155 135.5 -238t310.5 -83q167 0 266 55.5t99 149.5q0 92 -87 141t-304 80q-277 39 -387.5 107.5t-110.5 197.5q0 137 125 223t323 86t341.5 -99t168.5 -251l-116 -23q-25 122 -132 194.5t-262 72.5q-146 0 -236.5 -55.5t-90.5 -143.5q0 -83 80.5 -126
t300.5 -77q281 -43 394.5 -116t113.5 -211q0 -141 -132.5 -226.5t-353.5 -85.5q-237 0 -391 109q-151 112 -172 297zM563 -131h170v-166h-170v166z" />
    <glyph glyph-name="uni1E6C" unicode="&#x1e6c;" horiz-adv-x="1372" 
d="M621 1315h-549v119h1228v-119h-548v-1315h-131v1315zM602 -100h170v-166h-170v166z" />
    <glyph glyph-name="uni1E6D" unicode="&#x1e6d;" horiz-adv-x="802" 
d="M399 981v-766q0 -57 27 -80.5t90 -23.5h170v-111h-170q-127 0 -184.5 51t-57.5 164v766h-229v104h229v236h125v-236h346v-104h-346zM365 -100h170v-166h-170v166z" />
    <glyph glyph-name="Wgrave" unicode="&#x1e80;" horiz-adv-x="2045" 
d="M41 1434h135l295 -1250h4l486 1250h124l488 -1250h4l293 1250h135l-336 -1434h-156l-487 1245h-4l-490 -1245h-155zM764 1782h178l164 -226h-115z" />
    <glyph glyph-name="wgrave" unicode="&#x1e81;" horiz-adv-x="1759" 
d="M55 1085h125l262 -907h4l373 907h119l373 -907h4l264 907h125l-320 -1085h-112l-391 950h-4l-390 -950h-112zM618 1434h179l164 -226h-115z" />
    <glyph glyph-name="Wacute" unicode="&#x1e82;" horiz-adv-x="2045" 
d="M41 1434h135l295 -1250h4l486 1250h124l488 -1250h4l293 1250h135l-336 -1434h-156l-487 1245h-4l-490 -1245h-155zM1106 1782h178l-229 -226h-113z" />
    <glyph glyph-name="wacute" unicode="&#x1e83;" horiz-adv-x="1759" 
d="M55 1085h125l262 -907h4l373 907h119l373 -907h4l264 907h125l-320 -1085h-112l-391 950h-4l-390 -950h-112zM961 1434h178l-230 -226h-112z" />
    <glyph glyph-name="Wdieresis" unicode="&#x1e84;" horiz-adv-x="2045" 
d="M41 1434h135l295 -1250h4l486 1250h124l488 -1250h4l293 1250h135l-336 -1434h-156l-487 1245h-4l-490 -1245h-155zM754 1704h172v-168h-172v168zM1124 1704h172v-168h-172v168z" />
    <glyph glyph-name="wdieresis" unicode="&#x1e85;" horiz-adv-x="1759" 
d="M55 1085h125l262 -907h4l373 907h119l373 -907h4l264 907h125l-320 -1085h-112l-391 950h-4l-390 -950h-112zM608 1356h172v-168h-172v168zM979 1356h172v-168h-172v168z" />
    <glyph glyph-name="uni1E92" unicode="&#x1e92;" horiz-adv-x="1505" 
d="M96 106l1139 1205v4h-1071v119h1245v-107l-1139 -1204v-4h1094v-119h-1268v106zM670 -100h170v-166h-170v166z" />
    <glyph glyph-name="uni1E93" unicode="&#x1e93;" horiz-adv-x="1193" 
d="M57 98l897 877v4h-852v106h1031v-98l-900 -876v-5h895v-106h-1071v98zM508 -100h170v-166h-170v166z" />
    <glyph glyph-name="uni1EA0" unicode="&#x1ea0;" horiz-adv-x="1456" 
d="M1163 322h-868l-143 -322h-142l649 1434h138l649 -1434h-139zM1114 434l-383 860h-4l-383 -860h770zM645 -100h170v-166h-170v166z" />
    <glyph glyph-name="uni1EA1" unicode="&#x1ea1;" horiz-adv-x="1179" 
d="M104 283q0 143 109 220t371 120q185 29 257 68.5t72 111.5q0 92 -83 147.5t-220 55.5q-155 0 -253 -75t-121 -210l-121 27q27 167 161 268q132 100 334 100q197 0 315.5 -92t118.5 -244v-780h-120v158h-2q-54 -87 -167.5 -138t-252.5 -51q-186 0 -292 83t-106 231z
M922 371v274h-4q-26 -44 -96.5 -72t-213.5 -51q-206 -35 -292.5 -90t-86.5 -149q0 -203 295 -203q164 0 281 85.5t117 205.5zM506 -131h170v-166h-170v166z" />
    <glyph glyph-name="uni1EAC" unicode="&#x1eac;" horiz-adv-x="1456" 
d="M1163 322h-868l-143 -322h-142l649 1434h138l649 -1434h-139zM1114 434l-383 860h-4l-383 -860h770zM903 1516l-172 184l-174 -184l-70 65l162 168h162l162 -168zM645 -100h170v-166h-170v166z" />
    <glyph glyph-name="uni1EAD" unicode="&#x1ead;" horiz-adv-x="1179" 
d="M104 283q0 143 109 220t371 120q185 29 257 68.5t72 111.5q0 92 -83 147.5t-220 55.5q-155 0 -253 -75t-121 -210l-121 27q27 167 161 268q132 100 334 100q197 0 315.5 -92t118.5 -244v-780h-120v158h-2q-54 -87 -167.5 -138t-252.5 -51q-186 0 -292 83t-106 231z
M922 371v274h-4q-26 -44 -96.5 -72t-213.5 -51q-206 -35 -292.5 -90t-86.5 -149q0 -203 295 -203q164 0 281 85.5t117 205.5zM784 1198l-172 184l-174 -184l-69 66l161 168h162l162 -168zM506 -131h170v-166h-170v166z" />
    <glyph glyph-name="uni1EB8" unicode="&#x1eb8;" horiz-adv-x="1314" 
d="M186 1434h1012v-119h-881v-518h818v-113h-818v-565h881v-119h-1012v1434zM608 -100h170v-166h-170v166z" />
    <glyph glyph-name="uni1EB9" unicode="&#x1eb9;" horiz-adv-x="1335" 
d="M104 532q0 257 159 420.5t409 163.5q246 0 402.5 -161t156.5 -418v-45h-1002q0 -120 60 -216t161.5 -148t223.5 -52q294 0 432 258l98 -64q-159 -301 -530 -301q-254 0 -412 155t-158 408zM1104 594q-6 181 -128.5 298.5t-303.5 117.5q-186 0 -309 -119t-132 -297h873z
M590 -131h170v-166h-170v166z" />
    <glyph glyph-name="uni1EBC" unicode="&#x1ebc;" horiz-adv-x="1314" 
d="M186 1434h1012v-119h-881v-518h818v-113h-818v-565h881v-119h-1012v1434zM688 1593q-87 37 -127 37q-80 0 -92 -74h-76q6 78 51.5 123t120.5 45q40 0 75.5 -10.5t92.5 -36.5q86 -39 129 -39q76 0 92 76h72q-5 -78 -50 -123t-120 -45q-65 0 -168 47z" />
    <glyph glyph-name="uni1EBD" unicode="&#x1ebd;" horiz-adv-x="1335" 
d="M104 532q0 257 159 420.5t409 163.5q246 0 402.5 -161t156.5 -418v-45h-1002q0 -120 60 -216t161.5 -148t223.5 -52q294 0 432 258l98 -64q-159 -301 -530 -301q-254 0 -412 155t-158 408zM1104 594q-6 181 -128.5 298.5t-303.5 117.5q-186 0 -309 -119t-132 -297h873z
M651 1276q-87 37 -127 37q-80 0 -92 -74h-76q6 78 51.5 123t120.5 45q40 0 75.5 -10.5t92.5 -36.5q86 -39 129 -39q77 0 93 76h71q-5 -78 -50 -123t-120 -45q-65 0 -168 47z" />
    <glyph glyph-name="uni1EC6" unicode="&#x1ec6;" horiz-adv-x="1314" 
d="M186 1434h1012v-119h-881v-518h818v-113h-818v-565h881v-119h-1012v1434zM883 1516l-172 184l-174 -184l-70 65l162 168h162l161 -168zM608 -100h170v-166h-170v166z" />
    <glyph glyph-name="uni1EC7" unicode="&#x1ec7;" horiz-adv-x="1335" 
d="M104 532q0 257 159 420.5t409 163.5q246 0 402.5 -161t156.5 -418v-45h-1002q0 -120 60 -216t161.5 -148t223.5 -52q294 0 432 258l98 -64q-159 -301 -530 -301q-254 0 -412 155t-158 408zM1104 594q-6 181 -128.5 298.5t-303.5 117.5q-186 0 -309 -119t-132 -297h873z
M846 1198l-172 184l-174 -184l-70 66l162 168h162l161 -168zM590 -131h170v-166h-170v166z" />
    <glyph glyph-name="uni1ECA" unicode="&#x1eca;" horiz-adv-x="501" 
d="M186 1434h131v-1434h-131v1434zM168 -100h170v-166h-170v166z" />
    <glyph glyph-name="uni1ECB" unicode="&#x1ecb;" horiz-adv-x="413" 
d="M145 1085h123v-1085h-123v1085zM125 1436h164v-156h-164v156zM117 -100h170v-166h-170v166z" />
    <glyph glyph-name="uni1ECC" unicode="&#x1ecc;" horiz-adv-x="1654" 
d="M96 717q-2 159 53 299t152 239t234 155t292 54q154 2 290.5 -54t234 -155t153 -239t54.5 -299q2 -213 -93.5 -385.5t-264 -269t-374.5 -93.5q-207 -3 -375.5 93.5t-263.5 269t-92 385.5zM1425 717q0 279 -168.5 454t-429.5 175t-429.5 -175t-168.5 -454t168.5 -454
t429.5 -175t429.5 175t168.5 454zM743 -131h170v-166h-170v166z" />
    <glyph glyph-name="uni1ECD" unicode="&#x1ecd;" horiz-adv-x="1374" 
d="M104 543q0 248 165.5 410.5t418.5 162.5q162 3 297 -72t211.5 -208t73.5 -293q3 -160 -73.5 -293.5t-211.5 -208.5t-297 -72q-253 0 -418.5 163t-165.5 411zM1147 543q0 206 -128.5 334.5t-330.5 128.5q-201 0 -331 -129t-130 -334t130 -334t331 -129q202 0 330.5 128.5
t128.5 334.5zM604 -131h170v-166h-170v166z" />
    <glyph glyph-name="uni1ED8" unicode="&#x1ed8;" horiz-adv-x="1654" 
d="M96 717q-2 159 53 299t152 239t234 155t292 54q154 2 290.5 -54t234 -155t153 -239t54.5 -299q2 -213 -93.5 -385.5t-264 -269t-374.5 -93.5q-207 -3 -375.5 93.5t-263.5 269t-92 385.5zM1425 717q0 279 -168.5 454t-429.5 175t-429.5 -175t-168.5 -454t168.5 -454
t429.5 -175t429.5 175t168.5 454zM1001 1546l-172 185l-174 -185l-69 66l162 168h161l162 -168zM743 -131h170v-166h-170v166z" />
    <glyph glyph-name="uni1ED9" unicode="&#x1ed9;" horiz-adv-x="1374" 
d="M104 543q0 248 165.5 410.5t418.5 162.5q162 3 297 -72t211.5 -208t73.5 -293q3 -160 -73.5 -293.5t-211.5 -208.5t-297 -72q-253 0 -418.5 163t-165.5 411zM1147 543q0 206 -128.5 334.5t-330.5 128.5q-201 0 -331 -129t-130 -334t130 -334t331 -129q202 0 330.5 128.5
t128.5 334.5zM862 1198l-172 184l-174 -184l-70 66l162 168h162l162 -168zM604 -131h170v-166h-170v166z" />
    <glyph glyph-name="uni1EE4" unicode="&#x1ee4;" horiz-adv-x="1544" 
d="M176 543v891h131v-887q0 -240 112.5 -349.5t352.5 -109.5q239 0 352 110.5t113 348.5v887h131v-891q0 -574 -596 -574t-596 574zM688 -131h170v-166h-170v166z" />
    <glyph glyph-name="uni1EE5" unicode="&#x1ee5;" horiz-adv-x="1288" 
d="M125 442v643h123v-622q0 -184 98.5 -283.5t278.5 -99.5q173 0 284 111t111 282v612h125v-1085h-123v176h-4q-62 -99 -170.5 -153t-247.5 -54q-223 0 -349 126t-126 347zM516 -131h170v-166h-170v166z" />
    <glyph glyph-name="Ygrave" unicode="&#x1ef2;" horiz-adv-x="1374" 
d="M621 586l-621 848h156l528 -732h4l529 732h157l-622 -848v-586h-131v586zM428 1782h178l164 -226h-115z" />
    <glyph glyph-name="ygrave" unicode="&#x1ef3;" horiz-adv-x="1175" 
d="M518 94l-498 991h142l424 -860h4l424 860h141l-776 -1546h-139zM328 1434h178l164 -226h-115z" />
    <glyph glyph-name="uni1EF4" unicode="&#x1ef4;" horiz-adv-x="1374" 
d="M621 586l-621 848h156l528 -732h4l529 732h157l-622 -848v-586h-131v586zM604 -100h170v-166h-170v166z" />
    <glyph glyph-name="uni1EF5" unicode="&#x1ef5;" horiz-adv-x="1175" 
d="M518 94l-498 991h142l424 -860h4l424 860h141l-776 -1546h-139zM690 -100h170v-166h-170v166z" />
    <glyph glyph-name="uni1EF8" unicode="&#x1ef8;" horiz-adv-x="1374" 
d="M621 586l-621 848h156l528 -732h4l529 732h157l-622 -848v-586h-131v586zM668 1593q-87 37 -127 37q-80 0 -92 -74h-76q6 78 51.5 123t120.5 45q40 0 75.5 -10.5t92.5 -36.5q86 -39 129 -39q76 0 92 76h72q-5 -78 -50 -123t-120 -45q-65 0 -168 47z" />
    <glyph glyph-name="uni1EF9" unicode="&#x1ef9;" horiz-adv-x="1175" 
d="M518 94l-498 991h142l424 -860h4l424 860h141l-776 -1546h-139zM567 1245q-87 37 -127 37q-80 0 -92 -74h-76q6 78 51.5 123t120.5 45q40 0 75.5 -10.5t92.5 -36.5q86 -39 129 -39q77 0 93 76h71q-5 -78 -50 -123t-120 -45q-65 0 -168 47z" />
    <glyph glyph-name="uni2002" unicode="&#x2002;" horiz-adv-x="1536" 
 />
    <glyph glyph-name="uni2003" unicode="&#x2003;" horiz-adv-x="2048" 
 />
    <glyph glyph-name="uni2004" unicode="&#x2004;" horiz-adv-x="716" 
 />
    <glyph glyph-name="uni2005" unicode="&#x2005;" horiz-adv-x="512" 
 />
    <glyph glyph-name="uni2007" unicode="&#x2007;" 
 />
    <glyph glyph-name="uni2008" unicode="&#x2008;" horiz-adv-x="608" 
 />
    <glyph glyph-name="uni2009" unicode="&#x2009;" horiz-adv-x="307" 
 />
    <glyph glyph-name="uni200A" unicode="&#x200a;" horiz-adv-x="153" 
 />
    <glyph glyph-name="uni200B" unicode="&#x200b;" horiz-adv-x="0" 
 />
    <glyph glyph-name="endash" unicode="&#x2013;" horiz-adv-x="1146" 
d="M119 668h909v-119h-909v119z" />
    <glyph glyph-name="emdash" unicode="&#x2014;" horiz-adv-x="1730" 
d="M119 668h1495v-119h-1495v119z" />
    <glyph glyph-name="quoteleft" unicode="&#x2018;" horiz-adv-x="526" 
d="M360 1358q-43 -7 -62 -32.5t-19 -72.5h88v-192h-209v168q0 94 51.5 146.5t150.5 58.5v-76z" />
    <glyph glyph-name="quoteright" unicode="&#x2019;" horiz-adv-x="526" 
d="M166 1137q43 8 62.5 32.5t19.5 71.5h-88v193h209v-168q0 -94 -52 -146.5t-151 -58.5v76z" />
    <glyph glyph-name="quotesinglbase" unicode="&#x201a;" horiz-adv-x="608" 
d="M207 -104q43 8 62.5 32.5t19.5 71.5h-88v193h209v-168q0 -94 -52 -146.5t-151 -58.5v76z" />
    <glyph glyph-name="quotedblleft" unicode="&#x201c;" horiz-adv-x="903" 
d="M403 1358q-43 -7 -62 -32.5t-19 -72.5h88v-192h-209v168q0 94 51.5 146.5t150.5 58.5v-76zM696 1358q-82 -14 -82 -105h88v-192h-208v168q0 94 51.5 146.5t150.5 58.5v-76z" />
    <glyph glyph-name="quotedblright" unicode="&#x201d;" horiz-adv-x="903" 
d="M207 1137q43 8 62.5 32.5t19.5 71.5h-88v193h209v-168q0 -94 -52 -146.5t-151 -58.5v76zM500 1137q43 8 62.5 32.5t19.5 71.5h-88v193h208v-168q0 -94 -51.5 -146.5t-150.5 -58.5v76z" />
    <glyph glyph-name="quotedblbase" unicode="&#x201e;" horiz-adv-x="903" 
d="M207 -104q43 8 62.5 32.5t19.5 71.5h-88v193h209v-168q0 -94 -52 -146.5t-151 -58.5v76zM500 -104q43 8 62.5 32.5t19.5 71.5h-88v193h208v-168q0 -94 -51.5 -146.5t-150.5 -58.5v76z" />
    <glyph glyph-name="dagger" unicode="&#x2020;" horiz-adv-x="1263" 
d="M571 969h-452v116h452v484h123v-484h453v-116h-453v-1364h-123v1364z" />
    <glyph glyph-name="daggerdbl" unicode="&#x2021;" horiz-adv-x="1263" 
d="M571 68h-452v116h452v785h-452v116h452v469h123v-469h453v-116h-453v-785h453v-116h-453v-463h-123v463z" />
    <glyph glyph-name="bullet" unicode="&#x2022;" horiz-adv-x="694" 
d="M201 786q0 67 40 108.5t107 41.5t107.5 -41.5t40.5 -108.5q0 -68 -40.5 -109.5t-107.5 -41.5t-107 42t-40 109z" />
    <glyph glyph-name="ellipsis" unicode="&#x2026;" horiz-adv-x="1533" 
d="M664 205h208v-205h-208v205zM201 205h209v-205h-209v205zM1126 205h209v-205h-209v205z" />
    <glyph glyph-name="perthousand" unicode="&#x2030;" horiz-adv-x="3188" 
d="M594 -80l999 1661l101 -61l-996 -1657zM139 1004q0 200 112 324t292 124q182 0 293.5 -124t111.5 -324t-111.5 -324.5t-293.5 -124.5q-180 0 -292 124.5t-112 324.5zM829 1004q0 158 -77.5 251t-208.5 93t-209 -93t-78 -251t78 -251.5t209 -93.5t208.5 93.5t77.5 251.5z
M1315 430q0 200 111.5 324.5t291.5 124.5q182 0 294 -124.5t112 -324.5t-112 -324t-294 -124q-180 0 -291.5 124t-111.5 324zM2241 430q0 200 111.5 324.5t291.5 124.5q182 0 293.5 -124.5t111.5 -324.5t-111.5 -324t-293.5 -124q-180 0 -291.5 124t-111.5 324zM2005 430
q0 158 -78 251t-209 93t-208.5 -93t-77.5 -251t77.5 -251t208.5 -93t209 93t78 251zM2931 430q0 158 -78 251t-209 93q-130 0 -207.5 -93t-77.5 -251t77.5 -251t207.5 -93q131 0 209 93t78 251z" />
    <glyph glyph-name="guilsinglleft" unicode="&#x2039;" horiz-adv-x="643" 
d="M160 578l223 378h123l-230 -378l230 -379h-123z" />
    <glyph glyph-name="guilsinglright" unicode="&#x203a;" horiz-adv-x="643" 
d="M137 199l230 379l-230 378h123l223 -378l-223 -379h-123z" />
    <glyph glyph-name="fraction" unicode="&#x2044;" horiz-adv-x="425" 
d="M-332 -82l998 1663l94 -57l-996 -1657z" />
    <glyph glyph-name="uni207A" unicode="&#x207a;" horiz-adv-x="894" 
d="M756 385h-256v-260h-105v260h-256v92h256v258h105v-258h256v-92z" />
    <glyph glyph-name="uni207B" unicode="&#x207b;" horiz-adv-x="833" 
d="M139 477h555v-92h-555v92z" />
    <glyph glyph-name="lira" unicode="&#x20a4;" horiz-adv-x="1245" 
d="M1176 748q2 -213 -93.5 -385.5t-264 -269t-374.5 -93.5h-131v698l-182 -67l-41 102l223 80v188l-182 -67l-41 102l223 82v316h131v-269l433 158l38 -102l-471 -172v-187l433 156l38 -100l-471 -173v-626q261 0 429.5 175t168.5 454h134z" />
    <glyph glyph-name="uni20A8" unicode="&#x20a8;" horiz-adv-x="1415" 
d="M1020 1329v-4q143 -84 158 -252h147v-110h-145q-14 -166 -126.5 -260t-308.5 -101v-4l383 -598h-153l-377 602h-453v117h555q157 0 245 62.5t102 181.5h-902v110h902q-30 242 -351 242h-551v119h1180v-105h-305z" />
    <glyph glyph-name="uni20A9" unicode="&#x20a9;" horiz-adv-x="2189" 
d="M1948 903l-47 -203h247v-100h-272l-141 -600h-144l-233 600h-527l-235 -600h-141l-142 600h-272v100h250l-47 203h-203v101h178l-100 430h123l102 -430h524l168 430h117l168 -430h524l103 430h125l-101 -430h176v-101h-200zM991 1004h209l-102 260h-4zM416 700h336
l77 203h-462zM1317 700l-78 203h-287l-80 -203h445zM1823 903h-463l78 -203h336zM713 600h-275l103 -430h4zM1751 600h-274l168 -430h4z" />
    <glyph glyph-name="Euro" unicode="&#x20ac;" horiz-adv-x="1800" 
d="M1706 498q-34 -164 -136.5 -285t-249 -182.5t-319.5 -61.5q-267 0 -467.5 149.5t-265.5 393.5h-217v111h199q-6 46 -6 94q0 14 4 84h-197v110h215q62 248 263 400.5t472 152.5q258 0 451 -138t248 -370l-125 -30q-53 201 -206.5 311.5t-367.5 110.5q-218 0 -380 -119
q-160 -115 -220 -318h736v-110h-758q-4 -70 -4 -84q0 -47 6 -94h596v-111h-574q59 -197 222 -311q165 -115 376 -115q220 0 375 114.5t205 327.5z" />
    <glyph glyph-name="uni20BD" unicode="&#x20bd;" horiz-adv-x="1613" 
d="M1489 999q0 -204 -128 -318t-357 -114h-570v-194h520v-111h-520v-262h-131v262h-213v111h213v194h-213v111h213v756h701q226 0 355.5 -116.5t129.5 -318.5zM1358 999q0 156 -90.5 236t-268.5 80h-565v-629h565q359 0 359 313z" />
    <glyph glyph-name="uni2116" unicode="&#x2116;" horiz-adv-x="2490" 
d="M1579 1004q0 200 111.5 324t291.5 124t291 -124t111 -324t-111 -324.5t-291 -124.5t-291.5 124.5t-111.5 324.5zM180 1434h142l917 -1248h4v1248h131v-1434h-141l-918 1247h-4v-1247h-131v1434zM2265 1004q0 158 -77 250t-206 92q-130 0 -207 -92t-77 -250t77 -250
t207 -92q129 0 206 92t77 250zM1579 430h805v-111h-805v111z" />
    <glyph glyph-name="uni2117" unicode="&#x2117;" horiz-adv-x="1484" 
d="M119 664q-2 132 46.5 249t133 200t200.5 130.5t244 46.5q170 2 314.5 -79t229 -226.5t81.5 -320.5q3 -175 -81.5 -322t-229 -229.5t-314.5 -79.5q-128 -2 -244 46.5t-200 132.5t-133 202t-47 250zM1278 664q0 157 -70.5 282t-192.5 194.5t-272 69.5q-230 0 -383 -154
t-153 -392q-3 -156 68 -284t195 -199t273 -68q229 0 382 155t153 396zM551 1020h264q117 0 181.5 -59.5t64.5 -165.5t-64.5 -165t-181.5 -59h-160v-274h-104v723zM807 662q72 0 110.5 35t38.5 98q0 135 -149 135h-152v-268h152z" />
    <glyph glyph-name="trademark" unicode="&#x2122;" horiz-adv-x="1566" 
d="M322 1348h-213v86h516v-86h-213v-609h-90v609zM739 1434h125l230 -560h2l231 560h121v-695h-90v555h-2l-228 -555h-67l-230 555h-2v-555h-90v695z" />
    <glyph glyph-name="oneeighth" unicode="&#x215b;" horiz-adv-x="1912" 
d="M334 1315l-279 -152v115l287 156h102v-861h-110v742zM264 -82l998 1663l94 -57l-996 -1657zM1087 240q0 78 52.5 139t144.5 90v2q-139 59 -139 178q0 100 91 165t232 65q139 0 230 -66q92 -65 92 -164q0 -119 -139 -178v-2q92 -29 144 -90t52 -139q0 -117 -103.5 -187.5
t-275.5 -70.5q-173 0 -277 70.5t-104 187.5zM1683 645q0 66 -59 106t-156 40q-98 0 -157.5 -40t-59.5 -106q0 -61 61.5 -101t155.5 -40t154.5 40t60.5 101zM1737 246q0 78 -73.5 125t-195.5 47t-196 -47t-74 -125q0 -79 71 -123.5t199 -44.5q127 0 198 44t71 124z" />
    <glyph glyph-name="threeeighths" unicode="&#x215c;" horiz-adv-x="2144" 
d="M55 854l109 14q6 -106 71.5 -161.5t184.5 -55.5q108 0 169.5 46t61.5 126q0 162 -223 162h-100v86h98q98 0 150.5 36.5t52.5 104.5q0 66 -56 105t-153 39q-204 0 -252 -182l-105 26q26 117 121 184.5t236 67.5t229 -65.5t88 -169.5q0 -60 -33.5 -107t-91.5 -74v-2
q69 -26 109.5 -84t40.5 -131q0 -121 -93 -192.5t-249 -71.5q-164 0 -261 79t-104 220zM496 -82l997 1663l94 -57l-995 -1657zM1319 240q0 78 52.5 139t144.5 90v2q-140 59 -140 178q0 100 91.5 165t232.5 65q138 0 229 -66q92 -65 92 -164q0 -119 -139 -178v-2
q92 -29 144.5 -90t52.5 -139q0 -117 -103.5 -187.5t-275.5 -70.5q-173 0 -277 70.5t-104 187.5zM1915 645q0 66 -59 106t-156 40q-98 0 -157.5 -40t-59.5 -106q0 -61 61.5 -101t155.5 -40t154.5 40t60.5 101zM1968 246q0 78 -73 125t-195 47t-196 -47t-74 -125
q0 -79 71 -123.5t199 -44.5q127 0 197.5 44t70.5 124z" />
    <glyph glyph-name="fiveeighths" unicode="&#x215d;" horiz-adv-x="2197" 
d="M66 811l104 35q47 -195 276 -195q118 0 188.5 58t70.5 155q0 96 -69.5 152.5t-186.5 56.5q-150 0 -263 -110l-102 30l90 441h559v-97h-475l-53 -252l2 -2q110 78 254 78q158 0 257 -83t99 -216q0 -136 -103 -221.5t-268 -85.5q-149 0 -251.5 69t-128.5 187zM549 -82
l997 1663l94 -57l-995 -1657zM1372 240q0 78 52.5 139t144.5 90v2q-139 59 -139 178q0 100 91 165t232 65q138 0 229 -66q93 -66 93 -164q0 -119 -140 -178v-2q92 -29 144.5 -90t52.5 -139q0 -117 -103.5 -187.5t-275.5 -70.5q-173 0 -277 70.5t-104 187.5zM1968 645
q0 66 -59 106t-156 40q-98 0 -157.5 -40t-59.5 -106q0 -61 61.5 -101t155.5 -40t154.5 40t60.5 101zM2021 246q0 78 -73 125t-195 47t-196 -47t-74 -125q0 -79 71 -123.5t199 -44.5q127 0 197.5 44t70.5 124z" />
    <glyph glyph-name="seveneighths" unicode="&#x215e;" horiz-adv-x="1943" 
d="M549 1335v2h-549v97h678v-91l-414 -770h-127zM295 -82l997 1663l94 -57l-995 -1657zM1118 240q0 78 52.5 139t144.5 90v2q-139 59 -139 178q0 100 91 165t232 65q139 0 230 -66q92 -65 92 -164q0 -119 -140 -178v-2q92 -29 144.5 -90t52.5 -139q0 -117 -103.5 -187.5
t-275.5 -70.5q-173 0 -277 70.5t-104 187.5zM1714 645q0 66 -59 106t-156 40q-98 0 -157.5 -40t-59.5 -106q0 -61 61.5 -101t155.5 -40t154.5 40t60.5 101zM1767 246q0 78 -73 125t-195 47t-196 -47t-74 -125q0 -79 71 -123.5t199 -44.5q127 0 197.5 44t70.5 124z" />
    <glyph glyph-name="arrowleft" unicode="&#x2190;" horiz-adv-x="1470" 
d="M1352 655h-1022l364 -344l-82 -82l-493 480l493 479l82 -82l-362 -342h1020v-109z" />
    <glyph glyph-name="arrowup" unicode="&#x2191;" horiz-adv-x="1193" 
d="M991 756l-336 358v-1014h-116v1016l-336 -360l-84 84l477 495l479 -495z" />
    <glyph glyph-name="arrowright" unicode="&#x2192;" horiz-adv-x="1470" 
d="M1352 709l-494 -480l-82 82l365 344h-1022v109h1020l-363 342l82 82z" />
    <glyph glyph-name="arrowdown" unicode="&#x2193;" horiz-adv-x="1193" 
d="M1075 596l-479 -496l-477 496l84 84l336 -361v1016h116v-1013l336 358z" />
    <glyph glyph-name="arrowboth" unicode="&#x2194;" horiz-adv-x="1689" 
d="M1571 709l-498 -480l-76 82l369 346h-1042l368 -346l-76 -82l-497 480l497 479l76 -82l-366 -344h1038l-367 344l76 82z" />
    <glyph glyph-name="arrowupdn" unicode="&#x2195;" horiz-adv-x="1193" 
d="M993 586l82 -78l-479 -498l-477 498l82 78l342 -363v987l-342 -364l-82 78l477 497l479 -497l-82 -78l-344 364v-989z" />
    <glyph glyph-name="uni2196" unicode="&#x2196;" horiz-adv-x="1148" 
d="M952 258l-723 723l13 -494l-111 -2l-12 686l684 -12v-112l-494 14l721 -721z" />
    <glyph glyph-name="uni2197" unicode="&#x2197;" horiz-adv-x="1148" 
d="M840 1061l-494 -14v112l684 12l-12 -686l-111 2l13 494l-723 -723l-78 82z" />
    <glyph glyph-name="uni2198" unicode="&#x2198;" horiz-adv-x="1148" 
d="M197 1174l723 -723l-13 493l111 2l12 -686l-684 12v113l494 -14l-721 721z" />
    <glyph glyph-name="uni2199" unicode="&#x2199;" horiz-adv-x="1148" 
d="M309 375l494 14v-113l-684 -12l12 686l111 -2l-13 -493l723 723l78 -82z" />
    <glyph glyph-name="uni21B3" unicode="&#x21b3;" horiz-adv-x="1480" 
d="M1362 709l-496 -480l-80 82l365 344h-930v779h115v-670h813l-363 342l80 82z" />
    <glyph glyph-name="partialdiff" unicode="&#x2202;" horiz-adv-x="1191" 
d="M1096 831q0 -862 -527 -862q-217 0 -341 135.5t-124 370.5q0 254 122 401.5t333 147.5q203 0 404 -104q-11 288 -90 427.5t-232 139.5q-110 0 -213 -109l-86 88q132 144 299 144q223 0 339 -198.5t116 -580.5zM965 793q-205 114 -396 114q-160 0 -246.5 -113.5
t-86.5 -320.5q0 -180 88 -280.5t247 -100.5q382 0 394 701z" />
    <glyph glyph-name="emptyset" unicode="&#x2205;" horiz-adv-x="1736" 
d="M1618 717q3 -153 -56 -293t-159.5 -240.5t-241 -159t-293.5 -55.5q-248 0 -450 144l-180 -213l-80 65l182 213q-106 106 -163.5 244.5t-57.5 294.5q-3 153 55.5 293t159.5 240t241 158.5t293 55.5q249 0 447 -139l184 217l80 -69l-184 -216q107 -104 165 -243t58 -297z
M414 266l827 971q-165 115 -373 115q-174 3 -319.5 -80.5t-228.5 -231t-80 -323.5q0 -132 45.5 -247.5t128.5 -203.5zM1497 717q0 273 -176 452l-829 -970q167 -117 376 -117q130 -2 248 47t202 133.5t132.5 203.5t46.5 251z" />
    <glyph glyph-name="product" unicode="&#x220f;" horiz-adv-x="1550" 
d="M328 1315h-256v119h1407v-119h-256v-1604h-131v1604h-633v-1604h-131v1604z" />
    <glyph glyph-name="summation" unicode="&#x2211;" horiz-adv-x="1251" 
d="M160 -94l549 708l-549 709v111h983v-119h-817l551 -701l-551 -700h817v-119h-983v111z" />
    <glyph glyph-name="minus" unicode="&#x2212;" horiz-adv-x="1105" 
d="M139 807h828v-107h-828v107z" />
    <glyph glyph-name="radical" unicode="&#x221a;" horiz-adv-x="1347" 
d="M1321 1434l-582 -1434h-131l-291 717h-260v121h351l262 -668h4l500 1264h147z" />
    <glyph glyph-name="infinity" unicode="&#x221e;" horiz-adv-x="1505" 
d="M139 621q0 169 91 277t233 108q94 0 170.5 -59.5t120.5 -168.5q43 108 119.5 168t170.5 60q141 0 231.5 -108t90.5 -277q0 -167 -91 -276t-231 -109q-94 0 -170.5 60.5t-119.5 168.5q-44 -109 -120.5 -169t-170.5 -60q-142 0 -233 108.5t-91 276.5zM713 621
q-37 139 -100 210.5t-148 71.5q-99 0 -160 -77.5t-61 -204.5q0 -125 61.5 -204t159.5 -79q84 0 147.5 73t100.5 210zM1262 621q0 127 -61.5 204.5t-160.5 77.5q-85 0 -147.5 -71.5t-99.5 -210.5q37 -137 100 -210t147 -73q98 0 160 79t62 204z" />
    <glyph glyph-name="integral" unicode="&#x222b;" horiz-adv-x="991" 
d="M139 -373q170 0 230.5 62t60.5 237v1190q0 226 94.5 318t327.5 92v-121q-170 0 -230.5 -62t-60.5 -235v-1190q0 -227 -93.5 -318.5t-328.5 -91.5v119z" />
    <glyph glyph-name="approxequal" unicode="&#x2248;" horiz-adv-x="1243" 
d="M139 786q23 121 91.5 187.5t168.5 66.5q63 0 119 -23t135 -75q71 -44 108.5 -61t76.5 -17q63 0 100.5 41.5t62.5 136.5l103 -32q-23 -118 -92.5 -185t-169.5 -67q-63 0 -119 23t-135 75q-58 33 -78 44t-50 21.5t-57 10.5q-63 0 -101.5 -41t-61.5 -133zM139 451
q23 121 91.5 187.5t168.5 66.5q63 0 118.5 -23.5t135.5 -75.5q71 -44 108.5 -61t76.5 -17q62 0 100 42t63 137l103 -33q-23 -118 -92.5 -185t-169.5 -67q-63 0 -119 23t-135 75q-58 33 -78 44t-50 21.5t-57 10.5q-63 0 -101.5 -41t-61.5 -133z" />
    <glyph glyph-name="notequal" unicode="&#x2260;" horiz-adv-x="1140" 
d="M694 860l-149 -268h459v-109h-521l-125 -225l-71 41l102 184h-250v109h312l147 268h-459v111h520l125 223l74 -41l-102 -182h248v-111h-310z" />
    <glyph glyph-name="lessequal" unicode="&#x2264;" horiz-adv-x="1148" 
d="M139 745v107l793 477l59 -92l-731 -438l729 -439l-57 -92zM139 0v111h871v-111h-871z" />
    <glyph glyph-name="greaterequal" unicode="&#x2265;" horiz-adv-x="1148" 
d="M160 360l729 439l-731 438l59 92l793 -477v-107l-793 -477zM139 111h871v-111h-871v111z" />
    <glyph glyph-name="lozenge" unicode="&#x25ca;" horiz-adv-x="1325" 
d="M139 717l443 717h161l443 -717l-443 -717h-161zM1059 717l-397 635l-396 -635l396 -635z" />
    <glyph glyph-name="uniF8FF" unicode="&#xf8ff;" horiz-adv-x="1404" 
d="M102 866q-3 115 46.5 226.5t132 193.5t193.5 131t226 47q116 2 228.5 -47t195.5 -131t132.5 -193.5t46.5 -226.5v-866h-58l-133 133l-139 -133l-129 133l-146 -133l-141 133l-129 -133l-137 133l-135 -133h-54v866zM588 772q0 62 -42.5 105t-103.5 43q-60 0 -102.5 -43.5
t-42.5 -104.5q0 -60 42.5 -101.5t102.5 -41.5t103 41.5t43 101.5zM1110 772q0 62 -43 105t-104 43q-60 0 -102 -43t-42 -105q0 -57 43.5 -100t100.5 -43q60 0 103.5 43t43.5 100z" />
    <glyph glyph-name="uniFEFF" unicode="&#xfeff;" horiz-adv-x="0" 
 />
    <glyph glyph-name="NULL" horiz-adv-x="0" 
 />
    <glyph glyph-name="_123" horiz-adv-x="1372" 
d="M621 1315h-549v119h1228v-119h-548v-1315h-131v1315z" />
    <glyph glyph-name="_125" horiz-adv-x="1372" 
d="M621 1315h-549v119h1228v-119h-548v-1315h-131v1315zM293 770h811v-106h-811v106z" />
    <glyph glyph-name="_127" horiz-adv-x="1372" 
d="M621 1315h-549v119h1228v-119h-548v-1315h-131v1315zM930 1704l-162 -168h-162l-162 168l70 65l174 -182l172 182z" />
    <glyph glyph-name="_129" horiz-adv-x="1372" 
d="M621 1315h-549v119h1228v-119h-548v-1315h-131v1315zM950 -254q0 -79 -60.5 -129.5t-154.5 -50.5q-123 0 -217 82l57 69q70 -67 160 -67q54 0 88.5 27t34.5 71q0 43 -32.5 67.5t-86.5 24.5q-76 0 -137 -55l-72 33l140 229l69 -31l-75 -120q38 18 90 18q87 0 141.5 -47
t54.5 -121z" />
    <glyph glyph-name="_131" horiz-adv-x="1372" 
d="M621 1315h-549v119h1228v-119h-548v-1315h-131v1315zM602 -358q72 12 72 90h-78v168h182v-148q0 -82 -45 -127t-131 -51v68z" />
    <glyph glyph-name="_133" horiz-adv-x="1372" 
d="M621 1315h-549v119h1228v-119h-548v-1315h-131v1315zM602 -100h170v-166h-170v166z" />
    <glyph glyph-name="i.locl" horiz-adv-x="413" 
d="M145 1085h123v-1085h-123v1085zM125 1436h164v-156h-164v156z" />
    <glyph glyph-name="A.ordn" horiz-adv-x="614" 
d="M35 1014q0 78 57 119.5t197 64.5q88 14 121.5 30.5t33.5 47.5q0 42 -35.5 65t-101.5 23q-72 0 -119.5 -34.5t-54.5 -94.5l-96 18q17 91 89 143t181 52q110 0 176 -51.5t66 -139.5v-389h-94v74h-2q-26 -41 -82 -64.5t-125 -23.5q-97 0 -154 43.5t-57 116.5zM451 1065v117
h-2q-21 -36 -142 -56q-100 -19 -138 -42t-38 -66q0 -80 129 -80q78 0 134.5 38t56.5 89z" />
    <glyph glyph-name="B.ccmp" horiz-adv-x="710" 
d="M676 1151q0 -130 -84.5 -213.5t-214.5 -83.5q-66 0 -122.5 24.5t-88.5 63.5h-2v-74h-98v779h102v-281h2q33 37 89 59.5t118 22.5q130 0 214.5 -83.5t84.5 -213.5zM573 1151q0 94 -58 150.5t-155 56.5q-80 0 -135 -44.5t-55 -103.5v-118q0 -59 55 -103.5t135 -44.5
q97 0 155 56.5t58 150.5z" />
    <glyph glyph-name="C.ccmp" horiz-adv-x="663" 
d="M35 1151q0 133 85.5 215t221.5 82q106 0 185 -55t102 -146l-94 -26q-20 66 -70.5 101.5t-122.5 35.5q-93 0 -149 -55.5t-56 -151.5t56 -151.5t149 -55.5q72 0 122.5 35.5t70.5 101.5l94 -26q-23 -91 -102 -146t-185 -55q-136 0 -221.5 82t-85.5 215z" />
    <glyph glyph-name="D.ccmp" horiz-adv-x="710" 
d="M541 1366h2v281h102v-779h-98v74h-2q-32 -39 -88.5 -63.5t-122.5 -24.5q-130 0 -214.5 83.5t-84.5 213.5t84.5 213.5t214.5 83.5q62 0 118 -22.5t89 -59.5zM541 1092v118q0 58 -55.5 103t-135.5 45q-97 0 -155 -56.5t-58 -150.5t58 -150.5t155 -56.5q80 0 135.5 45
t55.5 103z" />
    <glyph glyph-name="E.ccmp" horiz-adv-x="675" 
d="M641 1110h-502q8 -80 61.5 -123t145.5 -43q121 0 195 111l73 -64q-100 -137 -268 -137q-141 0 -226 80t-85 213t84.5 217t218.5 84q136 0 219.5 -84.5t83.5 -220.5v-33zM535 1194q-5 74 -58 119t-139 45q-84 0 -136 -44t-63 -120h396z" />
    <glyph glyph-name="F.ccmp" horiz-adv-x="444" 
d="M127 1343h-113v91h113v59q0 64 40.5 101.5t113.5 37.5h120v-88h-110q-62 0 -62 -57v-53h201v-91h-201v-475h-102v475z" />
    <glyph glyph-name="G.ccmp" horiz-adv-x="714" 
d="M78 760l74 57q38 -66 84.5 -93.5t119.5 -27.5q92 0 143.5 45.5t51.5 130.5v60h-2q-31 -37 -87 -57.5t-124 -20.5q-134 0 -218.5 82t-84.5 215q0 128 86 211q89 86 221 86q62 0 118 -22.5t89 -59.5h2v68h98v-555q0 -124 -80 -198.5t-211 -74.5q-189 0 -280 154zM547 1083
v134q0 58 -56.5 99.5t-140.5 41.5q-94 0 -153.5 -57.5t-59.5 -149.5q0 -96 58 -151.5t155 -55.5q86 0 141.5 39.5t55.5 99.5z" />
    <glyph glyph-name="H.ccmp" horiz-adv-x="712" 
d="M66 1647h102v-295h2q72 96 215 96q120 0 197 -69.5t77 -174.5v-336h-104v316q0 79 -51.5 127.5t-136.5 48.5q-86 0 -142.5 -50t-56.5 -128v-314h-102v779z" />
    <glyph glyph-name="I.ordn" horiz-adv-x="249" 
d="M66 1640h118v-110h-118v110zM74 1434h102v-566h-102v566z" />
    <glyph glyph-name="J.ordn" horiz-adv-x="253" 
d="M70 1640h118v-110h-118v110zM-74 774h82q70 0 70 68v592h102v-592q0 -85 -38.5 -123.5t-123.5 -38.5h-92v94z" />
    <glyph glyph-name="K.ccmp" horiz-adv-x="628" 
d="M66 1647h102v-476h2l299 263h143l-260 -226l273 -340h-125l-217 277h-2l-113 -96v-181h-102v779z" />
    <glyph glyph-name="L.ccmp" horiz-adv-x="233" 
d="M66 1647h102v-779h-102v779z" />
    <glyph glyph-name="M.ccmp" horiz-adv-x="1052" 
d="M66 1434h94v-72h2q27 39 76 62.5t108 23.5q65 0 119.5 -29.5t79.5 -77.5h2q31 49 85.5 78t117.5 29q108 0 177.5 -65.5t69.5 -165.5v-349h-96v332q0 72 -44 115t-116 43q-73 0 -118 -42t-45 -110v-338h-93v338q0 69 -43.5 110.5t-115.5 41.5q-74 0 -119 -42.5t-45 -115.5
v-332h-96v566z" />
    <glyph glyph-name="N.ccmp" horiz-adv-x="710" 
d="M66 1434h98v-86h2q32 48 88.5 74t128.5 26q120 0 196 -69.5t76 -174.5v-336h-102v314q0 80 -51 128t-137 48t-141.5 -50t-55.5 -128v-312h-102v566z" />
    <glyph glyph-name="O.ordn" horiz-adv-x="694" 
d="M35 1151q0 131 88 213q90 84 225 84t223 -84t88 -213t-88 -213t-223 -84t-225 84q-88 82 -88 213zM557 1151q0 92 -57.5 149.5t-151.5 57.5t-152.5 -57.5t-58.5 -149.5t58.5 -149.5t152.5 -57.5t151.5 57.5t57.5 149.5z" />
    <glyph glyph-name="P.ccmp" horiz-adv-x="706" 
d="M672 1151q0 -130 -83 -213.5t-212 -83.5q-65 0 -120.5 22.5t-86.5 61.5h-2v-317h-102v813h98v-74h2q32 39 88.5 63.5t122.5 24.5q129 0 212 -83.5t83 -213.5zM569 1151q0 94 -57.5 150.5t-151.5 56.5q-80 0 -135 -44.5t-55 -103.5v-118q0 -59 55 -103.5t135 -44.5
q94 0 151.5 56.5t57.5 150.5z" />
    <glyph glyph-name="Q.ccmp" horiz-adv-x="706" 
d="M541 1360h2v74h98v-813h-102v317h-2q-31 -39 -86.5 -61.5t-120.5 -22.5q-129 0 -212 83.5t-83 213.5t83 213.5t212 83.5q66 0 122.5 -24.5t88.5 -63.5zM537 1092v118q0 58 -55.5 103t-135.5 45q-94 0 -151.5 -56.5t-57.5 -150.5t57.5 -150.5t151.5 -56.5q80 0 135.5 45
t55.5 103z" />
    <glyph glyph-name="R.ccmp" horiz-adv-x="409" 
d="M408 1430l-23 -95q-50 13 -74 13q-68 0 -105.5 -45.5t-37.5 -131.5v-303h-102v566h98v-58h2q51 68 147 68q46 0 95 -14z" />
    <glyph glyph-name="S.ccmp" horiz-adv-x="663" 
d="M55 1057l95 24q13 -66 67.5 -103.5t136.5 -37.5q156 0 156 88q-2 37 -41.5 58t-138.5 34q-136 23 -192 59t-56 103q0 72 65.5 119t167.5 47q104 0 179 -49t94 -129l-94 -25q-12 55 -59.5 86t-119.5 31q-61 0 -98 -21.5t-37 -56.5q0 -29 35 -46t129 -34
q143 -23 203.5 -62.5t60.5 -111.5q1 -82 -67 -129t-187 -47q-123 0 -204 55.5t-95 147.5z" />
    <glyph glyph-name="T.ccmp" horiz-adv-x="436" 
d="M221 1343v-327q0 -29 14 -40t50 -11h104v-97h-117q-81 0 -117 33t-36 105v337h-105v91h105v129h102v-129h201v-91h-201z" />
    <glyph glyph-name="U.ccmp" horiz-adv-x="692" 
d="M629 1434v-566h-99v82h-2q-33 -45 -90 -70.5t-125 -25.5q-122 0 -190 65.5t-68 186.5v328h103v-322q0 -87 42.5 -127.5t133.5 -40.5q82 0 136 50.5t54 125.5v314h105z" />
    <glyph glyph-name="V.ccmp" horiz-adv-x="686" 
d="M25 1434h110l207 -441h2l207 441h111l-277 -566h-84z" />
    <glyph glyph-name="W.ccmp" horiz-adv-x="962" 
d="M25 1434h106l127 -430h2l174 430h98l175 -430h2l125 430h104l-166 -566h-102l-187 451h-2l-188 -451h-100z" />
    <glyph glyph-name="X.ccmp" horiz-adv-x="686" 
d="M279 1159l-240 275h129l174 -207h2l174 207h129l-241 -275l256 -291h-132l-186 224h-2l-188 -224h-129z" />
    <glyph glyph-name="Y.ccmp" horiz-adv-x="675" 
d="M651 1434l-403 -813h-117l152 301l-258 512h118l195 -408h2l197 408h114z" />
    <glyph glyph-name="Z.ccmp" horiz-adv-x="638" 
d="M25 950l430 391v2h-418v91h569v-82l-430 -391v-3h438v-90h-589v82z" />
    <glyph glyph-name="a.salt" horiz-adv-x="1318" 
d="M1174 1085v-1085h-121v139h-4q-61 -79 -166.5 -124.5t-233.5 -45.5q-241 0 -393 160t-152 414t152 413.5t393 159.5q128 0 233.5 -45.5t166.5 -124.5h4v139h121zM1051 379v328q0 120 -114.5 209.5t-270.5 89.5q-203 0 -321 -124.5t-118 -338.5t118 -338.5t321 -124.5
q156 0 270.5 89.5t114.5 209.5z" />
    <glyph glyph-name="aacute.salt" horiz-adv-x="1318" 
d="M1174 1085v-1085h-121v139h-4q-61 -79 -166.5 -124.5t-233.5 -45.5q-241 0 -393 160t-152 414t152 413.5t393 159.5q128 0 233.5 -45.5t166.5 -124.5h4v139h121zM1051 379v328q0 120 -114.5 209.5t-270.5 89.5q-203 0 -321 -124.5t-118 -338.5t118 -338.5t321 -124.5
q156 0 270.5 89.5t114.5 209.5zM752 1464h178l-230 -225h-112z" />
    <glyph glyph-name="abreve.salt" horiz-adv-x="1318" 
d="M1174 1085v-1085h-121v139h-4q-61 -79 -166.5 -124.5t-233.5 -45.5q-241 0 -393 160t-152 414t152 413.5t393 159.5q128 0 233.5 -45.5t166.5 -124.5h4v139h121zM1051 379v328q0 120 -114.5 209.5t-270.5 89.5q-203 0 -321 -124.5t-118 -338.5t118 -338.5t321 -124.5
q156 0 270.5 89.5t114.5 209.5zM403 1446h78q28 -123 189 -123t186 123h80q-8 -106 -78.5 -166.5t-187.5 -60.5q-116 0 -188 61t-79 166z" />
    <glyph glyph-name="uni01CE.salt" horiz-adv-x="1318" 
d="M1174 1085v-1085h-121v139h-4q-61 -79 -166.5 -124.5t-233.5 -45.5q-241 0 -393 160t-152 414t152 413.5t393 159.5q128 0 233.5 -45.5t166.5 -124.5h4v139h121zM1051 379v328q0 120 -114.5 209.5t-270.5 89.5q-203 0 -321 -124.5t-118 -338.5t118 -338.5t321 -124.5
q156 0 270.5 89.5t114.5 209.5zM913 1386l-161 -167h-162l-162 167l70 66l174 -182l172 182z" />
    <glyph glyph-name="acircumflex.salt" horiz-adv-x="1318" 
d="M1174 1085v-1085h-121v139h-4q-61 -79 -166.5 -124.5t-233.5 -45.5q-241 0 -393 160t-152 414t152 413.5t393 159.5q128 0 233.5 -45.5t166.5 -124.5h4v139h121zM1051 379v328q0 120 -114.5 209.5t-270.5 89.5q-203 0 -321 -124.5t-118 -338.5t118 -338.5t321 -124.5
q156 0 270.5 89.5t114.5 209.5zM844 1198l-172 184l-174 -184l-70 66l162 168h162l161 -168z" />
    <glyph glyph-name="uni1EAD.salt" horiz-adv-x="1318" 
d="M1174 1085v-1085h-121v139h-4q-61 -79 -166.5 -124.5t-233.5 -45.5q-241 0 -393 160t-152 414t152 413.5t393 159.5q128 0 233.5 -45.5t166.5 -124.5h4v139h121zM1051 379v328q0 120 -114.5 209.5t-270.5 89.5q-203 0 -321 -124.5t-118 -338.5t118 -338.5t321 -124.5
q156 0 270.5 89.5t114.5 209.5zM844 1198l-172 184l-174 -184l-70 66l162 168h162l161 -168zM586 -131h170v-166h-170v166z" />
    <glyph glyph-name="adieresis.salt" horiz-adv-x="1318" 
d="M1174 1085v-1085h-121v139h-4q-61 -79 -166.5 -124.5t-233.5 -45.5q-241 0 -393 160t-152 414t152 413.5t393 159.5q128 0 233.5 -45.5t166.5 -124.5h4v139h121zM1051 379v328q0 120 -114.5 209.5t-270.5 89.5q-203 0 -321 -124.5t-118 -338.5t118 -338.5t321 -124.5
q156 0 270.5 89.5t114.5 209.5zM399 1386h172v-167h-172v167zM770 1386h172v-167h-172v167z" />
    <glyph glyph-name="uni01DF.salt" horiz-adv-x="1318" 
d="M1174 1085v-1085h-121v139h-4q-61 -79 -166.5 -124.5t-233.5 -45.5q-241 0 -393 160t-152 414t152 413.5t393 159.5q128 0 233.5 -45.5t166.5 -124.5h4v139h121zM1051 379v328q0 120 -114.5 209.5t-270.5 89.5q-203 0 -321 -124.5t-118 -338.5t118 -338.5t321 -124.5
q156 0 270.5 89.5t114.5 209.5zM399 1386h172v-167h-172v167zM770 1386h172v-167h-172v167zM377 1565h586v-97h-586v97z" />
    <glyph glyph-name="uni1EA1.salt" horiz-adv-x="1318" 
d="M1174 1085v-1085h-121v139h-4q-61 -79 -166.5 -124.5t-233.5 -45.5q-241 0 -393 160t-152 414t152 413.5t393 159.5q128 0 233.5 -45.5t166.5 -124.5h4v139h121zM1051 379v328q0 120 -114.5 209.5t-270.5 89.5q-203 0 -321 -124.5t-118 -338.5t118 -338.5t321 -124.5
q156 0 270.5 89.5t114.5 209.5zM586 -131h170v-166h-170v166z" />
    <glyph glyph-name="agrave.salt" horiz-adv-x="1318" 
d="M1174 1085v-1085h-121v139h-4q-61 -79 -166.5 -124.5t-233.5 -45.5q-241 0 -393 160t-152 414t152 413.5t393 159.5q128 0 233.5 -45.5t166.5 -124.5h4v139h121zM1051 379v328q0 120 -114.5 209.5t-270.5 89.5q-203 0 -321 -124.5t-118 -338.5t118 -338.5t321 -124.5
q156 0 270.5 89.5t114.5 209.5zM410 1464h178l164 -225h-115z" />
    <glyph glyph-name="amacron.salt" horiz-adv-x="1318" 
d="M1174 1085v-1085h-121v139h-4q-61 -79 -166.5 -124.5t-233.5 -45.5q-241 0 -393 160t-152 414t152 413.5t393 159.5q128 0 233.5 -45.5t166.5 -124.5h4v139h121zM1051 379v328q0 120 -114.5 209.5t-270.5 89.5q-203 0 -321 -124.5t-118 -338.5t118 -338.5t321 -124.5
q156 0 270.5 89.5t114.5 209.5zM377 1335h586v-96h-586v96z" />
    <glyph glyph-name="aogonek.salt" horiz-adv-x="1318" 
d="M1174 1085v-1085h-121v139h-4q-61 -79 -166.5 -124.5t-233.5 -45.5q-241 0 -393 160t-152 414t152 413.5t393 159.5q128 0 233.5 -45.5t166.5 -124.5h4v139h121zM1051 379v328q0 120 -114.5 209.5t-270.5 89.5q-203 0 -321 -124.5t-118 -338.5t118 -338.5t321 -124.5
q156 0 270.5 89.5t114.5 209.5zM891 -236q0 67 55 136t152 125l63 -25q-168 -94 -168 -211q0 -76 80 -76q53 0 121 41l41 -94q-83 -47 -176 -47q-80 0 -124 39t-44 112z" />
    <glyph glyph-name="aring.salt" horiz-adv-x="1327" 
d="M432 1386q0 88 60.5 145.5t152.5 57.5q94 0 154.5 -57.5t60.5 -145.5q0 -86 -60.5 -143t-154.5 -57q-92 0 -152.5 57t-60.5 143zM776 1386q0 60 -37 97t-94 37t-94 -38.5t-37 -95.5t37 -94t94 -37t94 37t37 94zM1174 1085v-1085h-121v139h-4q-61 -79 -166.5 -124.5
t-233.5 -45.5q-241 0 -393 160t-152 414t152 413.5t393 159.5q128 0 233.5 -45.5t166.5 -124.5h4v139h121zM1051 379v328q0 120 -114.5 209.5t-270.5 89.5q-203 0 -321 -124.5t-118 -338.5t118 -338.5t321 -124.5q156 0 270.5 89.5t114.5 209.5z" />
    <glyph glyph-name="aringacute.salt" horiz-adv-x="1318" 
d="M432 1386q0 75 45 129t117 68l145 201h179l-207 -203q67 -19 108 -72.5t41 -122.5q0 -86 -60.5 -143t-154.5 -57q-92 0 -152.5 57t-60.5 143zM514 1386q0 -57 37 -94t94 -37t94 37t37 94q0 60 -37 97t-94 37t-94 -38.5t-37 -95.5zM1174 1085v-1085h-121v139h-4
q-61 -79 -166.5 -124.5t-233.5 -45.5q-241 0 -393 160t-152 414t152 413.5t393 159.5q128 0 233.5 -45.5t166.5 -124.5h4v139h121zM1051 707q0 120 -114.5 209.5t-270.5 89.5q-203 0 -321 -124.5t-118 -338.5t118 -338.5t321 -124.5q156 0 270.5 89.5t114.5 209.5v328z" />
    <glyph glyph-name="atilde.salt" horiz-adv-x="1318" 
d="M1174 1085v-1085h-121v139h-4q-61 -79 -166.5 -124.5t-233.5 -45.5q-241 0 -393 160t-152 414t152 413.5t393 159.5q128 0 233.5 -45.5t166.5 -124.5h4v139h121zM1051 379v328q0 120 -114.5 209.5t-270.5 89.5q-203 0 -321 -124.5t-118 -338.5t118 -338.5t321 -124.5
q156 0 270.5 89.5t114.5 209.5zM649 1276q-87 37 -127 37q-80 0 -92 -74h-76q6 78 51.5 123t120.5 45q40 0 75.5 -10.5t92.5 -36.5q86 -39 129 -39q76 0 92 76h72q-5 -78 -50 -123t-120 -45q-65 0 -168 47z" />
    <glyph glyph-name="aring.ss02" horiz-adv-x="1179" 
d="M104 283q0 143 109 220t371 120q185 29 257 68.5t72 111.5q0 92 -83 147.5t-220 55.5q-155 0 -253 -75t-121 -210l-121 27q27 167 161 268q132 100 334 100q197 0 315.5 -92t118.5 -244v-780h-120v158h-2q-54 -87 -167.5 -138t-252.5 -51q-186 0 -292 83t-106 231z
M922 371v274h-4q-26 -44 -96.5 -72t-213.5 -51q-206 -35 -292.5 -90t-86.5 -149q0 -203 295 -203q164 0 281 85.5t117 205.5zM379 1260q0 94 65.5 156.5t165.5 62.5q102 0 168 -62.5t66 -156.5t-66 -157t-168 -63q-99 0 -165 63t-66 157zM754 1260q0 63 -40.5 103t-103.5 40
q-62 0 -102.5 -40t-40.5 -103t40.5 -103.5t102.5 -40.5q63 0 103.5 40.5t40.5 103.5z" />
    <glyph glyph-name="aringacute.ss02" horiz-adv-x="1179" 
d="M104 283q0 143 109 220t371 120q185 29 257 68.5t72 111.5q0 92 -83 147.5t-220 55.5q-155 0 -253 -75t-121 -210l-121 27q27 167 161 268q132 100 334 100q197 0 315.5 -92t118.5 -244v-780h-120v158h-2q-54 -87 -167.5 -138t-252.5 -51q-186 0 -292 83t-106 231z
M922 371v274h-4q-26 -44 -96.5 -72t-213.5 -51q-206 -35 -292.5 -90t-86.5 -149q0 -203 295 -203q164 0 281 85.5t117 205.5zM379 1260q0 94 65.5 156.5t165.5 62.5q102 0 168 -62.5t66 -156.5t-66 -157t-168 -63q-99 0 -165 63t-66 157zM754 1260q0 63 -40.5 103t-103.5 40
q-62 0 -102.5 -40t-40.5 -103t40.5 -103.5t102.5 -40.5q63 0 103.5 40.5t40.5 103.5zM690 1683h178l-229 -225h-113z" />
    <glyph glyph-name="f.ss03" horiz-adv-x="679" 
d="M238 979h-193v106h193v119q0 105 60.5 163t176.5 58h213v-110h-205q-63 0 -92 -29.5t-29 -91.5v-109h287v-106h-287v-979h-124v979z" />
    <glyph glyph-name="j.ss03" horiz-adv-x="413" 
d="M125 1436h164v-156h-164v156zM145 1085h123v-1546h-123v1546z" />
    <glyph glyph-name="t.ss03" horiz-adv-x="716" 
d="M358 981v-766q0 -57 27 -80.5t90 -23.5h150v-111h-150q-127 0 -184.5 51t-57.5 164v766h-188v104h188v236h125v-236h301v-104h-301z" />
    <glyph glyph-name="zero.ccmp" horiz-adv-x="1468" 
d="M96 717q0 221 80 391t225 263t334 93q284 0 460.5 -206.5t176.5 -540.5t-176.5 -541t-460.5 -207q-188 0 -333.5 93.5t-225.5 263.5t-80 391zM1239 717q0 286 -138 457.5t-366 171.5q-232 0 -369 -171t-137 -458t137 -458t369 -171q228 0 366 171.5t138 457.5z" />
    <glyph glyph-name="one.ccmp" horiz-adv-x="856" 
d="M508 1286l-436 -264v139l452 273h115v-1434h-131v1286z" />
    <glyph glyph-name="two.ccmp" horiz-adv-x="1376" 
d="M268 119h963v-119h-1102v113q0 204 86 325q59 80 160 135q107 62 323 132q167 54 254.5 102t124.5 105t37 143q0 127 -105 209t-274 82q-204 0 -327 -107.5t-142 -302.5l-131 14q21 234 180 375q160 139 420 139q224 0 368 -116.5t144 -292.5q0 -169 -105.5 -268.5
t-379.5 -188.5q-215 -70 -297 -115q-97 -51 -139 -110q-32 -44 -45 -99q-13 -54 -13 -155z" />
    <glyph glyph-name="three.ccmp" horiz-adv-x="1337" 
d="M109 465l131 18q14 -192 126.5 -293.5t313.5 -101.5q186 0 291.5 86t105.5 238q0 150 -92.5 226.5t-275.5 76.5h-185v114h185q154 0 239.5 67.5t85.5 188.5q0 117 -98 189t-258 72q-173 0 -281.5 -84.5t-134.5 -239.5l-129 22q26 189 174 306q147 114 371 114
q215 0 350 -105t135 -272q0 -212 -211 -303v-4q126 -45 192 -139.5t66 -234.5q0 -197 -145.5 -317t-384.5 -120q-252 0 -402 130.5t-169 365.5z" />
    <glyph glyph-name="four.ccmp" horiz-adv-x="1345" 
d="M913 293h-888v110l811 1031h208v-1026h224v-115h-224v-293h-131v293zM913 408v929h-4l-737 -929h741z" />
    <glyph glyph-name="five.ccmp" horiz-adv-x="1363" 
d="M90 406l127 34q84 -352 477 -352q206 0 332 105q125 104 125 282q0 175 -127 284t-330 109q-266 0 -454 -194l-115 31l149 729h883v-119h-780l-98 -475l4 -2q177 143 422 143q258 0 418.5 -140t160.5 -366q0 -228 -163 -367t-427 -139q-244 0 -403.5 116t-200.5 321z" />
    <glyph glyph-name="six.ccmp" horiz-adv-x="1386" 
d="M1311 463q0 -217 -160.5 -355.5t-409.5 -138.5q-306 0 -475.5 190t-169.5 533q-2 221 80.5 399t230 277t330.5 96q199 0 341.5 -102.5t189.5 -280.5l-125 -37q-43 147 -147 225.5t-257 78.5q-148 0 -264.5 -83t-182 -233t-65.5 -340v-33h2q60 135 201 213q143 82 326 82
q245 0 400 -137t155 -354zM1180 463q0 174 -118.5 278.5t-318.5 104.5q-192 0 -323 -113.5t-131 -275.5q0 -160 127.5 -265.5t324.5 -105.5q195 0 317 104t122 273z" />
    <glyph glyph-name="seven.ccmp" horiz-adv-x="1193" 
d="M961 1311v4h-922v119h1077v-113l-713 -1321h-151z" />
    <glyph glyph-name="eight.ccmp" horiz-adv-x="1327" 
d="M59 395q0 135 89.5 236.5t244.5 144.5v4q-112 39 -175.5 118.5t-63.5 186.5q0 169 143.5 274t366.5 105t366.5 -105t143.5 -274q0 -107 -64 -186.5t-176 -118.5v-4q155 -43 244.5 -144.5t89.5 -236.5q0 -191 -162 -308.5t-442 -117.5t-442.5 117.5t-162.5 308.5z
M1038 1083q0 117 -104 190t-270 73t-270.5 -73t-104.5 -190q0 -115 102.5 -184.5t272.5 -69.5t272 69t102 185zM1130 399q0 139 -128 226.5t-338 87.5q-212 0 -339.5 -87.5t-127.5 -226.5q0 -142 123.5 -224.5t343.5 -82.5t343 82.5t123 224.5z" />
    <glyph glyph-name="nine.ccmp" horiz-adv-x="1335" 
d="M1239 782q0 -398 -144.5 -605.5t-422.5 -207.5q-201 0 -336.5 100t-179.5 283l118 41q82 -307 398 -307q210 0 318.5 162t113.5 481h-2q-60 -112 -184 -173.5t-291 -61.5q-251 0 -401 132t-150 353q0 212 158.5 348.5t408.5 136.5q279 0 437.5 -177t158.5 -505zM1071 977
q0 159 -122 265t-306 106q-197 0 -317.5 -103.5t-120.5 -267.5q0 -171 116.5 -271t317.5 -100q194 0 313 102t119 269z" />
    <glyph glyph-name="zero.tnum" 
d="M98 717q0 221 80 391t225 263t334 93q139 2 258.5 -53t203.5 -153t131 -238t46 -303q2 -217 -79 -389t-228 -267t-332 -92q-188 0 -333.5 93.5t-225.5 263.5t-80 391zM1241 717q0 286 -138 457.5t-366 171.5q-230 0 -367 -171t-137 -458t137 -458t367 -171
q228 0 366 171.5t138 457.5z" />
    <glyph glyph-name="one.tnum" 
d="M1239 119v-119h-997v119h438v1167l-436 -264v139l452 273h115v-1315h428z" />
    <glyph glyph-name="two.tnum" 
d="M317 119h963v-119h-1102v113q0 204 86 325q59 80 160 135q106 61 324 132q167 54 254.5 102t124 105t36.5 143q0 127 -105 209t-274 82q-204 0 -327 -107.5t-142 -302.5l-131 14q21 233 181 375q160 139 419 139q224 0 368 -116.5t144 -292.5q0 -169 -105.5 -268.5
t-379.5 -188.5q-215 -70 -297 -115q-97 -51 -139 -110q-32 -44 -45 -99q-13 -54 -13 -155z" />
    <glyph glyph-name="three.tnum" 
d="M186 465l131 18q14 -192 127 -293.5t314 -101.5q186 0 291.5 86t105.5 238q0 150 -93 226.5t-276 76.5h-184v114h184q154 0 240 67.5t86 188.5q0 117 -98 189t-258 72q-173 0 -281.5 -84.5t-134.5 -239.5l-129 22q26 189 174 306q147 114 371 114q215 0 350 -105
t135 -272q0 -212 -211 -303v-4q126 -45 192 -139.5t66 -234.5q0 -197 -145.5 -317t-384.5 -120q-252 0 -402.5 130.5t-169.5 365.5z" />
    <glyph glyph-name="four.tnum" 
d="M1004 293h-889v110l811 1031h209v-1026h223v-115h-223v-293h-131v293zM1004 408v929h-5l-737 -929h742z" />
    <glyph glyph-name="five.tnum" 
d="M139 406l127 34q84 -352 477 -352q206 0 332 105q125 104 125 282q0 175 -127 284t-330 109q-266 0 -454 -194l-115 31l150 729h882v-119h-780l-98 -475l4 -2q177 143 422 143q258 0 418.5 -140t160.5 -366q0 -228 -163 -367t-427 -139q-244 0 -403.5 116t-200.5 321z
" />
    <glyph glyph-name="six.tnum" 
d="M1350 463q0 -217 -160.5 -355.5t-409.5 -138.5q-306 0 -475.5 190t-169.5 533q-2 221 80.5 399t230 277t330.5 96q199 0 341.5 -102.5t189.5 -280.5l-125 -37q-43 147 -147 225.5t-257 78.5q-148 0 -264.5 -83t-182 -233t-65.5 -340v-33h2q60 135 201 213q143 82 326 82
q245 0 400 -137t155 -354zM1219 463q0 174 -118.5 278.5t-318.5 104.5q-192 0 -323 -113.5t-131 -275.5q0 -160 127.5 -265.5t324.5 -105.5q195 0 317 104t122 273z" />
    <glyph glyph-name="seven.tnum" 
d="M1120 1311v4h-921v119h1077v-113l-713 -1321h-151z" />
    <glyph glyph-name="eight.tnum" 
d="M135 395q0 135 89.5 236.5t244.5 144.5v4q-112 39 -176 118.5t-64 186.5q0 169 143.5 274t366.5 105t366.5 -105t143.5 -274q0 -107 -63.5 -186.5t-175.5 -118.5v-4q155 -43 244 -144.5t89 -236.5q0 -191 -162 -308.5t-442 -117.5t-442 117.5t-162 308.5zM1114 1083
q0 117 -104.5 190t-270.5 73t-270 -73t-104 -190q0 -116 102 -185t272 -69t272.5 69.5t102.5 184.5zM1206 399q0 139 -128 226.5t-339 87.5q-212 0 -339.5 -87.5t-127.5 -226.5q0 -142 123.5 -224.5t343.5 -82.5t343.5 82.5t123.5 224.5z" />
    <glyph glyph-name="nine.tnum" 
d="M1323 782q0 -398 -144.5 -605.5t-422.5 -207.5q-201 0 -336.5 100t-179.5 283l118 41q82 -307 398 -307q210 0 318.5 162t113.5 481h-2q-60 -112 -184 -173.5t-291 -61.5q-251 0 -401 132t-150 353q0 212 158.5 348.5t408.5 136.5q279 0 437.5 -177t158.5 -505zM1155 977
q0 159 -122 265t-306 106q-197 0 -317.5 -103.5t-120.5 -267.5q0 -171 116.5 -271t317.5 -100q194 0 313 102t119 269z" />
    <glyph glyph-name="zero.zero" horiz-adv-x="1468" 
d="M1372 688q0 -321 -176.5 -519t-460.5 -198q-189 0 -334 89.5t-225 252.5t-80 375t80 375t225 252.5t334 89.5q284 0 460.5 -198t176.5 -519zM387 213l600 1022q-111 63 -252 63q-234 0 -376 -166.5t-142 -443.5q0 -151 44 -273t126 -202zM1251 688q0 158 -48.5 285
t-137.5 207l-600 -1028q121 -74 270 -74q234 0 375 166t141 444z" />
    <glyph glyph-name="zero.ordn" horiz-adv-x="1468" 
d="M1372 717q0 -334 -176.5 -541t-460.5 -207q-188 0 -333.5 93.5t-225.5 263.5t-80 391t80 391t225 263t334 93q284 0 460.5 -206.5t176.5 -540.5zM385 227l612 1051q-115 74 -262 74q-231 0 -371.5 -173t-140.5 -462q0 -314 162 -490zM1245 717q0 158 -44.5 286
t-127.5 214l-612 -1053q116 -82 274 -82q232 0 371 172.5t139 462.5z" />
    <glyph glyph-name="zero.tnum_zero" 
d="M1374 717q0 -334 -176.5 -541t-460.5 -207q-188 0 -333.5 93.5t-225.5 263.5t-80 391t80 391t225 263t334 93q284 0 460.5 -206.5t176.5 -540.5zM387 227l612 1051q-115 74 -262 74q-231 0 -371.5 -173t-140.5 -462q0 -314 162 -490zM1247 717q0 158 -44.5 286
t-127.5 214l-612 -1053q116 -82 274 -82q232 0 371 172.5t139 462.5z" />
    <glyph glyph-name="zero.subs" horiz-adv-x="935" 
d="M66 125q0 200 111.5 324t291.5 124t290.5 -124t110.5 -324t-110.5 -324.5t-290.5 -124.5t-291.5 124.5t-111.5 324.5zM760 125q0 161 -79 256.5t-212 95.5t-213 -96t-80 -256t80 -256t213 -96t212 95.5t79 256.5z" />
    <glyph glyph-name="one.subs" horiz-adv-x="595" 
d="M334 436l-279 -151v114l287 156h102v-860h-110v741z" />
    <glyph glyph-name="two.subs" horiz-adv-x="841" 
d="M182 -207h586v-98h-700v82q0 72 13.5 117.5t45.5 80.5q39 45 102.5 78t190.5 74q148 45 197 83t49 105q0 72 -61.5 117t-160.5 45q-117 0 -187.5 -60t-78.5 -163l-108 4q7 142 110.5 228.5t263.5 86.5q145 0 240 -71q94 -70 94 -185q0 -102 -64 -159t-239 -113
q-121 -38 -177 -65.5t-81 -59.5q-19 -23 -26.5 -49.5t-8.5 -77.5z" />
    <glyph glyph-name="three.subs" horiz-adv-x="827" 
d="M55 -25l109 15q6 -106 71.5 -161.5t184.5 -55.5q108 0 169.5 46t61.5 126q0 161 -223 161h-100v87h98q98 0 150.5 36.5t52.5 104.5q0 66 -56 104.5t-153 38.5q-204 0 -252 -182l-105 27q26 117 121 184t236 67t229 -65.5t88 -169.5q0 -60 -33.5 -106.5t-91.5 -73.5v-2
q69 -26 109.5 -84t40.5 -131q0 -121 -93 -193t-249 -72q-164 0 -261 79t-104 220z" />
    <glyph glyph-name="four.subs" horiz-adv-x="845" 
d="M565 -139h-545v98l478 596h178v-594h135v-100h-135v-166h-111v166zM565 -39v520h-2l-420 -520h422z" />
    <glyph glyph-name="five.subs" horiz-adv-x="880" 
d="M66 -68l104 35q47 -194 276 -194q118 0 188.5 58t70.5 155q0 96 -69.5 152.5t-186.5 56.5q-149 0 -263 -111l-102 31l90 440h559v-96h-475l-53 -252l2 -2q110 78 254 78q158 0 257 -83t99 -216q0 -136 -103 -222t-268 -86q-149 0 -251.5 69t-128.5 187z" />
    <glyph glyph-name="six.subs" horiz-adv-x="903" 
d="M838 -20q0 -133 -102 -218.5t-257 -85.5q-195 0 -304 115t-109 322q0 210 112 335t297 125q126 0 215.5 -60.5t118.5 -164.5l-102 -31q-25 75 -85.5 117.5t-146.5 42.5q-137 0 -216 -94t-79 -258h2q43 66 123.5 104.5t177.5 38.5q158 0 256 -82q99 -82 99 -206zM727 -20
q0 92 -67.5 146t-182.5 54q-110 0 -186 -60.5t-76 -148.5t73.5 -142t190.5 -54q109 0 178.5 56.5t69.5 148.5z" />
    <glyph glyph-name="seven.subs" horiz-adv-x="688" 
d="M549 457v2h-549v96h678v-90l-414 -770h-127z" />
    <glyph glyph-name="eight.subs" horiz-adv-x="890" 
d="M66 -66q0 78 52 139.5t144 90.5v2q-139 59 -139 178q0 100 91 164.5t232 64.5t230 -65q92 -65 92 -164q0 -119 -139 -178v-2q92 -29 144 -90.5t52 -139.5q0 -117 -103.5 -187.5t-275.5 -70.5q-173 0 -276.5 70.5t-103.5 187.5zM662 340q0 66 -59.5 105.5t-156.5 39.5
q-98 0 -157.5 -39.5t-59.5 -105.5q0 -61 61.5 -101t155.5 -40t155 40t61 101zM715 -59q0 78 -73.5 125t-195.5 47t-196 -47t-74 -125q0 -79 71 -123.5t199 -44.5q127 0 198 44t71 124z" />
    <glyph glyph-name="nine.subs" horiz-adv-x="872" 
d="M807 170q0 -240 -95 -367t-270 -127q-127 0 -213.5 61.5t-117.5 170.5l104 35q47 -170 227 -170q111 0 177 84.5t73 244.5h-2q-78 -110 -270 -110q-161 0 -257.5 77.5t-96.5 206.5q0 128 100 212.5t258 84.5q178 0 280.5 -108.5t102.5 -294.5zM670 279q0 86 -70 142
t-176 56q-110 0 -179 -56.5t-69 -144.5q0 -87 68.5 -140.5t179.5 -53.5q110 0 178 54.5t68 142.5z" />
    <glyph glyph-name="zero.dnom" horiz-adv-x="935" 
d="M66 430q0 200 111.5 324.5t291.5 124.5t290.5 -124.5t110.5 -324.5t-110.5 -324t-290.5 -124t-291.5 124t-111.5 324zM760 430q0 161 -79 256.5t-212 95.5t-213 -96t-80 -256t80 -256t213 -96t212 95.5t79 256.5z" />
    <glyph glyph-name="one.dnom" horiz-adv-x="595" 
d="M334 741l-279 -151v115l287 155h102v-860h-110v741z" />
    <glyph glyph-name="two.dnom" horiz-adv-x="841" 
d="M182 98h586v-98h-700v82q0 72 13.5 118t45.5 81q39 45 102 77.5t191 73.5q148 45 197 83.5t49 105.5q0 72 -61 116.5t-161 44.5q-117 0 -187.5 -60t-78.5 -163l-108 4q7 142 110.5 229t263.5 87q143 0 240 -72q94 -70 94 -184q0 -103 -64 -160t-239 -113
q-121 -38 -177 -65.5t-81 -59.5q-19 -23 -26.5 -49.5t-8.5 -77.5z" />
    <glyph glyph-name="three.dnom" horiz-adv-x="827" 
d="M55 281l109 14q6 -106 71.5 -161.5t184.5 -55.5q108 0 169.5 46t61.5 126q0 162 -223 162h-100v86h98q98 0 150.5 36.5t52.5 104.5q0 66 -56 104.5t-153 38.5q-204 0 -252 -182l-105 27q26 117 121 184.5t236 67.5t229 -66t88 -170q0 -60 -33.5 -106.5t-91.5 -73.5v-2
q69 -26 109.5 -84t40.5 -131q0 -121 -93 -192.5t-249 -71.5q-164 0 -261 79t-104 220z" />
    <glyph glyph-name="four.dnom" horiz-adv-x="845" 
d="M565 166h-545v98l478 596h178v-594h135v-100h-135v-166h-111v166zM565 266v520h-2l-420 -520h422z" />
    <glyph glyph-name="five.dnom" horiz-adv-x="880" 
d="M66 238l104 34q47 -194 276 -194q118 0 188.5 58t70.5 155q0 96 -69.5 152.5t-186.5 56.5q-149 0 -263 -111l-102 31l90 440h559v-96h-475l-53 -252l2 -2q110 78 254 78q158 0 257 -83t99 -216q0 -136 -103 -221.5t-268 -85.5q-149 0 -251.5 69t-128.5 187z" />
    <glyph glyph-name="six.dnom" horiz-adv-x="903" 
d="M838 285q0 -133 -102 -218t-257 -85q-195 0 -304 114.5t-109 321.5q0 210 112 335.5t297 125.5q126 0 215 -61t119 -165l-102 -30q-25 75 -85.5 117t-146.5 42q-137 0 -216 -94t-79 -258h2q43 66 123.5 104.5t177.5 38.5q159 0 256 -81q99 -82 99 -207zM727 285
q0 92 -67.5 146t-182.5 54q-110 0 -186 -60.5t-76 -148.5t73.5 -142t190.5 -54q109 0 178.5 56.5t69.5 148.5z" />
    <glyph glyph-name="seven.dnom" horiz-adv-x="688" 
d="M549 762v2h-549v96h678v-90l-414 -770h-127z" />
    <glyph glyph-name="eight.dnom" horiz-adv-x="890" 
d="M66 240q0 78 52 139t144 90v2q-139 59 -139 178q0 100 91 165t232 65q139 0 230 -66q92 -65 92 -164q0 -119 -139 -178v-2q92 -29 144 -90t52 -139q0 -117 -103.5 -187.5t-275.5 -70.5q-173 0 -276.5 70.5t-103.5 187.5zM662 645q0 66 -59.5 106t-156.5 40
q-98 0 -157.5 -40t-59.5 -106q0 -61 61.5 -101t155.5 -40t155 40t61 101zM715 246q0 78 -73.5 125t-195.5 47t-196 -47t-74 -125q0 -79 71 -123.5t199 -44.5q127 0 198 44t71 124z" />
    <glyph glyph-name="nine.dnom" horiz-adv-x="872" 
d="M807 475q0 -240 -95 -366.5t-270 -126.5q-127 0 -213.5 61t-117.5 170l104 35q47 -170 227 -170q111 0 177 85t73 245h-2q-79 -111 -270 -111q-161 0 -257.5 78t-96.5 207q0 128 100 212.5t258 84.5q178 0 280.5 -108.5t102.5 -295.5zM670 584q0 86 -70 142t-176 56
q-110 0 -179 -56t-69 -144q0 -87 68.5 -141t179.5 -54q110 0 178 54.5t68 142.5z" />
    <glyph glyph-name="zero.numr" horiz-adv-x="935" 
d="M66 1004q0 200 111.5 324t291.5 124t290.5 -124t110.5 -324t-110.5 -324.5t-290.5 -124.5t-291.5 124.5t-111.5 324.5zM760 1004q0 161 -79 256.5t-212 95.5t-213 -96t-80 -256t80 -256.5t213 -96.5t212 96t79 257z" />
    <glyph glyph-name="one.numr" horiz-adv-x="595" 
d="M334 1315l-279 -152v115l287 156h102v-861h-110v742z" />
    <glyph glyph-name="two.numr" horiz-adv-x="841" 
d="M182 672h586v-99h-700v82q0 72 13.5 118t45.5 81q39 45 102.5 78t190.5 74q148 45 197 83t49 105q0 72 -61.5 117t-160.5 45q-117 0 -187.5 -60t-78.5 -163l-108 4q7 142 110.5 228.5t263.5 86.5q143 0 240 -72q94 -70 94 -184q0 -102 -64 -159t-239 -113
q-121 -38 -177 -65.5t-81 -59.5q-19 -23 -26.5 -49.5t-8.5 -77.5z" />
    <glyph glyph-name="three.numr" horiz-adv-x="827" 
d="M55 854l109 14q6 -106 71.5 -161.5t184.5 -55.5q108 0 169.5 46t61.5 126q0 162 -223 162h-100v86h98q98 0 150.5 36.5t52.5 104.5q0 66 -56 105t-153 39q-204 0 -252 -182l-105 26q26 117 121 184.5t236 67.5t229 -65.5t88 -169.5q0 -60 -33.5 -107t-91.5 -74v-2
q69 -26 109.5 -84t40.5 -131q0 -121 -93 -192.5t-249 -71.5q-164 0 -261 79t-104 220z" />
    <glyph glyph-name="four.numr" horiz-adv-x="845" 
d="M565 739h-545v99l478 596h178v-594h135v-101h-135v-166h-111v166zM565 840v520h-2l-420 -520h422z" />
    <glyph glyph-name="five.numr" horiz-adv-x="880" 
d="M66 811l104 35q47 -195 276 -195q118 0 188.5 58t70.5 155q0 96 -69.5 152.5t-186.5 56.5q-150 0 -263 -110l-102 30l90 441h559v-97h-475l-53 -252l2 -2q110 78 254 78q158 0 257 -83t99 -216q0 -136 -103 -221.5t-268 -85.5q-149 0 -251.5 69t-128.5 187z" />
    <glyph glyph-name="six.numr" horiz-adv-x="903" 
d="M838 858q0 -133 -102 -218t-257 -85q-195 0 -304 114.5t-109 321.5q0 210 112 335.5t297 125.5q126 0 215.5 -60.5t118.5 -164.5l-102 -31q-25 75 -85.5 117.5t-146.5 42.5q-137 0 -216 -94t-79 -258h2q43 66 123.5 104.5t177.5 38.5q158 0 256 -82q99 -83 99 -207z
M727 858q0 92 -67.5 146.5t-182.5 54.5q-110 0 -186 -60.5t-76 -148.5t73.5 -142.5t190.5 -54.5q109 0 178.5 56.5t69.5 148.5z" />
    <glyph glyph-name="seven.numr" horiz-adv-x="688" 
d="M549 1335v2h-549v97h678v-91l-414 -770h-127z" />
    <glyph glyph-name="eight.numr" horiz-adv-x="890" 
d="M66 813q0 78 52 139t144 90v2q-139 59 -139 179q0 100 91 164.5t232 64.5q139 0 230 -66q92 -65 92 -163q0 -120 -139 -179v-2q92 -29 144 -90t52 -139q0 -117 -103.5 -187.5t-275.5 -70.5q-173 0 -276.5 70.5t-103.5 187.5zM662 1219q0 66 -59.5 105.5t-156.5 39.5
q-98 0 -157.5 -39.5t-59.5 -105.5q0 -61 61.5 -101.5t155.5 -40.5t155 40t61 102zM715 819q0 78 -73.5 125t-195.5 47t-196 -47t-74 -125q0 -79 71 -123.5t199 -44.5q127 0 198 44t71 124z" />
    <glyph glyph-name="nine.numr" horiz-adv-x="872" 
d="M807 1049q0 -240 -95 -367t-270 -127q-127 0 -213.5 61t-117.5 170l104 35q47 -170 227 -170q111 0 177 85t73 245h-2q-79 -111 -270 -111q-161 0 -257.5 78t-96.5 207q0 128 100 212.5t258 84.5q178 0 280.5 -108.5t102.5 -294.5zM670 1157q0 86 -70 142.5t-176 56.5
q-110 0 -179 -56.5t-69 -144.5q0 -87 68.5 -140.5t179.5 -53.5q110 0 178 54t68 142z" />
    <glyph glyph-name="zero.sups" horiz-adv-x="935" 
d="M66 1208q0 200 111.5 324.5t291.5 124.5t290.5 -124.5t110.5 -324.5t-110.5 -324t-290.5 -124t-291.5 124t-111.5 324zM760 1208q0 161 -79 257t-212 96t-213 -96.5t-80 -256.5t80 -256t213 -96t212 95.5t79 256.5z" />
    <glyph glyph-name="one.sups" horiz-adv-x="595" 
d="M334 1520l-279 -152v115l287 155h102v-860h-110v742z" />
    <glyph glyph-name="two.sups" horiz-adv-x="841" 
d="M182 877h586v-99h-700v82q0 72 13.5 118t45.5 81q39 45 102 77.5t191 73.5q148 45 197 83.5t49 105.5q0 72 -61.5 117t-160.5 45q-116 0 -187 -60.5t-79 -163.5l-108 4q7 142 110.5 229t263.5 87q143 0 240 -72q94 -70 94 -184q0 -103 -64 -160t-239 -113
q-122 -38 -177.5 -65t-80.5 -59q-19 -23 -26.5 -49.5t-8.5 -77.5z" />
    <glyph glyph-name="three.sups" horiz-adv-x="827" 
d="M55 1059l109 14q6 -106 71.5 -161.5t184.5 -55.5q108 0 169.5 46t61.5 126q0 162 -223 162h-100v86h98q98 0 150.5 36.5t52.5 104.5q0 66 -56 105t-153 39q-204 0 -252 -183l-105 27q26 117 121 184.5t236 67.5t229 -66t88 -170q0 -60 -33.5 -106.5t-91.5 -73.5v-2
q69 -26 109.5 -84t40.5 -131q0 -121 -93 -192.5t-249 -71.5q-164 0 -261 79t-104 220z" />
    <glyph glyph-name="four.sups" horiz-adv-x="845" 
d="M565 944h-545v98l478 596h178v-594h135v-100h-135v-166h-111v166zM565 1044v521h-2l-420 -521h422z" />
    <glyph glyph-name="five.sups" horiz-adv-x="880" 
d="M66 1016l104 35q47 -195 276 -195q118 0 188.5 58t70.5 155q0 96 -69.5 152.5t-186.5 56.5q-149 0 -263 -111l-102 31l90 440h559v-96h-475l-53 -252l2 -2q110 78 254 78q158 0 257 -83t99 -216q0 -136 -103 -221.5t-268 -85.5q-149 0 -251.5 69t-128.5 187z" />
    <glyph glyph-name="six.sups" horiz-adv-x="903" 
d="M838 1063q0 -133 -102 -218t-257 -85q-195 0 -304 114.5t-109 321.5q0 210 112 335.5t297 125.5q126 0 215.5 -60.5t118.5 -164.5l-102 -31q-25 75 -85.5 117.5t-146.5 42.5q-137 0 -216 -94.5t-79 -258.5h2q43 66 124 105t177 39q158 0 256 -82q99 -82 99 -207z
M727 1063q0 92 -67.5 146.5t-182.5 54.5q-110 0 -186 -60.5t-76 -148.5t73.5 -142.5t190.5 -54.5q109 0 178.5 56.5t69.5 148.5z" />
    <glyph glyph-name="seven.sups" horiz-adv-x="688" 
d="M549 1540v2h-549v96h678v-90l-414 -770h-127z" />
    <glyph glyph-name="eight.sups" horiz-adv-x="890" 
d="M66 1018q0 78 52 139t144 90v2q-139 59 -139 178q0 100 91 165t232 65q139 0 230 -66q92 -65 92 -164q0 -119 -139 -178v-2q92 -29 144 -90t52 -139q0 -117 -103.5 -187.5t-275.5 -70.5q-173 0 -276.5 70.5t-103.5 187.5zM662 1423q0 66 -59.5 106t-156.5 40
q-98 0 -157.5 -40t-59.5 -106q0 -61 61.5 -101t155.5 -40t155 40t61 101zM715 1024q0 78 -73.5 125t-195.5 47t-196 -47t-74 -125q0 -79 71 -123.5t199 -44.5q127 0 198 44t71 124z" />
    <glyph glyph-name="nine.sups" horiz-adv-x="872" 
d="M807 1253q0 -240 -95 -366.5t-270 -126.5q-127 0 -213.5 61t-117.5 170l104 35q47 -170 227 -170q111 0 177 85t73 245h-2q-79 -111 -270 -111q-161 0 -257.5 78t-96.5 207q0 128 100 212.5t258 84.5q178 0 280.5 -108.5t102.5 -295.5zM670 1362q0 86 -70 142.5
t-176 56.5q-110 0 -179 -56.5t-69 -144.5q0 -87 68.5 -141t179.5 -54q110 0 178 54.5t68 142.5z" />
    <glyph glyph-name="braceleft.case" horiz-adv-x="800" 
d="M326 0v492q0 72 -23.5 99t-85.5 27h-57v136h57q62 0 85.5 28t23.5 101v448q0 140 56.5 204t180.5 64h176v-120h-159q-72 0 -103 -40t-31 -132v-449q0 -79 -35.5 -122t-93.5 -48v-4q58 -5 93.5 -49t35.5 -123v-487q0 -92 32.5 -133.5t101.5 -41.5h159v-118h-176
q-124 0 -180.5 64t-56.5 204z" />
    <glyph glyph-name="braceright.case" horiz-adv-x="800" 
d="M61 -268v118h160q69 0 101 41.5t32 133.5v487q0 79 35.5 123t93.5 49v4q-58 5 -93.5 48t-35.5 122v449q0 92 -30.5 132t-102.5 40h-160v120h177q124 0 180.5 -64t56.5 -204v-448q0 -73 23.5 -101t85.5 -28h57v-136h-57q-62 0 -85.5 -27t-23.5 -99v-492q0 -140 -56.5 -204
t-180.5 -64h-177z" />
    <glyph glyph-name="bracketleft.case" horiz-adv-x="661" 
d="M186 1599h414v-114h-293v-1639h293v-114h-414v1867z" />
    <glyph glyph-name="bracketright.case" horiz-adv-x="661" 
d="M61 -268v114h293v1639h-293v114h414v-1867h-414z" />
    <glyph glyph-name="parenleft.case" horiz-adv-x="745" 
d="M201 707q0 553 405 1001l84 -68q-187 -217 -274.5 -442.5t-87.5 -490.5q0 -268 87.5 -493t274.5 -441l-84 -68q-405 442 -405 1002z" />
    <glyph glyph-name="parenright.case" horiz-adv-x="745" 
d="M55 -227q187 216 275 441.5t88 492.5q0 264 -88 489.5t-275 443.5l84 68q406 -449 406 -1001q0 -559 -406 -1002z" />
    <glyph glyph-name="emdash.ccmp" horiz-adv-x="1730" 
d="M119 801h1495v-119h-1495v119z" />
    <glyph glyph-name="endash.ccmp" horiz-adv-x="1146" 
d="M119 801h909v-119h-909v119z" />
    <glyph glyph-name="hyphen.ccmp" horiz-adv-x="741" 
d="M119 801h506v-119h-506v119z" />
    <glyph glyph-name="uni00AD.ccmp" horiz-adv-x="741" 
d="M119 801h506v-119h-506v119z" />
    <glyph glyph-name="guillemotleft.case" horiz-adv-x="944" 
d="M461 680l223 379h123l-229 -379l229 -379h-123zM160 680l223 379h123l-230 -379l230 -379h-123z" />
    <glyph glyph-name="guillemotright.case" horiz-adv-x="944" 
d="M137 301l230 379l-230 379h123l223 -379l-223 -379h-123zM438 301l230 379l-230 379h123l223 -379l-223 -379h-123z" />
    <glyph glyph-name="guilsinglleft.case" horiz-adv-x="643" 
d="M160 680l223 379h123l-230 -379l230 -379h-123z" />
    <glyph glyph-name="guilsinglright.case" horiz-adv-x="643" 
d="M137 301l230 379l-230 379h123l223 -379l-223 -379h-123z" />
    <glyph glyph-name="uni0E3F.tnum" 
d="M1343 416q0 -204 -125.5 -310t-369.5 -106h-86v-225h-82v225h-487v1434h487v206h82v-206h106q196 0 309 -97t113 -264q0 -112 -53 -192.5t-147 -112.5v-4q118 -29 185.5 -121.5t67.5 -226.5zM324 809h356v506h-356v-506zM762 1315v-506h74q159 0 241 66t82 194
q0 121 -80 183.5t-235 62.5h-82zM680 119v579h-356v-579h356zM1212 414q0 148 -89.5 216t-284.5 68h-76v-579h65q198 0 291.5 71.5t93.5 223.5z" />
    <glyph glyph-name="cent.tnum" 
d="M1176 385l116 -29q-46 -169 -188 -272q-145 -106 -338 -115v-194h-82v196q-238 12 -396.5 174t-158.5 398t158.5 397.5t396.5 173.5v178h82v-176q193 -9 338 -115q142 -103 188 -272l-116 -29q-41 140 -149 220t-261 88v-930q154 8 261.5 87.5t148.5 219.5zM684 78v930
q-189 -15 -310.5 -142t-121.5 -323t121.5 -323t310.5 -142z" />
    <glyph glyph-name="currency.tnum" 
d="M1112 358l135 -135l-61 -61l-133 133q-132 -119 -318 -119t-315 117l-133 -131l-62 61l133 135q-102 132 -102 318q0 188 100 317l-131 133l62 62l129 -129q131 119 319 119q186 0 320 -121l131 131l61 -62l-133 -133q100 -132 100 -317q0 -183 -102 -318zM1087 674
q0 177 -98 284q-95 109 -252 109q-158 0 -256 -109t-98 -284q0 -172 97.5 -278.5t256.5 -106.5t252 106q98 107 98 279z" />
    <glyph glyph-name="dollar.tnum" 
d="M1356 371q0 -177 -154.5 -289.5t-410.5 -112.5h-21v-194h-82v198q-253 25 -401.5 161t-167.5 368l129 18q37 -388 440 -430v606q-191 39 -292.5 76.5t-170.5 106.5q-71 74 -71 196q0 172 146.5 280.5t377.5 108.5h10v176h82v-180q216 -23 356.5 -142.5t165.5 -299.5
l-127 -25q-26 148 -128.5 239t-266.5 111v-540q205 -41 317.5 -84t186.5 -123q82 -82 82 -225zM688 819v531h-10q-178 0 -287.5 -74.5t-109.5 -196.5q3 -47 22.5 -83.5t50 -61.5t84.5 -46.5t109.5 -36t140.5 -32.5zM1229 367q-3 59 -25.5 103.5t-57.5 75.5t-96.5 56
t-123 41.5t-156.5 36.5v-596h23q200 0 318 77.5t118 205.5z" />
    <glyph glyph-name="Euro.tnum" 
d="M1399 489q-32 -241 -187.5 -380.5t-390.5 -139.5q-231 0 -397 146q-160 143 -213 397h-172v111h158q-4 82 -4 94q0 14 4 84h-158v110h172q46 255 209 404q162 149 401 149q229 0 381 -131q156 -132 193 -356l-123 -27q-37 190 -154 293t-297 103q-184 0 -312 -116
t-171 -319h629v-110h-643q-1 -13 -2 -31.5t-2 -31t-1 -21.5q0 -13 2 -46.5t3 -47.5h483v-111h-467q44 -199 171 -311.5t310 -112.5q187 0 304 109t149 315z" />
    <glyph glyph-name="florin.tnum" 
d="M893 1208l-23 -123h359v-110h-377l-168 -946l-27 -150q-19 -108 -85 -159.5t-185 -51.5h-166v109h170q68 0 102 29t46 96l188 1073h-313v110h331l27 148q40 211 270 211h211v-109h-213q-67 0 -101 -29.5t-46 -97.5z" />
    <glyph glyph-name="lira.tnum" 
d="M1280 748q1 -159 -54.5 -299.5t-152.5 -239.5t-233.5 -155t-290.5 -54h-131v698l-182 -67l-41 102l223 80v188l-182 -67l-41 102l223 82v316h131v-269l432 158l39 -102l-471 -172v-187l432 156l39 -100l-471 -173v-626q261 0 429.5 175t168.5 454h133z" />
    <glyph glyph-name="uni20BD.tnum" 
d="M1364 999q0 -204 -128 -318t-357 -114h-445v-194h395v-111h-395v-262h-131v262h-213v111h213v194h-213v111h213v756h576q226 0 355.5 -116.5t129.5 -318.5zM1233 999q0 156 -90.5 236t-268.5 80h-440v-629h440q359 0 359 313z" />
    <glyph glyph-name="uni20A8.tnum" 
d="M1020 1329v-4q142 -83 160 -252h147v-110h-147q-14 -166 -125 -260t-307 -101v-4l380 -598h-151l-377 602h-455v117h555q158 0 246.5 62.5t102.5 181.5h-902v110h900q-14 119 -103 180.5t-248 61.5h-551v119h1182v-105h-307z" />
    <glyph glyph-name="sterling.tnum" 
d="M553 119h719v-119h-1098v119h102q133 0 214 74t81 196q0 66 -30.5 125t-94.5 131h-272v113h172q-68 78 -101.5 150t-33.5 159q0 184 139 290.5t375 106.5q238 0 395.5 -119t179.5 -319l-131 -20q-25 164 -139.5 252t-304.5 88q-177 0 -277 -74t-100 -205
q0 -80 36.5 -146.5t121.5 -162.5h541v-113h-455q104 -132 104 -256q0 -86 -37.5 -155.5t-105.5 -110.5v-4z" />
    <glyph glyph-name="uni20A9.tnum" 
d="M1337 944l-28 -156h151v-100h-172l-129 -688h-135l-219 688h-137l-217 -688h-138l-129 688h-170v100h150l-29 156h-121v98h103l-74 392h119l71 -392h435l14 43h109l14 -43h434l72 392h119l-74 -392h104v-98h-123zM281 788h307l49 156h-385zM1221 944h-385l49 -156h307z
M772 788l-35 111h-4l-35 -111h74zM557 688h-258l94 -508h4zM1174 688h-259l162 -508h4z" />
    <glyph glyph-name="yen.tnum" 
d="M866 674h441v-111h-504v-176h504v-113h-504v-274h-131v274h-502v113h502v176h-502v111h438l-553 760h154l526 -732h4l527 732h153z" />
    <glyph glyph-name="plus.tnum" 
d="M1202 700h-409v-432h-111v432h-410v107h410v422h111v-422h409v-107z" />
    <glyph glyph-name="minus.tnum" 
d="M324 807h827v-107h-827v107z" />
    <glyph glyph-name="multiply.tnum" 
d="M330 391l332 332l-332 330l76 77l331 -333l332 333l76 -77l-332 -330l332 -332l-76 -78l-332 334l-331 -334z" />
    <glyph glyph-name="divide.tnum" 
d="M616 1145q0 54 35 89.5t86 35.5q54 0 88.5 -35.5t34.5 -89.5q0 -51 -36 -86t-87 -35t-86 35t-35 86zM324 807h829v-107h-829v107zM616 352q0 51 35 87t86 36q54 0 88.5 -34.5t34.5 -88.5t-34.5 -88.5t-88.5 -34.5q-51 0 -86 34.5t-35 88.5z" />
    <glyph glyph-name="equal.tnum" 
d="M305 971h864v-111h-864v111zM305 592h864v-109h-864v109z" />
    <glyph glyph-name="notequal.tnum" 
d="M860 860l-149 -268h458v-109h-520l-125 -225l-71 41l102 184h-250v109h311l148 268h-459v111h520l125 223l74 -41l-102 -182h247v-111h-309z" />
    <glyph glyph-name="greater.tnum" 
d="M311 285l727 434l-727 436l62 96l790 -477v-108l-790 -478z" />
    <glyph glyph-name="less.tnum" 
d="M311 666v108l791 477l61 -96l-727 -436l727 -434l-61 -97z" />
    <glyph glyph-name="greaterequal.tnum" 
d="M322 360l729 439l-732 438l60 92l792 -477v-107l-792 -477zM301 111h870v-111h-870v111z" />
    <glyph glyph-name="lessequal.tnum" 
d="M301 745v107l793 477l59 -92l-731 -438l729 -439l-57 -92zM301 0v111h870v-111h-870z" />
    <glyph glyph-name="plusminus.tnum" 
d="M1204 905v-104h-409v-408h-111v408h-410v104h410v398h111v-398h409zM270 268h932v-104h-932v104z" />
    <glyph glyph-name="approxequal.tnum" 
d="M256 786q23 121 91.5 187.5t168.5 66.5q63 0 119 -23t135 -75q71 -44 108 -61t76 -17q63 0 101 42t63 136l103 -32q-23 -118 -93 -185t-170 -67q-63 0 -118.5 23t-134.5 75q-58 33 -78 44t-50 21.5t-57 10.5q-63 0 -102 -41t-62 -133zM256 451q23 121 91.5 187.5
t168.5 66.5q63 0 118.5 -23.5t135.5 -75.5q71 -44 108 -61t76 -17q63 0 101 42.5t63 136.5l103 -33q-23 -118 -93 -185t-170 -67q-63 0 -118.5 23t-134.5 75q-58 33 -78 44t-50 21.5t-57 10.5q-63 0 -102 -41t-62 -133z" />
    <glyph glyph-name="percent.tnum" 
d="M70 1352q0 200 111.5 324t291.5 124q182 0 294 -124t112 -324t-112 -324.5t-294 -124.5q-180 0 -291.5 124.5t-111.5 324.5zM760 1352q0 158 -78 251t-209 93q-130 0 -207.5 -93t-77.5 -251t77.5 -251t207.5 -93q131 0 209 93t78 251zM285 526l792 459l60 -104l-793 -457
zM596 82q0 200 111.5 324t293.5 124q181 0 292.5 -124t111.5 -324t-111.5 -324.5t-292.5 -124.5q-182 0 -293.5 124.5t-111.5 324.5zM1286 82q0 158 -77 251t-208 93t-208.5 -93t-77.5 -251t77.5 -251t208.5 -93t208 93t77 251z" />
    <glyph glyph-name="perthousand.tnum" 
d="M63 1407q0 200 112 324t294 124q181 0 292 -124t111 -324t-111 -324.5t-292 -124.5q-182 0 -294 124.5t-112 324.5zM754 1407q0 158 -77 251t-208 93t-209 -93t-78 -251t78 -251t209 -93t208 93t77 251zM182 670l963 350l39 -107l-963 -350zM31 6q0 198 108.5 323.5
t278.5 125.5t270 -133q26 155 126 246t243 91q170 0 278.5 -125t108.5 -323q0 -197 -108.5 -323t-278.5 -126q-171 0 -271 136q-26 -158 -125.5 -249t-242.5 -91q-170 0 -278.5 125.5t-108.5 322.5zM1325 211q0 154 -75.5 250t-194.5 96t-195 -96t-76 -250t76 -249t195 -95
t194.5 95t75.5 249zM690 6q0 154 -75.5 250t-194.5 96q-122 0 -196 -94t-74 -252q0 -157 74 -250.5t196 -93.5q119 0 194.5 95t75.5 249z" />
    <glyph glyph-name="at.case" horiz-adv-x="1740" 
d="M139 717q-3 206 91.5 378.5t264 272.5t375.5 96q220 0 387 -90.5t257 -254t90 -376.5t-73.5 -325.5t-209.5 -112.5q-69 0 -119 32t-67 87h-5q-35 -60 -116.5 -93.5t-186.5 -33.5q-141 0 -222 60.5t-81 166.5q0 92 60.5 148.5t189.5 87.5q93 23 141 36t88.5 26t56 26
t23.5 27.5t11 37.5q0 56 -55.5 89.5t-147.5 33.5q-104 0 -168.5 -44.5t-81.5 -129.5l-106 17q17 116 115 186t241 70q146 0 229.5 -68.5t83.5 -185.5v-306q0 -104 25 -140t94 -36q85 0 130.5 88.5t45.5 255.5q0 283 -169 455t-460 172q-134 2 -252 -49t-200.5 -139
t-129 -209.5t-44.5 -255.5q0 -313 169 -482t472 -169q128 0 236.5 24.5t224.5 81.5l40 -88q-128 -62 -244 -88.5t-257 -26.5q-345 0 -545.5 197.5t-200.5 550.5zM1096 571v217h-2q-20 -28 -77 -50t-204 -60q-98 -25 -138 -58t-40 -90q0 -66 52 -100.5t149 -34.5
q118 0 189 48t71 128z" />
    <glyph glyph-name="_646" horiz-adv-x="0" 
d="M-328 471v23l-243 -228l-56 56l301 282v-22l271 254l55 -60z" />
    <glyph glyph-name="_648" horiz-adv-x="0" 
d="M-539 459v6l-313 -295l-53 55l405 381v-4l447 406l53 -60z" />
    <glyph glyph-name="_649" horiz-adv-x="0" 
d="M-164 1436h164v-156h-164v156z" />
    <glyph glyph-name="_650" horiz-adv-x="0" 
d="M-639 791h639v-99h-639v99z" />
    </font>
</defs>
</svg>
