<svg xmlns="http://www.w3.org/2000/svg" xmlns:xlink="http://www.w3.org/1999/xlink" width="1098.922" height="255.37" viewBox="0 0 1098.922 255.37">
  <defs>
    <clipPath id="clipPath">
      <rect id="Rectángulo_36" data-name="Rectángulo 36" width="1097.596" height="254.515" transform="translate(0 0)" fill="#fff" stroke="#707070" stroke-width="1"/>
    </clipPath>
  </defs>
  <g id="textura_division_manifesto_web" transform="translate(0 -1049)">
    <g id="Enmascarar_grupo_2" data-name="Enmascarar grupo 2" transform="translate(0 1049)" clipPath="url(#clipPath)">
      <g id="Grupo_119" data-name="Grupo 119" transform="translate(-220.05 -495.774)">
        <g id="Grupo_82" data-name="Grupo 82">
          <path id="Trazado_178" data-name="Trazado 178" d="M1617.731,723.456c-205.065,0-397.86-79.79-542.862-224.673S850.008,161.266,850.008-43.629,929.865-441.157,1074.87-586.04s337.8-224.676,542.862-224.676,397.86,79.793,542.865,224.676,224.862,337.514,224.862,542.411S2305.6,353.9,2160.6,498.783,1822.8,723.456,1617.731,723.456Zm0-1528.233c-203.48,0-394.779,79.173-538.66,222.937S855.952-246.939,855.952-43.629s79.236,394.451,223.119,538.212,335.18,222.934,538.66,222.934,394.779-79.173,538.66-222.934,223.122-334.9,223.122-538.212-79.239-394.451-223.122-538.212S1821.211-804.777,1617.731-804.777Z" transform="translate(-850.008 810.716)" fill="#231f20"/>
        </g>
        <g id="Grupo_83" data-name="Grupo 83" transform="translate(19.205 19.189)">
          <path id="Trazado_179" data-name="Trazado 179" d="M1605.77,692.315c-199.935,0-387.905-77.794-529.283-219.053S857.252,144.19,857.252-55.58s77.86-387.584,219.235-528.843,329.345-219.055,529.283-219.055,387.908,77.8,529.283,219.055S2354.289-255.351,2354.289-55.58,2276.43,332,2135.053,473.262,1805.708,692.315,1605.77,692.315Zm0-1489.854c-198.349,0-384.827,77.179-525.08,217.316S863.2-253.765,863.2-55.58s77.24,384.506,217.494,524.643,326.731,217.313,525.08,217.313S1990.6,609.2,2130.851,469.063s217.5-326.461,217.5-524.643-77.243-384.506-217.5-524.643S1804.12-797.539,1605.77-797.539Z" transform="translate(-857.252 803.478)" fill="#231f20"/>
        </g>
        <g id="Grupo_84" data-name="Grupo 84" transform="translate(38.41 38.379)">
          <path id="Trazado_180" data-name="Trazado 180" d="M1593.809,661.174c-194.808,0-377.952-75.8-515.7-213.432S864.5,127.111,864.5-67.532s75.862-377.639,213.61-515.274S1399-796.24,1593.809-796.24s377.955,75.8,515.7,213.434,213.612,320.628,213.612,515.274-75.861,377.639-213.612,515.274S1788.617,661.174,1593.809,661.174Zm0-1451.476c-193.22,0-374.874,75.183-511.5,211.7S870.44-260.589,870.44-67.532s75.244,374.561,211.871,511.074,318.279,211.693,511.5,211.693,374.874-75.18,511.5-211.693,211.871-318.016,211.871-511.074-75.244-374.561-211.871-511.074S1787.029-790.3,1593.809-790.3Z" transform="translate(-864.496 796.24)" fill="#231f20"/>
        </g>
        <g id="Grupo_85" data-name="Grupo 85" transform="translate(57.616 57.568)">
          <path id="Trazado_181" data-name="Trazado 181" d="M1581.848,630.033c-189.677,0-368-73.8-502.121-207.812S871.74,110.035,871.74-79.483s73.863-367.695,207.987-501.7S1392.17-789,1581.848-789s368,73.8,502.124,207.814S2291.955-269,2291.955-79.483s-73.862,367.695-207.984,501.7S1771.525,630.033,1581.848,630.033Zm0-1413.1c-188.089,0-364.919,73.187-497.919,206.075S877.684-267.416,877.684-79.483s73.245,364.617,206.245,497.505,309.829,206.072,497.919,206.072,364.922-73.187,497.918-206.072S2286.014,108.45,2286.014-79.483,2212.77-444.1,2079.766-576.989,1769.937-783.063,1581.848-783.063Z" transform="translate(-871.74 789.002)" fill="#231f20"/>
        </g>
        <g id="Grupo_86" data-name="Grupo 86" transform="translate(76.821 76.758)">
          <path id="Trazado_182" data-name="Trazado 182" d="M1569.886,598.893c-184.547,0-358.047-71.808-488.542-202.194S878.984,92.959,878.984-91.434s71.866-357.75,202.361-488.136,303.995-202.193,488.542-202.193,358.05,71.808,488.541,202.193,202.361,303.743,202.361,488.136-71.866,357.75-202.361,488.133S1754.433,598.893,1569.886,598.893Zm0-1374.718c-182.959,0-354.966,71.19-484.339,200.454S884.928-274.242,884.928-91.434,956.176,263.238,1085.547,392.5s301.38,200.452,484.339,200.452,354.969-71.19,484.34-200.452S2254.845,91.371,2254.845-91.434,2183.6-446.107,2054.226-575.371,1752.846-775.825,1569.886-775.825Z" transform="translate(-878.984 781.764)" fill="#231f20"/>
        </g>
        <g id="Grupo_87" data-name="Grupo 87" transform="translate(96.026 95.949)">
          <path id="Trazado_183" data-name="Trazado 183" d="M1557.925,567.75c-179.417,0-348.094-69.811-474.962-196.573S886.228,75.879,886.228-103.387s69.87-347.805,196.735-474.567,295.545-196.571,474.962-196.571,348.1,69.809,474.963,196.571,196.737,295.3,196.737,474.567-69.869,347.806-196.737,474.565S1737.343,567.75,1557.925,567.75Zm0-1336.336c-177.829,0-345.014,69.191-470.757,194.831s-195,292.687-195,470.368,69.25,344.727,195,470.368S1380.1,561.812,1557.925,561.812s345.016-69.194,470.761-194.831,194.995-292.687,194.995-470.368-69.252-344.727-194.995-470.368S1735.755-768.586,1557.925-768.586Z" transform="translate(-886.228 774.525)" fill="#231f20"/>
        </g>
        <g id="Grupo_88" data-name="Grupo 88" transform="translate(115.232 115.139)">
          <path id="Trazado_184" data-name="Trazado 184" d="M1545.964,536.609c-174.287,0-338.142-67.815-461.38-190.953S893.472,58.8,893.472-115.339s67.871-337.861,191.112-461,287.093-190.95,461.38-190.95,338.142,67.812,461.383,190.95,191.109,286.857,191.109,461-67.871,337.861-191.109,461S1720.251,536.609,1545.964,536.609Zm0-1297.961c-172.7,0-335.061,67.2-457.178,189.213s-189.37,284.243-189.37,456.8,67.253,334.783,189.37,456.8,284.479,189.211,457.178,189.211,335.064-67.2,457.181-189.211,189.37-284.243,189.37-456.8-67.253-334.783-189.37-456.8S1718.663-761.351,1545.964-761.351Z" transform="translate(-893.472 767.287)" fill="#231f20"/>
        </g>
        <g id="Grupo_89" data-name="Grupo 89" transform="translate(134.437 134.328)">
          <path id="Trazado_185" data-name="Trazado 185" d="M1534,505.469c-349.195,0-633.287-283.856-633.287-632.759S1184.808-760.049,1534-760.049,2167.29-476.2,2167.29-127.29,1883.2,505.469,1534,505.469Zm0-1259.579c-345.918,0-627.343,281.189-627.343,626.82S1188.084,499.53,1534,499.53s627.342-281.191,627.342-626.82S1879.921-754.11,1534-754.11Z" transform="translate(-900.716 760.049)" fill="#231f20"/>
        </g>
        <g id="Grupo_90" data-name="Grupo 90" transform="translate(153.642 153.518)">
          <path id="Trazado_186" data-name="Trazado 186" d="M1522.041,474.328c-338.605,0-614.081-275.247-614.081-613.569s275.476-613.569,614.081-613.569,614.084,275.245,614.084,613.569S1860.647,474.328,1522.041,474.328Zm0-1221.2c-335.329,0-608.137,272.583-608.137,607.633s272.808,607.631,608.137,607.631,608.14-272.583,608.14-607.631S1857.371-746.875,1522.041-746.875Z" transform="translate(-907.96 752.811)" fill="#231f20"/>
        </g>
        <g id="Grupo_91" data-name="Grupo 91" transform="translate(172.848 172.707)">
          <path id="Trazado_187" data-name="Trazado 187" d="M1510.08,443.187c-328.014,0-594.876-266.639-594.876-594.38s266.862-594.38,594.876-594.38,594.876,266.637,594.876,594.38S1838.1,443.187,1510.08,443.187Zm0-1182.822c-324.737,0-588.932,263.972-588.932,588.441s264.195,588.441,588.932,588.441,588.935-263.975,588.935-588.441S1834.82-739.634,1510.08-739.634Z" transform="translate(-915.204 745.573)" fill="#231f20"/>
        </g>
        <g id="Grupo_92" data-name="Grupo 92" transform="translate(192.053 191.896)">
          <path id="Trazado_188" data-name="Trazado 188" d="M1498.119,412.047c-317.425,0-575.67-258.031-575.67-575.191s258.245-575.191,575.67-575.191S2073.79-480.307,2073.79-163.144,1815.544,412.047,1498.119,412.047Zm0-1144.443c-314.148,0-569.727,255.363-569.727,569.252s255.578,569.252,569.727,569.252,569.727-255.366,569.727-569.252S1812.267-732.4,1498.119-732.4Z" transform="translate(-922.448 738.335)" fill="#231f20"/>
        </g>
        <g id="Grupo_93" data-name="Grupo 93" transform="translate(211.261 211.086)">
          <path id="Trazado_189" data-name="Trazado 189" d="M1486.156,380.906c-306.833,0-556.462-249.422-556.462-556s249.629-556,556.462-556,556.465,249.42,556.465,556S1792.993,380.906,1486.156,380.906Zm0-1106.064C1182.6-725.159,935.635-478.4,935.635-175.1S1182.6,374.967,1486.156,374.967,2036.677,128.209,2036.677-175.1,1789.715-725.159,1486.156-725.159Z" transform="translate(-929.693 731.097)" fill="#231f20"/>
        </g>
        <g id="Grupo_94" data-name="Grupo 94" transform="translate(230.463 230.275)">
          <path id="Trazado_190" data-name="Trazado 190" d="M1474.2,349.765c-296.245,0-537.26-240.814-537.26-536.812s241.016-536.812,537.26-536.812,537.261,240.811,537.261,536.812S1770.444,349.765,1474.2,349.765Zm0-1067.686c-292.968,0-531.316,238.149-531.316,530.874S1181.228,343.826,1474.2,343.826s531.316-238.149,531.316-530.873S1767.167-717.921,1474.2-717.921Z" transform="translate(-936.936 723.859)" fill="#231f20"/>
        </g>
        <g id="Grupo_95" data-name="Grupo 95" transform="translate(249.669 249.465)">
          <path id="Trazado_191" data-name="Trazado 191" d="M1462.235,318.624C1176.579,318.624,944.18,86.419,944.18-199s232.4-517.623,518.055-517.623S1980.29-484.419,1980.29-199,1747.891,318.624,1462.235,318.624Zm0-1029.307c-282.379,0-512.111,229.541-512.111,511.684s229.732,511.684,512.111,511.684S1974.346,83.145,1974.346-199,1744.614-710.682,1462.235-710.682Z" transform="translate(-944.18 716.621)" fill="#231f20"/>
        </g>
        <g id="Grupo_96" data-name="Grupo 96" transform="translate(268.877 268.654)">
          <path id="Trazado_192" data-name="Trazado 192" d="M1450.272,287.484c-275.065,0-498.847-223.6-498.847-498.433s223.782-498.433,498.847-498.433,498.85,223.6,498.85,498.433S1725.339,287.484,1450.272,287.484Zm0-990.928c-271.787,0-492.906,220.932-492.906,492.495s221.118,492.495,492.906,492.495S1943.177,60.612,1943.177-210.95,1722.062-703.444,1450.272-703.444Z" transform="translate(-951.425 709.383)" fill="#231f20"/>
        </g>
        <g id="Grupo_97" data-name="Grupo 97" transform="translate(288.082 287.843)">
          <path id="Trazado_193" data-name="Trazado 193" d="M1438.311,256.343c-264.475,0-479.642-214.988-479.642-479.244s215.166-479.244,479.642-479.244S1917.955-487.157,1917.955-222.9,1702.789,256.343,1438.311,256.343Zm0-952.549c-261.2,0-473.7,212.324-473.7,473.305s212.5,473.305,473.7,473.305,473.7-212.324,473.7-473.305S1699.512-696.206,1438.311-696.206Z" transform="translate(-958.669 702.145)" fill="#231f20"/>
        </g>
        <g id="Grupo_98" data-name="Grupo 98" transform="translate(307.284 307.033)">
          <path id="Trazado_194" data-name="Trazado 194" d="M1426.351,225.2c-253.887,0-460.439-206.38-460.439-460.055s206.552-460.054,460.439-460.054,460.439,206.38,460.439,460.054S1680.238,225.2,1426.351,225.2Zm0-914.17c-250.61,0-454.495,203.715-454.495,454.116s203.885,454.116,454.495,454.116,454.5-203.716,454.5-454.116S1676.961-688.968,1426.351-688.968Z" transform="translate(-965.912 694.907)" fill="#231f20"/>
        </g>
        <g id="Grupo_99" data-name="Grupo 99" transform="translate(326.492 326.222)">
          <path id="Trazado_195" data-name="Trazado 195" d="M1414.388,194.061c-243.295,0-441.231-197.771-441.231-440.865s197.936-440.865,441.231-440.865S1855.622-489.9,1855.622-246.8,1657.686,194.061,1414.388,194.061Zm0-875.792C1174.37-681.73,979.1-486.623,979.1-246.8s195.269,434.927,435.287,434.927S1849.678-6.984,1849.678-246.8,1654.409-681.73,1414.388-681.73Z" transform="translate(-973.157 687.669)" fill="#231f20"/>
        </g>
        <g id="Grupo_100" data-name="Grupo 100" transform="translate(345.698 345.411)">
          <path id="Trazado_196" data-name="Trazado 196" d="M1402.427,162.921c-232.706,0-422.026-189.163-422.026-421.676s189.32-421.676,422.026-421.676,422.028,189.163,422.028,421.676S1635.133,162.921,1402.427,162.921Zm0-837.413c-229.43,0-416.082,186.5-416.082,415.737S1173,156.982,1402.427,156.982s416.084-186.5,416.084-415.737S1631.856-674.492,1402.427-674.492Z" transform="translate(-980.401 680.431)" fill="#231f20"/>
        </g>
        <g id="Grupo_101" data-name="Grupo 101" transform="translate(364.903 364.601)">
          <path id="Trazado_197" data-name="Trazado 197" d="M1390.465,131.78c-222.114,0-402.82-180.555-402.82-402.486s180.705-402.486,402.82-402.486,402.824,180.554,402.824,402.486S1612.583,131.78,1390.465,131.78Zm0-799.034c-218.837,0-396.876,177.89-396.876,396.548s178.039,396.548,396.876,396.548,396.88-177.89,396.88-396.548S1609.306-667.255,1390.465-667.255Z" transform="translate(-987.645 673.193)" fill="#231f20"/>
        </g>
        <g id="Grupo_102" data-name="Grupo 102" transform="translate(384.108 383.79)">
          <path id="Trazado_198" data-name="Trazado 198" d="M1378.5,100.639c-211.526,0-383.615-171.946-383.615-383.3s172.089-383.3,383.615-383.3,383.616,171.946,383.616,383.3S1590.03,100.639,1378.5,100.639Zm0-760.655c-208.249,0-377.671,169.281-377.671,377.358S1170.255,94.7,1378.5,94.7s377.674-169.284,377.674-377.358S1586.753-660.016,1378.5-660.016Z" transform="translate(-994.889 665.955)" fill="#231f20"/>
        </g>
        <g id="Grupo_103" data-name="Grupo 103" transform="translate(403.314 402.98)">
          <path id="Trazado_199" data-name="Trazado 199" d="M1366.543,69.5c-200.937,0-364.41-163.338-364.41-364.107s163.473-364.108,364.41-364.108,364.412,163.338,364.412,364.108S1567.48,69.5,1366.543,69.5Zm0-722.276c-197.66,0-358.466,160.673-358.466,358.169S1168.883,63.56,1366.543,63.56s358.468-160.676,358.468-358.169S1564.2-652.778,1366.543-652.778Z" transform="translate(-1002.133 658.717)" fill="#231f20"/>
        </g>
        <g id="Grupo_104" data-name="Grupo 104" transform="translate(422.519 422.169)">
          <path id="Trazado_200" data-name="Trazado 200" d="M1354.582,38.358c-190.346,0-345.2-154.732-345.2-344.918s154.859-344.918,345.2-344.918,345.207,154.729,345.207,344.918S1544.929,38.358,1354.582,38.358Zm0-683.9c-187.068,0-339.261,152.065-339.261,338.98s152.192,338.98,339.261,338.98,339.263-152.067,339.263-338.98S1541.653-645.54,1354.582-645.54Z" transform="translate(-1009.377 651.479)" fill="#231f20"/>
        </g>
        <g id="Grupo_105" data-name="Grupo 105" transform="translate(441.724 441.358)">
          <path id="Trazado_201" data-name="Trazado 201" d="M1342.62,7.217c-179.756,0-326-146.121-326-325.729s146.243-325.729,326-325.729,326,146.121,326,325.729S1522.377,7.217,1342.62,7.217Zm0-645.519c-176.48,0-320.055,143.456-320.055,319.79S1166.141,1.278,1342.62,1.278s320.058-143.459,320.058-319.79S1519.1-638.3,1342.62-638.3Z" transform="translate(-1016.621 644.241)" fill="#231f20"/>
        </g>
        <g id="Grupo_106" data-name="Grupo 106" transform="translate(460.929 460.548)">
          <path id="Trazado_202" data-name="Trazado 202" d="M1330.659-23.924c-169.165,0-306.794-137.515-306.794-306.539S1161.494-637,1330.659-637s306.794,137.512,306.794,306.539S1499.827-23.924,1330.659-23.924Zm0-607.14c-165.888,0-300.85,134.848-300.85,300.6s134.962,300.6,300.85,300.6,300.852-134.851,300.852-300.6S1496.55-631.064,1330.659-631.064Z" transform="translate(-1023.865 637.003)" fill="#231f20"/>
        </g>
        <g id="Grupo_107" data-name="Grupo 107" transform="translate(480.135 479.737)">
          <path id="Trazado_203" data-name="Trazado 203" d="M1318.7-55.067c-158.576,0-287.589-128.9-287.589-287.348s129.012-287.35,287.589-287.35,287.589,128.9,287.589,287.35S1477.273-55.067,1318.7-55.067Zm0-568.759c-155.3,0-281.645,126.239-281.645,281.411S1163.4-61,1318.7-61s281.645-126.242,281.645-281.412S1474-623.826,1318.7-623.826Z" transform="translate(-1031.109 629.765)" fill="#231f20"/>
        </g>
        <g id="Grupo_108" data-name="Grupo 108" transform="translate(499.34 498.926)">
          <path id="Trazado_204" data-name="Trazado 204" d="M1306.737-86.206c-147.987,0-268.384-120.3-268.384-268.161s120.4-268.161,268.384-268.161,268.383,120.3,268.383,268.161S1454.724-86.206,1306.737-86.206Zm0-530.383c-144.71,0-262.44,117.631-262.44,262.222s117.729,262.222,262.44,262.222,262.439-117.634,262.439-262.222S1451.447-616.588,1306.737-616.588Z" transform="translate(-1038.353 622.527)" fill="#231f20"/>
        </g>
        <g id="Grupo_109" data-name="Grupo 109" transform="translate(518.545 518.116)">
          <path id="Trazado_205" data-name="Trazado 205" d="M1294.775-117.349c-137.4,0-249.178-111.687-249.178-248.969s111.782-248.971,249.178-248.971S1543.953-503.6,1543.953-366.318,1432.174-117.349,1294.775-117.349Zm0-492c-134.119,0-243.234,109.022-243.234,243.033s109.115,243.033,243.234,243.033,243.234-109.025,243.234-243.033S1428.9-609.35,1294.775-609.35Z" transform="translate(-1045.597 615.289)" fill="#231f20"/>
        </g>
        <g id="Grupo_110" data-name="Grupo 110" transform="translate(537.75 537.305)">
          <path id="Trazado_206" data-name="Trazado 206" d="M1282.814-148.489c-126.806,0-229.973-103.079-229.973-229.78s103.167-229.782,229.973-229.782,229.973,103.079,229.973,229.782S1409.621-148.489,1282.814-148.489Zm0-453.623c-123.53,0-224.028,100.417-224.028,223.843s100.5,223.841,224.028,223.841,224.029-100.414,224.029-223.841S1406.344-602.112,1282.814-602.112Z" transform="translate(-1052.841 608.051)" fill="#231f20"/>
        </g>
        <g id="Grupo_111" data-name="Grupo 111" transform="translate(556.956 556.495)">
          <path id="Trazado_207" data-name="Trazado 207" d="M1270.853-179.63c-116.218,0-210.768-94.47-210.768-210.59s94.55-210.593,210.768-210.593,210.767,94.47,210.767,210.593S1387.071-179.63,1270.853-179.63Zm0-415.244c-112.939,0-204.824,91.806-204.824,204.654s91.885,204.654,204.824,204.654,204.823-91.808,204.823-204.654S1383.794-594.874,1270.853-594.874Z" transform="translate(-1060.085 600.813)" fill="#231f20"/>
        </g>
        <g id="Grupo_112" data-name="Grupo 112" transform="translate(576.161 575.684)">
          <path id="Trazado_208" data-name="Trazado 208" d="M1258.891-210.771c-105.626,0-191.562-85.862-191.562-191.4s85.936-191.4,191.562-191.4,191.563,85.865,191.563,191.4S1364.518-210.771,1258.891-210.771Zm0-376.865c-102.35,0-185.618,83.2-185.618,185.465s83.269,185.462,185.618,185.462,185.618-83.2,185.618-185.462S1361.241-587.636,1258.891-587.636Z" transform="translate(-1067.329 593.575)" fill="#231f20"/>
        </g>
        <g id="Grupo_113" data-name="Grupo 113" transform="translate(595.366 594.873)">
          <path id="Trazado_209" data-name="Trazado 209" d="M1246.93-241.912c-95.037,0-172.357-77.253-172.357-172.211s77.32-172.214,172.357-172.214,172.358,77.256,172.358,172.214S1341.968-241.912,1246.93-241.912Zm0-338.487c-91.761,0-166.413,74.592-166.413,166.275s74.652,166.272,166.413,166.272,166.414-74.589,166.414-166.272S1338.691-580.4,1246.93-580.4Z" transform="translate(-1074.573 586.337)" fill="#231f20"/>
        </g>
        <g id="Grupo_114" data-name="Grupo 114" transform="translate(614.574 614.063)">
          <path id="Trazado_210" data-name="Trazado 210" d="M1234.967-273.052c-84.449,0-153.149-68.645-153.149-153.022s68.7-153.025,153.149-153.025,153.152,68.647,153.152,153.025S1319.416-273.052,1234.967-273.052Zm0-300.108c-81.169,0-147.208,65.983-147.208,147.086s66.039,147.083,147.208,147.083,147.208-65.98,147.208-147.083S1316.139-573.16,1234.967-573.16Z" transform="translate(-1081.818 579.099)" fill="#231f20"/>
        </g>
        <g id="Grupo_115" data-name="Grupo 115" transform="translate(633.78 633.252)">
          <path id="Trazado_211" data-name="Trazado 211" d="M1223.006-304.193c-73.857,0-133.944-60.036-133.944-133.833s60.087-133.835,133.944-133.835,133.947,60.039,133.947,133.835S1296.863-304.193,1223.006-304.193Zm0-261.729c-70.58,0-128,57.374-128,127.9s57.423,127.894,128,127.894,128-57.372,128-127.894S1293.586-565.922,1223.006-565.922Z" transform="translate(-1089.062 571.861)" fill="#231f20"/>
        </g>
        <g id="Grupo_116" data-name="Grupo 116" transform="translate(652.985 652.441)">
          <path id="Trazado_212" data-name="Trazado 212" d="M1211.044-335.334c-63.268,0-114.738-51.428-114.738-114.643s51.47-114.646,114.738-114.646,114.741,51.431,114.741,114.646S1274.313-335.334,1211.044-335.334Zm0-223.35A108.873,108.873,0,0,0,1102.25-449.977a108.871,108.871,0,0,0,108.795,108.7,108.873,108.873,0,0,0,108.8-108.7A108.875,108.875,0,0,0,1211.044-558.684Z" transform="translate(-1096.306 564.623)" fill="#231f20"/>
        </g>
        <g id="Grupo_117" data-name="Grupo 117" transform="translate(672.19 671.631)">
          <path id="Trazado_213" data-name="Trazado 213" d="M1199.083-366.475a95.6,95.6,0,0,1-95.533-95.454,95.6,95.6,0,0,1,95.533-95.456,95.606,95.606,0,0,1,95.536,95.456A95.6,95.6,0,0,1,1199.083-366.475Zm0-184.972a89.655,89.655,0,0,0-89.589,89.518,89.653,89.653,0,0,0,89.589,89.515,89.655,89.655,0,0,0,89.592-89.515A89.658,89.658,0,0,0,1199.083-551.446Z" transform="translate(-1103.55 557.385)" fill="#231f20"/>
        </g>
        <g id="Grupo_118" data-name="Grupo 118" transform="translate(691.395 690.82)">
          <path id="Trazado_214" data-name="Trazado 214" d="M1187.122-397.616a76.382,76.382,0,0,1-76.328-76.264,76.384,76.384,0,0,1,76.328-76.267,76.386,76.386,0,0,1,76.331,76.267A76.384,76.384,0,0,1,1187.122-397.616Zm0-146.593a70.438,70.438,0,0,0-70.387,70.328,70.435,70.435,0,0,0,70.387,70.326,70.435,70.435,0,0,0,70.387-70.326A70.438,70.438,0,0,0,1187.122-544.208Z" transform="translate(-1110.794 550.147)" fill="#231f20"/>
        </g>
      </g>
    </g>
    <line id="Línea_38" data-name="Línea 38" x2="1097.807" transform="translate(1.115 1050.913)" fill="none" stroke="#231f20" stroke-width="2"/>
    <line id="Línea_39" data-name="Línea 39" x2="1097.807" transform="translate(1.115 1303.37)" fill="none" stroke="#231f20" stroke-width="2"/>
  </g>
</svg>
