<svg id="Grupo_1740" data-name="Grupo 1740" xmlns="http://www.w3.org/2000/svg" width="127.973" height="141.33" viewBox="0 0 127.973 141.33">
  <path id="Trazado_1491" data-name="Trazado 1491" d="M846.6,75.673l-6.9,17.62,14.159,36.17,6.892-17.634Z" transform="translate(-763.374 -33.569)" fill="#bbb3a1"/>
  <path id="Trazado_1492" data-name="Trazado 1492" d="M864.847,98.319l6.892-17.635L860.354,51.595h-5.5L850.7,62.188Z" transform="translate(-755.139 -51.595)" fill="#bbb3a1"/>
  <path id="Trazado_1493" data-name="Trazado 1493" d="M868,73.733l8.654-22.138H859.333Z" transform="translate(-748.68 -51.595)" fill="#bbb3a1"/>
  <path id="Trazado_1494" data-name="Trazado 1494" d="M852.1,61.625l-6.9,17.62,14.149,36.15,6.894-17.634Z" transform="translate(-759.257 -44.086)" fill="#bbb3a1"/>
  <path id="Trazado_1495" data-name="Trazado 1495" d="M848.367,143.532l6.894-17.634L841.1,89.722l-6.9,17.62Z" transform="translate(-767.493 -23.052)" fill="#bbb3a1"/>
  <path id="Trazado_1496" data-name="Trazado 1496" d="M860.042,142.83l0,.005-35.726-91.24H796.052l55.25,141.33h17.473l5.434-13.9Z" transform="translate(-796.052 -51.595)" fill="#bbb3a1"/>
</svg>
