<svg xmlns="http://www.w3.org/2000/svg" width="164.593" height="72.249" viewBox="0 0 164.593 72.249">
  <g id="asteriscos_web" transform="translate(-2262.665 -559.093)">
    <g id="Group_122" data-name="Group 122" transform="translate(2262.665 559.093)">
      <path id="Path_273" data-name="Path 273" d="M2282.946,599.653l-20.28-11.588,10.141-17.565,17.745,10.321V559.093h19.737v21.728l17.564-10.321,10.14,17.565-19.917,11.588,15.573,18.651-15.03,13.037-18.107-21.367L2282.4,631.341,2267.193,618.3Z" transform="translate(-2262.665 -559.093)" fill="#231f20"/>
      <path id="Path_274" data-name="Path 274" d="M2398.057,599.653l-20.281-11.588,10.141-17.565,17.746,10.321V559.093H2425.4v21.728l17.563-10.321,10.14,17.565-19.918,11.588,15.572,18.651-15.028,13.037-18.108-21.367-18.106,21.367L2382.3,618.3Z" transform="translate(-2288.51 -559.093)" fill="#231f20"/>
    </g>
  </g>
</svg>
