<svg xmlns="http://www.w3.org/2000/svg" width="496.761" height="496.348" viewBox="0 0 496.761 496.348">
  <g id="elipses_web" transform="translate(0.25 0.25)">
    <g id="Group_41" data-name="Group 41">
      <path id="Path_145" data-name="Path 145" d="M-7.214,723.505A246.608,246.608,0,0,1-182.669,650.89a246.2,246.2,0,0,1-72.676-175.308,246.2,246.2,0,0,1,72.676-175.309A246.611,246.611,0,0,1-7.214,227.657,246.61,246.61,0,0,1,168.24,300.273a246.2,246.2,0,0,1,72.676,175.309A246.2,246.2,0,0,1,168.24,650.89,246.607,246.607,0,0,1-7.214,723.505Zm0-493.715A244.49,244.49,0,0,0-181.16,301.781a244.08,244.08,0,0,0-72.051,173.8,244.081,244.081,0,0,0,72.051,173.8A244.49,244.49,0,0,0-7.214,721.373a244.489,244.489,0,0,0,173.945-71.991,244.08,244.08,0,0,0,72.051-173.8,244.079,244.079,0,0,0-72.051-173.8A244.489,244.489,0,0,0-7.214,229.79Z" transform="translate(255.345 -227.657)" fill="#231f20" stroke="#231f20" strokeWidth="0.5"/>
    </g>
    <g id="Group_45" data-name="Group 45" transform="translate(27.59 27.567)">
      <path id="Path_149" data-name="Path 149" d="M15.955,719.089c-121.607,0-220.541-98.852-220.541-220.357s98.934-220.357,220.541-220.357S236.5,377.226,236.5,498.731,137.562,719.089,15.955,719.089Zm0-438.582c-120.43,0-218.407,97.9-218.407,218.225s97.977,218.225,218.407,218.225,218.406-97.895,218.406-218.225S136.385,280.507,15.955,280.507Z" transform="translate(204.586 -278.374)" fill="#231f20" stroke="#231f20" strokeWidth="0.5"/>
    </g>
    <g id="Group_49" data-name="Group 49" transform="translate(55.18 55.134)">
      <path id="Path_153" data-name="Path 153" d="M39.125,714.672c-106.394,0-192.951-86.486-192.951-192.79S-67.269,329.091,39.125,329.091s192.951,86.485,192.951,192.791S145.519,714.672,39.125,714.672Zm0-383.448c-105.217,0-190.817,85.529-190.817,190.658s85.6,190.657,190.817,190.657,190.817-85.528,190.817-190.657S144.342,331.224,39.125,331.224Z" transform="translate(153.826 -329.091)" fill="#231f20" stroke="#231f20" strokeWidth="0.5"/>
    </g>
    <g id="Group_53" data-name="Group 53" transform="translate(82.77 82.7)">
      <path id="Path_157" data-name="Path 157" d="M62.295,710.256c-91.181,0-165.362-74.119-165.362-165.224S-28.886,379.808,62.295,379.808s165.362,74.119,165.362,165.224S153.475,710.256,62.295,710.256Zm0-328.315c-90,0-163.227,73.163-163.227,163.091S-27.709,708.123,62.295,708.123,225.522,634.96,225.522,545.032,152.3,381.941,62.295,381.941Z" transform="translate(103.067 -379.808)" fill="#231f20" stroke="#231f20" strokeWidth="0.5"/>
    </g>
    <g id="Group_57" data-name="Group 57" transform="translate(110.359 110.267)">
      <path id="Path_161" data-name="Path 161" d="M85.464,705.839c-75.968,0-137.772-61.753-137.772-137.657S9.5,430.525,85.464,430.525s137.771,61.752,137.771,137.657S161.431,705.839,85.464,705.839Zm0-273.182c-74.791,0-135.637,60.8-135.637,135.525S10.673,703.707,85.464,703.707,221.1,642.911,221.1,568.182,160.254,432.657,85.464,432.657Z" transform="translate(52.308 -430.525)" fill="#231f20" stroke="#231f20" strokeWidth="0.5"/>
    </g>
    <g id="Group_61" data-name="Group 61" transform="translate(137.949 137.834)">
      <path id="Path_165" data-name="Path 165" d="M108.634,701.423a110.09,110.09,0,1,1,110.182-110.09A110.261,110.261,0,0,1,108.634,701.423Zm0-218.048A107.958,107.958,0,1,0,216.681,591.333,108.125,108.125,0,0,0,108.634,483.375Z" transform="translate(1.548 -481.242)" fill="#231f20" stroke="#231f20" strokeWidth="0.5"/>
    </g>
    <g id="Group_65" data-name="Group 65" transform="translate(165.538 165.401)">
      <path id="Path_169" data-name="Path 169" d="M131.8,697.006a82.524,82.524,0,1,1,82.592-82.523A82.652,82.652,0,0,1,131.8,697.006Zm0-162.914a80.391,80.391,0,1,0,80.458,80.391A80.516,80.516,0,0,0,131.8,534.092Z" transform="translate(-49.21 -531.959)" fill="#231f20" stroke="#231f20" strokeWidth="0.5"/>
    </g>
    <g id="Group_69" data-name="Group 69" transform="translate(193.128 192.968)">
      <path id="Path_173" data-name="Path 173" d="M154.973,692.59a54.957,54.957,0,1,1,55-54.956A55.042,55.042,0,0,1,154.973,692.59Zm0-107.781a52.824,52.824,0,1,0,52.868,52.824A52.906,52.906,0,0,0,154.973,584.809Z" transform="translate(-99.97 -582.676)" fill="#231f20" stroke="#231f20" strokeWidth="0.5"/>
    </g>
    <g id="Group_73" data-name="Group 73" transform="translate(220.718 220.534)">
      <path id="Path_177" data-name="Path 177" d="M178.142,688.174a27.39,27.39,0,1,1,27.412-27.39A27.433,27.433,0,0,1,178.142,688.174Zm0-52.648a25.257,25.257,0,1,0,25.278,25.258A25.3,25.3,0,0,0,178.142,635.526Z" transform="translate(-150.729 -633.393)" fill="#231f20" stroke="#231f20" strokeWidth="0.5"/>
    </g>
  </g>
</svg>
