<svg xmlns="http://www.w3.org/2000/svg" xmlns:xlink="http://www.w3.org/1999/xlink" width="160" height="207.606" viewBox="0 0 160 207.606">
  <defs>
    <clipPath id="clipPath">
      <rect id="Rect치ngulo_479" data-name="Rect치ngulo 479" width="128.2" height="126.282" fill="none"/>
    </clipPath>
    <clipPath id="clipPath-2">
      <rect id="Rect치ngulo_479-2" data-name="Rect치ngulo 479" width="95.9" height="94.465" fill="none"/>
    </clipPath>
  </defs>
  <g id="Grupo_1060" data-name="Grupo 1060" transform="translate(-601.85 -5553.859)">
    <g id="Grupo_671" data-name="Grupo 671" transform="translate(601.85 5553.859)">
      <g id="Grupo_670" data-name="Grupo 670" clipPath="url(#clipPath)">
        <path id="Trazado_1670" data-name="Trazado 1670" d="M64.1,126.282c0-34.872,28.7-63.142,64.1-63.142C92.8,63.14,64.1,34.872,64.1,0,64.1,34.872,35.4,63.14,0,63.14c35.4,0,64.1,28.269,64.1,63.142" transform="translate(0.001)" fill="#241F20"/>
      </g>
    </g>
    <g id="Grupo_672" data-name="Grupo 672" transform="translate(665.95 5667)">
      <g id="Grupo_670-2" data-name="Grupo 670" clipPath="url(#clipPath-2)">
        <path id="Trazado_1670-2" data-name="Trazado 1670" d="M47.949,94.465c0-26.086,21.466-47.233,47.95-47.233-26.484,0-47.95-21.146-47.95-47.232,0,26.086-21.467,47.232-47.95,47.232,26.483,0,47.95,21.147,47.95,47.233" transform="translate(0.001)" fill="#241F20"/>
      </g>
    </g>
  </g>
</svg>
