<svg xmlns="http://www.w3.org/2000/svg" width="38.455" height="38.233" viewBox="0 0 38.455 38.233">
  <g id="icnono_ig_web" transform="translate(0 0)">
    <path id="Path_290" data-name="Path 290" d="M1980.769,1116.958a7.748,7.748,0,0,0-4.452-4.425,13.026,13.026,0,0,0-4.354-.8c-2.474-.112-3.215-.137-9.477-.137s-7,.025-9.478.137a13.032,13.032,0,0,0-4.355.8,7.748,7.748,0,0,0-4.451,4.425,12.862,12.862,0,0,0-.807,4.329c-.113,2.459-.137,3.2-.137,9.423s.024,6.963.137,9.422a12.875,12.875,0,0,0,.807,4.33,7.751,7.751,0,0,0,4.451,4.425,13.024,13.024,0,0,0,4.355.8c2.473.112,3.214.136,9.478.136s7-.025,9.477-.136a13.018,13.018,0,0,0,4.354-.8,7.751,7.751,0,0,0,4.452-4.425,12.871,12.871,0,0,0,.807-4.33c.113-2.459.137-3.2.137-9.422s-.024-6.964-.137-9.423A12.858,12.858,0,0,0,1980.769,1116.958Zm-18.283,25.726a11.974,11.974,0,1,1,12.043-11.974A12.009,12.009,0,0,1,1962.486,1142.684ZM1975,1121.061a2.8,2.8,0,1,1,2.814-2.8A2.806,2.806,0,0,1,1975,1121.061Z" transform="translate(-1943.258 -1111.593)" fill="#231f20"/>
    <path id="Path_291" data-name="Path 291" d="M1967.822,1128.243a7.773,7.773,0,1,0,7.817,7.773A7.8,7.8,0,0,0,1967.822,1128.243Z" transform="translate(-1948.594 -1116.899)" fill="#231f20"/>
  </g>
</svg>
