<svg xmlns="http://www.w3.org/2000/svg" width="38.455" height="31.253" viewBox="0 0 38.455 31.253">
  <path id="icono_tw_web" d="M680.136-23.449c14.512,0,22.448-12.023,22.448-22.448,0-.342-.007-.682-.023-1.02A16.02,16.02,0,0,0,706.5-51a15.8,15.8,0,0,1-4.531,1.243,7.919,7.919,0,0,0,3.469-4.365,15.8,15.8,0,0,1-5.008,1.915,7.885,7.885,0,0,0-5.76-2.493,7.891,7.891,0,0,0-7.89,7.889,7.88,7.88,0,0,0,.2,1.8,22.4,22.4,0,0,1-16.262-8.243,7.872,7.872,0,0,0-1.069,3.965,7.881,7.881,0,0,0,3.511,6.566,7.82,7.82,0,0,1-3.573-.987c0,.033,0,.067,0,.1a7.894,7.894,0,0,0,6.33,7.735,7.9,7.9,0,0,1-2.079.277,7.848,7.848,0,0,1-1.485-.143,7.9,7.9,0,0,0,7.37,5.48,15.829,15.829,0,0,1-9.8,3.378,16.145,16.145,0,0,1-1.881-.109,22.336,22.336,0,0,0,12.094,3.544" transform="translate(-668.043 54.702)" fill="#231f20"/>
</svg>
