<svg id="icono_correo_web" xmlns="http://www.w3.org/2000/svg" width="38.455" height="26.161" viewBox="0 0 38.455 26.161">
  <path id="Path_288" data-name="Path 288" d="M59.392,25.662H25.554L42.473,38.321Z" transform="translate(-23.244 -25.662)" fill="#231f20"/>
  <path id="Path_289" data-name="Path 289" d="M24.091,52.31H59.413a1.313,1.313,0,0,0,.19.014,1.4,1.4,0,0,0,1.4-1.4L61,50.9V28.2a2.963,2.963,0,0,0-.038-.338l-.292.215L42.932,41.39a1.645,1.645,0,0,1-2.307,0L28.813,32.531l-6.26-4.7v23a1.342,1.342,0,0,0,.005.242A1.391,1.391,0,0,0,24.091,52.31Z" transform="translate(-22.55 -26.164)" fill="#231f20"/>
</svg>
