<svg xmlns="http://www.w3.org/2000/svg" width="38.455" height="38.457" viewBox="0 0 38.455 38.457">
  <path id="icono_wa_web" d="M840.851-115.84a19.1,19.1,0,0,0-13.593-5.637,19.253,19.253,0,0,0-19.236,19.219,19.169,19.169,0,0,0,2.941,10.23l.456.727-1.942,7.093,7.277-1.909.7.418a19.2,19.2,0,0,0,9.785,2.679h.009a19.251,19.251,0,0,0,19.227-19.222A19.1,19.1,0,0,0,840.851-115.84Zm-2.284,21.846c-.482,1.349-2.791,2.583-3.9,2.748a7.933,7.933,0,0,1-3.641-.229,33.2,33.2,0,0,1-3.294-1.218c-5.8-2.5-9.585-8.339-9.874-8.725s-2.36-3.132-2.36-5.978a6.476,6.476,0,0,1,2.022-4.819,2.126,2.126,0,0,1,1.542-.724c.385,0,.771,0,1.108.02.354.017.831-.136,1.3.991.483,1.158,1.638,4,1.782,4.29a1.069,1.069,0,0,1,.049,1.014,3.958,3.958,0,0,1-.578.963c-.289.339-.608.755-.868,1.013-.29.288-.591.6-.252,1.179a17.388,17.388,0,0,0,3.214,4,15.811,15.811,0,0,0,4.648,2.867c.578.29.916.241,1.252-.144s1.445-1.687,1.831-2.265.769-.483,1.3-.291,3.37,1.591,3.949,1.881.964.434,1.108.675A4.823,4.823,0,0,1,838.567-93.994Z" transform="translate(-808.022 121.477)" fill="#231f20"/>
</svg>
