<svg id="icono_correo_grande_web" xmlns="http://www.w3.org/2000/svg" width="91.53" height="62.268" viewBox="0 0 91.53 62.268">
  <path id="Path_288" data-name="Path 288" d="M106.094,25.662H25.554l40.27,30.129Z" transform="translate(-20.055 -25.662)" fill="#231f20"/>
  <path id="Path_289" data-name="Path 289" d="M26.218,86.1h84.073a3.131,3.131,0,0,0,.452.033A3.331,3.331,0,0,0,114.08,82.8l-.018-.073V28.711a7.042,7.042,0,0,0-.092-.805l-.7.513L71.064,60.1a3.915,3.915,0,0,1-5.491,0L37.457,39.016l-14.9-11.184V82.581a3.2,3.2,0,0,0,.013.577A3.31,3.31,0,0,0,26.218,86.1Z" transform="translate(-22.55 -23.861)" fill="#231f20"/>
</svg>
