<svg xmlns="http://www.w3.org/2000/svg" width="328.158" height="328.119" viewBox="0 0 328.158 328.119">
  <g id="logo_es_vassar_web" transform="translate(1989.908 -1189.277)">
    <path id="Path_447" data-name="Path 447" d="M-1287.53,1636.438v18.4h-6.971v-51.105c1.467,0,2.889-.018,4.309,0,3.765.057,7.558-.136,11.289.254,7.574.792,13.152,6.63,14.1,14.327a16.228,16.228,0,0,1-10.185,16.781c-.507.2-1.01.41-1.636.665l9.556,19.161c-2.539,0-4.78.063-7.013-.056-.408-.022-.9-.719-1.146-1.208-2.543-5.039-5.042-10.1-7.558-15.154C-1284.1,1635.857-1284.149,1635.84-1287.53,1636.438Zm.115-2.994c6.019-.424,11.147-2.155,14.063-7.613a11.764,11.764,0,0,0-1.319-13.675c-3.218-4.036-7.668-5.426-12.743-5.466Z" transform="translate(-463.759 -276.394)" fill="#241F20"/>
    <path id="Path_448" data-name="Path 448" d="M-1375.05,1654.881c-2.29,0-4.388.059-6.478-.054-.378-.021-.9-.693-1.045-1.16-.8-2.647-1.471-5.335-2.279-7.98-.135-.442-.724-1.057-1.112-1.064-4.426-.075-8.855-.048-13.369-.048-.819,3.023-1.668,5.936-2.377,8.883-.272,1.132-.753,1.522-1.915,1.457-1.818-.1-3.645-.027-5.721-.027.346-1.311.625-2.464.956-3.6q6.636-22.791,13.3-45.573c.205-.7.542-1.806.99-1.9a10.747,10.747,0,0,1,3.785.016c.33.051.6.965.766,1.523q5.712,19.343,11.392,38.695c.859,2.919,1.728,5.834,2.582,8.755C-1375.392,1653.423-1375.255,1654.059-1375.05,1654.881Zm-23.489-13.275h12.606l-6.267-21.265-.292.031Z" transform="translate(-387.171 -276.341)" fill="#241F20"/>
    <path id="Path_449" data-name="Path 449" d="M-1686.852,1654.868c-2.24,0-4.342.059-6.434-.053-.382-.02-.917-.682-1.056-1.146-.8-2.65-1.458-5.341-2.26-7.989-.135-.444-.724-1.063-1.112-1.07-4.428-.076-8.859-.048-13.382-.048-.813,3.013-1.649,5.93-2.368,8.875-.269,1.1-.715,1.542-1.9,1.468-1.818-.115-3.647-.03-5.726-.03.171-.711.282-1.272.442-1.82,4.621-15.89,9.27-31.773,13.834-47.68.409-1.428,1.059-1.847,2.426-1.725,1.306.117,2.56-.357,3.142,1.668,4.591,15.958,9.328,31.874,14.013,47.805C-1687.083,1653.64-1687,1654.178-1686.852,1654.868Zm-17.25-35.03-6.191,21.732h12.594Z" transform="translate(-179.271 -276.328)" fill="#241F20"/>
    <path id="Path_450" data-name="Path 450" d="M-1579.554,1607.637l-1.374,1.065c-2.441-.873-4.611-1.825-6.877-2.387a8.711,8.711,0,0,0-3.927.156c-4.283,1.008-6.386,4.976-4.24,8.8,1.764,3.142,4.268,5.886,6.575,8.7,3.085,3.763,6.441,7.312,9.407,11.164a12.377,12.377,0,0,1,2.783,9.332c-.621,4.475-3.615,7.116-7.547,8.753a19.5,19.5,0,0,1-13.2.592c-4.211-1.217-6.77-4.353-8.919-8.115l2.69-1.385a11,11,0,0,0,8.277,6.122c3.075.542,6.1.332,8.74-1.607,2.492-1.831,3.635-4.812,2.357-7.65a36.659,36.659,0,0,0-4.743-7.722c-3.174-3.979-6.846-7.566-9.973-11.58a30.919,30.919,0,0,1-4.18-7.634c-1.038-2.631-.006-5.121,1.872-7.179,5.278-5.783,16.446-5.843,21.744-.127C-1579.938,1607.093-1579.821,1607.281-1579.554,1607.637Z" transform="translate(-255.444 -275.698)" fill="#241F20"/>
    <path id="Path_451" data-name="Path 451" d="M-1481.426,1607.523l-1.39,1.069a50.725,50.725,0,0,0-6.979-2.37,9.971,9.971,0,0,0-4.858.51,5.586,5.586,0,0,0-3.478,7.917,33.287,33.287,0,0,0,4.65,6.815c3.1,3.688,6.5,7.124,9.628,10.785a19.713,19.713,0,0,1,4.548,8.578,9.6,9.6,0,0,1-3.1,9.631c-7.791,7.248-21.5,4.75-26.3-4.9l2.524-1.325c.6.849,1.095,1.705,1.73,2.443a12.4,12.4,0,0,0,14.035,2.858c3.627-1.755,5.34-5.561,3.438-9.173a62.774,62.774,0,0,0-6.6-9.495c-2.51-3.165-5.518-5.945-7.932-9.173a32.917,32.917,0,0,1-4.132-7.662c-.982-2.5,0-4.9,1.742-6.91,3.748-4.316,14.934-7.276,21.288-.931C-1482.226,1606.575-1481.889,1607-1481.426,1607.523Z" transform="translate(-320.912 -275.596)" fill="#241F20"/>
    <path id="Path_452" data-name="Path 452" d="M-1791.691,1603.72c2.275,0,4.369-.084,6.446.069.429.032.994.886,1.157,1.458q4.462,15.564,8.832,31.155c.15.531.3,1.061.586,2.061.328-.982.545-1.558.715-2.148q4.282-14.926,8.553-29.854c.8-2.791.8-2.793,3.746-2.742.381.007.762.052,1.355.1-.567,1.992-1.093,3.891-1.65,5.781q-6.446,21.9-12.908,43.8c-.139.47-.225,1.151-.557,1.333-1.036.569-1.542.015-1.845-1.049-1.485-5.217-3.035-10.416-4.552-15.624q-4.715-16.182-9.414-32.369C-1791.393,1605.115-1791.5,1604.528-1791.691,1603.72Z" transform="translate(-132.189 -276.372)" fill="#241F20"/>
    <path id="Path_453" data-name="Path 453" d="M-1507.63,1207.649c-1.272-.163-2.744.855-3.682-.879-3.464,2.01-7.341,1.644-9.759-.922a7.471,7.471,0,0,1-.584-8.949c2.109-3.061,5.607-3.761,10.266-1.958v-5.665h3.759Zm-3.685-6.672c.011-2.429-1.313-3.744-3.785-3.758a3.656,3.656,0,0,0-3.96,3.718,3.649,3.649,0,0,0,3.9,3.788A3.5,3.5,0,0,0-1511.315,1200.978Z" transform="translate(-311.463 0)" fill="#241F20"/>
    <path id="Path_454" data-name="Path 454" d="M-1044.619,1664.8v3.83h-18.138c-.541-1.96-.395-2.912.6-3.682-1.965-3.572-1.6-7.365.931-9.746a7.459,7.459,0,0,1,8.79-.711c3.145,2.02,3.862,5.233,2.225,10.309Zm-11.737.1c2.484,0,3.784-1.3,3.771-3.773a3.717,3.717,0,0,0-3.781-3.967,3.625,3.625,0,0,0-3.669,3.877C-1060.073,1663.515-1058.759,1664.9-1056.356,1664.9Z" transform="translate(-617.866 -309.507)" fill="#241F20"/>
    <path id="Path_455" data-name="Path 455" d="M-1510.621,2128.574v5.688h-3.741v-18.254c1.128.031,2.452-.624,3.678.707a7.143,7.143,0,0,1,6.37-.981,8.617,8.617,0,0,1,3.566,2.242,7.117,7.117,0,0,1,.282,8.773C-1502.564,2129.674-1505.971,2130.318-1510.621,2128.574Zm-.1-6.142c-.016,2.468,1.293,3.814,3.74,3.846a3.621,3.621,0,0,0,4-3.687c.016-2.344-1.431-3.724-3.907-3.724C-1509.343,2118.867-1510.71,2120.137-1510.725,2122.432Z" transform="translate(-317.136 -617.608)" fill="#241F20"/>
    <path id="Path_456" data-name="Path 456" d="M-1971.457,1667.485c-.16,1.188-.326,2.418-.569,4.212a7.517,7.517,0,0,1-1.2,9.126,7.476,7.476,0,0,1-9.069.58c-3.031-2.169-3.742-5.764-1.913-10.092h-5.7v-3.826Zm-6.707,3.682c-2.456,0-3.789,1.312-3.784,3.723a3.712,3.712,0,0,0,3.741,3.968,3.644,3.644,0,0,0,3.79-3.9A3.434,3.434,0,0,0-1978.164,1671.167Z" transform="translate(0 -318.912)" fill="#241F20"/>
    <path id="Path_457" data-name="Path 457" d="M-1073.173,1784.242l2.56-10.341c-3.437,0-4.635,3.3-2.734,7.341l-2.573,1.63c-2.54-2.354-1.736-8.056.6-10.556a7.105,7.105,0,0,1,9.262-.745,7.321,7.321,0,0,1,2.04,9.51C-1065.7,1784.366-1069.148,1785.62-1073.173,1784.242Zm3.5-2.928a3.159,3.159,0,0,0,3.285-2.684,3.185,3.185,0,0,0-1.594-4Z" transform="translate(-608.485 -387.416)" fill="#241F20"/>
    <path id="Path_458" data-name="Path 458" d="M-1402.384,1224.8c-.011,3.449,3.121,4.583,7.334,2.769.275.431.572.876.848,1.335.254.423.486.859.72,1.277-2.641,2.278-7.606,1.92-10.554-.709-2.434-2.171-2.73-6.352-.658-9.279a7.307,7.307,0,0,1,9.525-1.958c3.288,1.7,4.546,5.217,3.12,9.153Zm7.35-.925a3.01,3.01,0,0,0-2.69-3.31c-1.9-.432-3.077.042-3.8,1.62Z" transform="translate(-389.352 -18.675)" fill="#241F20"/>
    <path id="Path_459" data-name="Path 459" d="M-1628.815,2106.407l10.1,2.444.46-.326a7.391,7.391,0,0,0-1.323-2.279c-1.966-1.562-4.111-1.294-6.338.009-.566-.935-1.094-1.8-1.608-2.649,2.581-2.546,8.131-1.757,10.74.734a7.149,7.149,0,0,1,.407,9.406,7.391,7.391,0,0,1-9.595,1.625A6.866,6.866,0,0,1-1628.815,2106.407Zm2.747,3.457c.387,2.207,1.531,3.265,3.64,3.424,1.351.1,2.592-.179,3.168-1.774Z" transform="translate(-240.384 -608.712)" fill="#241F20"/>
    <path id="Path_460" data-name="Path 460" d="M-1953.563,1552.855l-2.407,10.21.3.431c.816-.49,1.879-.8,2.4-1.5,1.433-1.945,1.2-4.045-.116-6.184l2.6-1.685c2.426,2.749,2.127,7.7-.571,10.685-2.2,2.432-6.333,2.741-9.261.692a7.441,7.441,0,0,1-1.948-9.664A6.922,6.922,0,0,1-1953.563,1552.855Zm-5.047,9.522,1.567-6.555c-1.886.022-2.836.891-3.264,2.8A2.938,2.938,0,0,0-1958.61,1562.377Z" transform="translate(-17.587 -242.047)" fill="#241F20"/>
    <path id="Path_461" data-name="Path 461" d="M-1582.5,2120.345c1.708-.344,3.115-1.146,4.6.716.706.883,2.574.883,3.94,1.156.288.058.687-.439,1.035-.68-.285-.358-.5-.879-.87-1.044-1.057-.469-2.21-.724-3.267-1.193a17.991,17.991,0,0,1-3.789-1.982,3.154,3.154,0,0,1-.052-4.945c2.52-2.019,5.391-1.641,8.225-.782a6.229,6.229,0,0,1,4.768,4.948c-2.112.924-2.979.711-4.338-1.008a5.824,5.824,0,0,0-5.22-1.4,1.211,1.211,0,0,0-.7.774,1.15,1.15,0,0,0,.554.9c.9.422,1.865.69,2.778,1.079a26.573,26.573,0,0,1,4.194,1.932,3.2,3.2,0,0,1,.337,5.163c-2.112,1.846-4.636,1.638-7.091.958C-1579.746,2124.287-1581.7,2123.021-1582.5,2120.345Z" transform="translate(-271.699 -614.618)" fill="#241F20"/>
    <path id="Path_462" data-name="Path 462" d="M-1062.5,1723.648c.117,1.165.225,2.248.346,3.456-2.774.863-3.3,3.037-3.15,5.518.027.454.483.883.741,1.323.4-.317,1-.552,1.172-.966.667-1.576,1.088-3.261,1.819-4.8a7.8,7.8,0,0,1,2.056-2.728,3.247,3.247,0,0,1,4.328.78c2.727,3.289.633,10.568-3.42,11.87a2.009,2.009,0,0,1-.539.006,8.61,8.61,0,0,1-.367-2.124,2.747,2.747,0,0,1,.739-1.711c1.219-1.106,2.09-3.219,1.631-4.62-.121-.369-.468-.875-.764-.914s-.794.382-.935.715c-.519,1.219-.862,2.514-1.392,3.728a14.858,14.858,0,0,1-1.783,3.34,3.326,3.326,0,0,1-5.209-.1C-1069.762,1733.268-1068.245,1724.171-1062.5,1723.648Z" transform="translate(-614.535 -356.366)" fill="#241F20"/>
    <path id="Path_463" data-name="Path 463" d="M-1967.319,1599.606a13.107,13.107,0,0,1,.369,2.37,2.091,2.091,0,0,1-.632,1.433,4.5,4.5,0,0,0-1.7,4.111,4.994,4.994,0,0,0,.716,1.544c.406-.381.989-.688,1.184-1.158.635-1.529,1.061-3.145,1.7-4.671a7.52,7.52,0,0,1,1.511-2.345,3.311,3.311,0,0,1,5.075.512c2.343,3.162.854,10.129-2.6,12.006a14.013,14.013,0,0,1-2.114.729,28.114,28.114,0,0,1-.292-3.018c0-.3.392-.709.706-.894a5.214,5.214,0,0,0,2.253-5.576c-.12-.368-.484-.865-.788-.906s-.811.363-.961.694c-.431.952-.67,1.99-1.087,2.95a22.439,22.439,0,0,1-2.022,4.143,3.227,3.227,0,0,1-5.07.118C-1973.976,1608.408-1971.845,1600.26-1967.319,1599.606Z" transform="translate(-11.676 -273.644)" fill="#241F20"/>
    <path id="Path_464" data-name="Path 464" d="M-1914.9,1463.195c.024,4.283-3.383,7.978-7.424,8.05a6.924,6.924,0,0,1-7.056-7.023c-.023-4.3,3.38-8,7.4-8.045A6.971,6.971,0,0,1-1914.9,1463.195Zm-7.13,4.289a3.859,3.859,0,0,0,3.693-3.911,3.878,3.878,0,0,0-3.925-3.7,3.923,3.923,0,0,0-3.678,3.96A3.733,3.733,0,0,0-1922.031,1467.484Z" transform="translate(-40.364 -177.992)" fill="#241F20"/>
    <path id="Path_465" data-name="Path 465" d="M-1098.678,1871.81c-.116,4.283-3.686,7.936-7.656,7.836a6.989,6.989,0,0,1-6.8-7.447c.137-4.193,3.7-7.787,7.624-7.683A7.044,7.044,0,0,1-1098.678,1871.81Zm-7.129,4.094a3.926,3.926,0,0,0,3.709-3.937,3.96,3.96,0,0,0-3.943-3.723,3.993,3.993,0,0,0-3.7,3.971A3.85,3.85,0,0,0-1105.808,1875.9Z" transform="translate(-584.705 -450.308)" fill="#241F20"/>
    <path id="Path_466" data-name="Path 466" d="M-1304.783,1252.937c4.229.037,7.948,3.591,7.928,7.577a7.069,7.069,0,0,1-7.173,6.967,7.936,7.936,0,0,1-7.9-7.59A7,7,0,0,1-1304.783,1252.937Zm.442,11.028a3.819,3.819,0,0,0,3.776-3.812,3.971,3.971,0,0,0-3.893-3.773,3.864,3.864,0,0,0-3.751,3.871A3.77,3.77,0,0,0-1304.341,1263.965Z" transform="translate(-452.134 -42.454)" fill="#241F20"/>
    <path id="Path_467" data-name="Path 467" d="M-1438.106,1212.74l-3.458.566a4.469,4.469,0,0,0-4.912-2.586c-.416.048-.79.451-1.183.69.282.36.492.855.86,1.051.726.384,1.548.582,2.316.893,1.226.5,2.478.953,3.649,1.56a3.425,3.425,0,0,1,2.12,3.614,3.619,3.619,0,0,1-3.017,3.145,10.448,10.448,0,0,1-8.437-1.359,5.064,5.064,0,0,1-2.5-4.212,15.62,15.62,0,0,1,2.556-.309,1.7,1.7,0,0,1,1.178.765,5.252,5.252,0,0,0,5.566,2.316c.369-.119.882-.484.912-.779a1.3,1.3,0,0,0-.7-.978c-1.212-.53-2.506-.872-3.71-1.417a15.845,15.845,0,0,1-3.449-1.909,3.173,3.173,0,0,1-.139-4.723c2-1.894,4.472-1.713,6.888-1.121A6.936,6.936,0,0,1-1438.106,1212.74Z" transform="translate(-358.277 -12.178)" fill="#241F20"/>
    <path id="Path_468" data-name="Path 468" d="M-1717.372,2081.557c-4.3-.019-7.952-3.483-7.926-7.517a7,7,0,0,1,7.173-6.923,7.785,7.785,0,0,1,7.885,7.54A6.83,6.83,0,0,1-1717.372,2081.557Zm3.406-7.355a3.874,3.874,0,0,0-3.939-3.685,3.978,3.978,0,0,0-3.7,3.97,4,4,0,0,0,4,3.67A3.791,3.791,0,0,0-1713.966,2074.2Z" transform="translate(-176.465 -585.422)" fill="#241F20"/>
    <path id="Path_469" data-name="Path 469" d="M-1097.437,1826.726l1.34-3.567c2.071.771,4.028,1.507,5.99,2.227,2.578.946,4.21.332,5-1.862.807-2.249-.007-3.806-2.488-4.748-1.957-.743-3.918-1.478-6.016-2.269l1.3-3.546,12.66,4.709c-.833,1.167-.363,2.912-2.291,3.445a7.485,7.485,0,0,1-1.207,6.141,5.608,5.608,0,0,1-6.417,2.305C-1092.145,1828.745-1094.661,1827.736-1097.437,1826.726Z" transform="translate(-595.179 -415.928)" fill="#241F20"/>
    <path id="Path_470" data-name="Path 470" d="M-1358.8,1226.908l3.781,2.048a24.53,24.53,0,0,1,4.888,1.166,5.525,5.525,0,0,1,3.1,6.935c-.784,2.581-1.865,5.072-2.88,7.777l-3.562-1.333c.839-2.206,1.636-4.262,2.4-6.329.84-2.268.15-3.855-1.991-4.665-2.091-.791-3.756-.016-4.622,2.183-.808,2.052-1.587,4.117-2.424,6.291l-3.517-1.336c.792-2.114,1.552-4.161,2.326-6.2C-1360.521,1231.379-1359.725,1229.323-1358.8,1226.908Z" transform="translate(-417.659 -25.096)" fill="#241F20"/>
    <path id="Path_471" data-name="Path 471" d="M-1665.637,2086.3l3.552,1.316-4.629,12.635c-1.234-.726-2.9-.4-3.36-1.859a27.121,27.121,0,0,1-5.2-1,5.639,5.639,0,0,1-3.329-7.239c.778-2.472,1.75-4.884,2.719-7.554l3.591,1.241c-.8,2.179-1.565,4.232-2.306,6.293-.84,2.337-.2,3.875,1.922,4.688,2.149.823,3.844.032,4.717-2.248C-1667.189,2090.565-1666.463,2088.539-1665.637,2086.3Z" transform="translate(-207.396 -595.747)" fill="#241F20"/>
    <path id="Path_472" data-name="Path 472" d="M-1952.427,1511.487a23.458,23.458,0,0,1,.459-4.271c1.129-3.829,4.462-5.455,8.232-4.15,2.289.792,4.552,1.655,6.979,2.542l-1.252,3.547c-2.225-.791-4.331-1.57-6.458-2.289-2.62-.886-4.563.395-4.81,3.126a3.128,3.128,0,0,0,2.259,3.446c2.113.8,4.247,1.554,6.545,2.39l-1.24,3.58-12.687-4.574C-1953.615,1513.594-1954.1,1511.786-1952.427,1511.487Z" transform="translate(-23.682 -208.966)" fill="#241F20"/>
    <path id="Path_473" data-name="Path 473" d="M-1967.657,1793.443c-1.835.552-3.49,1-5.107,1.554-1.054.361-1.6.19-1.523-1.192,2.85-.871,5.745-1.76,8.643-2.641s5.814-1.758,8.747-2.644c.906,1.207.349,1.729-1.281,1.851,2.506,1.535,3.91,3.4,3.988,5.839a9.611,9.611,0,0,1-.941,4.587c-1.544,2.951-5.68,4.107-8.865,2.791C-1967.6,1802.1-1968.9,1798.63-1967.657,1793.443Zm6.21,9.129c3.386-.014,5.932-2.336,5.932-5.412,0-3.152-2.18-5.987-4.784-5.7-4.057.447-6.574,1.447-6.572,5.414A5.428,5.428,0,0,0-1961.447,1802.573Z" transform="translate(-10.413 -399.629)" fill="#241F20"/>
    <path id="Path_474" data-name="Path 474" d="M-1061.2,1541.543l-17.561,5.113c-1.156-1.266-.207-1.613,1.039-1.932-2.447-1.523-3.793-3.568-3.8-6.108a8.865,8.865,0,0,1,1.249-4.5c1.833-2.945,6.063-3.831,9.143-2.221,3.428,1.792,4.564,5.483,2.977,10.005l6.39-1.808Zm-18.9-3.5c-.03,3.122,2.153,5.814,4.726,5.828,3.885.021,6.676-2.264,6.663-5.455a5.548,5.548,0,0,0-5.44-5.745C-1077.535,1532.646-1080.072,1534.937-1080.1,1538.042Z" transform="translate(-605.79 -227.958)" fill="#241F20"/>
    <path id="Path_475" data-name="Path 475" d="M-1634.579,1209.057c-.625-2.267-1.181-4.283-1.77-6.42l1.476-.5,5.015,17.636-.389.462-1.868-1.069a6.7,6.7,0,0,1-5.6,3.189,9.361,9.361,0,0,1-4.681-1.2c-2.961-1.843-3.842-6.1-2.243-9.17C-1642.894,1208.638-1639.078,1207.46-1634.579,1209.057Zm-9.265,5.967c-.013,3.36,2.309,5.975,5.355,6.031,3.027.056,6.073-2.246,5.766-4.762-.508-4.165-1.25-6.543-5.35-6.624A5.413,5.413,0,0,0-1643.843,1215.025Z" transform="translate(-229.733 -8.579)" fill="#241F20"/>
    <path id="Path_476" data-name="Path 476" d="M-1391.168,2099.017l.632,1.5a7.032,7.032,0,0,1,6.12-3.76,8.705,8.705,0,0,1,4.355,1.148,7.178,7.178,0,0,1,2.411,9.1c-1.7,3.438-5.4,4.647-10.033,3.147.617,2.15,1.2,4.185,1.832,6.379l-1.461.508c-1.711-5.739-3.4-11.336-5.009-16.954-.1-.34.4-.85.617-1.281Zm6.868,10.516a5.58,5.58,0,0,0,5.824-5.364,5.643,5.643,0,0,0-5.515-6.035c-2.984.023-5.684,2.233-5.742,4.7C-1389.825,2106.709-1387.546,2109.519-1384.3,2109.533Z" transform="translate(-398.517 -605.189)" fill="#241F20"/>
    <path id="Path_477" data-name="Path 477" d="M-1064.517,1583.7a4.463,4.463,0,0,0-4.08,3.8c-.6,2.719.651,5,3.921,7.042l-.481,1.11a7.313,7.313,0,0,1-4.842-8.451c.655-3.522,3.88-5.822,7.745-5.522a6.976,6.976,0,0,1,6.468,7.142c-.016,3.552-2.632,6.258-6.642,6.71Zm3.1,10a5.094,5.094,0,0,0,4.018-6.386c-.477-2.249-3.209-4.722-5.764-3.755C-1062.586,1586.888-1062.008,1590.244-1061.412,1593.7Z" transform="translate(-613.389 -261.674)" fill="#241F20"/>
    <path id="Path_478" data-name="Path 478" d="M-1438.583,2116.161l11.928-2.175a4.628,4.628,0,0,0-4.183-4.042c-2.906-.418-4.99.793-6.623,3.853-1.444-.331-1.48-.4-.846-1.62,1.531-2.952,5.7-4.49,9.068-3.349a7.186,7.186,0,0,1,4.417,8.189,6.876,6.876,0,0,1-7.282,5.686C-1435.535,2122.623-1438.092,2120.115-1438.583,2116.161Zm1.876,1a5,5,0,0,0,6.052,4.059,4.9,4.9,0,0,0,4.116-5.879Z" transform="translate(-367.595 -612.986)" fill="#241F20"/>
    <path id="Path_479" data-name="Path 479" d="M-1775.109,1293.438l-9.775,7.145a4.28,4.28,0,0,0,4.988,2c2.943-.67,4.4-2.656,4.769-6.549.99-.4,1.524-.2,1.508,1.013-.049,3.7-3.924,7.286-7.782,7.172-3.688-.109-7.039-3.951-6.822-7.822a7.2,7.2,0,0,1,7.782-6.519A7.155,7.155,0,0,1-1775.109,1293.438Zm-10.658,6.132,8.479-6.187c-1.969-2.373-4.627-2.765-7.011-1.141C-1786.745,1293.907-1787.374,1296.74-1785.767,1299.571Z" transform="translate(-134.495 -67.068)" fill="#241F20"/>
    <path id="Path_480" data-name="Path 480" d="M-1144.128,1401.875c.456,1.156-.05,1.515-1.036,1.469-3.166-.146-5.236-1.905-6.543-4.632a6.237,6.237,0,0,1,1.035-7.244,7.213,7.213,0,0,1,9.154-1.7c3.077,1.924,4.409,5.724,2.878,8.773a24.8,24.8,0,0,1-2.745,3.595l-7.382-9.958a4.329,4.329,0,0,0-2.031,4.967C-1150.115,1400.044-1147.863,1401.667-1144.128,1401.875Zm2.62-2.129a5.149,5.149,0,0,0,.7-7.541,4.8,4.8,0,0,0-6.881-.816Z" transform="translate(-558.508 -133.061)" fill="#241F20"/>
    <path id="Path_481" data-name="Path 481" d="M-1580.788,1218.592a7.514,7.514,0,0,1-9.128,4.523c-3.423-.938-5.452-4.526-4.768-8.428a7.007,7.007,0,0,1,7.414-5.581,6.639,6.639,0,0,1,6.26,6.66l-11.894,2.025a4.769,4.769,0,0,0,4.189,4.135,5.905,5.905,0,0,0,6.069-2.863C-1582.16,1218.186-1581.77,1217.625-1580.788,1218.592Zm-12.364-2.123,10.448-1.765c-.989-3.123-3.231-4.577-5.948-4.132A5.286,5.286,0,0,0-1593.151,1216.469Z" transform="translate(-263.482 -13.214)" fill="#241F20"/>
    <path id="Path_482" data-name="Path 482" d="M-1959.874,1743.822l.513-1.208a7.44,7.44,0,0,1,4.834,8.92c-.8,3.433-4.3,5.577-8.252,5.05a6.944,6.944,0,0,1-5.844-7.17,6.621,6.621,0,0,1,6.546-6.533l2.222,11.8a4.641,4.641,0,0,0,4.036-4.1C-1955.421,1747.691-1956.65,1745.567-1959.874,1743.822Zm-3.23.744c-3.3,1.177-4.682,3.618-3.92,6.557a4.993,4.993,0,0,0,5.828,3.769Z" transform="translate(-14.193 -369.014)" fill="#241F20"/>
    <path id="Path_483" data-name="Path 483" d="M-1880.9,1935.013l7.309,9.643a4.385,4.385,0,0,0,1.887-4.775,5.789,5.789,0,0,0-3.988-4.676c-.558-.2-1.22-.122-1.781-.322a9.346,9.346,0,0,1-1.617-1.055c4.071-1.246,7.737,1.872,8.715,5.23,1.012,3.476-.936,7-4.646,8.427a6.894,6.894,0,0,1-8.75-3.642C-1885.35,1940.616-1884.252,1937.065-1880.9,1935.013Zm-.131,2.027c-2.471,2.336-2.613,5.342-.524,7.662a4.8,4.8,0,0,0,6.788.616Z" transform="translate(-70.308 -496.346)" fill="#241F20"/>
    <path id="Path_484" data-name="Path 484" d="M-1246.537,2035.845l9.535-7.152a4.15,4.15,0,0,0-4.782-2.03c-3.083.7-4.736,2.934-4.882,6.651-.72.258-1.325.5-1.417-.722-.243-3.2,2.672-6.729,6.206-7.412,3.406-.658,6.8,1.584,7.978,5.271a6.887,6.887,0,0,1-4.085,8.436A6.594,6.594,0,0,1-1246.537,2035.845Zm10.458-6.174-8.366,6.276a4.942,4.942,0,0,0,7.032,1.043C-1234.988,2035.28-1234.407,2032.466-1236.078,2029.671Z" transform="translate(-494.705 -557.378)" fill="#241F20"/>
    <path id="Path_485" data-name="Path 485" d="M-1920.669,1854.429l-.576,2.006a7.531,7.531,0,0,1,3.9,4.773c.641,2.178.107,3.8-1.566,4.762-1.643.943-3.16.687-4.728-1.009-1.086-1.175-1.968-2.535-3-3.763-.7-.83-1.409-1.915-2.741-1.2s-1.237,2.01-.948,3.226a4.642,4.642,0,0,0,5.473,3.806l.4,1.34a2.256,2.256,0,0,1-.523.231,6.575,6.575,0,0,1-7-7.028,3.872,3.872,0,0,1,2.2-3.3c2.833-1.371,5.676-2.72,8.515-4.078Zm-6.3,4.383c1.389,1.679,2.731,3.4,4.192,5.023.8.882,1.806,1.487,3.079.729,1.333-.794,1.224-2.007.881-3.208C-1919.983,1857.264-1923.119,1856.313-1926.965,1858.812Z" transform="translate(-38.612 -443.423)" fill="#241F20"/>
    <path id="Path_486" data-name="Path 486" d="M-1312.874,2078.3c1.34,4.429-4.1,8.144-7.815,7.1a3.828,3.828,0,0,1-2.15-1.66c-1.55-2.921-2.905-5.946-4.333-8.933l.265-.5,2.033.6a7.366,7.366,0,0,1,5.586-4.083,3.479,3.479,0,0,1,3.945,1.754,3.246,3.246,0,0,1-.583,4.25,36.12,36.12,0,0,1-3.187,2.646,7.986,7.986,0,0,0-1.637,1.388c-.39.565-.846,1.513-.62,1.971a2.783,2.783,0,0,0,1.9,1.28,4.919,4.919,0,0,0,5.217-4.629C-1314.209,2078.378-1314.209,2078.378-1312.874,2078.3Zm-9.685,2.467c.807-.75,1.469-1.414,2.184-2.017.971-.82,2.029-1.543,2.961-2.4s1.413-1.89.614-3.1c-.781-1.186-1.9-1.163-3.1-.794-3.753,1.154-4.888,3.72-3.2,7.251C-1322.936,2080.048-1322.752,2080.389-1322.559,2080.768Z" transform="translate(-441.971 -587.839)" fill="#241F20"/>
    <path id="Path_487" data-name="Path 487" d="M-1706.692,1250.726l-1.3.29a1.938,1.938,0,0,1-.249-.5c-.473-4.129,4.231-8.029,8.121-6.631a7.274,7.274,0,0,1,2.206,1.877,3.353,3.353,0,0,1,.535,1.023c1.167,2.561,2.328,5.125,3.758,8.276l-2.551-.534a7.381,7.381,0,0,1-4.62,3.692c-2.241.657-3.956.115-4.9-1.6-.937-1.694-.6-3.286,1.191-4.829,1.3-1.116,2.748-2.053,4.082-3.129.739-.6,1.613-1.441.847-2.354a3.5,3.5,0,0,0-2.493-1.137C-1704.99,1245.316-1706.76,1247.49-1706.692,1250.726Zm8.346-2.116c-1.074.867-2.147,1.713-3.2,2.588a10.821,10.821,0,0,0-2.418,2.206,2.844,2.844,0,0,0-.163,2.5,2.873,2.873,0,0,0,2.323,1.019c3.978-.44,5.685-3.67,3.981-7.269C-1698.006,1249.259-1698.212,1248.874-1698.346,1248.61Z" transform="translate(-187.82 -36.223)" fill="#241F20"/>
    <path id="Path_488" data-name="Path 488" d="M-1103.773,1482.816c.216-.652.433-1.3.684-2.056a7.166,7.166,0,0,1-3.931-4.807,3.784,3.784,0,0,1,1.531-4.667c1.672-1.008,3.131-.789,4.722.943,1.157,1.26,2.108,2.707,3.2,4.03.636.771,1.35,1.615,2.522,1.081,1.23-.562,1.324-1.69,1.144-2.843a4.979,4.979,0,0,0-4.675-4.381c-.494-.041-.947-.574-1.726-1.079,2.719-.8,4.673-.176,6.142,1.632,1.713,2.107,2.326,5.1,1.242,6.8a4.761,4.761,0,0,1-1.821,1.615c-2.775,1.375-5.606,2.639-8.416,3.944Zm6.322-4.353c-.967-1.24-1.921-2.494-2.911-3.719a14.737,14.737,0,0,0-1.561-1.7,2.173,2.173,0,0,0-2.871-.3,2.279,2.279,0,0,0-.827,2.781C-1104.465,1479.889-1101.251,1481.021-1097.451,1478.463Z" transform="translate(-588.628 -186.34)" fill="#241F20"/>
    <path id="Path_489" data-name="Path 489" d="M-1878.241,1361.38l2.5-.905,8.323,21.394-2.466.98Z" transform="translate(-74.47 -114.17)" fill="#241F20"/>
    <path id="Path_490" data-name="Path 490" d="M-1884.175,1403.641l-2.4,1.117-9.61-20.933,2.433-1.084Z" transform="translate(-62.503 -129.019)" fill="#241F20"/>
    <path id="Path_491" data-name="Path 491" d="M-1143.491,1959.441l-2.519.84-8.078-21.505,2.5-.9Z" transform="translate(-557.399 -499.23)" fill="#241F20"/>
    <path id="Path_492" data-name="Path 492" d="M-1216.815,1309.03l-21.547,7.945-.888-2.5,21.571-7.968Z" transform="translate(-500.605 -78.179)" fill="#241F20"/>
    <path id="Path_493" data-name="Path 493" d="M-1239.155,1288.01l1,2.465-21.066,9.215-1.056-2.43Z" transform="translate(-486.581 -65.844)" fill="#241F20"/>
    <path id="Path_494" data-name="Path 494" d="M-1799.247,2026.29l.89,2.5-21.472,8.211-.879-2.513Z" transform="translate(-112.838 -558.195)" fill="#241F20"/>
    <path id="Path_495" data-name="Path 495" d="M-1777.531,2040.908l1.073,2.43-21,9.481-1.053-2.44Z" transform="translate(-127.642 -567.943)" fill="#241F20"/>
    <path id="Path_496" data-name="Path 496" d="M-1127.667,1937.7l-2.443,1.039-9.338-21.017,2.427-1.072Z" transform="translate(-567.162 -485.074)" fill="#241F20"/>
    <path id="Path_497" data-name="Path 497" d="M-1831.3,1316.424l7.441-6.661,1.057.986-7.473,6.794,5.1,5.738-1.212,1.118-11.851-13.16,9.3-8.39,1.025,1.118-8.048,7.275Z" transform="translate(-101.145 -75.741)" fill="#241F20"/>
    <path id="Path_498" data-name="Path 498" d="M-1179.968,1346.894l-5.858,5.27-.927-1.4,13.056-11.865c2.659,2.926,5.245,5.723,7.748,8.593.28.321.087,1.052.114,1.593l-.554.106-7.316-8.008-5.154,4.668,6.841,7.6-1.181.844Z" transform="translate(-535.615 -99.783)" fill="#241F20"/>
    <path id="Path_499" data-name="Path 499" d="M-1187.566,2003.327l-4.7-5.149c-2.238,2.05-4.451,4.026-6.6,6.07-.823.783-1.278.592-1.752-.4l7.309-6.757-5.184-5.725,1.241-1.086,11.967,13.025-9.062,8.344c-1.25-.89-1.268-.909-.362-1.749C-1192.365,2007.722-1190,2005.567-1187.566,2003.327Z" transform="translate(-526.368 -534.177)" fill="#241F20"/>
    <path id="Path_500" data-name="Path 500" d="M-1855.192,1987.414l5.767-5.328,1.033,1.293-12.968,12.087c-2.727-2.921-5.421-5.769-8.043-8.681-.22-.244.043-.923.082-1.4l.522-.1,7.392,7.886,5.12-4.7-6.85-7.434.944-1.1Z" transform="translate(-80.306 -527.278)" fill="#241F20"/>
    <path id="Path_501" data-name="Path 501" d="M-1465.608,1205.379c-.346,4.548-.673,8.837-1.016,13.346l-3.792-.285,1.038-13.424Z" transform="translate(-346.443 -10.496)" fill="#241F20"/>
    <path id="Path_502" data-name="Path 502" d="M-1973.791,1650.273v-3.8l13.408.792c-.061,1.232-.118,2.4-.186,3.786Z" transform="translate(-10.748 -304.896)" fill="#241F20"/>
    <path id="Path_503" data-name="Path 503" d="M-1063.919,1709.771c.127-1.333.234-2.468.357-3.764l13.332.93c-.076,1.289-.144,2.463-.222,3.793Z" transform="translate(-617.532 -344.602)" fill="#241F20"/>
    <path id="Path_504" data-name="Path 504" d="M-1534.243,2115.347l3.766.3c-.278,4.412-.554,8.783-.842,13.35l-3.8-.206C-1534.82,2124.237-1534.538,2119.9-1534.243,2115.347Z" transform="translate(-303.296 -617.586)" fill="#241F20"/>
    <path id="Path_505" data-name="Path 505" d="M-1129.709,1432.927l-.79-1.35,11.6-7.117c.105.817.18,1.4.252,1.951l3.558,3.8-1.837.648c-1.785-3.458-3.134-3.832-6.356-1.86C-1125.358,1430.27-1127.435,1431.537-1129.709,1432.927Z" transform="translate(-573.13 -156.841)" fill="#241F20"/>
    <path id="Path_506" data-name="Path 506" d="M-1256.848,2058.712h-2.3a4.179,4.179,0,0,1-3.458,3.067c-.193.03-.5-.673-.8-1.111.475-.248.763-.4,1.052-.549,2.164-1.121,2.69-2.8,1.428-4.943-1.426-2.425-2.946-4.795-4.467-7.257l1.277-.9Z" transform="translate(-483.171 -572.021)" fill="#241F20"/>
    <path id="Path_507" data-name="Path 507" d="M-1743.911,1280.107l-1.319.848-7.109-11.754h1.892l3.639-3.478c.975,1.064,1.149,1.552.082,2.1-2.425,1.25-2.849,2.793-1.48,5.141S-1745.419,1277.6-1743.911,1280.107Z" transform="translate(-158.432 -50.981)" fill="#241F20"/>
    <path id="Path_508" data-name="Path 508" d="M-1907.932,1917.895c1.843,3.5,3.2,3.852,6.408,1.827,2.055-1.3,4.115-2.585,6.3-3.961l.858,1.262c-.579.387-1.026.7-1.489.993-3.227,2.03-6.458,4.055-10.094,6.337V1922.6l-3.77-3.973Z" transform="translate(-53.48 -484.484)" fill="#241F20"/>
    <path id="Path_509" data-name="Path 509" d="M-1672.236,2132.519c-1.267,2.08-2.59,2.535-4.362,1.452-1.487-.91-2.685-2.435-4.765-1.8-.231.071-.582-.246-.877-.383.893-2,2.436-2.526,4.292-1.5,1.436.8,2.4,2.77,4.571,1.758C-1673.151,2131.948-1672.7,2132.316-1672.236,2132.519Z" transform="translate(-205.18 -627.211)" fill="#241F20"/>
    <path id="Path_510" data-name="Path 510" d="M-1960.72,1509.391c-1.966-.9-2.517-2.008-1.9-3.623a7.073,7.073,0,0,1,.989-1.7c.715-.947,1.7-1.735.991-3.178-.158-.319.237-.911.378-1.379,1.814.585,2.524,1.874,1.892,3.536a7.806,7.806,0,0,1-1.222,1.939c-.645.825-1.451,1.506-.767,2.762C-1960.174,1508.095-1960.566,1508.756-1960.72,1509.391Z" transform="translate(-18.037 -206.892)" fill="#241F20"/>
    <path id="Path_511" data-name="Path 511" d="M-1047.4,1837.113c2.085,1.177,2.5,2.506,1.489,4.336a8.668,8.668,0,0,1-.867,1.214c-.687.849-1.557,1.584-.885,2.908.165.326-.211.927-.337,1.4a2.41,2.41,0,0,1-2-3.237,6.434,6.434,0,0,1,.956-1.727c.724-1.021,2.092-1.771,1.118-3.407C-1048.084,1838.336-1047.628,1837.712-1047.4,1837.113Z" transform="translate(-626.719 -432.035)" fill="#241F20"/>
    <path id="Path_512" data-name="Path 512" d="M-1902.823,1893.2c-.145.483-.139,1.224-.457,1.41-3.57,2.088-7.19,4.091-10.865,6.156l-.839-1.317,11.545-6.517Z" transform="translate(-49.966 -469.257)" fill="#241F20"/>
    <path id="Path_513" data-name="Path 513" d="M-1105.121,1449.6l.717,1.4-11.682,6.415-.819-1.341Z" transform="translate(-582.197 -173.604)" fill="#241F20"/>
    <path id="Path_514" data-name="Path 514" d="M-1282.228,2073.277l-6.362-11.428,1.281-.914c2.1,3.768,4.167,7.413,6.141,11.106.16.3-.308.933-.483,1.411Z" transform="translate(-467.701 -581.299)" fill="#241F20"/>
    <path id="Path_515" data-name="Path 515" d="M-1727.006,1261.111l1.376-.749,6.326,11.674-1.317.878Z" transform="translate(-175.326 -47.406)" fill="#241F20"/>
    <path id="Path_516" data-name="Path 516" d="M-1012.986,1709.425c-.132,1.429-.24,2.613-.362,3.931l-3.739-.3c.1-1.3.2-2.513.3-3.836Z" transform="translate(-648.763 -346.744)" fill="#241F20"/>
    <path id="Path_517" data-name="Path 517" d="M-1536.565,2165.9l.338-3.8,3.794.3c-.055,1.267-.106,2.4-.165,3.76Z" transform="translate(-302.329 -648.764)" fill="#241F20"/>
    <path id="Path_518" data-name="Path 518" d="M-1926.606,1916.306l1.714-.962.936,1.752-1.606.989Z" transform="translate(-42.215 -484.206)" fill="#241F20"/>
    <path id="Path_519" data-name="Path 519" d="M-1072.808,1444.54l-1.7.981-.99-1.765,1.619-.931Z" transform="translate(-609.809 -169.088)" fill="#241F20"/>
    <path id="Path_520" data-name="Path 520" d="M-1266.337,2103.234l1.758-.988.967,1.632-1.724,1.045Z" transform="translate(-482.541 -608.849)" fill="#241F20"/>
    <path id="Path_521" data-name="Path 521" d="M-1732.881,1251.185l-.957-1.656,1.743-1.014.968,1.66Z" transform="translate(-170.77 -39.505)" fill="#241F20"/>
  </g>
</svg>
