<svg xmlns="http://www.w3.org/2000/svg" width="61.03" height="382.634" viewBox="0 0 61.03 382.634">
  <g id="logo_feria_vassar_menu_desktop" transform="translate(-1637.307 -1195.976)">
    <g id="Group_160" data-name="Group 160" transform="translate(1637.993 1195.976)">
      <path id="Path_319" data-name="Path 319" d="M1640.389,1403.787h2.065v15.343h9.932v-14.24h1.994v14.24h10.929v2.278h-24.919Z" transform="translate(-1639.321 -1285.507)" fill="#fff"/>
      <path id="Path_320" data-name="Path 320" d="M1650.083,1375.107c0-5.66,4.094-9.719,10.075-9.719h.783V1382.8c4.272,0,7.226-3.454,7.226-7.725a7.949,7.949,0,0,0-4.485-7.512l1.1-1.709c3.417,1.816,5.233,4.949,5.233,9.221,0,5.873-3.915,9.9-9.789,9.9C1654.284,1384.968,1650.083,1380.91,1650.083,1375.107Zm1.852,0a7.445,7.445,0,0,0,7.226,7.654V1367.6A7.316,7.316,0,0,0,1651.935,1375.107Z" transform="translate(-1643.498 -1268.964)" fill="#fff"/>
      <path id="Path_321" data-name="Path 321" d="M1650.779,1348.45h2.03v-.071a5.783,5.783,0,0,1-2.35-4.734,10.286,10.286,0,0,1,.428-2.706l2.029.5a11.073,11.073,0,0,0-.356,2.385c0,2.74,1.922,4.557,5.2,4.557h11.89v2.136h-18.867Z" transform="translate(-1643.659 -1258.43)" fill="#fff"/>
      <path id="Path_322" data-name="Path 322" d="M1640.326,1330.745h2.705v2.848h-2.705Zm6.088.356h18.867v2.136h-18.867Z" transform="translate(-1639.294 -1254.039)" fill="#fff"/>
      <path id="Path_323" data-name="Path 323" d="M1658.663,1303.044c-.676-4.272-1.459-5.732-3.133-5.732-2.136,0-3.524,2.1-3.524,5.269,0,3.6,1.815,5.981,4.948,6.515l-.463,2.1a7.045,7.045,0,0,1-4.664-2.812,9.364,9.364,0,0,1-1.744-5.8c0-4.557,2.314-7.547,5.838-7.547h13.563v2.1h-2.741v.035c1.993,1.246,3.275,4.058,3.275,7.3,0,4.307-2.029,6.906-5.446,6.906C1661.261,1311.374,1659.659,1309.132,1658.663,1303.044Zm-.391-5.874v.071c1.032.606,1.6,2.065,2.136,5.376.818,4.806,1.993,6.586,4.165,6.586q3.524,0,3.524-5.127c0-3.809-2.278-6.906-5.054-6.906Z" transform="translate(-1643.498 -1238.653)" fill="#fff"/>
      <path id="Path_324" data-name="Path 324" d="M1645.1,1247.754a9.347,9.347,0,0,1,3.347-7.547v-.071h-9.932V1238H1664.5v2.065h-2.812v.071a9.341,9.341,0,0,1,3.345,7.44,9.627,9.627,0,0,1-9.967,10.04A9.73,9.73,0,0,1,1645.1,1247.754Zm7.9-7.618c-3.2,0-5.981,3.31-5.981,7.511a7.629,7.629,0,0,0,8.046,7.832c4.948,0,8.045-3.311,8.045-8.01.107-3.952-2.848-7.44-5.98-7.333Z" transform="translate(-1638.513 -1214.081)" fill="#fff"/>
      <path id="Path_325" data-name="Path 325" d="M1650.083,1205.694c0-5.66,4.094-9.719,10.075-9.719h.783v17.408c4.272,0,7.226-3.454,7.226-7.725a7.949,7.949,0,0,0-4.485-7.511l1.1-1.709c3.417,1.816,5.233,4.949,5.233,9.221,0,5.874-3.915,9.9-9.789,9.9C1654.284,1215.555,1650.083,1211.5,1650.083,1205.694Zm1.852,0a7.445,7.445,0,0,0,7.226,7.654v-15.165A7.317,7.317,0,0,0,1651.935,1205.694Z" transform="translate(-1643.498 -1195.976)" fill="#fff"/>
      <path id="Path_326" data-name="Path 326" d="M1704.269,1412.247a9,9,0,0,1,2.029-6.123v-.071h-8.615v-5.269h25.987v4.878h-1.851v.071a8.321,8.321,0,0,1,2.385,6.372,9.674,9.674,0,0,1-9.967,10.217A9.822,9.822,0,0,1,1704.269,1412.247Zm8.721-6.194c-2.242,0-4.094,2.492-4.094,5.375,0,3.312,2.171,5.625,5.34,5.625,3.239,0,5.3-2.207,5.3-5.625,0-2.99-1.852-5.375-4.165-5.375Z" transform="translate(-1664.005 -1284.214)" fill="#fff"/>
      <path id="Path_327" data-name="Path 327" d="M1695.493,1385.217h5.27v5.446h-5.27Zm8.366.071h18.867v5.269h-18.867Z" transform="translate(-1663.062 -1277.507)" fill="#fff"/>
      <path id="Path_328" data-name="Path 328" d="M1721.358,1360.91c2.42-.747,3.631-2.67,3.631-5.7,0-2.741-.6-4.308-1.638-4.308-1.1,0-1.6,1.139-2.136,4.664-1.067,6.906-2.741,9.362-6.123,9.362-3.489,0-5.838-3.488-5.838-8.686,0-4.735,2.42-9.042,5.7-10.039l1.459,4.806c-1.815.712-2.955,2.741-2.955,5.269,0,2.172.642,3.6,1.638,3.6s1.353-1,2.065-5.162c1-6.372,2.741-8.9,6.158-8.9,3.524,0,5.873,3.773,5.873,9.433a13.279,13.279,0,0,1-1.78,7.048,7.618,7.618,0,0,1-4.877,3.56Z" transform="translate(-1668.99 -1260.532)" fill="#fff"/>
      <path id="Path_329" data-name="Path 329" d="M1709.254,1317.043c0-6.265,4.414-10.252,10.145-10.252h1.5V1322.1c2.456-.178,4.023-2.207,4.023-5.34,0-2.278-.855-3.916-2.812-5.8l3.275-3.275a11.541,11.541,0,0,1,3.809,9.042c0,6.586-3.951,10.574-9.932,10.574C1713.454,1327.3,1709.254,1322.988,1709.254,1317.043Zm4.271-.107c0,2.848,1.424,4.806,3.667,5.091v-10.111C1714.95,1312.166,1713.526,1314.124,1713.526,1316.936Z" transform="translate(-1668.99 -1243.719)" fill="#fff"/>
      <path id="Path_330" data-name="Path 330" d="M1701.1,1278.2a1.423,1.423,0,0,0,1.246,1.531v2.635c-2.6-.179-4.165-1.709-4.165-4.095a8.677,8.677,0,0,1,.784-3.381,6.607,6.607,0,0,0,.569-2.136,1.394,1.394,0,0,0-1.175-1.531v-2.635c2.6.143,4.165,1.744,4.165,4.059a8.247,8.247,0,0,1-.818,3.381A5.43,5.43,0,0,0,1701.1,1278.2Zm3.916,2.991h1.78v-.071a9.316,9.316,0,0,1-2.314-6.373c0-5.34,3.524-9.042,8.65-9.042h10.751v5.268h-10.074c-2.883,0-4.628,1.887-4.628,4.913s1.887,5.126,4.628,5.126h10.074v5.269h-18.867Z" transform="translate(-1664.221 -1226.017)" fill="#fff"/>
      <path id="Path_331" data-name="Path 331" d="M1709.253,1234.386c0-6.159,4.378-10.645,9.968-10.645s9.967,4.485,9.967,10.645c.108,6.016-4.449,10.75-9.967,10.644C1713.7,1245.136,1709.146,1240.4,1709.253,1234.386Zm4.628,0a5.34,5.34,0,1,0,5.34-5.376A5.111,5.111,0,0,0,1713.88,1234.386Z" transform="translate(-1668.989 -1207.938)" fill="#fff"/>
      <path id="Path_332" data-name="Path 332" d="M1733.334,1207.8h5.7v5.873h-5.7Z" transform="translate(-1679.365 -1201.069)" fill="#fff"/>
    </g>
    <g id="Group_161" data-name="Group 161" transform="translate(1637.307 1348.417)">
      <path id="Path_333" data-name="Path 333" d="M1679.585,1820.219l-41.373-11.845V1803.4l60.086,17.683v1.717l-60.086,17.51v-8.412Z" transform="translate(-1637.697 -1610.113)" fill="#fff"/>
      <path id="Path_334" data-name="Path 334" d="M1638.212,1771.5v-5.15l60.086-17.682v8.412l-12.189,3.347v16.91l12.189,3.262v8.412Zm18.541-2.49,26.181,7.468v-15.193Z" transform="translate(-1637.697 -1586.534)" fill="#fff"/>
      <path id="Path_335" data-name="Path 335" d="M1644.6,1684.265c-6.352,8.154-3.091,18.283,4.034,18.283,9.957,0,22.747-23.177,36.481-23.177,7.468,0,13.218,7.726,13.218,17.339,0,8.155-2.489,12.961-10.386,17.511l-1.544-3.09c10.558-4.55,9.871-23.434-1.374-23.434-5.322,0-12.447,6.61-18.026,11.76-6.438,5.837-12.533,11.417-18.369,11.417-7.21,0-11.331-8.67-11.331-16.395a15.238,15.238,0,0,1,5.751-12.275Z" transform="translate(-1637.307 -1556.68)" fill="#fff"/>
      <path id="Path_336" data-name="Path 336" d="M1644.6,1616.722c-6.352,8.155-3.091,18.283,4.034,18.283,9.957,0,22.747-23.176,36.481-23.176,7.468,0,13.218,7.726,13.218,17.339,0,8.155-2.489,12.962-10.386,17.511l-1.544-3.091c10.558-4.549,9.871-23.433-1.374-23.433-5.322,0-12.447,6.61-18.026,11.759-6.438,5.837-12.533,11.417-18.369,11.417-7.21,0-11.331-8.67-11.331-16.395a15.237,15.237,0,0,1,5.751-12.275Z" transform="translate(-1637.307 -1527.58)" fill="#fff"/>
      <path id="Path_337" data-name="Path 337" d="M1638.212,1556.446v-5.15l60.086-17.682v8.412l-12.189,3.348v16.91l12.189,3.262v8.412Zm18.541-2.49,26.181,7.468v-15.193Z" transform="translate(-1637.697 -1493.882)" fill="#fff"/>
      <path id="Path_338" data-name="Path 338" d="M1698.3,1498.916h-60.086v-16.137a19.029,19.029,0,0,1,37.425-4.807l22.661-11.33v8.67l-22.06,10.987v4.377h22.06Zm-41.03-26.867c-8.584,0-15.88,7.039-15.88,18.627h31.76C1672.8,1478.915,1665.679,1472.048,1657.268,1472.048Z" transform="translate(-1637.697 -1463.808)" fill="#fff"/>
    </g>
  </g>
</svg>
