<svg xmlns="http://www.w3.org/2000/svg" width="24.692" height="23.837" viewBox="0 0 24.692 23.837">
  <path id="lupa_bucador_galería" d="M28.326,26.871l-5.5-5.5a10.251,10.251,0,0,0,2.269-6.31,10.192,10.192,0,0,0-6.6-9.439A10.056,10.056,0,0,0,6.474,20.3a10.213,10.213,0,0,0,10.483,4.642A9.968,9.968,0,0,0,22.093,22.2l5.45,5.45C28.039,28.123,28.821,27.367,28.326,26.871ZM18.078,23.508A8.973,8.973,0,0,1,7.335,10.5a9.041,9.041,0,0,1,9.492-4.224,9.11,9.11,0,0,1,7.2,8.788A9.146,9.146,0,0,1,18.078,23.508Z" transform="translate(-4.292 -4.514)" fill="#fff" stroke="#6300ff" stroke-width="1"/>
</svg>
