<svg xmlns="http://www.w3.org/2000/svg" xmlns:xlink="http://www.w3.org/1999/xlink" width="414" height="97.109" viewBox="0 0 414 97.109">
  <defs>
    <clipPath id="clipPath">
      <rect id="Rectangle_36" data-name="Rectangle 36" width="413.5" height="95.884" transform="translate(0 0)" fill="#fff" stroke="#707070" strokeWidth="1"/>
    </clipPath>
  </defs>
  <g id="textura_division_faqs" transform="translate(0 -1048.72)">
    <g id="Mask_Group_2" data-name="Mask Group 2" transform="translate(0 1049)" clipPath="url(#clipPath)">
      <g id="Group_119" data-name="Group 119" transform="translate(-82.9 -186.774)">
        <g id="Group_82" data-name="Group 82">
          <path id="Path_178" data-name="Path 178" d="M1139.234-232.743a287.454,287.454,0,0,1-204.514-84.642,286.973,286.973,0,0,1-84.713-204.344,286.971,286.971,0,0,1,84.713-204.344,287.455,287.455,0,0,1,204.514-84.643,287.457,287.457,0,0,1,204.515,84.643,286.975,286.975,0,0,1,84.713,204.344,286.977,286.977,0,0,1-84.713,204.344A287.457,287.457,0,0,1,1139.234-232.743Zm0-575.736A285.225,285.225,0,0,0,936.3-724.491a284.749,284.749,0,0,0-84.057,202.762A284.749,284.749,0,0,0,936.3-318.967a285.228,285.228,0,0,0,202.931,83.987,285.229,285.229,0,0,0,202.931-83.987,284.749,284.749,0,0,0,84.057-202.762,284.749,284.749,0,0,0-84.057-202.762A285.226,285.226,0,0,0,1139.234-808.479Z" transform="translate(-850.008 810.716)" fill="#231f20"/>
        </g>
        <g id="Group_83" data-name="Group 83" transform="translate(7.235 7.229)">
          <path id="Path_179" data-name="Path 179" d="M1139.243-239.964a280.266,280.266,0,0,1-199.4-82.524A279.8,279.8,0,0,1,857.252-521.72a279.8,279.8,0,0,1,82.593-199.232,280.265,280.265,0,0,1,199.4-82.525,280.264,280.264,0,0,1,199.4,82.525,279.792,279.792,0,0,1,82.593,199.232,279.792,279.792,0,0,1-82.593,199.232A280.263,280.263,0,0,1,1139.243-239.964Zm0-561.277a278.039,278.039,0,0,0-197.815,81.87,277.572,277.572,0,0,0-81.937,197.65,277.574,277.574,0,0,0,81.937,197.65A278.038,278.038,0,0,0,1139.243-242.2a278.038,278.038,0,0,0,197.815-81.869A277.574,277.574,0,0,0,1419-521.72a277.573,277.573,0,0,0-81.938-197.65A278.039,278.039,0,0,0,1139.243-801.241Z" transform="translate(-857.252 803.478)" fill="#231f20"/>
        </g>
        <g id="Group_84" data-name="Group 84" transform="translate(14.47 14.459)">
          <path id="Path_180" data-name="Path 180" d="M1139.252-247.184A273.074,273.074,0,0,1,944.97-327.591,272.618,272.618,0,0,1,864.5-521.712a272.616,272.616,0,0,1,80.474-194.12,273.075,273.075,0,0,1,194.282-80.408,273.073,273.073,0,0,1,194.282,80.408,272.613,272.613,0,0,1,80.475,194.12,272.615,272.615,0,0,1-80.475,194.12A273.072,273.072,0,0,1,1139.252-247.184Zm0-546.818a270.845,270.845,0,0,0-192.7,79.753,270.4,270.4,0,0,0-79.819,192.538,270.394,270.394,0,0,0,79.819,192.538,270.844,270.844,0,0,0,192.7,79.752,270.848,270.848,0,0,0,192.7-79.752,270.394,270.394,0,0,0,79.819-192.538,270.394,270.394,0,0,0-79.819-192.538A270.849,270.849,0,0,0,1139.252-794Z" transform="translate(-864.496 796.24)" fill="#231f20"/>
        </g>
        <g id="Group_85" data-name="Group 85" transform="translate(21.706 21.688)">
          <path id="Path_181" data-name="Path 181" d="M1139.261-254.4A265.884,265.884,0,0,1,950.1-332.694,265.436,265.436,0,0,1,871.74-521.7,265.434,265.434,0,0,1,950.1-710.712,265.881,265.881,0,0,1,1139.261-789a265.884,265.884,0,0,1,189.167,78.29A265.436,265.436,0,0,1,1406.782-521.7a265.438,265.438,0,0,1-78.354,189.009A265.886,265.886,0,0,1,1139.261-254.4Zm0-532.36A263.657,263.657,0,0,0,951.679-709.13a263.214,263.214,0,0,0-77.7,187.427,263.214,263.214,0,0,0,77.7,187.427,263.66,263.66,0,0,0,187.582,77.634,263.657,263.657,0,0,0,187.582-77.634,263.21,263.21,0,0,0,77.7-187.427,263.21,263.21,0,0,0-77.7-187.427A263.655,263.655,0,0,0,1139.261-786.765Z" transform="translate(-871.74 789.002)" fill="#231f20"/>
        </g>
        <g id="Group_86" data-name="Group 86" transform="translate(28.941 28.917)">
          <path id="Path_182" data-name="Path 182" d="M1139.27-261.625A258.69,258.69,0,0,1,955.22-337.8a258.254,258.254,0,0,1-76.236-183.9,258.258,258.258,0,0,1,76.236-183.9,258.691,258.691,0,0,1,184.05-76.173,258.689,258.689,0,0,1,184.049,76.173,258.257,258.257,0,0,1,76.236,183.9,258.253,258.253,0,0,1-76.236,183.9A258.688,258.688,0,0,1,1139.27-261.625Zm0-517.9A256.466,256.466,0,0,0,956.8-704.009a256.037,256.037,0,0,0-75.58,182.315A256.039,256.039,0,0,0,956.8-339.379a256.469,256.469,0,0,0,182.467,75.517,256.468,256.468,0,0,0,182.467-75.517,256.039,256.039,0,0,0,75.58-182.315,256.038,256.038,0,0,0-75.58-182.315A256.465,256.465,0,0,0,1139.27-779.527Z" transform="translate(-878.984 781.764)" fill="#231f20"/>
        </g>
        <g id="Group_87" data-name="Group 87" transform="translate(36.176 36.147)">
          <path id="Path_183" data-name="Path 183" d="M1139.278-268.846A251.5,251.5,0,0,1,960.345-342.9a251.079,251.079,0,0,1-74.116-178.784A251.081,251.081,0,0,1,960.345-700.47a251.5,251.5,0,0,1,178.934-74.055,251.5,251.5,0,0,1,178.934,74.055,251.079,251.079,0,0,1,74.117,178.785A251.077,251.077,0,0,1,1318.212-342.9,251.5,251.5,0,0,1,1139.278-268.846Zm0-503.442a249.271,249.271,0,0,0-177.35,73.4,248.856,248.856,0,0,0-73.461,177.2,248.856,248.856,0,0,0,73.461,177.2,249.275,249.275,0,0,0,177.35,73.4,249.277,249.277,0,0,0,177.351-73.4,248.859,248.859,0,0,0,73.461-177.2,248.859,248.859,0,0,0-73.461-177.2A249.273,249.273,0,0,0,1139.278-772.288Z" transform="translate(-886.228 774.525)" fill="#231f20"/>
        </g>
        <g id="Group_88" data-name="Group 88" transform="translate(43.412 43.377)">
          <path id="Path_184" data-name="Path 184" d="M1139.287-276.066A244.306,244.306,0,0,1,965.47-348a243.9,243.9,0,0,1-72-173.672,243.9,243.9,0,0,1,72-173.673,244.305,244.305,0,0,1,173.817-71.937A244.309,244.309,0,0,1,1313.1-695.35a243.9,243.9,0,0,1,72,173.673A243.9,243.9,0,0,1,1313.1-348,244.31,244.31,0,0,1,1139.287-276.066Zm0-488.984a242.082,242.082,0,0,0-172.234,71.283,241.679,241.679,0,0,0-71.342,172.091,241.679,241.679,0,0,0,71.342,172.091A242.085,242.085,0,0,0,1139.287-278.3a242.087,242.087,0,0,0,172.235-71.282,241.679,241.679,0,0,0,71.342-172.091,241.679,241.679,0,0,0-71.342-172.091A242.084,242.084,0,0,0,1139.287-765.051Z" transform="translate(-893.472 767.287)" fill="#231f20"/>
        </g>
        <g id="Group_89" data-name="Group 89" transform="translate(50.647 50.606)">
          <path id="Path_185" data-name="Path 185" d="M1139.3-283.287c-131.553,0-238.58-106.938-238.58-238.381s107.027-238.381,238.58-238.381,238.58,106.937,238.58,238.381S1270.849-283.287,1139.3-283.287Zm0-474.525c-130.319,0-236.341,105.933-236.341,236.144S1008.977-285.524,1139.3-285.524s236.341-105.934,236.341-236.144S1269.614-757.812,1139.3-757.812Z" transform="translate(-900.716 760.049)" fill="#231f20"/>
        </g>
        <g id="Group_90" data-name="Group 90" transform="translate(57.882 57.835)">
          <path id="Path_186" data-name="Path 186" d="M1139.3-290.508c-127.564,0-231.344-103.695-231.344-231.152S1011.741-752.811,1139.3-752.811,1370.65-649.117,1370.65-521.659,1266.869-290.508,1139.3-290.508Zm0-460.067c-126.329,0-229.105,102.691-229.105,228.915S1012.975-292.745,1139.3-292.745s229.106-102.691,229.106-228.914S1265.634-750.575,1139.3-750.575Z" transform="translate(-907.96 752.811)" fill="#231f20"/>
        </g>
        <g id="Group_91" data-name="Group 91" transform="translate(65.117 65.064)">
          <path id="Path_187" data-name="Path 187" d="M1139.313-297.728C1015.74-297.728,915.2-398.18,915.2-521.651s100.536-223.922,224.109-223.922,224.109,100.451,224.109,223.922S1262.888-297.728,1139.313-297.728Zm0-445.608c-122.339,0-221.87,99.447-221.87,221.685s99.531,221.685,221.87,221.685,221.871-99.448,221.871-221.685S1261.654-743.336,1139.313-743.336Z" transform="translate(-915.204 745.573)" fill="#231f20"/>
        </g>
        <g id="Group_92" data-name="Group 92" transform="translate(72.353 72.294)">
          <path id="Path_188" data-name="Path 188" d="M1139.322-304.949c-119.584,0-216.874-97.209-216.874-216.693s97.29-216.693,216.874-216.693S1356.2-641.127,1356.2-521.642,1258.907-304.949,1139.322-304.949Zm0-431.149c-118.35,0-214.635,96.2-214.635,214.456s96.285,214.456,214.635,214.456,214.635-96.2,214.635-214.456S1257.672-736.1,1139.322-736.1Z" transform="translate(-922.448 738.335)" fill="#231f20"/>
        </g>
        <g id="Group_93" data-name="Group 93" transform="translate(79.589 79.523)">
          <path id="Path_189" data-name="Path 189" d="M1139.331-312.169c-115.594,0-209.638-93.965-209.638-209.464S1023.736-731.1,1139.331-731.1s209.639,93.964,209.639,209.464S1254.926-312.169,1139.331-312.169Zm0-416.691c-114.36,0-207.4,92.962-207.4,207.227s93.04,207.227,207.4,207.227,207.4-92.962,207.4-207.227S1253.692-728.86,1139.331-728.86Z" transform="translate(-929.693 731.097)" fill="#231f20"/>
        </g>
        <g id="Group_94" data-name="Group 94" transform="translate(86.823 86.752)">
          <path id="Path_190" data-name="Path 190" d="M1139.339-319.39c-111.605,0-202.4-90.722-202.4-202.235s90.8-202.235,202.4-202.235,202.4,90.721,202.4,202.235S1250.946-319.39,1139.339-319.39Zm0-402.232c-110.371,0-200.164,89.719-200.164,200s89.794,200,200.164,200,200.164-89.719,200.164-200S1249.711-721.622,1139.339-721.622Z" transform="translate(-936.936 723.859)" fill="#231f20"/>
        </g>
        <g id="Group_95" data-name="Group 95" transform="translate(94.058 93.981)">
          <path id="Path_191" data-name="Path 191" d="M1139.348-326.61c-107.616,0-195.168-87.479-195.168-195.005s87.552-195.005,195.168-195.005,195.168,87.478,195.168,195.005S1246.964-326.61,1139.348-326.61Zm0-387.774c-106.381,0-192.929,86.475-192.929,192.768s86.547,192.768,192.929,192.768,192.929-86.476,192.929-192.768S1245.73-714.384,1139.348-714.384Z" transform="translate(-944.18 716.621)" fill="#231f20"/>
        </g>
        <g id="Group_96" data-name="Group 96" transform="translate(101.295 101.211)">
          <path id="Path_192" data-name="Path 192" d="M1139.357-333.831c-103.626,0-187.932-84.236-187.932-187.776s84.306-187.776,187.932-187.776,187.933,84.236,187.933,187.776S1242.984-333.831,1139.357-333.831Zm0-373.315c-102.391,0-185.694,83.232-185.694,185.539s83.3,185.539,185.694,185.539,185.694-83.232,185.694-185.539S1241.749-707.146,1139.357-707.146Z" transform="translate(-951.425 709.383)" fill="#231f20"/>
        </g>
        <g id="Group_97" data-name="Group 97" transform="translate(108.53 108.44)">
          <path id="Path_193" data-name="Path 193" d="M1139.366-341.051c-99.637,0-180.7-80.993-180.7-180.547s81.06-180.547,180.7-180.547,180.7,80.993,180.7,180.547S1239-341.051,1139.366-341.051Zm0-358.857c-98.4,0-178.459,79.989-178.459,178.31s80.056,178.31,178.459,178.31,178.458-79.989,178.458-178.31S1237.769-699.908,1139.366-699.908Z" transform="translate(-958.669 702.145)" fill="#231f20"/>
        </g>
        <g id="Group_98" data-name="Group 98" transform="translate(115.764 115.669)">
          <path id="Path_194" data-name="Path 194" d="M1139.375-348.272c-95.647,0-173.463-77.75-173.463-173.318s77.815-173.318,173.463-173.318,173.462,77.75,173.462,173.318S1235.022-348.272,1139.375-348.272Zm0-344.4c-94.413,0-171.223,76.746-171.223,171.08s76.81,171.08,171.223,171.08S1310.6-427.255,1310.6-521.589,1233.787-692.67,1139.375-692.67Z" transform="translate(-965.912 694.907)" fill="#231f20"/>
        </g>
        <g id="Group_99" data-name="Group 99" transform="translate(123 122.899)">
          <path id="Path_195" data-name="Path 195" d="M1139.383-355.492c-91.657,0-166.226-74.507-166.226-166.088s74.569-166.088,166.226-166.088,166.227,74.507,166.227,166.088S1231.042-355.492,1139.383-355.492Zm0-329.939c-90.423,0-163.987,73.5-163.987,163.851S1048.96-357.73,1139.383-357.73s163.988-73.5,163.988-163.851S1229.807-685.432,1139.383-685.432Z" transform="translate(-973.157 687.669)" fill="#231f20"/>
        </g>
        <g id="Group_100" data-name="Group 100" transform="translate(130.236 130.128)">
          <path id="Path_196" data-name="Path 196" d="M1139.392-362.713c-87.668,0-158.991-71.264-158.991-158.859s71.323-158.859,158.991-158.859,158.992,71.264,158.992,158.859S1227.06-362.713,1139.392-362.713Zm0-315.481c-86.434,0-156.752,70.26-156.752,156.622s70.318,156.622,156.752,156.622,156.752-70.26,156.752-156.622S1225.825-678.194,1139.392-678.194Z" transform="translate(-980.401 680.431)" fill="#231f20"/>
        </g>
        <g id="Group_101" data-name="Group 101" transform="translate(137.471 137.357)">
          <path id="Path_197" data-name="Path 197" d="M1139.4-369.933c-83.678,0-151.755-68.021-151.755-151.63s68.077-151.63,151.755-151.63,151.757,68.021,151.757,151.63S1223.08-369.933,1139.4-369.933Zm0-301.022c-82.443,0-149.516,67.017-149.516,149.392s67.073,149.393,149.516,149.393,149.518-67.017,149.518-149.393S1221.845-670.956,1139.4-670.956Z" transform="translate(-987.645 673.193)" fill="#231f20"/>
        </g>
        <g id="Group_102" data-name="Group 102" transform="translate(144.706 144.586)">
          <path id="Path_198" data-name="Path 198" d="M1139.409-377.154c-79.689,0-144.52-64.778-144.52-144.4s64.832-144.4,144.52-144.4,144.521,64.778,144.521,144.4S1219.1-377.154,1139.409-377.154Zm0-286.564c-78.454,0-142.281,63.774-142.281,142.163s63.827,142.163,142.281,142.163,142.282-63.775,142.282-142.163S1217.864-663.718,1139.409-663.718Z" transform="translate(-994.889 665.955)" fill="#231f20"/>
        </g>
        <g id="Group_103" data-name="Group 103" transform="translate(151.941 151.816)">
          <path id="Path_199" data-name="Path 199" d="M1139.418-384.374c-75.7,0-137.285-61.535-137.285-137.171s61.586-137.171,137.285-137.171S1276.7-597.182,1276.7-521.546,1215.118-384.374,1139.418-384.374Zm0-272.105c-74.465,0-135.046,60.531-135.046,134.934s60.581,134.934,135.046,134.934,135.047-60.532,135.047-134.934S1213.883-656.48,1139.418-656.48Z" transform="translate(-1002.133 658.717)" fill="#231f20"/>
        </g>
        <g id="Group_104" data-name="Group 104" transform="translate(159.177 159.045)">
          <path id="Path_200" data-name="Path 200" d="M1139.427-391.595c-71.709,0-130.05-58.293-130.05-129.942s58.341-129.942,130.05-129.942,130.051,58.292,130.051,129.942S1211.137-391.595,1139.427-391.595Zm0-257.647c-70.475,0-127.811,57.288-127.811,127.7s57.336,127.7,127.811,127.7,127.812-57.289,127.812-127.7S1209.9-649.242,1139.427-649.242Z" transform="translate(-1009.377 651.479)" fill="#231f20"/>
        </g>
        <g id="Group_105" data-name="Group 105" transform="translate(166.412 166.274)">
          <path id="Path_201" data-name="Path 201" d="M1139.436-398.815c-67.72,0-122.815-55.048-122.815-122.713s55.094-122.713,122.815-122.713,122.815,55.049,122.815,122.713S1207.156-398.815,1139.436-398.815Zm0-243.188c-66.486,0-120.575,54.045-120.575,120.476s54.09,120.475,120.575,120.475,120.576-54.046,120.576-120.475S1205.921-642,1139.436-642Z" transform="translate(-1016.621 644.241)" fill="#231f20"/>
        </g>
        <g id="Group_106" data-name="Group 106" transform="translate(173.647 173.503)">
          <path id="Path_202" data-name="Path 202" d="M1139.444-406.036c-63.73,0-115.579-51.806-115.579-115.484S1075.714-637,1139.444-637,1255.024-585.2,1255.024-521.52,1203.176-406.036,1139.444-406.036Zm0-228.73c-62.5,0-113.34,50.8-113.34,113.246s50.845,113.246,113.34,113.246,113.341-50.8,113.341-113.246S1201.941-634.766,1139.444-634.766Z" transform="translate(-1023.865 637.003)" fill="#231f20"/>
        </g>
        <g id="Group_107" data-name="Group 107" transform="translate(180.883 180.733)">
          <path id="Path_203" data-name="Path 203" d="M1139.453-413.258a108.422,108.422,0,0,1-108.344-108.253,108.422,108.422,0,0,1,108.344-108.254A108.422,108.422,0,0,1,1247.8-521.511,108.422,108.422,0,0,1,1139.453-413.258Zm0-214.27a106.181,106.181,0,0,0-106.1,106.017,106.181,106.181,0,0,0,106.1,106.017,106.181,106.181,0,0,0,106.1-106.017A106.181,106.181,0,0,0,1139.453-627.528Z" transform="translate(-1031.109 629.765)" fill="#231f20"/>
        </g>
        <g id="Group_108" data-name="Group 108" transform="translate(188.118 187.962)">
          <path id="Path_204" data-name="Path 204" d="M1139.462-420.477A101.182,101.182,0,0,1,1038.353-521.5a101.181,101.181,0,0,1,101.109-101.025A101.181,101.181,0,0,1,1240.571-521.5,101.182,101.182,0,0,1,1139.462-420.477Zm0-199.813a98.94,98.94,0,0,0-98.87,98.788,98.941,98.941,0,0,0,98.87,98.788,98.941,98.941,0,0,0,98.87-98.788A98.94,98.94,0,0,0,1139.462-620.29Z" transform="translate(-1038.353 622.527)" fill="#231f20"/>
        </g>
        <g id="Group_109" data-name="Group 109" transform="translate(195.353 195.191)">
          <path id="Path_205" data-name="Path 205" d="M1139.471-427.7a93.941,93.941,0,0,1-93.874-93.795,93.941,93.941,0,0,1,93.874-93.8,93.94,93.94,0,0,1,93.874,93.8A93.94,93.94,0,0,1,1139.471-427.7Zm0-185.353a91.7,91.7,0,0,0-91.634,91.558,91.7,91.7,0,0,0,91.634,91.558,91.7,91.7,0,0,0,91.634-91.558A91.7,91.7,0,0,0,1139.471-613.052Z" transform="translate(-1045.597 615.289)" fill="#231f20"/>
        </g>
        <g id="Group_110" data-name="Group 110" transform="translate(202.588 202.42)">
          <path id="Path_206" data-name="Path 206" d="M1139.479-434.919a86.7,86.7,0,0,1-86.638-86.565,86.7,86.7,0,0,1,86.638-86.567,86.7,86.7,0,0,1,86.638,86.567A86.7,86.7,0,0,1,1139.479-434.919Zm0-170.895a84.46,84.46,0,0,0-84.4,84.329,84.459,84.459,0,0,0,84.4,84.328,84.459,84.459,0,0,0,84.4-84.328A84.46,84.46,0,0,0,1139.479-605.814Z" transform="translate(-1052.841 608.051)" fill="#231f20"/>
        </g>
        <g id="Group_111" data-name="Group 111" transform="translate(209.824 209.65)">
          <path id="Path_207" data-name="Path 207" d="M1139.488-442.14a79.46,79.46,0,0,1-79.4-79.336,79.46,79.46,0,0,1,79.4-79.337,79.46,79.46,0,0,1,79.4,79.337A79.459,79.459,0,0,1,1139.488-442.14Zm0-156.436a77.219,77.219,0,0,0-77.164,77.1,77.22,77.22,0,0,0,77.164,77.1,77.219,77.219,0,0,0,77.164-77.1A77.219,77.219,0,0,0,1139.488-598.576Z" transform="translate(-1060.085 600.813)" fill="#231f20"/>
        </g>
        <g id="Group_112" data-name="Group 112" transform="translate(217.059 216.879)">
          <path id="Path_208" data-name="Path 208" d="M1139.5-449.36a72.219,72.219,0,0,1-72.168-72.107,72.22,72.22,0,0,1,72.168-72.108,72.22,72.22,0,0,1,72.168,72.108A72.219,72.219,0,0,1,1139.5-449.36Zm0-141.977a69.979,69.979,0,0,0-69.928,69.871A69.978,69.978,0,0,0,1139.5-451.6a69.978,69.978,0,0,0,69.929-69.87A69.979,69.979,0,0,0,1139.5-591.338Z" transform="translate(-1067.329 593.575)" fill="#231f20"/>
        </g>
        <g id="Group_113" data-name="Group 113" transform="translate(224.294 224.108)">
          <path id="Path_209" data-name="Path 209" d="M1139.505-456.581a64.979,64.979,0,0,1-64.932-64.878,64.98,64.98,0,0,1,64.932-64.879,64.98,64.98,0,0,1,64.933,64.879A64.979,64.979,0,0,1,1139.505-456.581Zm0-127.519a62.739,62.739,0,0,0-62.693,62.641,62.738,62.738,0,0,0,62.693,62.64,62.738,62.738,0,0,0,62.693-62.64A62.739,62.739,0,0,0,1139.505-584.1Z" transform="translate(-1074.573 586.337)" fill="#231f20"/>
        </g>
        <g id="Group_114" data-name="Group 114" transform="translate(231.53 231.338)">
          <path id="Path_210" data-name="Path 210" d="M1139.514-463.8a57.737,57.737,0,0,1-57.7-57.648,57.738,57.738,0,0,1,57.7-57.649,57.739,57.739,0,0,1,57.7,57.649A57.738,57.738,0,0,1,1139.514-463.8Zm0-113.06a55.5,55.5,0,0,0-55.458,55.412,55.5,55.5,0,0,0,55.458,55.411,55.5,55.5,0,0,0,55.458-55.411A55.5,55.5,0,0,0,1139.514-576.862Z" transform="translate(-1081.818 579.099)" fill="#231f20"/>
        </g>
        <g id="Group_115" data-name="Group 115" transform="translate(238.766 238.567)">
          <path id="Path_211" data-name="Path 211" d="M1139.523-471.022a50.5,50.5,0,0,1-50.461-50.419,50.5,50.5,0,0,1,50.461-50.42,50.5,50.5,0,0,1,50.462,50.42A50.5,50.5,0,0,1,1139.523-471.022Zm0-98.6a48.258,48.258,0,0,0-48.223,48.183,48.257,48.257,0,0,0,48.223,48.182,48.257,48.257,0,0,0,48.223-48.182A48.258,48.258,0,0,0,1139.523-569.624Z" transform="translate(-1089.062 571.861)" fill="#231f20"/>
        </g>
        <g id="Group_116" data-name="Group 116" transform="translate(246.001 245.796)">
          <path id="Path_212" data-name="Path 212" d="M1139.532-478.242a43.256,43.256,0,0,1-43.226-43.19,43.257,43.257,0,0,1,43.226-43.191,43.258,43.258,0,0,1,43.227,43.191A43.257,43.257,0,0,1,1139.532-478.242Zm0-84.143a41.016,41.016,0,0,0-40.987,40.954,41.015,41.015,0,0,0,40.987,40.952,41.016,41.016,0,0,0,40.987-40.952A41.017,41.017,0,0,0,1139.532-562.386Z" transform="translate(-1096.306 564.623)" fill="#231f20"/>
        </g>
        <g id="Group_117" data-name="Group 117" transform="translate(253.236 253.025)">
          <path id="Path_213" data-name="Path 213" d="M1139.54-485.463a36.016,36.016,0,0,1-35.99-35.961,36.017,36.017,0,0,1,35.99-35.962,36.018,36.018,0,0,1,35.992,35.962A36.017,36.017,0,0,1,1139.54-485.463Zm0-69.685a33.776,33.776,0,0,0-33.751,33.724A33.775,33.775,0,0,0,1139.54-487.7a33.776,33.776,0,0,0,33.752-33.723A33.777,33.777,0,0,0,1139.54-555.148Z" transform="translate(-1103.55 557.385)" fill="#231f20"/>
        </g>
        <g id="Group_118" data-name="Group 118" transform="translate(260.471 260.255)">
          <path id="Path_214" data-name="Path 214" d="M1139.549-492.683a28.775,28.775,0,0,1-28.755-28.731,28.776,28.776,0,0,1,28.755-28.732,28.777,28.777,0,0,1,28.756,28.732A28.776,28.776,0,0,1,1139.549-492.683Zm0-55.226a26.536,26.536,0,0,0-26.517,26.495,26.535,26.535,0,0,0,26.517,26.494,26.535,26.535,0,0,0,26.517-26.494A26.536,26.536,0,0,0,1139.549-547.91Z" transform="translate(-1110.794 550.147)" fill="#231f20"/>
        </g>
      </g>
    </g>
    <line id="Line_38" data-name="Line 38" x2="413.58" transform="translate(0.42 1049.72)" fill="none" stroke="#231f20" strokeWidth="2"/>
    <line id="Line_39" data-name="Line 39" x2="413.58" transform="translate(0.42 1144.829)" fill="none" stroke="#231f20" strokeWidth="2"/>
  </g>
</svg>
