<svg xmlns="http://www.w3.org/2000/svg" xmlns:xlink="http://www.w3.org/1999/xlink" width="177.98" height="764.583" viewBox="0 0 177.98 764.583">
  <defs>
    <clipPath id="clipPath">
      <rect id="Rectangle_36" data-name="Rectangle 36" width="763.661" height="177.081" transform="translate(0 0)" fill="#fff" stroke="#707070" strokeWidth="1"/>
    </clipPath>
  </defs>
  <g id="textura_division_manifesto_web" transform="translate(-1049 764.583) rotate(-90)">
    <g id="Mask_Group_2" data-name="Mask Group 2" transform="translate(0 1049)" clipPath="url(#clipPath)">
      <g id="Group_119" data-name="Group 119" transform="translate(-153.101 -344.938)">
        <g id="Group_82" data-name="Group 82">
          <path id="Path_178" data-name="Path 178" d="M1384.157,256.7c-142.676,0-276.814-55.515-377.7-156.318S850.008-134.452,850.008-277.009,905.569-553.593,1006.457-654.4s235.025-156.32,377.7-156.32,276.814,55.517,377.7,156.32,156.449,234.828,156.449,377.387S1862.745-.426,1761.859,100.377,1526.834,256.7,1384.157,256.7Zm0-1063.279c-141.573,0-274.671,55.085-374.777,155.11S854.144-418.464,854.144-277.009,909.273-2.567,1009.381,97.455s233.2,155.108,374.777,155.108,274.671-55.085,374.777-155.108,155.239-233.011,155.239-374.465-55.131-274.442-155.239-374.465S1525.73-806.584,1384.157-806.584Z" transform="translate(-850.008 810.716)" fill="#241F20"/>
        </g>
        <g id="Group_83" data-name="Group 83" transform="translate(13.362 13.351)">
          <path id="Path_179" data-name="Path 179" d="M1378.039,237.231c-139.106,0-269.888-54.126-368.252-152.407S857.252-144.131,857.252-283.122s54.172-269.664,152.535-367.946,229.144-152.409,368.252-152.409,269.889,54.128,368.252,152.409,152.535,228.954,152.535,367.946-54.17,269.664-152.535,367.946S1517.147,237.231,1378.039,237.231Zm0-1036.577c-138,0-267.746,53.7-365.329,151.2S861.388-421.011,861.388-283.122,915.128-15.6,1012.71,81.9s227.326,151.2,365.329,151.2,267.746-53.7,365.329-151.2,151.325-227.137,151.325-365.024-53.742-267.523-151.325-365.024S1516.042-799.346,1378.039-799.346Z" transform="translate(-857.252 803.478)" fill="#241F20"/>
        </g>
        <g id="Group_84" data-name="Group 84" transform="translate(26.724 26.702)">
          <path id="Path_180" data-name="Path 180" d="M1371.921,217.767c-135.539,0-262.963-52.737-358.8-148.5S864.5-153.811,864.5-289.236s52.781-262.745,148.621-358.505,223.265-148.5,358.8-148.5,262.965,52.739,358.8,148.5,148.622,223.079,148.622,358.505S1826.566-26.49,1730.725,69.27,1507.46,217.767,1371.921,217.767Zm0-1009.875c-134.434,0-260.822,52.309-355.879,147.289S868.632-423.557,868.632-289.236s52.351,260.6,147.411,355.584,221.445,147.287,355.879,147.287S1632.742,161.328,1727.8,66.348s147.411-221.262,147.411-355.584-52.351-260.6-147.411-355.584S1506.355-792.108,1371.921-792.108Z" transform="translate(-864.496 796.24)" fill="#241F20"/>
        </g>
        <g id="Group_85" data-name="Group 85" transform="translate(40.087 40.053)">
          <path id="Path_181" data-name="Path 181" d="M1365.8,198.3c-131.969,0-256.038-51.35-349.354-144.586S871.74-163.49,871.74-295.349s51.39-255.826,144.708-349.065S1233.833-789,1365.8-789s256.04,51.35,349.356,144.588,144.706,217.2,144.706,349.065-51.39,255.826-144.706,349.065S1497.772,198.3,1365.8,198.3Zm0-983.173c-130.864,0-253.9,50.92-346.431,143.378s-143.5,215.387-143.5,346.143,50.961,253.685,143.5,346.143S1234.938,194.171,1365.8,194.171s253.9-50.92,346.431-143.376,143.5-215.387,143.5-346.143-50.96-253.685-143.5-346.143S1496.667-784.87,1365.8-784.87Z" transform="translate(-871.74 789.002)" fill="#241F20"/>
        </g>
        <g id="Group_86" data-name="Group 86" transform="translate(53.449 53.405)">
          <path id="Path_182" data-name="Path 182" d="M1359.684,178.838c-128.4,0-249.114-49.961-339.906-140.678S878.984-173.169,878.984-301.462s50-248.907,140.794-339.624,211.506-140.677,339.906-140.677S1608.8-731.8,1699.591-641.086s140.794,211.331,140.794,339.624-50,248.907-140.794,339.622S1488.084,178.838,1359.684,178.838Zm0-956.47c-127.3,0-246.97,49.531-336.983,139.468s-139.582,209.512-139.582,336.7S932.691-54.7,1022.7,35.24s209.687,139.466,336.983,139.466,246.972-49.531,336.983-139.466,139.582-209.514,139.582-336.7-49.572-246.766-139.582-336.7S1486.979-777.632,1359.684-777.632Z" transform="translate(-878.984 781.764)" fill="#241F20"/>
        </g>
        <g id="Group_87" data-name="Group 87" transform="translate(66.811 66.758)">
          <path id="Path_183" data-name="Path 183" d="M1353.566,159.373c-124.831,0-242.189-48.572-330.458-136.767S886.228-182.85,886.228-307.576s48.612-241.988,136.88-330.184,205.628-136.765,330.458-136.765,242.191,48.57,330.458,136.765S1820.906-432.3,1820.906-307.576,1772.294-65.588,1684.025,22.606,1478.4,159.373,1353.566,159.373Zm0-929.766c-123.726,0-240.046,48.14-327.533,135.555S890.363-431.2,890.363-307.576s48.181,239.847,135.67,327.262,203.807,135.555,327.533,135.555S1593.614,107.1,1681.1,19.686s135.669-203.639,135.669-327.262S1768.588-547.423,1681.1-634.838,1477.292-770.393,1353.566-770.393Z" transform="translate(-886.228 774.525)" fill="#241F20"/>
        </g>
        <g id="Group_88" data-name="Group 88" transform="translate(80.173 80.109)">
          <path id="Path_184" data-name="Path 184" d="M1347.448,139.909c-121.262,0-235.265-47.183-321.009-132.857S893.472-192.529,893.472-313.689s47.222-235.069,132.967-320.743,199.747-132.855,321.009-132.855,235.265,47.181,321.01,132.855,132.966,199.583,132.966,320.743S1754.2-78.62,1668.458,7.052,1468.709,139.909,1347.448,139.909Zm0-903.066c-120.157,0-233.121,46.753-318.085,131.646S897.607-433.746,897.607-313.689,944.4-80.762,1029.363,4.132s197.928,131.645,318.085,131.645S1580.571,89.024,1665.535,4.132,1797.29-193.632,1797.29-313.689,1750.5-546.617,1665.535-631.51,1467.6-763.157,1347.448-763.157Z" transform="translate(-893.472 767.287)" fill="#241F20"/>
        </g>
        <g id="Group_89" data-name="Group 89" transform="translate(93.536 93.46)">
          <path id="Path_185" data-name="Path 185" d="M1341.33,120.444c-242.955,0-440.614-197.495-440.614-440.247s197.659-440.247,440.614-440.247S1781.944-562.556,1781.944-319.8,1584.284,120.444,1341.33,120.444Zm0-876.361c-240.675,0-436.478,195.639-436.478,436.115s195.8,436.115,436.478,436.115S1777.808-79.329,1777.808-319.8,1582-755.917,1341.33-755.917Z" transform="translate(-900.716 760.049)" fill="#241F20"/>
        </g>
        <g id="Group_90" data-name="Group 90" transform="translate(106.898 106.811)">
          <path id="Path_186" data-name="Path 186" d="M1335.212,100.98c-235.587,0-427.251-191.505-427.251-426.9s191.664-426.9,427.251-426.9,427.253,191.5,427.253,426.9S1570.8,100.98,1335.212,100.98Zm0-849.661C1101.9-748.681,912.1-559.029,912.1-325.916S1101.9,96.848,1335.212,96.848,1758.329-92.8,1758.329-325.916,1568.519-748.681,1335.212-748.681Z" transform="translate(-907.96 752.811)" fill="#241F20"/>
        </g>
        <g id="Group_91" data-name="Group 91" transform="translate(120.26 120.162)">
          <path id="Path_187" data-name="Path 187" d="M1329.093,81.516C1100.875,81.516,915.2-104,915.2-332.029s185.671-413.544,413.889-413.544,413.889,185.514,413.889,413.544S1557.313,81.516,1329.093,81.516Zm0-822.957c-225.938,0-409.754,183.66-409.754,409.413S1103.155,77.384,1329.093,77.384s409.756-183.662,409.756-409.412S1555.034-741.441,1329.093-741.441Z" transform="translate(-915.204 745.573)" fill="#241F20"/>
        </g>
        <g id="Group_92" data-name="Group 92" transform="translate(133.622 133.513)">
          <path id="Path_188" data-name="Path 188" d="M1322.975,62.051c-220.851,0-400.527-179.527-400.527-400.193s179.676-400.193,400.527-400.193S1723.5-558.81,1723.5-338.142,1543.826,62.051,1322.975,62.051Zm0-796.255c-218.571,0-396.392,177.671-396.392,396.061S1104.4,57.92,1322.975,57.92s396.392-177.673,396.392-396.061S1541.546-734.2,1322.975-734.2Z" transform="translate(-922.448 738.335)" fill="#241F20"/>
        </g>
        <g id="Group_93" data-name="Group 93" transform="translate(146.986 146.865)">
          <path id="Path_189" data-name="Path 189" d="M1316.856,42.587c-213.482,0-387.163-173.537-387.163-386.842S1103.374-731.1,1316.856-731.1s387.165,173.536,387.165,386.842S1530.34,42.587,1316.856,42.587Zm0-769.552c-211.2,0-383.029,171.683-383.029,382.71s171.827,382.71,383.029,382.71,383.029-171.683,383.029-382.71S1528.06-726.965,1316.856-726.965Z" transform="translate(-929.693 731.097)" fill="#241F20"/>
        </g>
        <g id="Group_94" data-name="Group 94" transform="translate(160.347 160.216)">
          <path id="Path_190" data-name="Path 190" d="M1310.739,23.123c-206.115,0-373.8-167.548-373.8-373.491s167.688-373.491,373.8-373.491,373.8,167.546,373.8,373.491S1516.855,23.123,1310.739,23.123Zm0-742.85c-203.835,0-369.667,165.694-369.667,369.359S1106.9,18.991,1310.739,18.991,1680.406-146.7,1680.406-350.368,1514.575-719.727,1310.739-719.727Z" transform="translate(-936.936 723.859)" fill="#241F20"/>
        </g>
        <g id="Group_95" data-name="Group 95" transform="translate(173.709 173.567)">
          <path id="Path_191" data-name="Path 191" d="M1304.62,3.659c-198.747,0-360.441-161.558-360.441-360.14s161.693-360.14,360.441-360.14,360.441,161.557,360.441,360.14S1503.368,3.659,1304.62,3.659Zm0-716.148c-196.467,0-356.3,159.7-356.3,356.008S1108.153-.473,1304.62-.473s356.3-159.7,356.3-356.008S1501.088-712.489,1304.62-712.489Z" transform="translate(-944.18 716.621)" fill="#241F20"/>
        </g>
        <g id="Group_96" data-name="Group 96" transform="translate(187.073 186.918)">
          <path id="Path_192" data-name="Path 192" d="M1298.5-15.806c-191.378,0-347.076-155.569-347.076-346.789s155.7-346.789,347.076-346.789S1645.58-553.814,1645.58-362.594,1489.881-15.806,1298.5-15.806Zm0-689.445c-189.1,0-342.943,153.715-342.943,342.657S1109.4-19.938,1298.5-19.938s342.943-153.715,342.943-342.657S1487.6-705.251,1298.5-705.251Z" transform="translate(-951.425 709.383)" fill="#241F20"/>
        </g>
        <g id="Group_97" data-name="Group 97" transform="translate(200.435 200.269)">
          <path id="Path_193" data-name="Path 193" d="M1292.383-35.27c-184.011,0-333.714-149.58-333.714-333.437s149.7-333.438,333.714-333.438S1626.1-552.565,1626.1-368.707,1476.4-35.27,1292.383-35.27Zm0-662.743c-181.731,0-329.58,147.726-329.58,329.306S1110.652-39.4,1292.383-39.4s329.581-147.726,329.581-329.306S1474.116-698.013,1292.383-698.013Z" transform="translate(-958.669 702.145)" fill="#241F20"/>
        </g>
        <g id="Group_98" data-name="Group 98" transform="translate(213.795 213.62)">
          <path id="Path_194" data-name="Path 194" d="M1286.266-54.734c-176.643,0-320.354-143.59-320.354-320.086s143.71-320.086,320.354-320.086,320.354,143.59,320.354,320.086S1462.909-54.734,1286.266-54.734Zm0-636.041c-174.364,0-316.218,141.736-316.218,315.954S1111.9-58.866,1286.266-58.866,1602.484-200.6,1602.484-374.821,1460.629-690.775,1286.266-690.775Z" transform="translate(-965.912 694.907)" fill="#241F20"/>
        </g>
        <g id="Group_99" data-name="Group 99" transform="translate(227.16 226.971)">
          <path id="Path_195" data-name="Path 195" d="M1280.147-74.2c-169.274,0-306.99-137.6-306.99-306.735s137.715-306.735,306.99-306.735,306.992,137.6,306.992,306.735S1449.423-74.2,1280.147-74.2Zm0-609.339c-166.994,0-302.854,135.747-302.854,302.6s135.86,302.6,302.854,302.6S1583-214.078,1583-380.934,1447.143-683.537,1280.147-683.537Z" transform="translate(-973.157 687.669)" fill="#241F20"/>
        </g>
        <g id="Group_100" data-name="Group 100" transform="translate(240.522 240.322)">
          <path id="Path_196" data-name="Path 196" d="M1274.029-93.663c-161.907,0-293.628-131.611-293.628-293.384s131.721-293.384,293.628-293.384,293.629,131.612,293.629,293.384S1435.936-93.663,1274.029-93.663Zm0-582.636c-159.627,0-289.492,129.758-289.492,289.252S1114.4-97.795,1274.029-97.795s289.494-129.758,289.494-289.252S1433.656-676.3,1274.029-676.3Z" transform="translate(-980.401 680.431)" fill="#241F20"/>
        </g>
        <g id="Group_101" data-name="Group 101" transform="translate(253.884 253.674)">
          <path id="Path_197" data-name="Path 197" d="M1267.91-113.127c-154.538,0-280.265-125.622-280.265-280.033s125.727-280.033,280.265-280.033,280.267,125.622,280.267,280.033S1422.45-113.127,1267.91-113.127Zm0-555.934c-152.258,0-276.13,123.768-276.13,275.9s123.872,275.9,276.13,275.9,276.132-123.768,276.132-275.9S1420.17-669.061,1267.91-669.061Z" transform="translate(-987.645 673.193)" fill="#241F20"/>
        </g>
        <g id="Group_102" data-name="Group 102" transform="translate(267.246 267.025)">
          <path id="Path_198" data-name="Path 198" d="M1261.792-132.592c-147.171,0-266.9-119.633-266.9-266.682s119.732-266.682,266.9-266.682,266.9,119.633,266.9,266.682S1408.963-132.592,1261.792-132.592Zm0-529.232c-144.891,0-262.768,117.779-262.768,262.55s117.877,262.55,262.768,262.55,262.769-117.781,262.769-262.55S1406.683-661.823,1261.792-661.823Z" transform="translate(-994.889 665.955)" fill="#241F20"/>
        </g>
        <g id="Group_103" data-name="Group 103" transform="translate(280.608 280.376)">
          <path id="Path_199" data-name="Path 199" d="M1255.674-152.056c-139.8,0-253.541-113.643-253.541-253.331s113.737-253.331,253.541-253.331,253.543,113.643,253.543,253.331S1395.477-152.056,1255.674-152.056Zm0-502.529c-137.523,0-249.405,111.79-249.405,249.2s111.882,249.2,249.405,249.2,249.407-111.792,249.407-249.2S1393.2-654.585,1255.674-654.585Z" transform="translate(-1002.133 658.717)" fill="#241F20"/>
        </g>
        <g id="Group_104" data-name="Group 104" transform="translate(293.971 293.727)">
          <path id="Path_200" data-name="Path 200" d="M1249.556-171.52c-132.434,0-240.179-107.656-240.179-239.98s107.744-239.979,240.179-239.979S1489.736-543.825,1489.736-411.5,1381.992-171.52,1249.556-171.52Zm0-475.827c-130.154,0-236.043,105.8-236.043,235.848S1119.4-175.652,1249.556-175.652,1485.6-281.454,1485.6-411.5,1379.712-647.347,1249.556-647.347Z" transform="translate(-1009.377 651.479)" fill="#241F20"/>
        </g>
        <g id="Group_105" data-name="Group 105" transform="translate(307.333 307.078)">
          <path id="Path_201" data-name="Path 201" d="M1243.438-190.984c-125.067,0-226.817-101.665-226.817-226.628s101.75-226.628,226.817-226.628,226.816,101.665,226.816,226.628S1368.5-190.984,1243.438-190.984Zm0-449.125c-122.787,0-222.681,99.811-222.681,222.5s99.894,222.5,222.681,222.5,222.683-99.813,222.683-222.5S1366.225-640.109,1243.438-640.109Z" transform="translate(-1016.621 644.241)" fill="#241F20"/>
        </g>
        <g id="Group_106" data-name="Group 106" transform="translate(320.695 320.429)">
          <path id="Path_202" data-name="Path 202" d="M1237.319-210.449c-117.7,0-213.454-95.677-213.454-213.277S1119.621-637,1237.319-637s213.454,95.675,213.454,213.277S1355.019-210.449,1237.319-210.449Zm0-422.422C1121.9-632.871,1028-539.05,1028-423.726s93.9,209.145,209.319,209.145S1446.64-308.4,1446.64-423.726,1352.739-632.871,1237.319-632.871Z" transform="translate(-1023.865 637.003)" fill="#241F20"/>
        </g>
        <g id="Group_107" data-name="Group 107" transform="translate(334.057 333.781)">
          <path id="Path_203" data-name="Path 203" d="M1231.2-229.915c-110.331,0-200.092-89.686-200.092-199.924S1120.87-629.765,1231.2-629.765s200.092,89.686,200.092,199.926S1341.531-229.915,1231.2-229.915Zm0-395.718c-108.051,0-195.957,87.832-195.957,195.794S1123.15-234.045,1231.2-234.045s195.956-87.834,195.956-195.794S1339.251-625.633,1231.2-625.633Z" transform="translate(-1031.109 629.765)" fill="#241F20"/>
        </g>
        <g id="Group_108" data-name="Group 108" transform="translate(347.42 347.132)">
          <path id="Path_204" data-name="Path 204" d="M1225.083-249.377c-102.963,0-186.73-83.7-186.73-186.575s83.766-186.575,186.73-186.575,186.73,83.7,186.73,186.575S1328.046-249.377,1225.083-249.377Zm0-369.018c-100.683,0-182.594,81.843-182.594,182.443s81.911,182.443,182.594,182.443,182.594-81.844,182.594-182.443S1325.766-618.4,1225.083-618.4Z" transform="translate(-1038.353 622.527)" fill="#241F20"/>
        </g>
        <g id="Group_109" data-name="Group 109" transform="translate(360.782 360.483)">
          <path id="Path_205" data-name="Path 205" d="M1218.964-268.843c-95.594,0-173.367-77.707-173.367-173.222s77.773-173.224,173.367-173.224,173.368,77.707,173.368,173.224S1314.561-268.843,1218.964-268.843Zm0-342.314c-93.314,0-169.232,75.853-169.232,169.092s75.918,169.092,169.232,169.092S1388.2-348.829,1388.2-442.065,1312.281-611.157,1218.964-611.157Z" transform="translate(-1045.597 615.289)" fill="#241F20"/>
        </g>
        <g id="Group_110" data-name="Group 110" transform="translate(374.144 373.834)">
          <path id="Path_206" data-name="Path 206" d="M1212.846-288.308c-88.227,0-160.005-71.718-160.005-159.871s71.779-159.873,160.005-159.873,160.006,71.718,160.006,159.873S1301.073-288.308,1212.846-288.308Zm0-315.611c-85.947,0-155.869,69.866-155.869,155.741S1126.9-292.44,1212.846-292.44s155.87-69.864,155.87-155.739S1298.793-603.919,1212.846-603.919Z" transform="translate(-1052.841 608.051)" fill="#241F20"/>
        </g>
        <g id="Group_111" data-name="Group 111" transform="translate(387.506 387.185)">
          <path id="Path_207" data-name="Path 207" d="M1206.728-307.772c-80.859,0-146.643-65.728-146.643-146.52s65.784-146.521,146.643-146.521,146.643,65.728,146.643,146.521S1287.588-307.772,1206.728-307.772Zm0-288.909c-78.578,0-142.507,63.874-142.507,142.39S1128.15-311.9,1206.728-311.9s142.508-63.876,142.508-142.389S1285.308-596.681,1206.728-596.681Z" transform="translate(-1060.085 600.813)" fill="#241F20"/>
        </g>
        <g id="Group_112" data-name="Group 112" transform="translate(400.868 400.536)">
          <path id="Path_208" data-name="Path 208" d="M1200.61-327.236c-73.49,0-133.281-59.739-133.281-133.168s59.791-133.17,133.281-133.17,133.281,59.741,133.281,133.17S1274.1-327.236,1200.61-327.236Zm0-262.207c-71.21,0-129.145,57.887-129.145,129.038S1129.4-331.368,1200.61-331.368s129.146-57.885,129.146-129.036S1271.82-589.443,1200.61-589.443Z" transform="translate(-1067.329 593.575)" fill="#241F20"/>
        </g>
        <g id="Group_113" data-name="Group 113" transform="translate(414.231 413.888)">
          <path id="Path_209" data-name="Path 209" d="M1194.491-346.7c-66.123,0-119.918-53.75-119.918-119.817s53.8-119.819,119.918-119.819,119.919,53.751,119.919,119.819S1260.615-346.7,1194.491-346.7Zm0-235.5c-63.843,0-115.783,51.9-115.783,115.687s51.94,115.685,115.783,115.685,115.783-51.9,115.783-115.685S1258.335-582.205,1194.491-582.205Z" transform="translate(-1074.573 586.337)" fill="#241F20"/>
        </g>
        <g id="Group_114" data-name="Group 114" transform="translate(427.595 427.239)">
          <path id="Path_210" data-name="Path 210" d="M1188.373-366.165a106.63,106.63,0,0,1-106.555-106.466A106.632,106.632,0,0,1,1188.373-579.1a106.633,106.633,0,0,1,106.557,106.468A106.632,106.632,0,0,1,1188.373-366.165Zm0-208.8a102.5,102.5,0,0,0-102.421,102.336A102.494,102.494,0,0,0,1188.373-370.3a102.493,102.493,0,0,0,102.421-102.334A102.494,102.494,0,0,0,1188.373-574.967Z" transform="translate(-1081.818 579.099)" fill="#241F20"/>
        </g>
        <g id="Group_115" data-name="Group 115" transform="translate(440.957 440.59)">
          <path id="Path_211" data-name="Path 211" d="M1182.254-385.629a93.259,93.259,0,0,1-93.192-93.115,93.26,93.26,0,0,1,93.192-93.117,93.262,93.262,0,0,1,93.195,93.117A93.261,93.261,0,0,1,1182.254-385.629Zm0-182.1a89.123,89.123,0,0,0-89.059,88.985,89.122,89.122,0,0,0,89.059,88.983,89.121,89.121,0,0,0,89.059-88.983A89.123,89.123,0,0,0,1182.254-567.729Z" transform="translate(-1089.062 571.861)" fill="#241F20"/>
        </g>
        <g id="Group_116" data-name="Group 116" transform="translate(454.319 453.941)">
          <path id="Path_212" data-name="Path 212" d="M1176.136-405.094a79.886,79.886,0,0,1-79.83-79.764,79.888,79.888,0,0,1,79.83-79.766,79.89,79.89,0,0,1,79.832,79.766A79.888,79.888,0,0,1,1176.136-405.094Zm0-155.4a75.749,75.749,0,0,0-75.695,75.634,75.748,75.748,0,0,0,75.695,75.632,75.749,75.749,0,0,0,75.7-75.632A75.751,75.751,0,0,0,1176.136-560.491Z" transform="translate(-1096.306 564.623)" fill="#241F20"/>
        </g>
        <g id="Group_117" data-name="Group 117" transform="translate(467.681 467.292)">
          <path id="Path_213" data-name="Path 213" d="M1170.018-424.558a66.515,66.515,0,0,1-66.468-66.413,66.517,66.517,0,0,1,66.468-66.415,66.519,66.519,0,0,1,66.47,66.415A66.517,66.517,0,0,1,1170.018-424.558Zm0-128.7a62.378,62.378,0,0,0-62.332,62.283,62.376,62.376,0,0,0,62.332,62.281,62.378,62.378,0,0,0,62.334-62.281A62.38,62.38,0,0,0,1170.018-553.253Z" transform="translate(-1103.55 557.385)" fill="#241F20"/>
        </g>
        <g id="Group_118" data-name="Group 118" transform="translate(481.043 480.643)">
          <path id="Path_214" data-name="Path 214" d="M1163.9-444.022a53.143,53.143,0,0,1-53.106-53.061,53.145,53.145,0,0,1,53.106-53.063,53.146,53.146,0,0,1,53.108,53.063A53.145,53.145,0,0,1,1163.9-444.022Zm0-101.993a49.007,49.007,0,0,0-48.972,48.931,49.006,49.006,0,0,0,48.972,48.93,49.006,49.006,0,0,0,48.972-48.93A49.008,49.008,0,0,0,1163.9-546.015Z" transform="translate(-1110.794 550.147)" fill="#241F20"/>
        </g>
      </g>
    </g>
    <line id="Line_38" data-name="Line 38" x2="763.807" transform="translate(0.776 1050.331)" fill="none" stroke="#241F20" strokeWidth="2"/>
    <line id="Line_39" data-name="Line 39" x2="763.807" transform="translate(0.776 1225.98)" fill="none" stroke="#241F20" strokeWidth="2"/>
  </g>
</svg>
