<svg xmlns="http://www.w3.org/2000/svg" xmlns:xlink="http://www.w3.org/1999/xlink" width="1920" height="203.538" viewBox="0 0 1920 203.538">
  <defs>
    <clipPath id="clipPath">
      <rect id="Rectangle_36" data-name="Rectangle 36" width="1920" height="203" transform="translate(-522.75 -0.462)" fill="#fff" stroke="#707070" strokeWidth="1"/>
    </clipPath>
  </defs>
  <g id="textura_division_contacto_web" transform="translate(522.75 0.5)">
    <g id="Mask_Group_2" data-name="Mask Group 2" transform="translate(0 0)" clipPath="url(#clipPath)">
      <g id="Group_119" data-name="Group 119" transform="translate(-462.592 -798.256)">
        <g id="Group_82" data-name="Group 82">
          <path id="Path_178" data-name="Path 178" d="M1749.427,986.629c-240.242,0-466.109-93.478-635.985-263.214S850.008,328,850.008,87.958,943.563-377.763,1113.442-547.5s395.743-263.217,635.985-263.217,466.109,93.481,635.988,263.217S2648.85-152.088,2648.85,87.958s-93.559,465.721-263.435,635.457S1989.672,986.629,1749.427,986.629Zm0-1790.387c-238.384,0-462.5,92.754-631.062,261.179S856.972-150.228,856.972,87.958,949.8,550.073,1118.365,718.5s392.677,261.176,631.062,261.176,462.5-92.754,631.062-261.176,261.4-392.351,261.4-630.537-92.831-462.115-261.4-630.537S1987.812-803.759,1749.427-803.759Z" transform="translate(-850.008 810.716)" fill="#241F20"/>
        </g>
        <g id="Group_83" data-name="Group 83" transform="translate(22.5 22.481)">
          <path id="Path_179" data-name="Path 179" d="M1734.171,948.9c-234.231,0-454.446-91.139-620.076-256.629S857.252,306.754,857.252,72.715,948.468-381.356,1114.1-546.846s385.841-256.632,620.076-256.632,454.449,91.142,620.076,256.632,256.844,385.521,256.844,619.561-91.214,454.071-256.844,619.561S1968.407,948.9,1734.171,948.9Zm0-1745.425c-232.374,0-450.84,90.418-615.153,254.594s-254.8,382.459-254.8,614.641,90.49,450.465,254.8,614.641S1501.8,941.947,1734.171,941.947s450.84-90.415,615.153-254.592,254.806-382.462,254.806-614.641-90.493-450.465-254.806-614.641S1966.546-796.52,1734.171-796.52Z" transform="translate(-857.252 803.478)" fill="#241F20"/>
        </g>
        <g id="Group_84" data-name="Group 84" transform="translate(44.999 44.962)">
          <path id="Path_180" data-name="Path 180" d="M1718.916,911.18c-228.225,0-442.786-88.8-604.167-250.044S864.5,285.5,864.5,57.472s88.875-442.42,250.252-603.664S1490.691-796.24,1718.916-796.24s442.79,88.8,604.167,250.048,250.256,375.629,250.256,603.664-88.875,442.42-250.256,603.664S1947.141,911.18,1718.916,911.18Zm0-1700.463c-226.364,0-439.18,88.08-599.241,248.01S871.46-168.7,871.46,57.472s88.151,438.814,248.215,598.744,372.877,248.007,599.241,248.007,439.18-88.076,599.244-248.007,248.215-372.569,248.215-598.744-88.151-438.814-248.215-598.744S1945.28-789.283,1718.916-789.283Z" transform="translate(-864.496 796.24)" fill="#241F20"/>
        </g>
        <g id="Group_85" data-name="Group 85" transform="translate(67.499 67.443)">
          <path id="Path_181" data-name="Path 181" d="M1703.66,873.456c-222.215,0-431.127-86.464-588.255-243.46S871.74,264.257,871.74,42.229,958.273-388.541,1115.4-545.539,1481.445-789,1703.66-789s431.13,86.464,588.259,243.463S2535.58-179.8,2535.58,42.229,2449.048,473,2291.919,630,1925.875,873.456,1703.66,873.456Zm0-1655.5c-220.354,0-427.518,85.741-583.332,241.425S878.7-177.942,878.7,42.229s85.809,427.163,241.624,582.848S1483.306,866.5,1703.66,866.5s427.521-85.741,583.332-241.422S2528.62,262.4,2528.62,42.229s-85.809-427.163-241.627-582.848S1924.014-782.045,1703.66-782.045Z" transform="translate(-871.74 789.002)" fill="#241F20"/>
        </g>
        <g id="Group_86" data-name="Group 86" transform="translate(89.999 89.925)">
          <path id="Path_182" data-name="Path 182" d="M1688.4,835.732c-216.2,0-419.467-84.126-572.346-236.878S878.984,243.01,878.984,26.985s84.194-419.119,237.074-571.871S1472.2-781.764,1688.4-781.764s419.47,84.126,572.346,236.878,237.074,355.847,237.074,571.871S2413.63,446.1,2260.75,598.854,1904.609,835.732,1688.4,835.732Zm0-1610.538c-214.344,0-415.858,83.4-567.424,234.84S885.948-187.182,885.948,26.985,969.418,442.5,1120.98,593.937,1474.06,828.774,1688.4,828.774s415.861-83.4,567.423-234.837,235.033-352.787,235.033-566.951-83.47-415.513-235.033-566.951S1902.748-774.806,1688.4-774.806Z" transform="translate(-878.984 781.764)" fill="#241F20"/>
        </g>
        <g id="Group_87" data-name="Group 87" transform="translate(112.499 112.409)">
          <path id="Path_183" data-name="Path 183" d="M1673.149,798.006c-210.195,0-407.807-81.787-556.438-230.294S886.228,221.758,886.228,11.74s81.855-407.468,230.483-555.975,346.243-230.29,556.438-230.29,407.81,81.784,556.438,230.29S2460.072-198.28,2460.072,11.74s-81.855,407.468-230.486,555.972S1883.344,798.006,1673.149,798.006Zm0-1565.573c-208.334,0-404.2,81.06-551.512,228.253S893.192-196.42,893.192,11.74,974.32,415.6,1121.637,562.8s343.178,228.253,551.512,228.253,404.2-81.063,551.515-228.253S2453.108,219.9,2453.108,11.74s-81.131-403.862-228.445-551.055S1881.483-767.567,1673.149-767.567Z" transform="translate(-886.228 774.525)" fill="#241F20"/>
        </g>
        <g id="Group_88" data-name="Group 88" transform="translate(134.999 134.89)">
          <path id="Path_184" data-name="Path 184" d="M1657.893,760.281c-204.185,0-396.147-79.448-540.526-223.709S893.472,200.511,893.472-3.5s79.513-395.818,223.9-540.078,336.341-223.706,540.526-223.706,396.147,79.445,540.529,223.706S2422.313-207.517,2422.313-3.5,2342.8,392.315,2198.421,536.572,1862.077,760.281,1657.893,760.281Zm0-1520.614c-202.324,0-392.538,78.724-535.6,221.671S900.436-205.659,900.436-3.5s78.79,392.212,221.854,535.159,333.279,221.668,535.6,221.668S2050.433,674.6,2193.5,531.656s221.854-333,221.854-535.159S2336.563-395.715,2193.5-538.661,1860.217-760.333,1657.893-760.333Z" transform="translate(-893.472 767.287)" fill="#241F20"/>
        </g>
        <g id="Group_89" data-name="Group 89" transform="translate(157.498 157.371)">
          <path id="Path_185" data-name="Path 185" d="M1642.637,722.557c-409.1,0-741.921-332.549-741.921-741.3s332.825-741.3,741.921-741.3,741.921,332.546,741.921,741.3S2051.733,722.557,1642.637,722.557Zm0-1475.648c-405.257,0-734.957,329.424-734.957,734.345S1237.38,715.6,1642.637,715.6s734.958-329.427,734.958-734.346S2047.894-753.091,1642.637-753.091Z" transform="translate(-900.716 760.049)" fill="#241F20"/>
        </g>
        <g id="Group_90" data-name="Group 90" transform="translate(179.998 179.852)">
          <path id="Path_186" data-name="Path 186" d="M1627.381,684.833c-396.69,0-719.421-322.464-719.421-718.822s322.731-718.822,719.421-718.822,719.424,322.46,719.424,718.822S2024.071,684.833,1627.381,684.833Zm0-1430.689c-392.851,0-712.458,319.342-712.458,711.868s319.606,711.864,712.458,711.864,712.461-319.342,712.461-711.864S2020.233-745.857,1627.381-745.857Z" transform="translate(-907.96 752.811)" fill="#241F20"/>
        </g>
        <g id="Group_91" data-name="Group 91" transform="translate(202.498 202.333)">
          <path id="Path_187" data-name="Path 187" d="M1612.125,647.108C1227.843,647.108,915.2,334.73,915.2-49.232s312.64-696.341,696.922-696.341S2309.047-433.2,2309.047-49.232,1996.411,647.108,1612.125,647.108Zm0-1385.724c-380.443,0-689.958,309.254-689.958,689.383s309.515,689.383,689.958,689.383,689.961-309.257,689.961-689.383S1992.572-738.616,1612.125-738.616Z" transform="translate(-915.204 745.573)" fill="#241F20"/>
        </g>
        <g id="Group_92" data-name="Group 92" transform="translate(224.998 224.814)">
          <path id="Path_188" data-name="Path 188" d="M1596.87,609.384c-371.877,0-674.422-302.293-674.422-673.86s302.545-673.86,674.422-673.86,674.422,302.29,674.422,673.86S1968.746,609.384,1596.87,609.384Zm0-1340.762c-368.038,0-667.458,299.169-667.458,666.9s299.421,666.9,667.458,666.9,667.458-299.172,667.458-666.9S1964.908-731.377,1596.87-731.377Z" transform="translate(-922.448 738.335)" fill="#241F20"/>
        </g>
        <g id="Group_93" data-name="Group 93" transform="translate(247.501 247.296)">
          <path id="Path_189" data-name="Path 189" d="M1581.612,571.66c-359.468,0-651.919-292.208-651.919-651.378S1222.144-731.1,1581.612-731.1s651.922,292.205,651.922,651.378S1941.083,571.66,1581.612,571.66Zm0-1295.8c-355.629,0-644.958,289.087-644.958,644.421S1225.983,564.7,1581.612,564.7,2226.57,275.616,2226.57-79.719,1937.244-724.14,1581.612-724.14Z" transform="translate(-929.693 731.097)" fill="#241F20"/>
        </g>
        <g id="Group_94" data-name="Group 94" transform="translate(269.997 269.777)">
          <path id="Path_190" data-name="Path 190" d="M1566.358,533.936c-347.063,0-629.422-282.123-629.422-628.9s282.359-628.9,629.422-628.9,629.422,282.12,629.422,628.9S1913.424,533.936,1566.358,533.936Zm0-1250.837c-343.224,0-622.458,279-622.458,621.94s279.234,621.94,622.458,621.94,622.458-279,622.458-621.94S1909.585-716.9,1566.358-716.9Z" transform="translate(-936.936 723.859)" fill="#241F20"/>
        </g>
        <g id="Group_95" data-name="Group 95" transform="translate(292.497 292.258)">
          <path id="Path_191" data-name="Path 191" d="M1551.1,496.211c-334.658,0-606.922-272.038-606.922-606.416S1216.445-716.621,1551.1-716.621,2158.025-444.586,2158.025-110.2,1885.76,496.211,1551.1,496.211Zm0-1205.875c-330.819,0-599.959,268.916-599.959,599.459s269.14,599.459,599.959,599.459S2151.061,220.337,2151.061-110.2,1881.921-709.664,1551.1-709.664Z" transform="translate(-944.18 716.621)" fill="#241F20"/>
        </g>
        <g id="Group_96" data-name="Group 96" transform="translate(315 314.739)">
          <path id="Path_192" data-name="Path 192" d="M1535.844,458.487c-322.249,0-584.419-261.953-584.419-583.935s262.17-583.935,584.419-583.935,584.423,261.953,584.423,583.935S1858.1,458.487,1535.844,458.487Zm0-1160.912c-318.41,0-577.459,258.831-577.459,576.977S1217.434,451.53,1535.844,451.53,2113.3,192.7,2113.3-125.448,1854.258-702.425,1535.844-702.425Z" transform="translate(-951.425 709.383)" fill="#241F20"/>
        </g>
        <g id="Group_97" data-name="Group 97" transform="translate(337.5 337.22)">
          <path id="Path_193" data-name="Path 193" d="M1520.589,420.763c-309.844,0-561.92-251.868-561.92-561.454s252.076-561.454,561.92-561.454,561.923,251.868,561.923,561.454S1830.436,420.763,1520.589,420.763Zm0-1115.95c-306,0-554.959,248.746-554.959,554.5s248.954,554.5,554.959,554.5,554.959-248.746,554.959-554.5S1826.6-695.188,1520.589-695.188Z" transform="translate(-958.669 702.145)" fill="#241F20"/>
        </g>
        <g id="Group_98" data-name="Group 98" transform="translate(359.996 359.701)">
          <path id="Path_194" data-name="Path 194" d="M1505.335,383.038c-297.438,0-539.423-241.782-539.423-538.973S1207.9-694.907,1505.335-694.907s539.423,241.782,539.423,538.973S1802.774,383.038,1505.335,383.038Zm0-1070.988c-293.6,0-532.459,238.661-532.459,532.015s238.86,532.015,532.459,532.015,532.46-238.661,532.46-532.015S1798.934-687.95,1505.335-687.95Z" transform="translate(-965.912 694.907)" fill="#241F20"/>
        </g>
        <g id="Group_99" data-name="Group 99" transform="translate(382.499 382.182)">
          <path id="Path_195" data-name="Path 195" d="M1490.077,345.314c-285.03,0-516.92-231.7-516.92-516.492s231.89-516.492,516.92-516.492S2007-455.972,2007-171.177,1775.111,345.314,1490.077,345.314Zm0-1026.026c-281.191,0-509.956,228.576-509.956,509.534s228.765,509.534,509.956,509.534,509.96-228.576,509.96-509.534S1771.271-680.712,1490.077-680.712Z" transform="translate(-973.157 687.669)" fill="#241F20"/>
        </g>
        <g id="Group_100" data-name="Group 100" transform="translate(404.999 404.663)">
          <path id="Path_196" data-name="Path 196" d="M1474.821,307.59c-272.625,0-494.42-221.612-494.42-494.01s221.8-494.01,494.42-494.01,494.423,221.612,494.423,494.01S1747.446,307.59,1474.821,307.59Zm0-981.063c-268.786,0-487.457,218.491-487.457,487.053s218.671,487.053,487.457,487.053,487.46-218.491,487.46-487.053S1743.607-673.474,1474.821-673.474Z" transform="translate(-980.401 680.431)" fill="#241F20"/>
        </g>
        <g id="Group_101" data-name="Group 101" transform="translate(427.499 427.145)">
          <path id="Path_197" data-name="Path 197" d="M1459.566,269.866c-260.216,0-471.921-211.527-471.921-471.529s211.7-471.529,471.921-471.529,471.924,211.527,471.924,471.529S1719.785,269.866,1459.566,269.866Zm0-936.1c-256.377,0-464.957,208.406-464.957,464.572s208.579,464.572,464.957,464.572,464.96-208.405,464.96-464.572S1715.946-666.236,1459.566-666.236Z" transform="translate(-987.645 673.193)" fill="#241F20"/>
        </g>
        <g id="Group_102" data-name="Group 102" transform="translate(449.999 449.626)">
          <path id="Path_198" data-name="Path 198" d="M1444.31,232.141c-247.811,0-449.421-201.442-449.421-449.048S1196.5-665.955,1444.31-665.955s449.421,201.442,449.421,449.048S1692.121,232.141,1444.31,232.141Zm0-891.139c-243.972,0-442.457,198.32-442.457,442.091s198.485,442.091,442.457,442.091S1886.77,26.86,1886.77-216.907,1688.282-659,1444.31-659Z" transform="translate(-994.889 665.955)" fill="#241F20"/>
        </g>
        <g id="Group_103" data-name="Group 103" transform="translate(472.498 472.107)">
          <path id="Path_199" data-name="Path 199" d="M1429.054,194.417c-235.406,0-426.921-191.357-426.921-426.567s191.515-426.567,426.921-426.567S1855.978-467.36,1855.978-232.15,1664.46,194.417,1429.054,194.417Zm0-846.177c-231.567,0-419.958,188.235-419.958,419.61s188.391,419.61,419.958,419.61,419.96-188.238,419.96-419.61S1660.621-651.76,1429.054-651.76Z" transform="translate(-1002.133 658.717)" fill="#241F20"/>
        </g>
        <g id="Group_104" data-name="Group 104" transform="translate(494.998 494.588)">
          <path id="Path_200" data-name="Path 200" d="M1413.8,156.693c-223,0-404.421-181.275-404.421-404.086S1190.8-651.479,1413.8-651.479s404.424,181.272,404.424,404.086S1636.8,156.693,1413.8,156.693Zm0-801.214c-219.158,0-397.458,178.15-397.458,397.128s178.3,397.128,397.458,397.128,397.461-178.153,397.461-397.128S1632.96-644.522,1413.8-644.522Z" transform="translate(-1009.377 651.479)" fill="#241F20"/>
        </g>
        <g id="Group_105" data-name="Group 105" transform="translate(517.498 517.069)">
          <path id="Path_201" data-name="Path 201" d="M1398.543,118.968c-210.592,0-381.922-171.186-381.922-381.6s171.33-381.6,381.922-381.6,381.922,171.187,381.922,381.6S1609.135,118.968,1398.543,118.968Zm0-756.252c-206.754,0-374.958,168.065-374.958,374.647s168.2,374.647,374.958,374.647S1773.5-56.057,1773.5-262.636,1605.3-637.283,1398.543-637.283Z" transform="translate(-1016.621 644.241)" fill="#241F20"/>
        </g>
        <g id="Group_106" data-name="Group 106" transform="translate(539.998 539.55)">
          <path id="Path_202" data-name="Path 202" d="M1383.287,81.244c-198.184,0-359.422-161.1-359.422-359.124S1185.1-637,1383.287-637s359.422,161.1,359.422,359.124S1581.473,81.244,1383.287,81.244Zm0-711.29c-194.345,0-352.458,157.98-352.458,352.166S1188.942,74.287,1383.287,74.287,1735.748-83.7,1735.748-277.879,1577.635-630.045,1383.287-630.045Z" transform="translate(-1023.865 637.003)" fill="#241F20"/>
        </g>
        <g id="Group_107" data-name="Group 107" transform="translate(562.497 562.031)">
          <path id="Path_203" data-name="Path 203" d="M1368.031,43.517c-185.778,0-336.922-151.016-336.922-336.639s151.144-336.642,336.922-336.642,336.922,151.016,336.922,336.642S1553.809,43.517,1368.031,43.517Zm0-666.324c-181.94,0-329.959,147.895-329.959,329.685S1186.091,36.563,1368.031,36.563s329.958-147.9,329.958-329.685S1549.97-622.808,1368.031-622.808Z" transform="translate(-1031.109 629.765)" fill="#241F20"/>
        </g>
        <g id="Group_108" data-name="Group 108" transform="translate(584.997 584.513)">
          <path id="Path_204" data-name="Path 204" d="M1352.775,5.8c-173.373,0-314.422-140.934-314.422-314.161S1179.4-622.527,1352.775-622.527,1667.2-481.6,1667.2-308.366,1526.148,5.8,1352.775,5.8Zm0-621.365c-169.534,0-307.459,137.809-307.459,307.2s137.925,307.2,307.459,307.2,307.458-137.813,307.458-307.2S1522.309-615.57,1352.775-615.57Z" transform="translate(-1038.353 622.527)" fill="#241F20"/>
        </g>
        <g id="Group_109" data-name="Group 109" transform="translate(607.497 606.994)">
          <path id="Path_205" data-name="Path 205" d="M1337.519-31.932c-160.965,0-291.922-130.846-291.922-291.677s130.958-291.68,291.922-291.68,291.923,130.846,291.923,291.68S1498.487-31.932,1337.519-31.932Zm0-576.4c-157.126,0-284.959,127.724-284.959,284.723S1180.393-38.886,1337.519-38.886s284.959-127.728,284.959-284.723S1494.648-608.332,1337.519-608.332Z" transform="translate(-1045.597 615.289)" fill="#241F20"/>
        </g>
        <g id="Group_110" data-name="Group 110" transform="translate(629.997 629.475)">
          <path id="Path_206" data-name="Path 206" d="M1322.264-69.656c-148.559,0-269.423-120.761-269.423-269.2s120.864-269.2,269.423-269.2,269.423,120.761,269.423,269.2S1470.823-69.656,1322.264-69.656Zm0-531.438c-144.721,0-262.459,117.642-262.459,262.242S1177.543-76.613,1322.264-76.613s262.459-117.639,262.459-262.238S1466.984-601.093,1322.264-601.093Z" transform="translate(-1052.841 608.051)" fill="#241F20"/>
        </g>
        <g id="Group_111" data-name="Group 111" transform="translate(652.496 651.956)">
          <path id="Path_207" data-name="Path 207" d="M1307.008-107.38c-136.154,0-246.923-110.676-246.923-246.715s110.769-246.718,246.923-246.718S1553.931-490.137,1553.931-354.1,1443.162-107.38,1307.008-107.38Zm0-486.475c-132.312,0-239.959,107.554-239.959,239.76s107.647,239.76,239.959,239.76,239.959-107.557,239.959-239.76S1439.323-593.856,1307.008-593.856Z" transform="translate(-1060.085 600.813)" fill="#241F20"/>
        </g>
        <g id="Group_112" data-name="Group 112" transform="translate(674.996 674.437)">
          <path id="Path_208" data-name="Path 208" d="M1291.752-145.1c-123.745,0-224.423-100.591-224.423-224.234s100.678-224.237,224.423-224.237,224.423,100.594,224.423,224.237S1415.5-145.1,1291.752-145.1Zm0-441.513c-119.907,0-217.459,97.472-217.459,217.279s97.552,217.276,217.459,217.276,217.46-97.469,217.46-217.276S1411.658-586.618,1291.752-586.618Z" transform="translate(-1067.329 593.575)" fill="#241F20"/>
        </g>
        <g id="Group_113" data-name="Group 113" transform="translate(697.496 696.918)">
          <path id="Path_209" data-name="Path 209" d="M1276.5-182.829c-111.34,0-201.923-90.505-201.923-201.753s90.583-201.756,201.923-201.756,201.923,90.508,201.923,201.756S1387.837-182.829,1276.5-182.829Zm0-396.551c-107.5,0-194.96,87.387-194.96,194.8s87.458,194.8,194.96,194.8,194.96-87.384,194.96-194.8S1384-579.38,1276.5-579.38Z" transform="translate(-1074.573 586.337)" fill="#241F20"/>
        </g>
        <g id="Group_114" data-name="Group 114" transform="translate(719.999 719.4)">
          <path id="Path_210" data-name="Path 210" d="M1261.239-220.553c-98.935,0-179.421-80.42-179.421-179.271S1162.3-579.1,1261.239-579.1s179.423,80.423,179.423,179.274S1360.174-220.553,1261.239-220.553Zm0-351.589c-95.093,0-172.46,77.3-172.46,172.317s77.367,172.314,172.46,172.314,172.46-77.3,172.46-172.314S1356.335-572.142,1261.239-572.142Z" transform="translate(-1081.818 579.099)" fill="#241F20"/>
        </g>
        <g id="Group_115" data-name="Group 115" transform="translate(742.499 741.881)">
          <path id="Path_211" data-name="Path 211" d="M1245.983-258.277c-86.527,0-156.921-70.335-156.921-156.79s70.394-156.793,156.921-156.793,156.924,70.338,156.924,156.793S1332.509-258.277,1245.983-258.277Zm0-306.626c-82.687,0-149.96,67.217-149.96,149.836s67.273,149.833,149.96,149.833,149.96-67.214,149.96-149.833S1328.671-564.9,1245.983-564.9Z" transform="translate(-1089.062 571.861)" fill="#241F20"/>
        </g>
        <g id="Group_116" data-name="Group 116" transform="translate(764.999 764.362)">
          <path id="Path_212" data-name="Path 212" d="M1230.727-296c-74.121,0-134.421-60.25-134.421-134.309s60.3-134.312,134.421-134.312,134.424,60.253,134.424,134.312S1304.848-296,1230.727-296Zm0-261.664c-70.282,0-127.458,57.131-127.458,127.355s57.175,127.352,127.458,127.352,127.46-57.129,127.46-127.352S1301.009-557.665,1230.727-557.665Z" transform="translate(-1096.306 564.623)" fill="#241F20"/>
        </g>
        <g id="Group_117" data-name="Group 117" transform="translate(787.498 786.843)">
          <path id="Path_213" data-name="Path 213" d="M1215.471-333.726c-61.713,0-111.921-50.165-111.921-111.828s50.208-111.831,111.921-111.831S1327.4-507.217,1327.4-445.554,1277.184-333.726,1215.471-333.726Zm0-216.7a105.035,105.035,0,0,0-104.958,104.874,105.032,105.032,0,0,0,104.958,104.871,105.034,105.034,0,0,0,104.961-104.871A105.037,105.037,0,0,0,1215.471-550.428Z" transform="translate(-1103.55 557.385)" fill="#241F20"/>
        </g>
        <g id="Group_118" data-name="Group 118" transform="translate(809.998 809.324)">
          <path id="Path_214" data-name="Path 214" d="M1200.215-371.45a89.485,89.485,0,0,1-89.422-89.347,89.487,89.487,0,0,1,89.422-89.35,89.489,89.489,0,0,1,89.425,89.35A89.487,89.487,0,0,1,1200.215-371.45Zm0-171.739a82.52,82.52,0,0,0-82.461,82.392,82.518,82.518,0,0,0,82.461,82.389,82.518,82.518,0,0,0,82.461-82.389A82.521,82.521,0,0,0,1200.215-543.19Z" transform="translate(-1110.794 550.147)" fill="#241F20"/>
        </g>
        <g id="Group_144" data-name="Group 144" transform="translate(0 -23.193)">
          <path id="Path_178-2" data-name="Path 178" d="M1761.033,1009.822c-243.342,0-472.124-94.684-644.192-266.61S850.008,342.7,850.008,99.554,944.771-372.176,1116.842-544.1s400.85-266.613,644.192-266.613,472.124,94.687,644.195,266.613,266.834,400.513,266.834,643.657S2577.3,571.285,2405.228,743.211,2004.379,1009.822,1761.033,1009.822Zm0-1813.491c-241.461,0-468.468,93.951-639.205,264.55S857.061-141.7,857.061,99.554s94.027,468.078,264.767,638.674,397.745,264.546,639.205,264.546,468.468-93.951,639.206-264.546,264.769-397.414,264.769-638.674-94.029-468.078-264.769-638.674S2002.494-803.669,1761.033-803.669Z" transform="translate(-850.008 810.716)" fill="#241F20"/>
        </g>
        <g id="Group_145" data-name="Group 145" transform="translate(-24.414 -42.991)">
          <path id="Path_178-3" data-name="Path 178" d="M1783.148,1029.62c-249.249,0-483.585-95.714-659.829-269.51S850.008,355.238,850.008,109.454,947.071-367.407,1123.319-541.2s410.58-269.513,659.829-269.513S2266.732-715,2442.979-541.2s273.311,404.869,273.311,650.657-97.067,476.861-273.311,650.657S2032.4,1029.62,1783.148,1029.62Zm0-1833.212c-247.322,0-479.84,94.973-654.721,267.427S857.233-134.429,857.233,109.454s96.309,473.169,271.194,645.619,407.4,267.423,654.721,267.423,479.84-94.973,654.721-267.423,271.2-401.736,271.2-645.619-96.312-473.169-271.2-645.619S2030.47-803.592,1783.148-803.592Z" transform="translate(-850.008 810.716)" fill="#241F20"/>
        </g>
        <g id="Group_146" data-name="Group 146" transform="translate(-44.304 -42.991)">
          <path id="Path_178-4" data-name="Path 178" d="M1814.069,1029.62c-257.508,0-499.609-95.714-681.694-269.51S850.008,355.238,850.008,109.454,950.287-367.407,1132.375-541.2s424.185-269.513,681.694-269.513S2313.677-715,2495.765-541.2s282.368,404.869,282.368,650.657S2677.85,586.315,2495.765,760.11,2071.58,1029.62,1814.069,1029.62Zm0-1833.212c-255.517,0-495.74,94.973-676.416,267.427S857.472-134.429,857.472,109.454s99.5,473.169,280.181,645.619,420.9,267.423,676.416,267.423,495.74-94.973,676.416-267.423,280.183-401.736,280.183-645.619-99.5-473.169-280.183-645.619S2069.586-803.592,1814.069-803.592Z" transform="translate(-850.008 810.716)" fill="#241F20"/>
        </g>
      </g>
    </g>
    <line id="Line_38" data-name="Line 38" x2="873.445" transform="translate(1.055 0)" fill="none" stroke="#241F20" strokeWidth="1"/>
    <line id="Line_39" data-name="Line 39" x2="873.445" transform="translate(1.055 202.538)" fill="none" stroke="#241F20" strokeWidth="1"/>
  </g>
</svg>
